<?xml version="1.0" encoding="utf-8"?>
<!-- Generator: Adobe Illustrator 23.0.1, SVG Export Plug-In . SVG Version: 6.00 Build 0)  -->
<svg version="1.1" xmlns="http://www.w3.org/2000/svg" xmlns:xlink="http://www.w3.org/1999/xlink" x="0px" y="0px"
	 viewBox="0 0 1000 1000" enable-background="new 0 0 1000 1000" xml:space="preserve">
<g id="Layer_2">
	<path fill="#FF6969" d="M173.3,646.9c-18.7-24.5-12.9-71.6,10.2-96.4c4.3-4.7,8.6-7.8,12.9-10c27.1-13.9,50.9-17.9,59.1-18.8
		c50.1-5.6,114.2-76.1,103.6-114.7c-7-25.5-41.6-18.7-67-60c-5.1-8.3-22.8-37.1-13-68c9-28.5,36-41.6,41.9-44.4
		c52.4-25.4,114.2,9.6,124.3,14.1c62.8,27.8,68.7,83.3,106.4,80.6c26.7-1.9,44.7-28.1,51-37.2c27.2-39.4-11.5-74.1,1.6-141.3
		c3-15.2,12.6-64.2,50.4-88.3c49.7-31.6,111.8,2.7,119.3,6.9c64.9,37.1,78.7,116.1,83.2,142.1c1.9,11,15.2,94-28.4,172.4
		C805.7,424.9,793,418.5,737,498c-33,46.9-44,71-48,99.3c-4.3,30.9,1,58.6,4.1,75.1c10.4,54.2,27,59.3,24.6,86.6
		c-3.5,41.5-46.5,85.5-87.8,88.1c-35.2,2.3-40.9-27.3-94.4-38.4c-17.6-3.6-61.7-12.8-94.5,10.5c-40.5,28.8-25.5,79.7-58.3,107.4
		c-38.7,32.7-114.9,30.4-147.6-13.2c-23.1-30.8-16-70.5-15.6-72.5c8.2-42.3,44.1-63.7,47-65.4c19.1-11,28.6-6.3,35.9-17.1
		c12.6-18.7,1.7-59.1-22.2-75.6c-17.1-11.8-27.4-1.9-64.7-13.8C194.4,662.3,182.1,658.4,173.3,646.9z"/>
</g>
<g id="Layer_1">
	<g>
		<g>
			<path fill="#242424" d="M653.5,287.1l-3.7,546.6c0,3.1-0.4,6.2-1,9.2c-0.3,1.5-0.7,2.9-1.1,4.3c-0.2,0.7-0.5,1.4-0.7,2.1
				c-1.5,4.2-3.7,8-6.3,11.5c-1.3,1.7-2.8,3.4-4.3,4.9c-1.5,1.5-3.2,2.9-5,4.2c-1.2,0.9-2.4,1.7-3.6,2.4l0,0
				c-1.2,0.8-2.5,1.4-3.8,2.1l0,0c-2,0.9-4.1,1.7-6.2,2.4l0,0c-1.4,0.4-2.9,0.8-4.3,1.1c-3,0.6-6.1,0.9-9.2,0.9l-224.2-1.5
				c-3.3,0-6.5-0.4-9.7-1.1c-0.5-0.1-1-0.2-1.5-0.4c-0.6-0.1-1.1-0.3-1.7-0.5c-2.4-0.7-4.6-1.6-6.8-2.7c-1.1-0.5-2.1-1.1-3.2-1.7
				c-0.5-0.3-1-0.6-1.4-0.9c-1-0.6-1.9-1.3-2.9-2c-2.9-2.2-5.5-4.7-7.8-7.6c-0.9-1.1-1.8-2.3-2.6-3.5c-1.2-1.8-2.3-3.7-3.2-5.7
				c-1.3-2.7-2.3-5.4-3-8.3l0,0c-0.9-3.6-1.4-7.4-1.4-11.3l3.7-546.6c0.2-25.1,20.6-45.3,45.7-45.1l224.2,1.5
				C633.4,241.6,653.6,262.1,653.5,287.1z"/>
			<path fill="#4F5056" d="M644.5,287l-3.7,546.6c0,2.4-0.3,4.8-0.8,7.2c-0.2,1.1-0.5,2.1-0.9,3.3l-0.7,1.9c-1.1,3-2.8,6-4.9,8.8
				c-1,1.4-2.2,2.7-3.4,3.8c-1.1,1.1-2.5,2.3-3.9,3.3c-0.7,0.5-1.5,1-2.4,1.6l-0.4,0.2c-0.8,0.5-1.6,0.9-2.4,1.3l-0.6,0.3
				c-1.4,0.7-2.8,1.2-4.3,1.7l-0.5,0.2c-1.2,0.4-2.3,0.6-3.4,0.9c-2.4,0.4-4.8,0.7-7.2,0.6l-224.2-1.5c-2.5,0-5.1-0.3-7.5-0.8
				c-0.8-0.2-1.7-0.4-2.5-0.6c-1.8-0.6-3.6-1.3-5.4-2.1c-0.8-0.4-1.7-0.9-2.4-1.3c-0.4-0.2-0.7-0.4-1-0.6l-0.2-0.1
				c-0.6-0.4-1.3-0.9-2.2-1.5c-2.2-1.7-4.3-3.7-6.1-5.9c-0.8-0.9-1.4-1.8-2-2.7c-1-1.5-1.8-3-2.5-4.5c-0.9-1.9-1.7-3.9-2.2-6
				l-0.1-0.5c-0.7-2.9-1.1-5.9-1.1-8.9l3.7-546.6c0.1-19.5,16.2-35.3,35.7-35.2l224.2,1.5c14.9,0.1,27.6,9.5,32.8,22.6
				C643.6,278,644.5,282.4,644.5,287z"/>
			<path opacity="0.2" fill="#242424" d="M649.8,682.2c0.3-2,0.6-4.4,1-7.2l-0.3,43.1c-2.3-6.8-3.8-11.8-4.1-13.7
				C645.8,699.9,647.7,690.4,649.8,682.2z"/>
			<path fill="#242424" d="M652.5,425.5L652.5,425.5L653,361l0,0c5,0,9.1,4.1,9,9.2l-0.3,46.3C661.6,421.5,657.5,425.6,652.5,425.5z
				"/>
			<path fill="#242424" d="M335.5,391.1l6.8,0l0.2-32.3l-6.8,0c-1.3,0-2.4,1-2.4,2.3l-0.2,27.6C333.1,390,334.2,391.1,335.5,391.1z"
				/>
			<path fill="#242424" d="M335.2,430l6.8,0l0.2-32.3l-6.8,0c-1.3,0-2.4,1-2.4,2.3l-0.2,27.6C332.9,428.9,333.9,430,335.2,430z"/>
			<path fill="#242424" d="M529.5,264.5l-66.7-0.5c-11.2-0.1-20.2-9.2-20.2-20.4l0,0l107.3,0.7l0,0
				C549.8,255.5,540.7,264.6,529.5,264.5z"/>
		</g>
	</g>
	<g opacity="0.6">
		<image overflow="visible" width="130" height="691" xlink:href="87220A06.png"  transform="matrix(1 0 0 1 307 213)">
		</image>
	</g>
	<path fill="#BABABA" d="M401,251l-17.9-0.1c-19.5-0.1-35.6,15.7-35.7,35.2l-3.7,546.6c0,3,0.3,6,1.1,8.9l0.1,0.5
		c0.5,2.1,1.3,4,2.2,6c0.7,1.5,1.6,3,2.5,4.5c0.6,0.9,1.2,1.8,2,2.7c1.8,2.2,3.9,4.2,6.1,5.9c0.9,0.6,1.5,1.1,2.2,1.5l0.2,0.1
		c0.3,0.2,0.6,0.4,1,0.6c0.7,0.4,1.6,0.9,2.4,1.3c1.8,0.9,3.5,1.6,5.4,2.1c0.8,0.2,1.6,0.5,2.5,0.6c2.5,0.6,5,0.8,7.5,0.8l22.2,0.2
		V251z"/>
	<rect x="346" y="429" fill="#4F5056" width="85" height="64"/>
	<g>
		
			<ellipse transform="matrix(0.1471 -0.9891 0.9891 0.1471 -7.7579 652.9402)" fill="#FF6969" cx="374.7" cy="331" rx="20.3" ry="20.3"/>
		<path fill="#6F2323" d="M390.1,340c-1.3-1.7-9.3-4.3-9.7-4.6c-0.4-0.3-1.5-1.8-1.5-1.8h-0.1V332c0.5-0.6,0.9-1.2,1.1-1.7
			c0.2-0.3,0.3-1,0.4-1.9c1.3-0.6,1.5-2.7,1.5-3.9c0-0.5-0.2-0.6-0.4-0.6c0.4-1.3,0.8-3,0.6-4.4c0-0.2,0.1-0.5,0.1-0.7
			c0.2,0,0.5,0.1,0.7,0.1c-0.6-1.5-1.6-2.8-2.9-3.8c0.2-0.1,0.5-0.1,0.7-0.2c-1.4-0.5-2.9-0.8-4.3-1c0.2-0.1,0.4-0.3,0.6-0.4
			c-0.8,0-1.7,0.2-2.4,0.5c-0.8-0.3-1.6-0.5-2.4-0.5c0.2,0.1,0.4,0.3,0.6,0.4c-1.5,0.2-2.9,0.6-4.3,1c0.2,0.1,0.5,0.1,0.7,0.2
			c-1.3,1-2.3,2.3-2.9,3.8c0.2,0,0.5-0.1,0.7-0.1c0,0.2,0.1,0.5,0.1,0.7c-0.1,1.4,0.2,3.1,0.6,4.4c-0.2,0-0.4,0.1-0.4,0.6
			c0.1,1.2,0.2,3.3,1.5,3.9c0.1,0.9,0.3,1.6,0.4,1.9c0.2,0.5,0.6,1.1,1.1,1.7v1.7h-0.1c0,0-1.1,1.5-1.5,1.8
			c-0.4,0.3-8.4,2.8-9.7,4.6c-0.5,0.6-0.9,1.5-1.2,2.6c3.7,5.2,9.7,8.7,16.6,8.7s13-3.4,16.6-8.7C391,341.6,390.6,340.7,390.1,340z"
			/>
	</g>
	<g>
		<circle fill="#7A65D2" cx="374.7" cy="394.6" r="20.2"/>
		<path fill="#342A5F" d="M389.3,404.4c-0.9-1.2-5.4-2.9-7.8-3.8c-0.8-0.3-1.2-0.5-1.4-0.6c-0.3-0.3-1.4-1.7-1.4-1.7h0h-0.1v-1.3
			c0.7-0.8,1.3-1.7,1.6-2.4c0.2-0.5,0.5-2.1,0.5-2.1c1.4-0.6,1.6-2.9,1.7-4.2c0-0.6-0.3-0.7-0.6-0.5c0-0.1,0-0.2,0-0.3
			c0.5-1.3,0.9-2.6,0.9-4c0-2.1-0.8-4.4-2.6-5.5c-1.7-1-3.8-1-5.8-0.8c-1.1,0.1-2.2,0.1-3.2,0.6c-1,0.5-1.7,1.5-1.6,2.7
			c-0.5-0.6-1.5-0.5-2,0.1c-0.5,0.5-0.7,1.3-0.8,2c-0.2,1.2-0.2,2.5,0.2,3.7c0.2,0.6,0.5,1.1,0.8,1.6c-0.3-0.1-0.6-0.1-0.6,0.6
			c0.1,1.3,0.2,3.5,1.6,4.2c0.1,1,0.3,1.7,0.4,2.1c0.3,0.7,0.9,1.6,1.6,2.4v1.3h-0.1h0c0,0-1.1,1.4-1.4,1.7c0,0-0.2,0.1-0.4,0.2
			c-0.3,0.1-0.6,0.2-1,0.4c-2.4,0.9-6.8,2.5-7.8,3.7c-0.5,0.7-0.9,1.6-1.2,2.7c3.7,4.7,9.4,7.7,15.8,7.7c6.4,0,12.1-3,15.8-7.7
			C390.2,406,389.8,405.1,389.3,404.4z"/>
	</g>
	<g>
		<circle fill="#00CF76" cx="374.4" cy="458.3" r="20.4"/>
		<path fill="#006939" d="M374.4,478.7c5.8,0,11-2.4,14.7-6.2c-0.3-1.8-0.8-3.2-1.4-4c-0.7-1-9.3-4.3-9.3-4.3s-0.1-0.5-0.1-0.6v-1
			l1.4,1.4c2.1-2,3.1-5,3.3-7.9c0.1-2.7-0.4-5.5-1.9-7.8c-1.5-2.2-4-3.7-6.6-3.8c0,0,0,0,0,0c0,0-0.1,0-0.1,0c0,0-0.1,0-0.1,0
			c0,0,0,0,0,0c-1.5,0-3,0.6-4.3,1.4c-0.3,0.2-0.6,0.5-0.9,0.7c-0.5,0.5-1,1-1.4,1.6c-1.5,2.3-2.1,5.1-1.9,7.8
			c0.2,2.9,1.1,5.9,3.3,7.9l1.6-1.6v1.2h0l-0.1,0.6c0,0-8.5,3.4-9.3,4.3c-0.6,0.8-1,2.3-1.4,4C363.5,476.3,368.7,478.7,374.4,478.7z
			"/>
	</g>
	<g>
		
			<ellipse transform="matrix(1.939127e-02 -0.9998 0.9998 1.939127e-02 -155.2885 886.6067)" fill="#4A75D2" cx="374.3" cy="522.5" rx="20.7" ry="20.7"/>
		<path fill="#21386B" d="M374.3,543.1c5.6,0,10.7-2.3,14.4-5.9c-0.3-2-0.8-3.6-1.4-4.5c-0.7-0.9-3.8-1.9-5.8-2.6
			c-0.5-0.3-1.1-0.7-1.6-1c1.4,0.1,2.9-0.4,4-1.3c-0.5,0.1-1-0.1-1.5-0.3c0.2,0,0.4-0.1,0.5-0.1c-1.2-0.2-2.3-1.2-2.7-2.3
			c0.4-0.6,0.9-1,1.4-1.5c0,0.1,0,0.2,0,0.2c0.6-0.7,1.1-1.4,1.5-2.3c0.5-1.2,0.3-2.7-0.3-3.8c0.1,0,0.2,0.1,0.4,0.1
			c-1.1-1.2-1.8-2.8-2.1-4.5c-0.1-0.9-0.1-1.9-0.5-2.8c-0.5-1-1.7-1.6-2.8-1.5c0.1-0.1,0.2-0.2,0.3-0.3c-0.3,0.1-0.6,0.2-0.9,0.4
			c0.1-0.2,0.2-0.4,0.3-0.5c-0.2,0.1-0.4,0.3-0.6,0.5c0.1-0.4,0.3-0.8,0.5-1.2c-0.4,0.3-0.8,0.7-1,1.1c-1.1-1.1-2.7-1.8-4.2-1.7
			c-1.8,0.1-3.5,1.1-4.4,2.6c0.2,0,0.4-0.1,0.6-0.1c-1.7,1.9-2.7,4.5-2.6,7.1c0.1-0.2,0.3-0.3,0.4-0.5c0.5,1.9,0.3,4.1-0.8,5.8
			c0.3,0,0.6-0.1,0.9-0.1c0.1,1,0.5,2,1.1,2.8c0-0.3,0-0.6,0.1-0.9c0.3,0.8,0.7,1.6,1.2,2.3c-0.5,0.5-1.2,0.9-1.9,1.1
			c0.2,0,0.4,0.1,0.5,0.1c-0.4,0.3-1,0.4-1.5,0.3c0.9,0.7,2,1.1,3.1,1.2c-0.6,0.3-1.2,0.6-1.7,1c-2.1,0.6-5.1,1.6-5.8,2.6
			c-0.7,0.9-1.1,2.5-1.4,4.5C363.6,540.9,368.7,543.1,374.3,543.1z M378.9,528.7C378.9,528.7,378.9,528.8,378.9,528.7
			C378.9,528.8,378.9,528.7,378.9,528.7C378.9,528.7,378.9,528.7,378.9,528.7z"/>
	</g>
	<path fill="#A3A3A3" d="M392,358h-35c-1.1,0-2-0.9-2-2l0,0c0-1.1,0.9-2,2-2h35c1.1,0,2,0.9,2,2l0,0C394,357.1,393.1,358,392,358z"
		/>
	<path fill="#A3A3A3" d="M392,422h-35c-1.1,0-2-0.9-2-2l0,0c0-1.1,0.9-2,2-2h35c1.1,0,2,0.9,2,2l0,0C394,421.1,393.1,422,392,422z"
		/>
	<path fill="#A3A3A3" d="M392,486h-35c-1.1,0-2-0.9-2-2l0,0c0-1.1,0.9-2,2-2h35c1.1,0,2,0.9,2,2l0,0C394,485.1,393.1,486,392,486z"
		/>
	<path fill="#A3A3A3" d="M392,551h-35c-1.1,0-2-0.9-2-2l0,0c0-1.1,0.9-2,2-2h35c1.1,0,2,0.9,2,2l0,0C394,550.1,393.1,551,392,551z"
		/>
	<path fill="#FFFFFF" d="M490,351h-68c-6.1,0-11-4.9-11-11l0,0c0-6.1,4.9-11,11-11h68c6.1,0,11,4.9,11,11l0,0
		C501,346.1,496.1,351,490,351z"/>
	<path fill="#FFFFFF" d="M451,398.2h-29c-6.1,0-11-4.9-11-11v0c0-6.1,4.9-11,11-11h29c6.1,0,11,4.9,11,11v0
		C462,393.2,457.1,398.2,451,398.2z"/>
	<path fill="#00CF76" d="M657.4,503.6H493.6c-7.5,0-13.6-6.1-13.6-13.6l0,0c0-7.5,6.1-13.6,13.6-13.6h163.7
		c7.5,0,13.6,6.1,13.6,13.6l0,0C671,497.5,664.9,503.6,657.4,503.6z"/>
	<path fill="#00CF76" d="M666.4,450.9H557.6c-7.5,0-13.6-6.1-13.6-13.6v0c0-7.5,6.1-13.6,13.6-13.6h108.7c7.5,0,13.6,6.1,13.6,13.6
		v0C680,444.8,673.9,450.9,666.4,450.9z"/>
	<path fill="#FFFFFF" d="M560.4,350.8H396.6c-7.5,0-13.6-6.1-13.6-13.6v0c0-7.5,6.1-13.6,13.6-13.6h163.7c7.5,0,13.6,6.1,13.6,13.6
		v0C574,344.6,567.9,350.8,560.4,350.8z"/>
	<g>
		<path fill="#FFFFFF" d="M544,654H394.1c-6.1,0-11-4.9-11-11V540c0-6.1,4.9-11,11-11H544c6.1,0,11,4.9,11,11v103
			C555,649.1,550.1,654,544,654z"/>
		<path fill="#E09944" d="M544.5,559.1h-151c-2.7,0-4.9-2.2-4.9-4.9v-14.8c0-2.7,2.2-4.9,4.9-4.9h151c2.7,0,4.9,2.2,4.9,4.9v14.8
			C549.4,557,547.2,559.1,544.5,559.1z"/>
	</g>
	<text transform="matrix(1 0 0 1 410.8726 292.4253)" fill="#FFFFFF" font-family="'Roboto-Bold'" font-size="16px">Jugadu.in</text>
	<path fill="#FFFFFF" d="M630,285.5V282c0-0.5-0.5-1-1-1h-12c-0.5,0-1,0.5-1,1v10c0,0.5,0.5,1,1,1h12c0.5,0,1-0.5,1-1v-3.5l4,4v-11
		L630,285.5z"/>
	<path fill="#FFFFFF" d="M605.3,289.3c-0.8,0-1.6-0.1-2.4-0.4c-0.2-0.1-0.5,0-0.7,0.2l-1,1.3c-1.9-0.9-3.7-2.6-4.6-4.6l1.3-1.1
		c0.2-0.2,0.2-0.4,0.2-0.7c-0.2-0.7-0.4-1.5-0.4-2.4c0-0.4-0.3-0.7-0.7-0.7h-2.3c-0.4,0-0.8,0.2-0.8,0.7c0,6.2,5.2,11.3,11.3,11.3
		c0.5,0,0.7-0.4,0.7-0.8v-2.3C606,289.6,605.7,289.3,605.3,289.3z"/>
	<g id="Keyboard_Uppercase" display="none">
		<g display="inline">
			<path fill="#D2D5DB" d="M344.8,841c0.5,2.1,1.3,4,2.2,6c0.7,1.5,1.6,3,2.5,4.5c0.6,0.9,1.2,1.8,2,2.7c1.8,2.2,3.9,4.2,6.1,5.9
				c0.9,0.6,1.5,1.1,2.2,1.5l0.2,0.1c0.3,0.2,0.6,0.4,1,0.6c0.7,0.4,1.6,0.9,2.4,1.3c1.8,0.9,3.5,1.6,5.4,2.1
				c0.8,0.2,1.6,0.5,2.5,0.6c2.5,0.6,5,0.8,7.5,0.8l224.2,1.5c2.4,0,4.8-0.2,7.2-0.6c1.1-0.2,2.2-0.5,3.4-0.9l0.5-0.2
				c1.5-0.5,2.9-1,4.3-1.7l0.6-0.3c0.8-0.4,1.6-0.9,2.4-1.3l0.4-0.2c0.9-0.6,1.8-1.1,2.4-1.6c1.5-1.1,2.8-2.2,3.9-3.3
				c1.2-1.2,2.4-2.5,3.4-3.8c2.1-2.8,3.8-5.8,4.9-8.8l0.7-1.9c0.4-1.2,0.7-2.2,0.9-3.3c0.5-2.4,0.8-4.8,0.8-7.2l1.3-195.2L345,638.8
				l-0.8,124.1l0.1,75.2c0.1,0.8,0.3,1.7,0.5,2.5L344.8,841z"/>
			<g>
				<rect x="346" y="604" fill="#FFFFFF" width="295" height="38"/>
				<path fill="#AAADB3" d="M640,605v36H347v-36H640 M642,603H345v40h297V603L642,603z"/>
			</g>
		</g>
		<g display="inline">
			<path fill="#D2D5DB" d="M346.8,841c0.5,2.1,1.3,4,2.2,6c0.7,1.5,1.6,3,2.5,4.5c0.6,0.9,1.2,1.8,2,2.7c1.8,2.2,3.9,4.2,6.1,5.9
				c0.9,0.6,1.5,1.1,2.2,1.5l0.2,0.1c0.3,0.2,0.6,0.4,1,0.6c0.7,0.4,1.6,0.9,2.4,1.3c1.8,0.9,3.5,1.6,5.4,2.1
				c0.8,0.2,1.6,0.5,2.5,0.6c2.5,0.6,5,0.8,7.5,0.8l224.2,1.5c2.4,0,4.8-0.2,7.2-0.6c1.1-0.2,2.2-0.5,3.4-0.9l0.5-0.2
				c1.5-0.5,2.9-1,4.3-1.7l0.6-0.3c0.8-0.4,1.6-0.9,2.4-1.3l0.4-0.2c0.9-0.6,1.8-1.1,2.4-1.6c1.5-1.1,2.8-2.2,3.9-3.3
				c1.2-1.2,2.4-2.5,3.4-3.8c2.1-2.8,3.8-5.8,4.9-8.8l0.7-1.9c0.4-1.2,0.7-2.2,0.9-3.3c0.5-2.4,0.8-4.8,0.8-7.2l1.3-195.2L347,638.8
				l-0.8,124.1l0.1,75.2c0.1,0.8,0.3,1.7,0.5,2.5L346.8,841z"/>
		</g>
		<path id="Emoji_Glyph" display="inline" fill="#50555C" d="M374.7,848.5c-5.9,0-10.7-4.8-10.7-10.7c0-2.8,1.1-5.6,3.1-7.6
			c4.2-4.2,11-4.2,15.2,0c4.2,4.2,4.2,11,0,15.2C380.3,847.4,377.5,848.5,374.7,848.5z M374.7,828.3c-5.2,0-9.5,4.2-9.5,9.5
			c0,2.5,1,4.9,2.8,6.7c3.7,3.7,9.7,3.7,13.4-0.1c3.7-3.7,3.7-9.6,0-13.3C379.6,829.3,377.2,828.3,374.7,828.3z M374.7,845.3
			c-1.7,0-3.4-0.6-4.7-1.7c-1.3-1-2.1-2.4-2.5-3.9c-0.1-0.2,0-0.4,0.1-0.6c0.2-0.2,0.4-0.2,0.6-0.2c0.1,0,0.2,0,0.4,0
			c1.9,0.5,3.8,0.8,5.8,0.8l0.2,0l0.2,0c2,0,3.9-0.3,5.8-0.8c0.1,0,0.2,0,0.4,0c0.2,0,0.4,0.1,0.6,0.2c0.1,0.2,0.2,0.4,0.1,0.6
			c-0.3,1.6-1.2,3-2.4,4C378.1,844.7,376.4,845.3,374.7,845.3L374.7,845.3z M369.1,839.9c-0.2,0-0.3,0.1-0.4,0.3
			c0,0.4,0.2,0.8,0.5,1c1.6,0.8,3.4,1.1,5.2,1.1l0.1,0c1.9,0,3.8-0.4,5.5-1.2c0.3-0.2,0.5-0.6,0.5-0.9c0-0.2-0.2-0.3-0.4-0.2
			c-0.1,0-0.2,0-0.4,0.1l0,0c-1.6,0.4-3.3,0.7-5,0.7l-0.2,0c-1.8,0.1-3.6-0.2-5.3-0.7C369.3,840,369.2,840,369.1,839.9z
			 M378.1,835.6c-0.7,0-1.3-0.6-1.3-1.3c0,0,0,0,0,0c0-0.7,0.6-1.2,1.2-1.2c0,0,0,0,0,0h0c0.7,0,1.2,0.6,1.2,1.2c0,0,0,0,0,0
			C379.3,835,378.8,835.6,378.1,835.6C378.1,835.6,378.1,835.6,378.1,835.6z M371.3,835.6c-0.7,0-1.3-0.6-1.3-1.3
			c0-0.7,0.6-1.2,1.2-1.2c0,0,0,0,0,0h0c0.3,0,0.6,0.1,0.9,0.4c0.2,0.2,0.4,0.6,0.4,0.9C372.5,835,372,835.6,371.3,835.6
			C371.3,835.6,371.3,835.6,371.3,835.6L371.3,835.6z"/>
		<path id="Dictation_Glyph" display="inline" fill="#50555C" d="M615.6,847.8l-6.4,0c-0.4,0-0.7-0.3-0.7-0.7c0-0.4,0.3-0.7,0.7-0.7
			h0v0l2.5,0l0-2c-3-0.4-5.3-2.9-5.3-6c0,0,0,0,0,0c0,0,0,0,0,0l0-1.5c0,0,0-0.1,0-0.1c0-0.4,0.3-0.7,0.7-0.7c0.4,0,0.7,0.3,0.7,0.7
			c0,0,0,0,0,0.1l0,1.8v0c0,0,0,0,0,0c0,0,0,0,0,0l0,0.2h0c0.2,2.4,2.1,4.2,4.5,4.3l0.3,0c2.4-0.1,4.3-1.9,4.5-4.3h0l0-2.2h0v0
			c0-0.4,0.3-0.7,0.7-0.7c0.4,0,0.7,0.3,0.7,0.7c0,0,0,0,0,0.1l0,1.6h0c0,3-2.3,5.6-5.3,6l0,2l2.5,0v0l0,0c0.4,0,0.7,0.3,0.7,0.7
			C616.2,847.5,615.9,847.8,615.6,847.8L615.6,847.8z M612.4,842.2c-0.8,0-1.5-0.3-2.1-0.7c-0.6-0.5-1.1-1.1-1.3-1.8
			c-0.1-0.3-0.1-0.7-0.2-1.1c0-0.4,0-0.8,0-1.1l0-3.4c0-0.1,0-0.3,0-0.5c0-0.7,0-1.7,0-1.9c0-0.4,0.1-0.7,0.2-1.1
			c0.5-1.9,2.5-3,4.3-2.4c1.2,0.3,2.1,1.3,2.4,2.4c0.1,0.3,0.2,0.7,0.2,1.1c0,0.3,0,1.3,0,1.9v0c0,0.2,0,0.4,0,0.5l0,3.4
			c0,0.4,0,0.8,0,1.2c0,0.4-0.1,0.7-0.2,1.1c-0.2,0.7-0.7,1.4-1.3,1.8C613.9,842,613.2,842.2,612.4,842.2z M612.4,829.3
			c-0.5,0-1,0.2-1.3,0.5c-0.4,0.3-0.7,0.7-0.8,1.2c-0.1,0.2-0.1,0.5-0.1,0.7c0,0.2,0,1.4,0,3.1c0,1,0,2.1,0,3.3c0,0.3,0,0.3,0,0.6
			c0,0.2,0,0.5,0.1,0.7c0.1,0.5,0.4,0.9,0.8,1.2c0.8,0.6,1.9,0.6,2.7,0c0.4-0.3,0.7-0.7,0.8-1.2c0.1-0.2,0.1-0.5,0.1-0.7
			c0-0.3,0-0.3,0-0.6c0-1.5,0-2.8,0-3.8c0-1.4,0-2.4,0-2.6c0-0.2-0.1-0.5-0.1-0.7c-0.1-0.5-0.4-0.9-0.8-1.2
			C613.4,829.4,612.9,829.2,612.4,829.3L612.4,829.3z"/>
		<g id="Bottom_Row" transform="translate(2 171)" display="inline">
			<g id="Label" transform="translate(281.762)">
				<g transform="matrix(1, 0, 0, 1, -283.76, -171)">
					<path id="Key-32" fill="#AAADB3" d="M574.1,774.6l61.8,0c2.2,0,4,1.8,4,4l0,25.4c0,2.2-1.8,4-4,4l-61.8,0c-2.2,0-4-1.8-4-4
						l0-25.4C570.1,776.4,571.9,774.6,574.1,774.6z"/>
				</g>
				<text transform="matrix(1 5.000000e-04 -5.000000e-04 1 306.6804 625.5149)" font-family="'SegoeUI'" font-size="12.721px">Label</text>
			</g>
			<g id="Space" transform="translate(93.252)">
				<g transform="matrix(1, 0, 0, 1, -95.25, -171)">
					<path id="Key-33" fill="#FEFEFE" d="M423.8,774.6l137.4,0.1c2.2,0,4,1.8,4,4l0,25.4c0,2.2-1.8,4-4,4L423.8,808
						c-2.2,0-4-1.8-4-4l0-25.4C419.8,776.3,421.6,774.6,423.8,774.6z"/>
				</g>
				<text transform="matrix(1 5.000000e-04 -5.000000e-04 1 382.5815 625.4586)" font-family="'SegoeUI'" font-size="12.721px">spac</text>
				<text transform="matrix(1 5.000000e-04 -5.000000e-04 1 406.789 625.4707)" font-family="'SegoeUI'" font-size="12.721px">e</text>
			</g>
			<g id="_123">
				<g transform="matrix(1, 0, 0, 1, -2, -171)">
					<path id="Key-34" fill="#AAADB3" d="M349.7,774.5l60.6,0c2.2,0,4,1.8,4,4l0,25.4c0,2.2-1.8,4-4,4l-60.6,0c-2.2,0-4-1.8-4-4
						l0-25.4C345.7,776.3,347.5,774.5,349.7,774.5z"/>
				</g>
				<text transform="matrix(1 5.000000e-04 -5.000000e-04 1 367.4747 626.1993)" font-family="'SegoeUI'" font-size="12.721px">123</text>
			</g>
		</g>
		<g id="Third_Row" transform="translate(3 118)" display="inline">
			<g id="Delete" transform="translate(327)">
				<g transform="matrix(1, 0, 0, 1, -330, -118)">
					<path id="Key-35" fill="#AAADB3" d="M610.5,732.5l25.4,0c2.2,0,4,1.8,4,4l0,25.4c0,2.2-1.8,4-4,4l-25.4,0c-2.2,0-4-1.8-4-4
						l0-25.4C606.5,734.3,608.3,732.5,610.5,732.5z"/>
				</g>
				<g id="Group_2">
					<path id="Back" d="M299.5,638l-8.8,0c-0.2,0-0.4-0.1-0.6-0.2l-5.7-5.7c-0.5-0.5-0.5-1.2,0-1.7l5.7-5.7c0.1-0.1,0.4-0.2,0.6-0.2
						l8.8,0c1.5,0,2.8,1.2,2.8,2.8l0,0l0,8C302.3,636.7,301.1,638,299.5,638L299.5,638z M291,625.6c-0.1,0-0.2,0-0.3,0.1l-4.9,4.9
						c-0.3,0.3-0.3,0.8,0,1.1l4.9,4.9c0.1,0.1,0.2,0.1,0.3,0.1l8.6,0c0.9,0,1.6-0.7,1.6-1.6l0-8c0-0.9-0.7-1.6-1.6-1.6L291,625.6z"
						/>
					<path id="Combined_Shape" d="M297.5,634.3l-2.2-2.3l-2.2,2.2c-0.2,0.2-0.6,0.2-0.8,0s-0.2-0.6,0-0.8l2.2-2.2l-2.2-2.2
						c-0.2-0.2-0.2-0.6,0-0.8c0.2-0.2,0.6-0.2,0.8,0l2.2,2.2l2.2-2.2c0.2-0.2,0.6-0.2,0.8,0s0.2,0.6,0,0.8l0,0l-2.3,2.2l2.2,2.2
						c0.2,0.2,0.2,0.6,0,0.8C298.1,634.5,297.7,634.5,297.5,634.3z"/>
				</g>
			</g>
			<g id="M" transform="translate(281)">
				<g transform="matrix(1, 0, 0, 1, -284, -118)">
					<path id="Key-36" fill="#FFFFFF" d="M574.3,732.5l17.1,0c2.2,0,4,1.8,4,4l0,25.4c0,2.2-1.8,4-4,4l-17.1,0c-2.2,0-4-1.8-4-4
						l0-25.4C570.3,734.3,572.1,732.5,574.3,732.5z"/>
				</g>
				<text transform="matrix(1 5.000000e-04 -5.000000e-04 1 290.6122 637.7599)" font-family="'SegoeUI'" font-size="18.2864px">M</text>
			</g>
			<g id="N" transform="translate(244)">
				<g transform="matrix(1, 0, 0, 1, -247, -118)">
					<path id="Key-37" fill="#FFFFFF" d="M544.5,732.5l17.1,0c2.2,0,4,1.8,4,4l0,25.4c0,2.2-1.8,4-4,4l-17.1,0c-2.2,0-4-1.8-4-4
						l0-25.4C540.5,734.3,542.3,732.5,544.5,732.5z"/>
				</g>
				<text transform="matrix(1 5.000000e-04 -5.000000e-04 1 299.1669 637.7457)" font-family="'SegoeUI'" font-size="18.2864px">N</text>
			</g>
			<g id="B" transform="translate(206)">
				<g transform="matrix(1, 0, 0, 1, -209, -118)">
					<path id="Key-38" fill="#FFFFFF" d="M514.7,732.5l17.1,0c2.2,0,4,1.8,4,4l0,25.4c0,2.2-1.8,4-4,4l-17.1,0c-2.2,0-4-1.8-4-4
						l0-25.4C510.7,734.2,512.5,732.5,514.7,732.5z"/>
				</g>
				<text transform="matrix(1 5.000000e-04 -5.000000e-04 1 309.1503 637.7317)" font-family="'SegoeUI'" font-size="18.2864px">B</text>
			</g>
			<g id="V" transform="translate(169)">
				<g transform="matrix(1, 0, 0, 1, -172, -118)">
					<path id="Key-39" fill="#FFFFFF" d="M484.8,732.5l17.1,0c2.2,0,4,1.8,4,4l0,25.4c0,2.2-1.8,4-4,4l-17.1,0c-2.2,0-4-1.8-4-4
						l0-25.4C480.9,734.2,482.7,732.5,484.8,732.5z"/>
				</g>
				<text transform="matrix(1 5.000000e-04 -5.000000e-04 1 315.6981 637.7164)" font-family="'SegoeUI'" font-size="18.2864px">V</text>
			</g>
			<g id="C" transform="translate(131)">
				<g transform="matrix(1, 0, 0, 1, -134, -118)">
					<path id="Key-40" fill="#FFFFFF" d="M454.6,732.4l17.1,0c2.2,0,4,1.8,4,4l0,25.4c0,2.2-1.8,4-4,4l-17.1,0c-2.2,0-4-1.8-4-4
						l0-25.4C450.7,734.2,452.4,732.4,454.6,732.4z"/>
				</g>
				<text transform="matrix(1 5.000000e-04 -5.000000e-04 1 323.5038 637.7014)" font-family="'SegoeUI'" font-size="18.2864px">C</text>
			</g>
			<g id="X" transform="translate(93)">
				<g transform="matrix(1, 0, 0, 1, -96, -118)">
					<path id="Key-41" fill="#FFFFFF" d="M424.8,732.4l17.1,0c2.2,0,4,1.8,4,4l0,25.4c0,2.2-1.8,4-4,4l-17.1,0c-2.2,0-4-1.8-4-4
						l0-25.4C420.8,734.2,422.6,732.4,424.8,732.4z"/>
				</g>
				<text transform="matrix(1 5.000000e-04 -5.000000e-04 1 331.7582 637.6865)" font-family="'SegoeUI'" font-size="18.2864px">X</text>
			</g>
			<g id="Z" transform="translate(56)">
				<g transform="matrix(1, 0, 0, 1, -59, -118)">
					<path id="Key-42" fill="#FFFFFF" d="M395,732.4l17.1,0c2.2,0,4,1.8,4,4l0,25.4c0,2.2-1.8,4-4,4l-17.1,0c-2.2,0-4-1.8-4-4
						l0-25.4C391,734.2,392.8,732.4,395,732.4z"/>
				</g>
				<text transform="matrix(1 5.000000e-04 -5.000000e-04 1 339.1215 637.6717)" font-family="'SegoeUI'" font-size="18.2864px">Z</text>
			</g>
			<g id="Shift">
				<g transform="matrix(1, 0, 0, 1, -3, -118)">
					<path id="Key-43" fill="#FFFFFF" d="M350.5,732.4l25.4,0c2.2,0,4,1.8,4,4l0,25.4c0,2.2-1.8,4-4,4l-25.4,0c-2.2,0-4-1.8-4-4
						l0-25.4C346.5,734.2,348.3,732.4,350.5,732.4z"/>
				</g>
				<path id="Path_3" fill-rule="evenodd" clip-rule="evenodd" d="M360.7,625c-0.3-0.3-0.7-0.3-1,0c0,0,0,0,0,0l-6.3,6.6
					c-0.6,0.6-0.4,1.1,0.4,1.1l3,0l0,4c0,0.4,0.3,0.8,0.7,0.8l5.3,0c0.4,0,0.8-0.4,0.7-0.8l0-4l3,0c0.8,0,1-0.5,0.4-1.1L360.7,625z"
					/>
			</g>
		</g>
		<g id="Second_Row" transform="translate(21 64)" display="inline">
			<g id="L" transform="translate(301)">
				<g transform="matrix(1, 0, 0, 1, -322, -64)">
					<path id="Key-44" fill="#FFFFFF" d="M604.1,689.6l17.1,0c2.2,0,4,1.8,4,4l0,25.4c0,2.2-1.8,4-4,4l-17.1,0c-2.2,0-4-1.8-4-4
						l0-25.4C600.2,691.4,601.9,689.6,604.1,689.6z"/>
				</g>
				<text transform="matrix(1 5.000000e-04 -5.000000e-04 1 286.1561 648.8431)" font-family="'SegoeUI'" font-size="18.2864px">L</text>
			</g>
			<g id="K" transform="translate(263)">
				<g transform="matrix(1, 0, 0, 1, -284, -64)">
					<path id="Key-45" fill="#FFFFFF" d="M574.3,689.6l17.1,0c2.2,0,4,1.8,4,4l0,25.4c0,2.2-1.8,4-4,4l-17.1,0c-2.2,0-4-1.8-4-4
						l0-25.4C570.3,691.3,572.1,689.6,574.3,689.6z"/>
				</g>
				<text transform="matrix(1 5.000000e-04 -5.000000e-04 1 293.7382 648.8279)" font-family="'SegoeUI'" font-size="18.2864px">K</text>
			</g>
			<g id="J" transform="translate(226)">
				<g transform="matrix(1, 0, 0, 1, -247, -64)">
					<path id="Key-46" fill="#FFFFFF" d="M544.5,689.5l17.1,0c2.2,0,4,1.8,4,4l0,25.4c0,2.2-1.8,4-4,4l-17.1,0c-2.2,0-4-1.8-4-4
						l0-25.4C540.5,691.3,542.3,689.5,544.5,689.5z"/>
				</g>
				<text transform="matrix(1 5.000000e-04 -5.000000e-04 1 302.3661 648.8137)" font-family="'SegoeUI'" font-size="18.2864px">J</text>
			</g>
			<g id="H" transform="translate(188)">
				<g transform="matrix(1, 0, 0, 1, -209, -64)">
					<path id="Key-47" fill="#FFFFFF" d="M514.7,689.5l17.1,0c2.2,0,4,1.8,4,4l0,25.4c0,2.2-1.8,4-4,4l-17.1,0c-2.2,0-4-1.8-4-4
						l0-25.4C510.7,691.3,512.5,689.5,514.7,689.5z"/>
				</g>
				<text transform="matrix(1 5.000000e-04 -5.000000e-04 1 307.7216 648.7974)" font-family="'SegoeUI'" font-size="18.2864px">H</text>
			</g>
			<g id="G" transform="translate(151)">
				<g transform="matrix(1, 0, 0, 1, -172, -64)">
					<path id="Key-48" fill="#FFFFFF" d="M484.9,689.5l17.1,0c2.2,0,4,1.8,4,4l0,25.4c0,2.2-1.8,4-4,4l-17.1,0c-2.2,0-4-1.8-4-4
						l0-25.4C480.9,691.3,482.7,689.5,484.9,689.5z"/>
				</g>
				<text transform="matrix(1 5.000000e-04 -5.000000e-04 1 315.3251 648.7827)" font-family="'SegoeUI'" font-size="18.2864px">G</text>
			</g>
			<g id="F" transform="translate(113)">
				<g transform="matrix(1, 0, 0, 1, -134, -64)">
					<path id="Key-49" fill="#FFFFFF" d="M454.7,689.5l17.1,0c2.2,0,4,1.8,4,4l0,25.4c0,2.2-1.8,4-4,4l-17.1,0c-2.2,0-4-1.8-4-4
						l0-25.4C450.7,691.3,452.5,689.5,454.7,689.5z"/>
				</g>
				<text transform="matrix(1 5.000000e-04 -5.000000e-04 1 324.5233 648.7682)" font-family="'SegoeUI'" font-size="18.2864px">F</text>
			</g>
			<g id="D" transform="translate(75)">
				<g transform="matrix(1, 0, 0, 1, -96, -64)">
					<path id="Key-50" fill="#FFFFFF" d="M424.8,689.5l17.1,0c2.2,0,4,1.8,4,4l0,25.4c0,2.2-1.8,4-4,4l-17.1,0c-2.2,0-4-1.8-4-4
						l0-25.4C420.9,691.3,422.6,689.5,424.8,689.5z"/>
				</g>
				<text transform="matrix(1 5.000000e-04 -5.000000e-04 1 330.9608 648.7525)" font-family="'SegoeUI'" font-size="18.2864px">D</text>
			</g>
			<g id="S" transform="translate(38)">
				<g transform="matrix(1, 0, 0, 1, -59, -64)">
					<path id="Key-51" fill="#FFFFFF" d="M395,689.5l17.1,0c2.2,0,4,1.8,4,4l0,25.4c0,2.2-1.8,4-4,4l-17.1,0c-2.2,0-4-1.8-4-4
						l0-25.4C391.1,691.3,392.8,689.5,395,689.5z"/>
				</g>
				<text transform="matrix(1 5.000000e-04 -5.000000e-04 1 339.6996 648.7383)" font-family="'SegoeUI'" font-size="18.2864px">S</text>
			</g>
			<g id="A">
				<g transform="matrix(1, 0, 0, 1, -21, -64)">
					<path id="Key-52" fill="#FFFFFF" d="M365.2,689.5l17.1,0c2.2,0,4,1.8,4,4l0,25.4c0,2.2-1.8,4-4,4l-17.1,0c-2.2,0-4-1.8-4-4
						l0-25.4C361.2,691.2,363,689.5,365.2,689.5z"/>
				</g>
				<text transform="matrix(1 5.000000e-04 -5.000000e-04 1 346.8441 648.7229)" font-family="'SegoeUI'" font-size="18.2864px">A</text>
			</g>
		</g>
		<g id="Top_Row" transform="translate(3 10)" display="inline">
			<g id="P" transform="translate(337)">
				<g transform="matrix(1, 0, 0, 1, -340, -10)">
					<path id="Key-53" fill="#FFFFFF" d="M618.9,646.7l17.1,0c2.2,0,4,1.8,4,4l0,25.4c0,2.2-1.8,4-4,4l-17.1,0c-2.2,0-4-1.8-4-4
						l0-25.4C614.9,648.4,616.7,646.7,618.9,646.7z"/>
				</g>
				<text transform="matrix(1 5.000000e-04 -5.000000e-04 1 282.2674 659.9175)" font-family="'SegoeUI'" font-size="18.2864px">P</text>
			</g>
			<g id="O" transform="translate(300)">
				<g transform="matrix(1, 0, 0, 1, -303, -10)">
					<path id="Key-54" fill="#FFFFFF" d="M589,646.6l17.1,0c2.2,0,4,1.8,4,4l0,25.4c0,2.2-1.8,4-4,4l-17.1,0c-2.2,0-4-1.8-4-4
						l0-25.4C585.1,648.4,586.8,646.6,589,646.6z"/>
				</g>
				<text transform="matrix(1 5.000000e-04 -5.000000e-04 1 287.6805 659.9017)" font-family="'SegoeUI'" font-size="18.2864px">O</text>
			</g>
			<g id="I" transform="translate(262)">
				<g transform="matrix(1, 0, 0, 1, -265, -10)">
					<path id="Key-55" fill="#FFFFFF" d="M559.2,646.6l17.1,0c2.2,0,4,1.8,4,4l0,25.4c0,2.2-1.8,4-4,4l-17.1,0c-2.2,0-4-1.8-4-4
						l0-25.4C555.3,648.4,557,646.6,559.2,646.6z"/>
				</g>
				<text transform="matrix(1 5.000000e-04 -5.000000e-04 1 300.1258 659.8889)" font-family="'SegoeUI'" font-size="18.2864px">I</text>
			</g>
			<g id="U" transform="translate(225)">
				<g transform="matrix(1, 0, 0, 1, -228, -10)">
					<path id="Key-56" fill="#FFFFFF" d="M529.4,646.6l17.1,0c2.2,0,4,1.8,4,4l0,25.4c0,2.2-1.8,4-4,4l-17.1,0c-2.2,0-4-1.8-4-4
						l0-25.4C525.4,648.4,527.2,646.6,529.4,646.6z"/>
				</g>
				<text transform="matrix(1 5.000000e-04 -5.000000e-04 1 303.4627 659.8721)" font-family="'SegoeUI'" font-size="18.2864px">U</text>
			</g>
			<g id="Y" transform="translate(187)">
				<g transform="matrix(1, 0, 0, 1, -190, -10)">
					<path id="Key-57" fill="#FFFFFF" d="M499.6,646.6l17.1,0c2.2,0,4,1.8,4,4l0,25.4c0,2.2-1.8,4-4,4l-17.1,0c-2.2,0-4-1.8-4-4
						l0-25.4C495.6,648.4,497.4,646.6,499.6,646.6z"/>
				</g>
				<text transform="matrix(1 5.000000e-04 -5.000000e-04 1 313.2743 659.858)" font-family="'SegoeUI'" font-size="18.2864px">Y</text>
			</g>
			<g id="T" transform="translate(150)">
				<g transform="matrix(1, 0, 0, 1, -153, -10)">
					<path id="Key-58" fill="#FFFFFF" d="M469.8,646.6l17.1,0c2.2,0,4,1.8,4,4l0,25.4c0,2.2-1.8,4-4,4l-17.1,0c-2.2,0-4-1.8-4-4
						l0-25.4C465.8,648.4,467.6,646.6,469.8,646.6z"/>
				</g>
				<text transform="matrix(1 5.000000e-04 -5.000000e-04 1 320.325 659.843)" font-family="'SegoeUI'" font-size="18.2864px">T</text>
			</g>
			<g id="R" transform="translate(112)">
				<g transform="matrix(1, 0, 0, 1, -115, -10)">
					<path id="Key-59" fill="#FFFFFF" d="M440,646.6l17.1,0c2.2,0,4,1.8,4,4l0,25.4c0,2.2-1.8,4-4,4l-17.1,0c-2.2,0-4-1.8-4-4
						l0-25.4C436,648.3,437.8,646.6,440,646.6z"/>
				</g>
				<text transform="matrix(1 5.000000e-04 -5.000000e-04 1 328.0301 659.8279)" font-family="'SegoeUI'" font-size="18.2864px">R</text>
			</g>
			<g id="E" transform="translate(75)">
				<g transform="matrix(1, 0, 0, 1, -78, -10)">
					<path id="Key-60" fill="#FFFFFF" d="M410.2,646.5l17.1,0c2.2,0,4,1.8,4,4l0,25.4c0,2.2-1.8,4-4,4l-17.1,0c-2.2,0-4-1.8-4-4
						l0-25.4C406.2,648.3,408,646.5,410.2,646.5z"/>
				</g>
				<text transform="matrix(1 5.000000e-04 -5.000000e-04 1 336.0594 659.8134)" font-family="'SegoeUI'" font-size="18.2864px">E</text>
			</g>
			<g id="W" transform="translate(37)">
				<g transform="matrix(1, 0, 0, 1, -40, -10)">
					<path id="Key-61" fill="#FFFFFF" d="M380.3,646.5l17.1,0c2.2,0,4,1.8,4,4l0,25.4c0,2.2-1.8,4-4,4l-17.1,0c-2.2,0-4-1.8-4-4
						l0-25.4C376.4,648.3,378.1,646.5,380.3,646.5z"/>
				</g>
				<text transform="matrix(1 5.000000e-04 -5.000000e-04 1 340.1302 659.7964)" font-family="'SegoeUI'" font-size="18.2864px">W</text>
			</g>
			<g id="Q">
				<g transform="matrix(1, 0, 0, 1, -3, -10)">
					<path id="Key-62" fill="#FFFFFF" d="M350.5,646.5l17.1,0c2.2,0,4,1.8,4,4l0,25.4c0,2.2-1.8,4-4,4l-17.1,0c-2.2,0-4-1.8-4-4
						l0-25.4C346.5,648.3,348.3,646.5,350.5,646.5z"/>
				</g>
				<text transform="matrix(1 5.000000e-04 -5.000000e-04 1 349.1615 659.7825)" font-family="'SegoeUI'" font-size="18.2864px">Q</text>
			</g>
		</g>
	</g>
	<g id="Home_Indicator_Default" transform="translate(121 277)">
		<path id="Rectangle" d="M314.5,567h129c1.4,0,2.5,1.1,2.5,2.5l0,0c0,1.4-1.1,2.5-2.5,2.5h-129c-1.4,0-2.5-1.1-2.5-2.5l0,0
			C312,568.1,313.1,567,314.5,567z"/>
	</g>
	<g>
		<defs>
			<rect id="SVGID_1_" x="354" y="438" width="41" height="41"/>
		</defs>
		<clipPath id="SVGID_2_">
			<use xlink:href="#SVGID_1_"  overflow="visible"/>
		</clipPath>
		<g clip-path="url(#SVGID_2_)">
			<circle vector-effect="non-scaling-stroke" fill="#FFBF00" cx="374.5" cy="458.5" r="20.5"/>
			<path fill="#FF9D00" d="M368.3,478.1c-8.2-2.6-14.2-10.2-14.3-19.3l14.4-19.8c1.9-0.6,4-0.9,6.1-0.9c2.2,0,4.2,0.3,6.2,1
				l14.1,22.8c-0.6,3.8-2.2,7.2-4.6,10L368.3,478.1z"/>
			<circle vector-effect="non-scaling-stroke" fill="#FFFFFF" cx="374.5" cy="458.5" r="17.9"/>
			<g>
				<g>
					<ellipse vector-effect="non-scaling-stroke" fill="#030301" cx="374.1" cy="471" rx="3.7" ry="2.7"/>
					<path fill="#030301" d="M378.9,472.8c0,0,0-0.7,0-1.5l0-1.5l0.3,0l0.3,0v1.5v1.5h-0.3C379.1,472.9,379,472.9,378.9,472.8z"/>
					<path fill="#030301" d="M380.5,471.4v-1.5h0.3h0.3v0.2v0.2l0.2-0.2c0.4-0.3,1.1-0.3,1.6-0.1c0.5,0.2,0.6,0.5,0.6,1.9l0,1.1
						h-0.3h-0.3l0-1.1c0-1,0-1.1-0.1-1.2c-0.3-0.4-1.1-0.3-1.4,0.1l-0.1,0.2l0,1.1l0,1.1l-0.3,0l-0.3,0V471.4z"/>
					<path fill="#030301" d="M378.9,469l0-0.3h0.3h0.3l0,0.3l0,0.3h-0.3h-0.3L378.9,469z"/>
					<path fill="#030301" d="M369.4,467.9c0,0-0.1-0.1-0.1-0.1c0-0.5,1-0.9,2.5-1.1c0.9-0.1,2.8-0.2,3.5-0.1c1.6,0.1,2.3,0.3,3,0.6
						c0.4,0.2,0.6,0.3,0.7,0.5l0.1,0.2l-0.1,0.1c-0.1,0.1-0.1,0.1-0.5,0.1c-0.4,0-0.4,0-0.5-0.1c-0.2-0.2-0.5-0.2-1.4-0.4
						c-1.7-0.2-4.5-0.2-5.8,0.1c-0.3,0.1-0.5,0.1-0.6,0.3c-0.1,0.1-0.1,0.1-0.5,0.1C369.6,467.9,369.4,467.9,369.4,467.9z"/>
					<path fill="#030301" d="M369.4,466.7c-0.3-0.1,0-0.5,0.5-0.8c0.8-0.4,2.4-0.7,4.3-0.7c0.9,0,1.9,0.1,2.4,0.1
						c0.6,0.1,0.7,0.1,1,0.2c0.9,0.2,1.4,0.5,1.5,0.9c0,0.1,0,0.1-0.1,0.2c-0.1,0-0.2,0.1-0.5,0c-0.3,0-0.4,0-0.5-0.1
						c-0.1-0.1-0.2-0.2-0.8-0.3c-1.1-0.2-2.8-0.3-4.4-0.2c-0.8,0-1.2,0.1-1.8,0.2c-0.5,0.1-0.7,0.2-0.8,0.3
						c-0.1,0.1-0.1,0.1-0.5,0.1C369.7,466.7,369.5,466.7,369.4,466.7z"/>
					<path fill="#030301" d="M369.4,465.4c-0.1-0.1,0-0.4,0.2-0.5c0.6-0.5,1.9-0.7,3.8-0.9c1.2-0.1,2.8,0,3.8,0.2
						c1.2,0.2,1.8,0.5,1.9,0.9c0.1,0.1,0.1,0.2,0,0.2c-0.1,0.1-0.1,0.1-0.5,0.1c-0.4,0-0.4,0-0.5-0.1c-0.2-0.2-0.4-0.2-1.1-0.3
						c-1.5-0.2-4.1-0.2-5.5,0c-0.7,0.1-1.1,0.2-1.2,0.4c-0.1,0.1-0.1,0.1-0.5,0.1C369.5,465.5,369.4,465.4,369.4,465.4z"/>
					<path fill="#030301" d="M369.4,464.1c-0.1,0-0.1-0.2,0-0.3c0.2-0.4,1.3-0.8,2.8-1c0.4,0,0.3,0,0.3-0.8c0-0.4,0-1.3,0-2
						c-0.1-4.2-0.3-5.3-1.2-6.2c-0.1-0.1-0.1-0.1-0.3-0.1c-0.2,0-0.3-0.1-0.3-0.3l-0.1-0.2l-0.1,0.2c-0.2,0.3-0.4,0.4-0.5,0.5
						c-0.2,0-0.3-0.1-0.4-0.6c0-0.1,0-0.3-0.1-0.3c0,0-0.1,0.1-0.1,0.2c-0.1,0.2-0.1,0.2-0.2,0.2c0,0,0-0.1,0.1-0.2
						c0.1-0.1,0.1-0.3,0.1-0.4c0-0.2,0.1-0.2,0.2-0.3c0.1,0,0.2-0.1,0.2-0.1c0,0,0.1,0.3,0.1,0.6c0.1,0.3,0.1,0.6,0.1,0.6
						c0.1,0.1,0.3-0.1,0.5-0.4c0.1-0.2,0.2-0.3,0.1-0.4c-0.1-0.3,0-0.3,0.1-0.4c0.1,0,0.2-0.1,0.2-0.1c0,0,0,0.2,0.1,0.5
						c0.1,0.6,0.1,0.6,0.2,0.6c0.1,0,0.1,0,0.2,0c0.1,0,0.2-0.3,0.4-0.5c0.5-0.6,0.8-0.8,1.2-0.7c0.2,0,0.2,0,0.3-0.1
						c0.1-0.1,0.1-0.1,0.1-0.1c0,0,0.1,0.3,0.1,0.6c0.1,0.3,0.1,0.6,0.1,0.6c0,0,0.1,0,0.1-0.1c0.1-0.1,0.2-0.2,0.5-0.6
						c0.2-0.2,0.4-0.4,0.6-0.5c0.2-0.1,0.2-0.1,0.5-0.1c0.2,0,0.3,0,0.4-0.1c0.1-0.1,0.1,0,0.2,0.3c0.1,0.7,0.1,0.8,0.2,0.8
						c0.1,0,0.3-0.1,0.5-0.5c0.2-0.4,0.5-0.6,0.8-0.8c0.2-0.1,0.5-0.1,0.7,0l0.1,0.1v-0.1c0-0.3-0.2-0.7-0.6-0.9
						c-0.3-0.2-0.5-0.2-0.8-0.1c-0.1,0-0.1,0-0.1-0.1c0-0.2,0.2-0.3,0.6-0.3c0.4,0,0.7,0.3,1,0.7c0.1,0.2,0.1,0.3,0.1,0.6
						c0,0.2,0,0.4,0,0.5c0,0.1-0.2,0.4-0.4,0.6c-0.1,0.1-0.1,0.1-0.1,0.1c0,0,0.3-0.1,0.5-0.3c0.2-0.2,0.4-0.5,0.5-0.8
						c0.1-0.2,0.1-0.3,0.2-0.3l0.1-0.1l0,0.1c0,0.1,0.1,0.3,0.1,0.6c0,0.3,0.1,0.5,0.1,0.5c0.1,0.1,0.3-0.1,0.5-0.4
						c0.1-0.2,0.1-0.2,0.1-0.4c-0.1-0.3,0-0.3,0.1-0.4l0.2-0.1l0,0.2c0.1,0.5,0.2,0.9,0.2,1c0.1,0.1,0.2,0,0.4-0.2
						c0.1-0.2,0.2-0.2,0.3-0.1c0,0.1-0.3,0.4-0.5,0.5c-0.2,0.1-0.4,0.1-0.5,0c0,0-0.1-0.2-0.1-0.3l0-0.2l-0.2,0.3
						c-0.2,0.3-0.4,0.4-0.6,0.4c-0.2,0-0.3-0.1-0.3-0.5c0-0.2-0.1-0.3-0.1-0.3c0,0-0.1,0.1-0.1,0.2c-0.1,0.2-0.2,0.3-0.3,0.4
						c-0.2,0.2-0.5,0.3-0.7,0.3c0,0-0.1,0.1-0.3,0.4c-0.8,1.3-1.1,2.3-1.2,4.1c-0.1,0.8,0,2.8,0.1,4.2c0,0.6,0,1,0,1
						c0,0,0.1,0.1,0.4,0.1c1.3,0.2,2.1,0.5,2.3,1c0.1,0.2,0.1,0.2,0,0.2c-0.1,0.1-0.1,0.1-0.5,0.1c-0.4,0-0.4,0-0.5-0.1
						c-0.3-0.3-1.8-0.5-3.9-0.5c-2.1,0-3.6,0.2-3.9,0.5c-0.1,0.1-0.1,0.1-0.5,0.1C369.6,464.1,369.4,464.1,369.4,464.1z
						 M376.3,462.7c0,0,0-0.5-0.1-1.1c-0.1-1.5-0.1-4,0-4.8c0.2-1.4,0.5-2.4,1.1-3.4c0.1-0.2,0.2-0.4,0.3-0.4c0,0,0,0-0.2,0
						c-0.1,0-0.3,0-0.3-0.1c-0.1-0.1-0.3-0.2-0.3-0.3c0,0,0-0.1,0-0.1c0,0-0.1,0-0.2,0.2c-0.3,0.4-0.8,0.6-0.9,0.3
						c0-0.1,0-0.1,0-0.1c0,0-0.1,0.1-0.2,0.2c-0.4,0.4-1,0.3-1.1-0.2c0-0.1,0-0.1-0.1-0.1s-0.1,0.1-0.1,0.2
						c-0.1,0.2-0.3,0.4-0.5,0.5c-0.1,0-0.1,0.1,0,0.5c0.1,0.6,0.1,0.7-0.1,0.9c-0.3,0.3-1,0.4-1.3,0.2c-0.1-0.1-0.1-0.1-0.1,0
						c0,0,0.1,0.2,0.1,0.4c0.2,1,0.3,2.8,0.4,5.7l0,1.5l0.4,0c0.5,0,2.1,0,2.6,0C376.3,462.8,376.3,462.8,376.3,462.7z M373.2,455.1
						c0.3-0.1,0.3-0.3,0.2-1.3c-0.1-0.3-0.1-0.6-0.1-0.6c0,0-0.1,0-0.2,0.1c-0.2,0.2-0.3,0.2-0.5,0.2c-0.3,0.1-0.7-0.2-0.7-0.4
						c0-0.1,0-0.1,0-0.1c0,0-0.1,0.1-0.1,0.2c-0.1,0.1-0.2,0.2-0.2,0.3l-0.1,0.2l0.1,0.1c0.2,0.2,0.4,0.6,0.6,0.9l0.1,0.3l0.1-0.1
						c0.1-0.1,0.2-0.1,0.2,0c0,0.1,0.1,0.3,0.3,0.3C372.8,455.2,373,455.2,373.2,455.1z M372.9,453.2c0.1,0,0.2-0.1,0.2-0.2
						c0.1-0.1,0.1-0.1,0-0.4c0-0.3-0.1-0.3-0.2-0.4c-0.1-0.1-0.4-0.1-0.6,0c-0.3,0.2-0.3,0.7,0,0.9
						C372.6,453.3,372.7,453.3,372.9,453.2z M375.4,452.9c0.2-0.1,0.2-0.2,0.1-0.5c0-0.3-0.1-0.4-0.4-0.4c-0.2,0-0.4,0.1-0.5,0.3
						c-0.1,0.2,0,0.5,0.2,0.6C375.1,453,375.3,453,375.4,452.9z M377.8,452.8c0,0,0.2-0.2,0.3-0.3c0.2-0.2,0.2-0.3,0.2-0.4
						c0-0.4-0.6-0.5-0.9-0.1c-0.3,0.4-0.2,0.9,0.3,0.9C377.6,452.8,377.7,452.8,377.8,452.8z"/>
					<path fill="#030301" d="M366.7,455.8c-0.4-0.1-0.7-0.4-0.7-0.8c0-0.3,0.2-0.5,0.5-0.6c0.3-0.1,0.7,0,0.9,0.2
						c0.2,0.2,0.1,0.5-0.2,0.7c-0.1,0.1-0.3,0.1-0.3,0c0,0,0.1-0.1,0.1-0.1c0.1-0.1,0.2-0.2,0.1-0.4c-0.1-0.1-0.2-0.2-0.4-0.2
						c-0.3,0-0.5,0.2-0.5,0.5c0,0.2,0.1,0.4,0.3,0.5c0.2,0.1,0.2,0.1,0.6,0.1c0.4,0,0.6-0.1,0.8-0.3c0.4-0.4,0.4-1,0-2l-0.2-0.4
						l-0.4,0c-0.3,0-0.4,0-0.6-0.1c-0.4-0.2-0.6-0.6-0.6-1c0.1-0.7,0.9-1.5,1.9-1.7c0.3-0.1,0.3,0,0.1,0.1c-0.6,0.4-0.6,1.2-0.2,2.2
						c0.1,0.1,0.1,0.2,0.1,0.2c0.1,0,0.3-0.2,0.4-0.3c0.1-0.3,0.1-0.6-0.1-0.8c0,0-0.2-0.1-0.3-0.1c-0.2,0-0.2,0-0.1-0.1
						c0.2-0.1,0.4-0.1,0.6,0c0.2,0.1,0.3,0.3,0.3,0.5c0,0.3-0.2,0.6-0.6,0.8c-0.1,0-0.2,0.1-0.2,0.1c0,0,0,0.1,0.1,0.3
						c0.3,0.7,0.4,1.4,0.1,1.9c-0.2,0.3-0.5,0.6-0.9,0.7C367.3,455.8,366.9,455.8,366.7,455.8z M367.7,452.8c-0.1-0.2-0.2-0.8-0.2-1
						c0-0.5,0.1-1,0.4-1.4c0.1-0.1,0.1-0.2,0.1-0.2c0,0-0.1,0-0.2,0.1c-0.5,0.2-0.9,0.6-1.1,1c-0.1,0.1-0.1,0.3-0.1,0.5
						c0,0.5,0.2,0.8,0.7,1C367.4,452.8,367.5,452.8,367.7,452.8C367.7,452.8,367.7,452.8,367.7,452.8z"/>
				</g>
				<g>
					<path fill="#FFFF01" d="M369.8,463.4c0,0,0-0.4-0.1-0.6c0-0.1,0-0.2-0.1-0.3c0-0.1,0-0.2-0.1-0.2c-0.1-0.2-0.2-0.4-0.3-0.6
						c0-0.1-0.1-0.1-0.1-0.2c-0.2-0.3-0.5-0.5-0.8-0.7c-0.1-0.1-0.2-0.1-0.3-0.2c-0.1-0.1-0.2-0.1-0.3-0.2c-0.1-0.1-0.2-0.1-0.3-0.2
						c0,0-0.1-0.1-0.2-0.1c-0.2-0.1-1.5-1.2-2.1-2c0-0.1-0.1-0.1-0.1-0.2c-0.1-0.1-0.1-0.1-0.1-0.2c-0.1-0.1-0.1-0.1-0.2-0.2
						c-0.1-0.1-0.1-0.2-0.2-0.3c-0.1-0.1-0.2-0.2-0.2-0.4c0-0.1-0.1-0.1-0.1-0.2c-0.2-0.3-0.3-0.5-0.4-0.8c0-0.1,0-0.1-0.1-0.2
						c0-0.1,0-0.1-0.1-0.2c-0.1-0.2-0.1-0.4-0.1-0.5c0-0.1-0.1-0.3-0.1-0.4c0-0.1,0-0.3-0.1-0.4c-0.1-0.5-0.1-0.8-0.1-1.3
						c0-0.4,0-0.8,0.1-1.3c0-0.1,0-0.2,0.1-0.3c0-0.1,0-0.2,0.1-0.3c0-0.1,0-0.2,0.1-0.3c0-0.1,0-0.2,0.1-0.3c0-0.1,0-0.1,0.1-0.2
						c0-0.1,0.1-0.2,0.1-0.3c0.1-0.1,0.1-0.2,0.1-0.3c0.1-0.2,0.2-0.4,0.3-0.6c0.1-0.1,0.1-0.2,0.2-0.3c0.1-0.1,0.1-0.2,0.2-0.3
						c0.1-0.1,0.1-0.1,0.2-0.2c0.1-0.1,0.1-0.2,0.2-0.3c0.1-0.1,0.1-0.2,0.2-0.3c0.5-0.6,1.1-1.1,1.7-1.6c0.1-0.1,0.2-0.1,0.3-0.2
						c0.1-0.1,0.3-0.2,0.4-0.3c0.1-0.1,0.3-0.2,0.4-0.3c0.2-0.1,0.4-0.2,0.5-0.3c0.1-0.1,0.4-0.2,0.6-0.3c0.2-0.1,0.4-0.1,0.5-0.2
						c0.1,0,0.2-0.1,0.4-0.1c0.1-0.1,0.2-0.1,0.4-0.1c0.2-0.1,0.4-0.1,0.5-0.2c0.2-0.1,0.4-0.1,0.6-0.2c0.2,0,0.5-0.1,0.5-0.1
						c0.1,0,1.4-0.2,2.1-0.2c0.4,0,0.7,0,1.1,0.1c0.4,0,0.7,0.1,1,0.1c0.4,0.1,0.8,0.2,1.2,0.3c0.2,0.1,0.4,0.1,0.6,0.2
						c0.6,0.2,1.1,0.4,1.6,0.7c0.2,0.1,0.4,0.2,0.6,0.3c0.1,0.1,0.3,0.2,0.4,0.2c0.3,0.2,0.6,0.4,0.9,0.6c0.7,0.5,1.2,0.9,1.7,1.6
						c0.1,0.1,0.1,0.2,0.2,0.3c0.1,0.2,0.2,0.3,0.4,0.5c0.1,0.1,0.2,0.3,0.3,0.4c0.1,0.1,0.1,0.2,0.2,0.3c0.1,0.1,0.2,0.3,0.2,0.4
						c0,0.1,0.1,0.2,0.1,0.3c0.1,0.2,0.2,0.4,0.2,0.6c0.1,0.4,0.2,0.8,0.3,1.2c0.1,0.5,0.1,0.9,0.1,1.4c0,0.5,0,0.9-0.1,1.4
						c0,0.1,0,0.2-0.1,0.4c0,0.1,0,0.2-0.1,0.3c0,0.1-0.1,0.2-0.1,0.3c0,0.1,0,0.2-0.1,0.3c0,0.1,0,0.1-0.1,0.2
						c-0.1,0.1-0.1,0.3-0.2,0.4c0,0.1-0.1,0.2-0.1,0.3c-0.1,0.3-0.2,0.5-0.4,0.7c0,0.1-0.1,0.1-0.1,0.2c-0.1,0.1-0.1,0.1-0.2,0.2
						c0,0-0.1,0.1-0.1,0.2c0,0.1-0.1,0.1-0.1,0.2c-0.1,0.1-0.1,0.1-0.2,0.2c-0.6,0.8-1.3,1.4-2.1,2c-0.1,0.1-0.2,0.1-0.3,0.2
						c-0.1,0.1-0.2,0.1-0.3,0.2c-0.1,0.1-0.2,0.1-0.3,0.2c-0.1,0.1-0.2,0.1-0.3,0.2c-0.2,0.2-0.4,0.3-0.6,0.6c0,0.1-0.1,0.1-0.1,0.2
						c-0.1,0.2-0.2,0.5-0.3,0.7c0,0.1,0,0.2-0.1,0.3c0,0.1-0.1,0.1-0.1,0.2c-0.1,0.3-0.1,0.8-0.1,0.8c-0.1-0.1-0.5-0.4-0.8-0.4
						c-0.3-0.1-0.5-0.2-0.6-0.2c-0.1,0-0.8-0.1-0.8-0.1c-0.1,0-0.3-0.1-0.2-0.1c0-0.1,0-0.5,0-1.3c-0.1-1.1-0.1-1.5-0.1-2.5
						c0-1.6,0.1-2.2,0.3-3.2c0.2-0.7,0.5-1.5,0.8-2.1c0-0.1,0.1-0.1,0.1-0.2c0,0,0.1-0.2,0.2-0.3c0.1-0.2,0.1-0.2,0.2-0.2
						c0.2,0,0.4-0.1,0.6-0.2c0.2-0.1,0.3-0.3,0.4-0.5c0-0.1,0.1-0.1,0.1-0.2l0,0.1c0,0.1,0.1,0.3,0.1,0.3c0,0.2,0.1,0.3,0.2,0.3
						c0,0,0,0,0,0c0.2,0.1,0.5,0,0.7-0.4c0.1-0.2,0.2-0.4,0.2-0.2c0,0.1,0.1,0.5,0.2,0.5c0.3,0.1,0.5-0.1,0.8-0.5c0-0.1,0-0.1,0-0.1
						c0,0-0.1,0-0.3,0.2c-0.2,0.2-0.3,0.2-0.3,0.2c0,0-0.1-0.2-0.1-0.5c-0.1-0.7-0.1-0.6-0.2-0.6c-0.2,0.1-0.2,0.1-0.2,0.3
						c0,0.2,0,0.2,0,0.3c-0.1,0.2-0.3,0.5-0.5,0.6c-0.1,0-0.1,0-0.1-0.2c0,0,0-0.1,0-0.2c0-0.1,0-0.2,0-0.3c0-0.1,0-0.2,0-0.2
						c0-0.1,0-0.2,0-0.2c0-0.1,0,0-0.1,0c0,0-0.1,0-0.1,0.1c-0.1,0-0.1,0.1-0.1,0.2c-0.1,0.4-0.2,0.7-0.5,0.9
						c-0.1,0.1-0.4,0.3-0.5,0.3c0,0,0,0,0.1-0.2c0.3-0.3,0.3-0.5,0.3-0.5c0.1-0.1,0.1-0.7,0-0.9c-0.1-0.4-0.3-0.7-0.7-0.9
						c-0.2-0.1-0.3-0.1-0.5-0.1c-0.2,0-0.3,0.1-0.4,0.1c-0.1,0.1-0.1,0.2-0.1,0.2c0,0,0,0,0.1,0c0.1-0.1,0.4-0.1,0.7,0
						c0.3,0.1,0.6,0.4,0.7,0.8c0,0.1,0.1,0.4,0,0.3c-0.2-0.1-0.4-0.1-0.6-0.1c-0.4,0.1-0.7,0.4-1,0.8c-0.2,0.3-0.4,0.5-0.5,0.5
						c-0.1,0-0.1,0-0.2-0.6c0-0.3-0.1-0.6-0.1-0.6c0,0,0,0-0.1,0c-0.1,0-0.3,0-0.4,0c-0.2,0-0.2,0-0.4,0.1c-0.3,0.2-0.6,0.4-0.8,0.8
						c-0.2,0.2-0.2,0.3-0.4,0.4c-0.1,0-0.1,0-0.1,0c0-0.2-0.1-0.4-0.1-0.5c0-0.2-0.1-0.5-0.1-0.5c0-0.1,0-0.1,0-0.1
						c0,0-0.1,0-0.1,0.1c-0.1,0.1-0.1,0.1-0.3,0.1c-0.1,0-0.1,0-0.2,0c-0.4,0-0.7,0.2-1.1,0.9c-0.2,0.3-0.3,0.4-0.4,0.4
						c0,0-0.1,0-0.1,0c-0.1,0-0.1-0.1-0.2-0.6c0-0.2-0.1-0.4-0.1-0.5c0,0-0.1,0-0.2,0.1c-0.1,0.1-0.1,0.1-0.1,0.2c0,0.1,0,0.1,0,0.2
						c0,0.1,0,0.2,0,0.2c0,0.1-0.1,0.1-0.1,0.1c-0.1,0.1-0.1,0.1-0.2,0.3c-0.1,0.2-0.3,0.2-0.3,0.2c0,0,0-0.1-0.1-0.1
						c0,0-0.1-0.3-0.1-0.6c-0.1-0.4-0.1-0.5-0.1-0.5c0,0-0.1,0-0.1,0c0,0-0.1,0-0.1,0.1c-0.1,0.1-0.1,0.1-0.2,0.3
						c0,0.1-0.1,0.3-0.2,0.4c0,0.1-0.1,0.1-0.1,0.2c0,0.1,0,0.1,0.1,0.1c0.1,0,0.1-0.2,0.2-0.4c0-0.1,0.1,0.2,0.1,0.4
						c0.1,0.3,0.1,0.4,0.2,0.4c0,0,0.1,0,0.2,0c0.2,0,0.4-0.2,0.5-0.4c0.1-0.1,0.2-0.3,0.2-0.3c0,0,0,0.1,0,0.2c0,0.1,0,0.1,0,0.1
						c0.1,0.2,0.1,0.2,0.3,0.2c0,0,0.1,0,0.1,0c0.1,0,0.1,0.1,0.2,0.2c0.5,0.5,0.8,1.2,0.9,2.7c0,0.1,0,0.3,0,0.4
						c0.1,0.7,0.1,2.3,0.2,4.5c0,0.7,0,1,0,1.2c0,0.1-0.1,0.1-0.1,0.1c0,0-0.6,0.1-1,0.1c-0.3,0-0.5,0.1-0.5,0.1
						C370.5,463.1,370.3,463.1,369.8,463.4z M367.5,455.7c0.2-0.1,0.3-0.1,0.7-0.4c0.2-0.2,0.3-0.5,0.4-0.8c0-0.4,0-0.8-0.2-1.3
						c-0.1-0.3-0.2-0.4-0.1-0.4c0.2-0.1,0.5-0.3,0.6-0.5c0.1-0.3,0.1-0.6-0.2-0.8c-0.2-0.1-0.3-0.2-0.6-0.1c-0.1,0-0.1,0.1,0,0.1
						c0.2,0,0.3,0.1,0.4,0.2c0.2,0.2,0.2,0.7-0.1,0.9c-0.1,0.1-0.1,0.1-0.2,0.1c-0.1,0-0.2-0.3-0.3-0.6c-0.1-0.4-0.1-0.6-0.1-0.9
						c0-0.4,0.1-0.6,0.5-0.9c0.1-0.1,0.2-0.1,0.1-0.2c-0.1,0-0.5,0.1-0.7,0.2c-0.5,0.2-0.8,0.4-0.9,0.6c-0.4,0.4-0.5,0.9-0.5,1.1
						c0,0.5,0.3,0.8,0.5,0.9c0.1,0.1,0.4,0.1,0.6,0.1c0,0,0.2,0,0.3,0c0.2,0,0.1-0.1,0.3,0.3c0,0.1,0.1,0.4,0.2,0.7
						c0.1,0.2,0.1,0.5,0.1,0.8c-0.1,0.6-0.5,1-1.4,0.9c-0.1,0-0.2-0.1-0.2-0.1c0,0,0,0-0.1-0.1c-0.1-0.1-0.1-0.1-0.1-0.1
						c-0.1-0.1-0.1-0.2-0.1-0.3c0-0.2,0-0.2,0.1-0.4c0.2-0.2,0.5-0.2,0.7-0.1c0.1,0,0.2,0.1,0.2,0.3c0,0.1-0.1,0.3-0.2,0.3
						c-0.1,0.1,0.1,0.1,0.1,0.1c0.2,0,0.4-0.2,0.4-0.4c0.1-0.4-0.4-0.7-0.8-0.5c-0.5,0.2-0.7,0.5-0.6,0.9c0.1,0.2,0.4,0.4,0.4,0.4
						c0.2,0.1,0.3,0.1,0.5,0.1C367.1,455.8,367.4,455.8,367.5,455.7z"/>
					<path fill="#FFFF01" d="M367.2,452.8c-0.3-0.1-0.5-0.3-0.6-0.7c0-0.2,0-0.6,0.1-0.7c0,0,0-0.1,0-0.1c0.2-0.4,0.6-0.7,0.9-0.9
						c0.2-0.1,0.4-0.1,0.4-0.1c0,0-0.1,0.1-0.1,0.2c-0.1,0.1-0.2,0.3-0.4,0.7c0,0.1-0.1,0.3-0.1,0.5c0,0.3,0,0.4,0.1,0.7
						c0,0.2,0.1,0.4,0.1,0.5c0.1,0.1,0,0.1-0.1,0.1C367.4,452.8,367.3,452.8,367.2,452.8z"/>
					<path fill="#FFFF01" d="M375.8,462.7c-0.6-0.1-1.7-0.1-2.8,0c-0.1,0-0.2,0-0.2,0l0-0.1l0-0.9c0-0.9,0-1.1-0.1-2.5
						c0-0.9-0.1-1.2-0.1-2.2c0-0.7-0.2-1.8-0.3-1.9c0-0.1,0-0.1,0-0.1c0.3,0.2,0.6,0.2,1,0.1c0.3-0.1,0.4-0.3,0.5-0.5
						c0.1-0.2,0-0.4,0-0.6c0-0.1,0-0.2,0-0.3c0-0.1,0-0.2,0-0.3c0-0.1,0-0.1,0.1-0.1c0.2-0.1,0.3-0.2,0.4-0.4
						c0.1-0.1,0.1-0.2,0.1-0.2c0,0,0,0.1,0,0.1c0.2,0.5,0.7,0.6,1.1,0.2c0.1-0.1,0.1-0.1,0.2-0.2c0,0,0,0.1,0,0.1
						c0.1,0.2,0.2,0.2,0.4,0.1c0.2-0.1,0.3-0.2,0.5-0.4c0-0.1,0.1-0.1,0.2-0.2c0,0,0,0.1,0,0.1c0,0.1,0.1,0.1,0.1,0.2
						c0.1,0.1,0.2,0.2,0.4,0.2c0.1,0,0.3,0,0.3,0s0.1-0.1-0.1,0.2c-0.1,0.1-0.2,0.3-0.2,0.3c0,0-0.1,0.2-0.2,0.3s-0.1,0.2-0.2,0.4
						c-0.1,0.2-0.2,0.4-0.2,0.5c-0.2,0.3-0.4,1.4-0.5,2c0,0.1-0.1,0.4-0.1,0.5c0,0.2,0,1,0,1.8c0,1.4,0,1.9,0.1,3
						c0,0.7,0.1,0.8,0,0.8c0,0-0.2,0-0.2,0C376.1,462.8,375.9,462.8,375.8,462.7z"/>
					<path fill="#FFFF01" d="M372.8,455.1c-0.2,0-0.4-0.2-0.4-0.4c0-0.1,0-0.1-0.2,0l-0.1,0.1l-0.1-0.2c0-0.1-0.1-0.2-0.1-0.2
						c0,0-0.1-0.2-0.1-0.2c-0.1-0.1-0.2-0.3-0.3-0.4c-0.2-0.2-0.2-0.3-0.2-0.3c0-0.1,0.1-0.1,0.2-0.2c0.1-0.1,0.2-0.3,0.2-0.3
						c0-0.1,0.1-0.1,0.1-0.1c0,0,0,0,0,0.1c0,0.1,0.1,0.3,0.2,0.3c0.1,0.1,0.2,0.1,0.4,0.1c0.2,0,0.4-0.1,0.6-0.2l0.2-0.2l0,0.2
						c0,0.1,0.1,0.6,0.1,0.8l0.1,0.4l-0.1,0.2C373.3,455,373.1,455.2,372.8,455.1z"/>
					<path fill="#FFFF01" d="M372.3,453.2c-0.1-0.1-0.2-0.2-0.2-0.4c0-0.2,0.1-0.3,0.1-0.4c0.1-0.1,0.2-0.2,0.4-0.2
						c0.3,0,0.4,0.1,0.4,0.5c0,0.1,0,0.2,0,0.3c0,0-0.1,0.1-0.1,0.2c-0.2,0.1-0.2,0.1-0.4,0.2C372.5,453.3,372.4,453.3,372.3,453.2z
						"/>
					<path fill="#FFFF01" d="M375,453c-0.3-0.1-0.4-0.5-0.2-0.7c0.1-0.2,0.4-0.3,0.6-0.2c0.1,0,0.1,0,0.1,0.3c0,0.3,0.1,0.4,0,0.5
						C375.4,453,375.2,453.1,375,453z"/>
					<path fill="#FFFF01" d="M377.5,452.8c-0.2,0-0.3-0.1-0.3-0.4c0-0.2,0-0.3,0.2-0.5c0.1-0.1,0.4-0.2,0.5-0.2
						c0.1,0,0.3,0.1,0.4,0.2c0,0,0.1,0.1,0.1,0.2c0,0.1,0,0.2-0.1,0.4C377.8,452.8,377.7,452.8,377.5,452.8z"/>
				</g>
			</g>
		</g>
	</g>
</g>
<g id="Layer_3" display="none">
	<g display="inline">
		<polygon fill="#00F3FD" points="721,680.8 684.8,744.7 640.7,701.6 671.4,643.1 		"/>
		<polygon fill="#00DCE4" points="684.8,744.7 700.7,743.4 736.8,679.4 721,680.8 		"/>
		<polygon fill="#00AED5" points="671.4,643.1 687.3,641.7 736.8,679.4 721,680.8 		"/>
		<polygon fill="#AC1464" points="709.6,807.2 721.8,764.5 772.2,800.1 764.6,844.8 		"/>
		<polygon fill="#FF4A8E" points="698.7,815.9 709.6,807.2 721.8,764.5 711.1,773.9 		"/>
		<polygon fill="#D70780" points="755,853.3 764.6,844.8 709.6,807.2 698.7,815.9 		"/>
		<polygon fill="#FF0000" points="326.7,394.8 298.9,429.3 267.3,378.7 290.7,338.7 		"/>
		<polygon fill="#CC0000" points="340.1,391 326.7,394.8 298.9,429.3 312.4,424.9 		"/>
		<polygon fill="#FF4245" points="302.8,334.7 290.7,338.7 326.7,394.8 340.1,391 		"/>
		<g display="none">
			<g display="inline">
				
					<linearGradient id="SVGID_3_" gradientUnits="userSpaceOnUse" x1="625.3173" y1="642.6635" x2="291.3314" y2="589.9738" gradientTransform="matrix(5.495394e-02 -0.9985 0.9985 5.495394e-02 -150.5228 915.1342)">
					<stop  offset="0" style="stop-color:#FFFFFF"/>
					<stop  offset="0.375" style="stop-color:#7C7C7E"/>
					<stop  offset="0.7175" style="stop-color:#7C7C7E"/>
					<stop  offset="0.8725" style="stop-color:#FFFFFF"/>
					<stop  offset="1" style="stop-color:#7C7C7E"/>
				</linearGradient>
				<path fill="url(#SVGID_3_)" d="M550.8,294c-5.2-0.4-10.6,1.2-15,5.3l-235.5,221c-9.5,9-13.8,22.2-11.4,35l32.5,171.9
					c1.2,6.5,6.7,10.9,12.8,11.4c2.4,0.2,17.6-0.6,21.7-0.6c2.4,0,4.8-0.3,7.2-1.5l278.4-136.2c18.2-9.1,28.3-27,19-58.2
					l-68.3-232.7c-2.6-8.7-10.3-13.9-18.3-14.2C569.8,295.1,554.9,294.3,550.8,294z"/>
				<g opacity="0.7">
					<polygon fill="#EBEBEB" points="592.2,309.8 559.3,307.9 557.8,312 593.5,314 					"/>
					<path fill="#EBEBEB" d="M542.7,295.1l10.1,8.5l37.8,2.1c-2-3.8-5.2-6.7-8.8-8.5L542.7,295.1z"/>
				</g>
				<path opacity="0.7" fill="#EBEBEB" d="M603.5,596.6l45.3-0.9c1.2-0.9,2.4-1.9,3.4-2.9l-32.6,0.6l16.8-45.6l0.5,0.2l24.7-1.1
					c-0.4-1.6-0.8-3.1-1.3-4.8l-0.5-1.6l-27.4,1.7l-29.2-5.6L603.5,596.6z"/>
				<g opacity="0.7">
					<polygon fill="#EBEBEB" points="636.7,554.1 637.4,554 639,551.2 					"/>
					<path fill="#EBEBEB" d="M657.8,586.2c5.2-8,7.4-18.6,5.3-32.3l-25.7,0.1l-19,32.1L657.8,586.2z"/>
				</g>
				<path d="M535.8,299.3l-235.5,221c-9.5,9-13.8,22.2-11.4,35l32.5,171.9c1.7,9.1,11.7,14.1,20,9.9L617.5,599
					c18.2-9.1,28.3-27,19-58.2l-68.3-232.7C564.1,294,546.5,289.2,535.8,299.3z"/>
				<path fill="#D7D6D7" d="M348.8,735.6c23.3-12.1,46.6-24,69.9-36l70.1-35.7c23.3-11.9,46.8-23.6,70.2-35.4l35.1-17.7l17.6-8.8
					c2.9-1.5,5.9-2.9,8.6-4.5c2.7-1.6,5.3-3.5,7.5-5.6c4.6-4.2,8.1-9.6,10-15.6c0.5-1.5,0.8-3,1.2-4.5c0.2-1.6,0.6-3.1,0.7-4.7
					c0.3-3.1,0.3-6.3,0.1-9.5c-0.5-6.4-2-12.6-3.9-18.9l-5.5-18.9c-7.3-25.2-14.7-50.3-21.9-75.6L587,368.6l-10.7-37.9l-5.3-18.9
					l-1.3-4.7c-0.5-1.6-1.1-3.1-1.9-4.5c-1.6-2.8-3.9-5.3-6.6-7.1c2.8,1.7,5.2,4.1,6.9,6.9c0.9,1.4,1.6,2.9,2.1,4.5l1.5,4.7
					l5.7,18.8l11.5,37.6l22.7,75.3c7.6,25.1,14.9,50.3,22.4,75.4l5.6,18.9c1.9,6.3,3.5,12.9,4.1,19.6c0.3,3.4,0.3,6.8,0,10.1
					c-0.1,1.7-0.4,3.4-0.7,5.1c-0.4,1.7-0.7,3.3-1.3,5c-2,6.6-5.9,12.6-10.9,17.2c-2.5,2.3-5.3,4.3-8.2,6.1c-3,1.7-5.9,3.1-8.9,4.6
					l-17.6,8.8l-35.2,17.5c-23.5,11.7-46.9,23.4-70.5,35l-70.6,34.7C396,712.7,372.4,724.2,348.8,735.6z"/>
				
					<linearGradient id="SVGID_4_" gradientUnits="userSpaceOnUse" x1="185.5453" y1="360.541" x2="803.1312" y2="658.8171" gradientTransform="matrix(5.565285e-02 -0.9985 0.9985 5.565285e-02 -37.4 958.2749)">
					<stop  offset="0.1925" style="stop-color:#004182"/>
					<stop  offset="0.6275" style="stop-color:#FF4578"/>
					<stop  offset="0.9875" style="stop-color:#FFA369"/>
				</linearGradient>
				<path fill="url(#SVGID_4_)" d="M538.4,302.1l-235.5,221c-6.6,6.2-10.3,14.4-10.8,23.1c-0.2,2.8,0,5.6,0.6,8.4l6.8,35.8l8.9,0.5
					l14.2,70.1l-7.3,13l0,0l9.9,52.5c0.6,3.2,2.6,5.8,5.5,7.2c2.9,1.4,6.2,1.4,9.1,0l276.1-138.1c19-9.5,24.8-27.6,17-53.7
					l-68.3-232.7c-1.6-5.3-5.7-9.4-11.1-10.9C548.1,296.9,542.5,298.3,538.4,302.1z"/>
				
					<linearGradient id="SVGID_5_" gradientUnits="userSpaceOnUse" x1="293.1033" y1="690.2997" x2="607.8223" y2="690.2997" gradientTransform="matrix(5.495394e-02 -0.9985 0.9985 5.495394e-02 -150.5228 915.1342)">
					<stop  offset="0" style="stop-color:#FFFFFF"/>
					<stop  offset="1" style="stop-color:#FFFDFF;stop-opacity:0"/>
				</linearGradient>
				<path opacity="0.2" fill="url(#SVGID_5_)" d="M483.1,656.5c0,0,118.3-66.7,133-74.5c3.5-1.9,6.4-4.3,8.3-7.4
					c1.9-3.1,2.7-6.9,2.8-10.8c0.1-3.9-0.4-7.9-1.4-11.8c-0.5-2-1-3.9-1.6-5.9l-1.8-6l-14-48.3c-4.6-16.1-9.3-32.3-13.8-48.4
					c-4.6-16.1-9-32.3-13.5-48.5l-6.5-24.3l-3.3-12.2l-3.2-12.2l3.9,12l3.8,12l7.6,24c5,16,10,32,14.9,48.1c5,16,9.7,32.1,14.6,48.2
					l14.3,48.3l1.8,6c0.6,2,1.2,4.1,1.6,6.2c1,4.2,1.5,8.6,1.4,13.1c-0.1,4.5-1.1,9.2-3.6,13.2c-2.4,4.1-6.3,7.1-10.2,9.1
					C603.3,593.8,483.1,656.5,483.1,656.5z"/>
				
					<linearGradient id="SVGID_6_" gradientUnits="userSpaceOnUse" x1="74.4849" y1="578.5126" x2="548.6958" y2="532.6213" gradientTransform="matrix(5.495394e-02 -0.9985 0.9985 5.495394e-02 -150.5228 915.1342)">
					<stop  offset="0" style="stop-color:#FFFFFF"/>
					<stop  offset="1" style="stop-color:#FFFDFF;stop-opacity:0"/>
				</linearGradient>
				<path opacity="0.2" fill="url(#SVGID_6_)" d="M302.9,523.1c-6.6,6.2-10.3,14.4-10.8,23.1c-0.2,2.8,0,5.6,0.6,8.4l6.8,35.8
					l8.9,0.5l14.2,70.1l-7.3,13l9.3,49.2c25.2-23.5,61-65.9,90.1-135.4c37.9-90.3,70.6-199.1,118.8-281.1L302.9,523.1z"/>
				<path d="M611.2,420l6.6,22.4c0.4,1.3,1.5,2.2,2.8,2.2c2.1,0.1,3.8-1.9,3.2-4l-6.2-22.4c-0.4-1.3-1.5-2.2-2.9-2.3l-0.4,0
					C612.2,415.9,610.6,418,611.2,420z"/>
			</g>
			<g display="inline">
				<g>
					
						<text transform="matrix(-0.2064 -0.8302 0.8775 -0.4796 380.9727 634.2789)" fill="#FFFEFF" font-family="'Poppins-Regular'" font-size="40.386px">22:34</text>
				</g>
				<g>
					
						<text transform="matrix(-0.2064 -0.8302 0.8775 -0.4796 402.7658 633.1757)" fill="#FFFEFF" font-family="'Poppins-Regular'" font-size="13.3951px">mon, January 2022</text>
				</g>
			</g>
		</g>
		<g>
			<polygon fill="#008DDB" points="546.3,762.6 526.7,816.6 466.7,767.7 478.6,708.9 			"/>
			<polygon fill="#0068BF" points="562.8,752.4 546.3,762.6 526.7,816.6 543.5,806.6 			"/>
			<polygon fill="#009FE1" points="493,699.8 478.6,708.9 546.3,762.6 562.8,752.4 			"/>
		</g>
		<polygon fill="#00DCE4" points="473.2,454.1 480,514.5 400.3,496.3 384,435.2 		"/>
		<polygon fill="#00AED5" points="482.4,437.5 473.2,454.1 480,514.5 488.6,497.1 		"/>
		<polygon fill="#00F3FD" points="391.8,419.4 384,435.2 473.2,454.1 482.4,437.5 		"/>
		<polygon fill="#FFE85C" points="318,653.8 239.4,580.7 315.7,532.8 388.2,596.3 		"/>
		<polygon fill="#FFD75E" points="239.4,580.7 236,603.7 314.5,676.8 318,653.8 		"/>
		<polygon fill="#FFBD66" points="388.2,596.3 384.8,619.3 314.5,676.8 318,653.8 		"/>
		<path fill="#FFFEFF" d="M308.5,390.4l-9.5,14.1c-2.5,3.6-6.8,3.2-9.7-0.9l-8.1-11.7c-2.9-4.2-3.2-10.5-0.8-14.1l9.5-14.1
			c2.5-3.6,6.8-3.2,9.7,0.9l8.1,11.7C310.6,380.4,310.9,386.7,308.5,390.4z"/>
		<polygon fill="#FF0000" points="295.4,394.1 287.6,382.7 297.4,379.7 		"/>
		<g>
			<g>
				<path fill="#FFFEFF" d="M729.4,782.2l-5,21.1c-0.9,3.6,1.2,8.5,4.5,10.8l19.5,13.5c3.3,2.3,6.8,1.3,7.6-2.4l5-21.1
					c0.9-3.6-1.2-8.5-4.5-10.8l-19.5-13.5C733.7,777.5,730.3,778.6,729.4,782.2z M755.8,796.5c1.7,1.2,2.8,3.7,2.3,5.5l-5,21.1
					c-0.4,1.9-2.2,2.4-3.9,1.2l-19.5-13.5c-1.7-1.2-2.8-3.7-2.3-5.5l5-21.1c0.4-1.9,2.2-2.4,3.9-1.2L755.8,796.5z"/>
				<path fill="#FFFEFF" d="M734.2,797.8c-1.2,5.1,1.6,11.9,6.3,15.1c4.7,3.3,9.5,1.8,10.7-3.3c1.2-5.1-1.6-11.9-6.3-15.1
					C740.2,791.2,735.4,792.7,734.2,797.8z M748.3,807.6c-0.8,3.3-3.9,4.3-7,2.2c-3.1-2.1-4.9-6.6-4.1-9.9c0.8-3.3,3.9-4.3,7-2.2
					C747.3,799.8,749.1,804.2,748.3,807.6z"/>
				<path fill="#FFFEFF" d="M734.7,785.9c-0.2,0.7,0.2,1.7,0.9,2.1c0.7,0.5,1.3,0.2,1.5-0.5c0.2-0.7-0.2-1.7-0.9-2.1
					C735.5,785,734.9,785.2,734.7,785.9z"/>
			</g>
		</g>
		<path fill="#FFFEFF" d="M492.6,750l2.3-5.8l-6.9-5.1l-2.3,5.8c-2.6,6.4-0.8,14.4,4,18l2.5,1.8l-2.3,5.8l6.9,5.1l2.3-5.8l18.9,13.9
			l3.7-9.3l-18.9-13.9l2.8-6.8l-6.4-6.4l-3.3,8.1l-2.5-1.8C492.4,752.9,492.1,751.3,492.6,750z"/>
		<path fill="#FFFEFF" d="M295.8,569.7c-9.9,7.5-7.9,14.8-3.5,19.7c2,2.3,3.7,4.1,5.9,6.8l-4.3,2.4c-1.2,0.7-1.4,2.1-0.6,3.1
			c0.5,0.6,1.4,0.9,2.2,0.7l6.4-1.2c0.9,1.4,2.3,3.4,2.7,4.6c1.9,4.9-3.2,10.9-3.6,12.5c-0.4,1.6,1.6,2.3,3.5,1
			c1.6-1.1,4-1.4,6.6-0.9c2.6,0.4,5.7-1.3,7.1-3.1c2.5-3.4,8.4-1.2,13.6-5.1c5.2-3.9,4-9.7,8.1-11.2c2.3-0.9,4.7-3.4,4.7-5.8
			c0-2.4,0.8-4.5,2.3-5.7c1.8-1.5,1.4-3.4-0.4-3.4c-1.7,0-9.2,3.4-14,0.8c-1.2-0.6-3.1-2.3-4.4-3.4l2.5-5.5c0.3-0.7,0.2-1.5-0.3-2.1
			c-0.9-1-2.5-1-3.4-0.1l-3.4,3.4c-2.4-2.5-4.1-4.4-6.1-6.7C313.2,565.5,305.8,562.2,295.8,569.7z"/>
		<path fill="#FFFEFF" d="M420.5,457.5c-1.6-2.4-4.7-4.7-4.7-4.7c0.9,1.7,1.8,4.3,1.8,4.3s-6.1-0.6-6.3,4.7
			c-0.3,6,11.7,11.6,11.7,11.6c-3,6.8-14.3,7.9-14.3,7.9c8.8,5.8,15.1,4.5,15.1,4.5c-0.2,0.8-2.3,3.1-2.3,3.1
			c7.1,1.5,12.6-0.9,12.6-0.9c-0.3,1.2-1.3,3.1-1.3,3.1c6.7-0.3,9.3-3,9.3-3c3,5.5,1.6,11.1,1.6,11.1s11.5-4.7,5.7-18.4
			c-6-14.4-25.9-22.1-25.9-22.1c-0.9-2.7-3.8-5-3.8-5C420.8,455.5,420.5,457.5,420.5,457.5z"/>
		<g>
			<polygon fill="#D9DCE2" points="274.4,783 217.4,773.3 240.5,817.4 290.5,830.5 			"/>
			<polygon fill="#FFFEFF" points="217.4,773.3 226.7,759.3 283.7,769.1 274.4,783 			"/>
			<polygon fill="#BEBFC9" points="290.5,830.5 296.9,815.8 283.7,769.1 274.4,783 			"/>
			<path fill="#FF3355" d="M235.8,793.2c0.1,2.2,3.5,6.4,9.4,8.6c-5,0.8-5.9,4.5-4.6,6.8c1.7,3,7.7,6.1,15,6
				c12.7-0.2,17.4-9.2,17.4-9.2s-10.9-11.1-24.8-14.7C240.2,788.6,235.7,790.4,235.8,793.2z"/>
		</g>
		<path display="none" fill="#FFFEFF" d="M314.1,780.6c-2.8,2.5-20.8,3-25.5,3.7c4.6,1.1,22.4,3.7,24.9,6.5
			c4.7,5.1,4.8,25.4,4.8,25.4s2.4-20.2,7.6-24.7c2.8-2.5,20.8-3,25.5-3.7c-4.6-1.1-22.4-3.7-24.9-6.5c-4.7-5.1-4.8-25.4-4.8-25.4
			S319.3,776,314.1,780.6z"/>
		<path display="none" fill="#FFFEFF" d="M254.8,226.3c-2.8,2.5-20.8,3-25.5,3.7c4.6,1.1,22.4,3.7,24.9,6.5
			c4.7,5.1,4.8,25.4,4.8,25.4s2.4-20.2,7.6-24.7c2.8-2.5,20.8-3,25.5-3.7c-4.6-1.1-22.4-3.7-24.9-6.5c-4.7-5.1-4.8-25.4-4.8-25.4
			S260,221.8,254.8,226.3z"/>
		<path display="none" fill="#FFFEFF" d="M748.2,659.9c-2.8,2.5-20.8,3-25.5,3.7c4.6,1.1,22.4,3.7,24.9,6.5
			c4.7,5.1,4.8,25.4,4.8,25.4s2.4-20.2,7.6-24.7c2.8-2.5,20.8-3,25.5-3.7c-4.6-1.1-22.4-3.7-24.9-6.5c-4.7-5.1-4.8-25.4-4.8-25.4
			S753.3,655.3,748.2,659.9z"/>
		<path display="none" fill="#FFFEFF" d="M426.3,379.2c-1.5,1.3-10.8,1.6-13.2,1.9c2.4,0.6,11.6,1.9,12.9,3.4
			c2.4,2.6,2.5,13.2,2.5,13.2s1.3-10.5,4-12.8c1.5-1.3,10.8-1.6,13.2-1.9c-2.4-0.6-11.6-1.9-12.9-3.4c-2.4-2.6-2.5-13.2-2.5-13.2
			S429,376.9,426.3,379.2z"/>
		<path display="none" fill="#FFFEFF" d="M474.8,866.8c-1.5,1.3-10.8,1.6-13.2,1.9c2.4,0.6,11.6,1.9,12.9,3.4
			c2.4,2.6,2.5,13.2,2.5,13.2s1.3-10.5,4-12.8c1.5-1.3,10.8-1.6,13.2-1.9c-2.4-0.6-11.6-1.9-12.9-3.4c-2.4-2.6-2.5-13.2-2.5-13.2
			S477.5,864.4,474.8,866.8z"/>
		<path display="none" fill="#FFFEFF" d="M168.5,478.7c-1.5,1.3-10.8,1.6-13.2,1.9c2.4,0.6,11.6,1.9,12.9,3.4
			c2.4,2.6,2.5,13.2,2.5,13.2s1.3-10.5,4-12.8c1.5-1.3,10.8-1.6,13.2-1.9c-2.4-0.6-11.6-1.9-12.9-3.4c-2.4-2.6-2.5-13.2-2.5-13.2
			S171.2,476.3,168.5,478.7z"/>
		<path display="none" fill="#FFFEFF" d="M271.9,457.4c-1.1,1-8,1.2-9.9,1.4c1.8,0.4,8.7,1.4,9.6,2.5c1.8,2,1.9,9.8,1.9,9.8
			s0.9-7.8,2.9-9.5c1.1-1,8-1.2,9.9-1.4c-1.8-0.4-8.7-1.4-9.6-2.5c-1.8-2-1.9-9.8-1.9-9.8S273.9,455.6,271.9,457.4z"/>
		<path display="none" fill="#FFFEFF" d="M209.8,707c-1.1,1-8,1.2-9.9,1.4c1.8,0.4,8.7,1.4,9.6,2.5c1.8,2,1.9,9.8,1.9,9.8
			s0.9-7.8,2.9-9.5c1.1-1,8-1.2,9.9-1.4c-1.8-0.4-8.7-1.4-9.6-2.5c-1.8-2-1.9-9.8-1.9-9.8S211.8,705.2,209.8,707z"/>
		<path display="none" fill="#FFFEFF" d="M570.6,801.8c-1.1,1-8,1.2-9.9,1.4c1.8,0.4,8.7,1.4,9.6,2.5c1.8,2,1.9,9.8,1.9,9.8
			s0.9-7.8,2.9-9.5c1.1-1,8-1.2,9.9-1.4c-1.8-0.4-8.7-1.4-9.6-2.5c-1.8-2-1.9-9.8-1.9-9.8S572.6,800,570.6,801.8z"/>
		<g>
			<polygon fill="#FFFEFF" points="808.2,376.7 750,376.4 762.8,329.2 815.1,327.9 			"/>
			<polygon fill="#D9DCE2" points="750,376.4 757.1,386.9 815.3,387.1 808.2,376.7 			"/>
			<polygon fill="#BEBFC9" points="815.1,327.9 822.2,338.3 815.3,387.1 808.2,376.7 			"/>
			<g>
				<path fill="#173E95" d="M786.1,347.4l-2.4,1.6c-0.9,0.6-2.2,0.1-2-0.9l0.5-2.5c0.1-0.6-0.3-1.1-1-1.1l-4.8-0.3
					c-0.7,0-1.4,0.4-1.5,1l-0.5,2.5c-0.2,0.9-1.6,1.3-2.3,0.6l-1.7-1.9c-0.4-0.4-1.2-0.5-1.8-0.1l-4,2.6c-0.6,0.4-0.7,1.1-0.3,1.5
					l1.7,1.9c0.7,0.7-0.1,1.8-1.3,1.8l-2.9-0.2c-0.7,0-1.4,0.4-1.5,1l-0.8,4c-0.1,0.6,0.3,1.1,1,1.1l2.9,0.2
					c1.1,0.1,1.5,1.2,0.5,1.9l-2.4,1.6c-0.6,0.4-0.7,1.1-0.3,1.5l2.8,3c0.4,0.4,1.2,0.5,1.8,0.1l2.4-1.6c0.9-0.6,2.2-0.1,2,0.9
					l-0.5,2.5c-0.1,0.6,0.3,1.1,1,1.1l4.8,0.3c0.7,0,1.4-0.4,1.5-1l0.5-2.5c0.2-0.9,1.6-1.3,2.3-0.6l1.7,1.9
					c0.4,0.4,1.2,0.5,1.8,0.1l4-2.6c0.6-0.4,0.7-1.1,0.3-1.5l-1.7-1.9c-0.7-0.7,0.1-1.8,1.3-1.8l2.9,0.2c0.7,0,1.4-0.4,1.5-1l0.8-4
					c0.1-0.6-0.3-1.1-1-1.1l-2.9-0.2c-1.1-0.1-1.5-1.2-0.5-1.9l2.4-1.6c0.6-0.4,0.7-1.1,0.3-1.5l-2.8-3
					C787.5,347,786.7,347,786.1,347.4z M780.8,358.1c-0.4,2.2-2.9,3.9-5.5,3.7c-2.6-0.2-4.4-2.1-3.9-4.3s2.9-3.9,5.5-3.7
					C779.4,354,781.2,355.9,780.8,358.1z"/>
				<path fill="#173E95" d="M791.6,333.6l-0.3,1.4c-0.1,0.5-0.9,0.8-1.3,0.4l-1-1.1c-0.2-0.2-0.7-0.3-1-0.1l-2.2,1.5
					c-0.3,0.2-0.4,0.6-0.2,0.8l1,1.1c0.4,0.4-0.1,1-0.7,1l-1.7-0.1c-0.4,0-0.8,0.2-0.8,0.6l-0.5,2.3c-0.1,0.3,0.2,0.6,0.6,0.6
					l1.7,0.1c0.6,0,0.8,0.7,0.3,1l-1.4,0.9c-0.3,0.2-0.4,0.6-0.2,0.8l1.6,1.7c0.2,0.2,0.7,0.3,1,0.1l1.4-0.9c0.5-0.3,1.2,0,1.1,0.5
					l-0.3,1.4c-0.1,0.3,0.2,0.6,0.6,0.6l2.7,0.2c0.4,0,0.8-0.2,0.8-0.6l0.3-1.4c0.1-0.5,0.9-0.8,1.3-0.4l1,1.1
					c0.2,0.2,0.7,0.3,1,0.1l2.2-1.5c0.3-0.2,0.4-0.6,0.2-0.8l-1-1.1c-0.4-0.4,0.1-1,0.7-1l1.7,0.1c0.4,0,0.8-0.2,0.8-0.6l0.5-2.3
					c0.1-0.3-0.2-0.6-0.6-0.6l-1.7-0.1c-0.6,0-0.8-0.7-0.3-1l1.4-0.9c0.3-0.2,0.4-0.6,0.2-0.8l-1.6-1.7c-0.2-0.2-0.7-0.3-1-0.1
					l-1.4,0.9c-0.5,0.3-1.2,0-1.1-0.5l0.3-1.4c0.1-0.3-0.2-0.6-0.6-0.6l-2.7-0.2C792,333,791.7,333.3,791.6,333.6z M794.9,340.9
					c-0.2,1.2-1.6,2.2-3.1,2.1c-1.5-0.1-2.5-1.2-2.2-2.4c0.3-1.2,1.6-2.2,3.1-2.1C794.2,338.6,795.2,339.6,794.9,340.9z"/>
			</g>
		</g>
		<g>
			<path fill="#FAFFFF" d="M670.5,667.5l-12.1,21.1c-2.4,4.2-1.3,10.1,2.6,13l10.6,7.9l-1.1,2l9.1,0.8l-4.3-9.2l-1.1,2l-10.6-7.9
				c-1.6-1.2-2.1-3.7-1.1-5.5l12.1-21.1c1-1.8,3.2-2.2,4.8-1l2.6-4.5C678,662.1,672.9,663.2,670.5,667.5z"/>
			<path fill="#FAFFFF" d="M687.7,675.7l10.5,7.9c1.6,1.2,2.1,3.7,1.1,5.5l-12.1,21.1c-1,1.8-3.2,2.2-4.8,1l-2.6,4.5
				c3.9,2.9,9,1.8,11.5-2.4l12.1-21.1c2.4-4.2,1.3-10.1-2.6-13l-10.5-7.9l1.1-2l-9.1-0.8l4.3,9.2L687.7,675.7z"/>
		</g>
		<g>
			<polygon fill="#0068BF" points="538.5,273.2 501.5,317.7 551.2,319.8 587.6,283.1 			"/>
			<polygon fill="#008DDB" points="501.5,317.7 494,302.6 531,258.2 538.5,273.2 			"/>
			<polygon fill="#009FE1" points="587.6,283.1 578.1,270.2 531,258.2 538.5,273.2 			"/>
			<g>
				<path fill="#D9DCE2" d="M552.9,288.7c-0.5-1.4-5-1.8-6.7,0.1l-7.8,7.4c0,0-5.1-1.5-8.6-1.3c-3.6,0.2-5.8,3.2-5.6,3.5
					c0.2,0.3,5.5,0.6,7.3,1.8c1.9,1.2,3.4,5.2,3.4,5.2l18.7,2.9c0,0,11-10.6,11.4-13c0.5-2.4-2.7-2.4-2.7-2.4
					c1.1-2.6-3.6-2.5-3.6-2.5C558.2,286.9,552.9,288.7,552.9,288.7z"/>
				<polygon fill="#D9DCE2" points="549.1,314.7 552.9,309.8 533.7,306.6 529.2,311.1 				"/>
			</g>
		</g>
	</g>
</g>
<g id="Layer_4" display="none">
	<g display="inline">
		<g display="none">
			<path display="inline" fill-rule="evenodd" clip-rule="evenodd" fill="#1CAFEC" d="M430.1,480.5h-17.2
				c-14.3,0-25.9-11.6-25.9-25.9v-17.2c0-14.3,11.6-25.9,25.9-25.9h17.2c14.3,0,25.9,11.6,25.9,25.9v17.2
				C456,468.9,444.4,480.5,430.1,480.5z"/>
			<path display="inline" fill="#FFFFFF" d="M394.9,435l2.7,3.4c0,0,3.2-2.5,4.4-2.6c0.9-0.1,2.6,2.8,3.2,4.4
				c0.2,0.5,3.4,11.8,5.3,18.6s5.7,9.9,8,9.9c2.3,0,7.5-0.5,14.5-9.4c0,0,9.2-10.8,11.9-16.5c0.3-0.7,0.8-1.3,1.1-2.1
				c1-2.3,3.2-6.5,1.3-13c-0.1-0.2-0.1-0.5-0.2-0.7c-0.3-1.2-2.2-5.8-11.7-4c0,0-7.8,1.9-10.1,12.2c0,0,3.7-1.1,4.9-0.8
				c0,0,2.6,0.3,2.5,3c0,0-0.1,3.9-2,6.7c0,0-5.3,10.4-7.5,7.3c0,0-1.7-1-4.2-14.4c-0.3-1.5-0.5-3-0.6-4.5c-0.1-1.7-0.6-4.7-2.5-7
				c-1.5-1.9-4.1-2.7-6.4-2.1c-2,0.5-4.8,1.9-7.8,5.2c-0.4,0.5-0.9,0.9-1.4,1.4L394.9,435z"/>
			<path display="inline" opacity="0.5" fill="#FFFFFF" d="M442.9,411.3h-42.8c-7.3,0-13.1,5.9-13.1,13.1v12.4
				c10.2,17.1,28.9,28.5,50.3,28.5c6.6,0,12.9-1.1,18.8-3.1v-37.9C456,417.2,450.1,411.3,442.9,411.3z"/>
		</g>
		<g>
			<linearGradient id="SVGID_7_" gradientUnits="userSpaceOnUse" x1="233.5594" y1="170.9888" x2="302.63" y2="170.9888">
				<stop  offset="0" style="stop-color:#D80E0E"/>
				<stop  offset="1" style="stop-color:#BC0F0F"/>
			</linearGradient>
			<path fill-rule="evenodd" clip-rule="evenodd" fill="url(#SVGID_7_)" d="M284.6,205.5h-33c-9.9,0-18-8.1-18-18v-33
				c0-9.9,8.1-18,18-18h33c9.9,0,18,8.1,18,18v33C302.6,197.5,294.6,205.5,284.6,205.5z"/>
			<g>
				<path fill="#F7F7F8" d="M292.3,179.3c0,5.3-4.3,9.6-9.6,9.6h-29.2c-5.3,0-9.6-4.3-9.6-9.6v-17c0-5.3,4.3-9.6,9.6-9.6h29.2
					c5.3,0,9.6,4.3,9.6,9.6V179.3z"/>
				<g>
					<g>
						<g>
							<linearGradient id="SVGID_8_" gradientUnits="userSpaceOnUse" x1="263.8421" y1="170.7863" x2="276.0142" y2="170.7863">
								<stop  offset="0" style="stop-color:#D80E0E"/>
								<stop  offset="1" style="stop-color:#BC0F0F"/>
							</linearGradient>
							<polygon fill="url(#SVGID_8_)" points="263.8,163.8 276,170.8 263.8,177.8 							"/>
						</g>
					</g>
					<linearGradient id="SVGID_9_" gradientUnits="userSpaceOnUse" x1="263.8421" y1="167.6985" x2="276.0142" y2="167.6985">
						<stop  offset="0" style="stop-color:#D80E0E"/>
						<stop  offset="1" style="stop-color:#BC0F0F"/>
					</linearGradient>
					<polygon fill="url(#SVGID_9_)" points="263.8,163.8 274.5,171.6 276,170.8 					"/>
				</g>
			</g>
			<path opacity="0.5" fill="#FFFFFF" d="M289.5,136.3h-42.8c-7.3,0-13.1,5.9-13.1,13.1v12.4c10.2,17.1,28.9,28.5,50.3,28.5
				c6.6,0,12.9-1.1,18.8-3.1v-37.9C302.7,142.2,296.8,136.3,289.5,136.3z"/>
		</g>
		<g>
			<g>
				<g>
					<path fill="#067FB5" d="M735.7,276.7c0,6.5-5.3,11.8-11.8,11.8h-45.5c-6.5,0-11.8-5.3-11.8-11.8v-45.5
						c0-6.5,5.3-11.8,11.8-11.8h45.5c6.5,0,11.8,5.3,11.8,11.8V276.7z"/>
				</g>
				<g>
					<rect x="679.3" y="246.6" fill-rule="evenodd" clip-rule="evenodd" fill="#FFFFFF" width="9.3" height="29.6"/>
					<path fill-rule="evenodd" clip-rule="evenodd" fill="#FFFFFF" d="M689.4,237c0,3-2.4,5.5-5.5,5.5c-3,0-5.5-2.4-5.5-5.5
						c0-3,2.4-5.5,5.5-5.5C686.9,231.6,689.4,234,689.4,237z"/>
					<path fill-rule="evenodd" clip-rule="evenodd" fill="#FFFFFF" d="M713.9,245.5c-6.3,0-9,3.3-9.8,4.5v-3.4h-9.3v29.6h9.3v-17.5
						c0,0,0.8-5.2,5.2-5.2c4.4,0,5.2,4.8,5.2,6.1v16.7h9.3v-17.6C723.8,253.1,721.7,245.5,713.9,245.5z"/>
				</g>
			</g>
			<path opacity="0.5" fill="#FFFFFF" d="M722.5,219.5h-42.8c-7.3,0-13.1,5.9-13.1,13.1v12.4c10.2,17.1,28.9,28.5,50.3,28.5
				c6.6,0,12.9-1.1,18.8-3.1v-37.9C735.7,225.4,729.8,219.5,722.5,219.5z"/>
		</g>
		<g display="none">
			<path display="inline" fill-rule="evenodd" clip-rule="evenodd" fill="#287CF7" d="M609.6,399.4h-17.5
				c-14.2,0-25.8-11.5-25.8-25.8v-17.5c0-14.2,11.5-25.8,25.8-25.8h17.5c14.2,0,25.8,11.5,25.8,25.8v17.5
				C635.4,387.9,623.9,399.4,609.6,399.4z"/>
			<g display="inline">
				<g>
					<path fill="#FFFFFF" d="M600.4,352.1c1,1.4,1.5,3.1,1.5,5c0,2-0.5,3.6-1.5,4.8c-0.6,0.7-1.4,1.3-2.5,1.9
						c1.7,0.6,2.9,1.6,3.8,2.9c0.8,1.3,1.3,2.9,1.3,4.8c0,1.9-0.5,3.7-1.5,5.2c-0.6,1-1.4,1.9-2.3,2.6c-1,0.8-2.3,1.3-3.7,1.6
						c-1.4,0.3-3,0.4-4.6,0.4h-14.7v-32.7h15.8C595.9,348.7,598.7,349.8,600.4,352.1z M582.6,354.3v7.2h7.9c1.4,0,2.6-0.3,3.5-0.8
						c0.9-0.5,1.3-1.5,1.3-2.9c0-1.5-0.6-2.5-1.8-3c-1-0.3-2.3-0.5-3.9-0.5H582.6z M582.6,366.9v8.7h7.9c1.4,0,2.5-0.2,3.3-0.6
						c1.4-0.7,2.1-2.1,2.1-4.1c0-1.7-0.7-2.9-2.1-3.5c-0.8-0.4-1.9-0.5-3.3-0.6H582.6z"/>
					<path fill="#FFFFFF" d="M621.2,357.6c1.6,0.7,3,1.9,4,3.5c1,1.4,1.6,3,1.9,4.8c0.2,1.1,0.2,2.6,0.2,4.6h-17
						c0.1,2.3,0.9,4,2.4,4.9c0.9,0.6,2.1,0.9,3.4,0.9c1.4,0,2.5-0.4,3.4-1.1c0.5-0.4,0.9-0.9,1.3-1.6h6.2c-0.2,1.4-0.9,2.8-2.3,4.2
						c-2.1,2.3-5,3.4-8.8,3.4c-3.1,0-5.8-1-8.2-2.9c-2.4-1.9-3.6-5-3.6-9.3c0-4,1.1-7.1,3.2-9.3c2.1-2.2,4.9-3.2,8.3-3.2
						C617.8,356.6,619.6,356.9,621.2,357.6z M612.1,362.9c-0.9,0.9-1.4,2.1-1.6,3.6H621c-0.1-1.6-0.7-2.8-1.6-3.7
						c-1-0.8-2.2-1.3-3.6-1.3C614.2,361.6,612.9,362,612.1,362.9z"/>
				</g>
				<rect x="607.8" y="349.7" fill="#FFFFFF" width="15.8" height="4.9"/>
			</g>
			<path display="inline" opacity="0.5" fill="#FFFFFF" d="M622.3,330.4h-42.8c-7.3,0-13.1,5.9-13.1,13.1V356
				c10.2,17.1,28.9,28.5,50.3,28.5c6.6,0,12.9-1.1,18.8-3.1v-37.9C635.4,336.3,629.5,330.4,622.3,330.4z"/>
		</g>
		<g display="none">
			<path display="inline" fill-rule="evenodd" clip-rule="evenodd" fill="#11BBEF" d="M519.3,399.4h-17.2
				c-14.3,0-25.9-11.6-25.9-25.9v-17.2c0-14.3,11.6-25.9,25.9-25.9h17.2c14.3,0,25.9,11.6,25.9,25.9v17.2
				C545.3,387.8,533.7,399.4,519.3,399.4z"/>
			<g display="inline">
				<path fill="none" stroke="#000000" d="M503.8,362.1"/>
				<path fill="#FFFFFF" d="M537.3,370.1c0.3-1.6,0.4-3.2,0.4-4.9c0-15-12.2-27.2-27.2-27.2c-1.7,0-3.3,0.2-5,0.5
					c-2.4-1.5-5.2-2.3-8.2-2.3c-8.7,0-15.7,7-15.7,15.7c0,2.9,0.8,5.7,2.2,8c-0.3,1.7-0.5,3.5-0.5,5.3c0,15,12.2,27.2,27.2,27.2
					c1.8,0,3.6-0.2,5.3-0.5c2.4,1.5,5.2,2.3,8.2,2.3c8.7,0,15.7-7,15.7-15.7C539.7,375.4,538.8,372.6,537.3,370.1z"/>
				<path fill="#11BBEF" d="M524.9,367.5c-0.7-1.4-1.8-2.6-3.1-3.5c-1.2-0.9-2.8-1.6-4.5-2.2c-1.7-0.6-3.6-1.1-5.6-1.6
					c-1.6-0.4-2.7-0.7-3.4-0.9c-0.6-0.2-1.2-0.4-1.8-0.8c-0.5-0.3-0.9-0.6-1.2-1c-0.2-0.3-0.3-0.7-0.3-1.1c0-0.5,0.1-1.2,1.2-1.9
					c0.9-0.7,2.2-1,3.8-1c1.7,0,2.9,0.3,3.6,0.8c0.8,0.6,1.4,1.6,2,2.7l0,0c0.6,1.1,1.1,1.8,1.6,2.4c0.7,0.6,1.6,1,2.8,1
					c1.3,0,2.4-0.5,3.2-1.5c0.8-0.9,1.2-2,1.2-3.2c0-1.1-0.3-2.3-0.9-3.5c-0.6-1.1-1.5-2.2-2.6-3.3c-1.2-1-2.7-1.8-4.4-2.4
					c-1.7-0.6-3.8-0.9-6.1-0.9c-2.9,0-5.5,0.4-7.7,1.3c-2.3,0.9-4,2.3-5.2,4c-1.2,1.7-1.8,3.8-1.8,6c0,2.3,0.6,4.3,1.8,6
					c1.1,1.6,2.7,2.8,4.6,3.7c1.8,0.8,4.1,1.6,6.7,2.2c1.9,0.4,3.4,0.8,4.5,1.2c1,0.3,1.7,0.8,2.3,1.4c0.5,0.5,0.7,1.2,0.7,2
					c0,1.1-0.5,2-1.5,2.7c-1.1,0.8-2.6,1.3-4.5,1.3c-1.4,0-2.4-0.2-3.2-0.6c-0.8-0.4-1.4-0.9-1.8-1.5c-0.5-0.7-0.9-1.6-1.3-2.6
					c-0.5-1.2-1-2-1.7-2.7c-0.8-0.7-1.7-1.1-2.8-1.1c-1.3,0-2.4,0.4-3.2,1.3c-0.8,0.9-1.3,1.9-1.3,3.1c0,1.8,0.6,3.6,1.7,5.4
					c1.1,1.8,2.6,3.2,4.4,4.3c2.5,1.4,5.7,2.2,9.4,2.2c3.1,0,5.9-0.5,8.2-1.6c2.4-1.1,4.2-2.6,5.5-4.5c1.2-1.9,1.9-4.1,1.9-6.5
					C526,370.7,525.6,368.9,524.9,367.5z"/>
			</g>
			<path display="inline" opacity="0.5" fill="#FFFFFF" d="M532.1,330.4h-42.8c-7.3,0-13.1,5.9-13.1,13.1V356
				c10.2,17.1,28.9,28.5,50.3,28.5c6.6,0,12.9-1.1,18.8-3.1v-37.9C545.2,336.3,539.3,330.4,532.1,330.4z"/>
		</g>
		<g>
			<path fill-rule="evenodd" clip-rule="evenodd" fill="#282828" d="M224.1,531.9h-32.5c-10.1,0-18.3-8.2-18.3-18.3v-32.5
				c0-10.1,8.2-18.3,18.3-18.3h32.5c10.1,0,18.3,8.2,18.3,18.3v32.5C242.4,523.7,234.2,531.9,224.1,531.9z"/>
			<path fill="#46D170" d="M236.5,497.4c0,15.9-12.9,28.7-28.7,28.7c-15.9,0-28.7-12.9-28.7-28.7c0-15.9,12.9-28.7,28.7-28.7
				C223.7,468.7,236.5,481.5,236.5,497.4z"/>
			<path fill-rule="evenodd" clip-rule="evenodd" fill="#E8F6FE" d="M244,466.3"/>
			<g>
				<path fill="#282828" d="M193.9,490.9c6.3-1,20.3-2.2,30.2,3.6c1.6,0.9,3.6,0,4.1-2l0,0c0.4-1.6-0.2-3.2-1.4-4
					c-3.8-2.3-12.9-7.3-33.5-4.5c-1.5,0.2-2.7,1.6-2.7,3.4v0.1C190.6,489.6,192.1,491.2,193.9,490.9z"/>
				<path fill="#282828" d="M195,500.1c5.3-0.7,17.9-1.7,26.1,3.4c0.9,0.6,2.1,0.4,2.8-0.5l0.3-0.4c1.1-1.3,0.8-3.6-0.7-4.4
					c-3.9-2.3-12.6-5.4-29-3.6c-1.3,0.1-2.2,1.4-2.2,2.9l0,0C192.4,499.1,193.6,500.3,195,500.1z"/>
				<path fill="#282828" d="M195.6,509.3c6.8-0.5,13.2-2.4,23.3,3c0.9,0.5,1.8,0.3,2.5-0.4l0.3-0.3c1-1.2,0.7-3.2-0.6-3.9
					c-3.5-2-10.5-5.2-26-3.2c-1.1,0.1-2,1.3-1.9,2.6l0,0C193.3,508.4,194.4,509.4,195.6,509.3z"/>
			</g>
			<path opacity="0.5" fill="#FFFFFF" d="M229.2,462.8h-42.8c-7.3,0-13.1,5.9-13.1,13.1v12.4c10.2,17.1,28.9,28.5,50.3,28.5
				c6.6,0,12.9-1.1,18.8-3.1V476C242.4,468.7,236.5,462.8,229.2,462.8z"/>
		</g>
		<g>
			
				<radialGradient id="SVGID_10_" cx="401.6843" cy="229.2577" r="140.4176" fx="358.3719" fy="222.966" gradientTransform="matrix(0.6534 -0.757 0.6147 0.5306 -1.7046 411.6918)" gradientUnits="userSpaceOnUse">
				<stop  offset="0" style="stop-color:#F9ED32"/>
				<stop  offset="6.147725e-02" style="stop-color:#F8D939"/>
				<stop  offset="0.1874" style="stop-color:#F5A54D"/>
				<stop  offset="0.365" style="stop-color:#F0536C"/>
				<stop  offset="0.4486" style="stop-color:#EE2A7B"/>
				<stop  offset="0.5994" style="stop-color:#9E2AA7"/>
				<stop  offset="0.7418" style="stop-color:#5B2ACD"/>
				<stop  offset="0.86" style="stop-color:#2A2AE8"/>
				<stop  offset="0.9496" style="stop-color:#0B2AF9"/>
				<stop  offset="1" style="stop-color:#002AFF"/>
			</radialGradient>
			<path fill="url(#SVGID_10_)" d="M459,231.1c0,7.3-5.9,13.1-13.1,13.1H403c-7.3,0-13.1-5.9-13.1-13.1v-42.8
				c0-7.3,5.9-13.1,13.1-13.1h42.8c7.3,0,13.1,5.9,13.1,13.1V231.1z"/>
			<path opacity="0.5" fill="#FFFFFF" d="M445.8,175.2H403c-7.3,0-13.1,5.9-13.1,13.1v12.4c10.2,17.1,28.9,28.5,50.3,28.5
				c6.6,0,12.9-1.1,18.8-3.1v-37.9C459,181,453.1,175.2,445.8,175.2z"/>
			<g>
				<g>
					<path fill="#FFFFFF" d="M435.4,237.1h-22c-9.8,0-17.7-7.9-17.7-17.7V200c0-9.8,7.9-17.7,17.7-17.7h22c9.8,0,17.7,7.9,17.7,17.7
						v19.4C453.1,229.2,445.2,237.1,435.4,237.1z M413.4,186.2c-7.6,0-13.8,6.2-13.8,13.8v19.4c0,7.6,6.2,13.8,13.8,13.8h22
						c7.6,0,13.8-6.2,13.8-13.8V200c0-7.6-6.2-13.8-13.8-13.8H413.4z"/>
				</g>
				<g>
					<path fill="#FFFFFF" d="M424.4,225.5c-8.7,0-15.8-7.1-15.8-15.8c0-8.7,7.1-15.8,15.8-15.8c8.7,0,15.8,7.1,15.8,15.8
						C440.2,218.4,433.1,225.5,424.4,225.5z M424.4,197.9c-6.5,0-11.8,5.3-11.8,11.8c0,6.5,5.3,11.8,11.8,11.8
						c6.5,0,11.8-5.3,11.8-11.8C436.2,203.2,430.9,197.9,424.4,197.9z"/>
				</g>
				<g>
					<path fill="#FFFFFF" d="M443.2,194.4c0,1.8-1.5,3.3-3.3,3.3c-1.8,0-3.3-1.5-3.3-3.3c0-1.8,1.5-3.3,3.3-3.3
						C441.7,191.1,443.2,192.6,443.2,194.4z"/>
				</g>
			</g>
		</g>
		<g display="none">
			<g display="inline">
				<path fill="#395398" d="M456,307.7c0,6.5-5.3,11.8-11.8,11.8h-45.5c-6.5,0-11.8-5.3-11.8-11.8v-45.5c0-6.5,5.3-11.8,11.8-11.8
					h45.5c6.5,0,11.8,5.3,11.8,11.8V307.7z"/>
				<path fill="#FFFFFF" d="M434.3,319.5V293h8.9l1.3-10.3h-10.2V276c0-3,0.8-5,5.1-5l5.5,0v-9.2c-0.9-0.1-4.2-0.4-8-0.4
					c-7.9,0-13.3,4.8-13.3,13.7v7.6h-8.9V293h8.9v26.5H434.3L434.3,319.5z"/>
			</g>
			<g display="inline">
				<path fill="#395398" d="M456,307.7c0,6.5-5.3,11.8-11.8,11.8h-45.5c-6.5,0-11.8-5.3-11.8-11.8v-45.5c0-6.5,5.3-11.8,11.8-11.8
					h45.5c6.5,0,11.8,5.3,11.8,11.8V307.7z"/>
				<path fill="#FFFFFF" d="M434.3,319.5V293h8.9l1.3-10.3h-10.2V276c0-3,0.8-5,5.1-5l5.5,0v-9.2c-0.9-0.1-4.2-0.4-8-0.4
					c-7.9,0-13.3,4.8-13.3,13.7v7.6h-8.9V293h8.9v26.5H434.3L434.3,319.5z"/>
			</g>
			<path display="inline" fill="#FFFFFF" d="M414.7,282.6V293"/>
			<path display="inline" opacity="0.5" fill="#FFFFFF" d="M437.2,304.5c6.6,0,12.9-1.1,18.8-3.1v-39.3c0-6.5-5.3-11.8-11.8-11.8
				h-44.3c-0.7,0-1.3,0-1.9,0c-6.2,0.4-11,5.5-11.1,11.8V276C397.2,293.1,415.9,304.5,437.2,304.5z"/>
		</g>
		<g display="none">
			<g display="inline">
				<path fill="#7BC5F8" d="M545.2,307.7c0,6.5-5.3,11.8-11.8,11.8H488c-6.5,0-11.8-5.3-11.8-11.8v-45.5c0-6.5,5.3-11.8,11.8-11.8
					h45.5c6.5,0,11.8,5.3,11.8,11.8V307.7z"/>
			</g>
			<g display="inline">
				<polygon fill="#FFFFFF" points="534.8,266 534.8,266 534.8,266 				"/>
				<path fill="#FFFFFF" d="M533,270.9c-1,0.3-1.9,0.2-1.9,0.2l0-0.2c1-0.8,3.4-3.2,3.8-4.3c0.1-0.5,0-0.7,0-0.7l-3.1,1.3l-2.6,1.2
					l0,0c-1.8-1.9-4.6-3.1-7.6-3.1c-5.5,0-9.9,3.9-9.9,8.7c0,0.9,0.1,2.5,0.4,3.3c0,0.3,0-0.3,0,0c-3.5-0.1-8-1.5-12.1-3.6
					c-7.9-4-8.4-6.8-8.4-6.8c-1.2,1.3-1.9,5.7-0.6,9.1c0.8,2.2,3.6,4.2,3.6,4.2l0,0c0,0-1.2,0-2.5-0.4c-1.3-0.4-1.8-0.9-1.8-0.9
					c-0.8,1.9,0.8,5.3,3.5,7.7c1.6,1.4,4.4,2.3,4.4,2.3l-4.5,0.1c-0.3,4.3,9.1,6.9,9.1,6.9l0,0c-2.7,2.1-5.9,3.4-9.3,3.4
					c-1.8,0-3.5-0.3-5.1-0.7c4.5,3.7,10.3,6.3,16.6,5.9c16.7-0.9,26.1-15.2,26.6-29.3l0,0c0,0,0.8-0.4,2.5-2.1
					c1.7-1.7,2.7-3.6,2.7-3.6S534,270.6,533,270.9z"/>
				<path fill="#FFFFFF" d="M534.8,266C534.9,266.2,534.8,266,534.8,266L534.8,266z"/>
			</g>
			<path display="inline" opacity="0.5" fill="#FFFFFF" d="M526.5,304.5c6.6,0,12.9-1.1,18.8-3.1v-39.3c0-6.5-5.3-11.8-11.8-11.8
				h-44.3c-0.7,0-1.3,0-1.9,0c-6.2,0.4-11,5.5-11.1,11.8V276C486.4,293.1,505.1,304.5,526.5,304.5z"/>
		</g>
		<g>
			<g>
				<path fill="#32BA46" d="M646.4,159.4c0,6.5-5.3,11.8-11.8,11.8h-45.5c-6.5,0-11.8-5.3-11.8-11.8V114c0-6.5,5.3-11.8,11.8-11.8
					h45.5c6.5,0,11.8,5.3,11.8,11.8V159.4z"/>
			</g>
			<g>
				<g>
					<path fill="#FFFFFF" d="M611.9,163.1c-4.6,0-9.2-1.2-13.2-3.6l-10.3,3.6l2.1-10.9c-3.3-4.5-5.1-9.9-5.1-15.5
						c0-14.6,11.9-26.4,26.4-26.4c14.6,0,26.4,11.9,26.4,26.4C638.4,151.3,626.5,163.1,611.9,163.1z M599.2,155.3l0.8,0.5
						c3.6,2.3,7.7,3.4,11.9,3.4c12.4,0,22.5-10.1,22.5-22.5c0-12.4-10.1-22.5-22.5-22.5c-12.4,0-22.5,10.1-22.5,22.5
						c0,5.1,1.7,9.8,4.8,13.8l0.6,0.7l-1.2,6L599.2,155.3z"/>
				</g>
				<path fill="#FFFFFF" d="M598.6,126.5c0,0,1.6-2.7,2.8-2.9c1.3-0.2,2.9-0.2,3.3,0.7c0.4,0.8,2.4,5.6,2.4,5.6s0.3,0.8-0.2,1.6
					c-0.5,0.8-1.7,2-1.7,2s-0.6,0.8,0,1.7c0.6,0.9,1.6,2.5,3.7,4.6c2.1,2.1,6,3.5,6,3.5s0.6,0.1,0.9-0.3c0.4-0.4,2.3-2.8,2.3-2.8
					s0.6-0.8,1.7-0.3c1,0.5,5.6,2.7,5.6,2.7s0.5,0.2,0.5,1c0,0.8-0.3,2.8-1,3.4c-0.7,0.7-2.6,2.7-5.5,2.7c-2.9,0-9.8-2.4-13.5-6.1
					c-3.7-3.7-7-7.4-7.7-10.9C597.5,129.5,597.6,127.9,598.6,126.5z"/>
			</g>
			<path opacity="0.5" fill="#FFFFFF" d="M627.7,156.3c6.6,0,12.9-1.1,18.8-3.1V114c0-6.5-5.3-11.8-11.8-11.8h-44.3
				c-0.7,0-1.3,0-1.9,0c-6.2,0.4-11,5.5-11.1,11.8v13.8C587.6,144.8,606.3,156.3,627.7,156.3z"/>
		</g>
		<g display="none">
			<g display="inline">
				<g>
					<path fill="#FFEE15" d="M713,237.4c0,6.5-5.3,11.8-11.8,11.8h-45.5c-6.5,0-11.8-5.3-11.8-11.8v-45.5c0-6.5,5.3-11.8,11.8-11.8
						h45.5c6.5,0,11.8,5.3,11.8,11.8V237.4z"/>
				</g>
				<path fill="#FFFFFF" d="M702.2,226.8c0,0-6.1-2-9-7.1c-2.6-4.6,0.7-5.2,0.7-5.2s4.8-1,4.4-3.1c-0.4-2.1-2.9-0.7-3.3-0.6
					c-0.4,0.1-2.8,1.1-3.1-0.1c-0.3-1.2,0.8-8.7-1.2-12.9c-2.1-4.2-7.8-6.3-12.2-6.3l0,0l0,0l0,0l0,0c-4.4,0-10.1,2.1-12.2,6.3
					c-2.1,4.2-0.9,11.7-1.2,12.9c-0.3,1.2-2.8,0.3-3.1,0.1c-0.4-0.1-2.9-1.5-3.3,0.6c-0.4,2.1,4.4,3.1,4.4,3.1s3.3,0.7,0.7,5.2
					c-2.9,5.1-9,7.1-9,7.1c-1.8,0.6-1.2,1.3-1.2,1.3c2.2,2.7,6.7,0.4,7,2.7c0.4,2.3,0.6,2.6,1.5,2.6c0.9,0,5-2,8.4,1.1
					c3.7,3.5,8,3.3,8,3.3s4.3,0.1,8-3.3c3.4-3.1,7.5-1.1,8.4-1.1c0.9,0,1.1-0.3,1.5-2.6c0.4-2.3,4.8-0.1,7-2.7
					C703.4,228.1,704.1,227.4,702.2,226.8z"/>
			</g>
			<path display="inline" fill="#FFFFFF" d="M694.2,234.3c6.6,0,12.9-1.1,18.8-3.1v-39.3c0-6.5-5.3-11.8-11.8-11.8h-44.3
				c-0.7,0-1.3,0-1.9,0c-6.2,0.4-11,5.5-11.1,11.8v13.8C654.2,222.8,672.9,234.3,694.2,234.3z"/>
		</g>
		<g>
			<path fill-rule="evenodd" clip-rule="evenodd" fill="#FFFFFF" d="M804.8,371.9h-32.8c-10,0-18.2-8.1-18.2-18.2V321
				c0-10,8.1-18.2,18.2-18.2h32.8c10,0,18.2,8.1,18.2,18.2v32.8C823,363.8,814.9,371.9,804.8,371.9z"/>
			<g>
				<path fill="#F93D6E" d="M817.2,337.1c0,15.9-12.9,28.7-28.7,28.7c-15.9,0-28.7-12.9-28.7-28.7c0-15.9,12.9-28.7,28.7-28.7
					C804.3,308.4,817.2,321.2,817.2,337.1z"/>
				<path fill="#FFFFFF" d="M800.5,340.8c2.6-12.9-4.2-16-4.2-16c-9.6-4.7-16.5,0.5-16.5,0.5c-13,10.3-4.2,18.5-4.2,18.5l0,0
					l-1.2,5.2l0,0c0,0-10.7-1.9-6.7-16.6c4.1-15,25-17.7,32-12.5c0.3,0.2,0.7,0.5,1,0.7c3,1.9,14.7,10.8,6.5,26.1
					c0,0-9.2,17.2-22.4,5.9l0,0l-2.5,10l0,0l-4.9,7.3l0,0l-2.1-9.1l0,0l4.7-18.2l0,0c0,0-3-7.5,2.6-12.4l0.2-0.2
					c1-0.9,2.4-1.3,3.7-0.8c1.4,0.5,2.7,1.8,2.6,5.3c0,0-0.6,4.3-2.8,10.8l0,0c0,0,1.5,8.7,9.8,3.6l0,0
					C796.2,348.7,799.5,345.7,800.5,340.8z"/>
			</g>
			<path opacity="0.5" fill="#FFFFFF" d="M809.9,302.8h-42.8c-7.3,0-13.1,5.9-13.1,13.1v12.4c10.2,17.1,28.9,28.5,50.3,28.5
				c6.6,0,12.9-1.1,18.8-3.1V316C823,308.7,817.1,302.8,809.9,302.8z"/>
		</g>
	</g>
</g>
<g id="Layer_5">
	<g id="Layer_11">
		<g id="Layer_6">
			<g id="Layer_20">
				<g id="Layer_10_copy_3">
				</g>
			</g>
			<g id="Layer_17">
				<g id="Layer_10_copy_2">
				</g>
				<g id="Layer_9_copy_2">
				</g>
			</g>
			<g id="Layer_13">
				<g id="Layer_10_copy">
				</g>
				<g id="Layer_9_copy">
				</g>
				<g id="Layer_8_copy">
				</g>
			</g>
			<g id="Layer_12">
				<g id="Layer_10">
					<g>
						<path fill="#76F13D" d="M315.9,242.3c0,9.8-8,17.8-17.8,17.8h-26.1c-9.8,0-17.8-8-17.8-17.8v-26.2c0-9.8,8-17.8,17.8-17.8
							h26.1c9.8,0,17.8,8,17.8,17.8V242.3z"/>
						<path fill="#F1FEFF" d="M808.8,190.3c0,9.8-8,17.8-17.8,17.8h-26.2c-9.9,0-17.8-8-17.8-17.8v-26.2c0-9.8,8-17.8,17.8-17.8H791
							c9.8,0,17.8,8,17.8,17.8V190.3z"/>
						<path fill="#EFD5FD" d="M637,190.3c0,9.8-8,17.8-17.8,17.8H593c-9.8,0-17.8-8-17.8-17.8v-26.2c0-9.8,8-17.8,17.8-17.8h26.2
							c9.8,0,17.8,8,17.8,17.8V190.3z"/>
						<path fill="#56D4FB" d="M456,158.9c0,9.8-8,17.8-17.8,17.8H412c-9.8,0-17.8-8-17.8-17.8v-26.1c0-9.8,8-17.8,17.8-17.8h26.2
							c9.8,0,17.8,8,17.8,17.8V158.9z"/>
						<circle fill="#ED462F" cx="777.1" cy="175.8" r="19.5"/>
						<circle fill="#F2D631" cx="768.9" cy="181.9" r="13.4"/>
						<circle fill="#5EAD3B" cx="786.3" cy="181.9" r="13.4"/>
						<path fill="#FEFEFF" d="M305.3,229.8c0,7.4-6,13.4-13.4,13.4h-14.4c-7.4,0-13.4-6-13.4-13.4l0,0c0-7.4,6-13.4,13.4-13.4h14.4
							C299.3,216.5,305.3,222.5,305.3,229.8L305.3,229.8z"/>
						<path fill="#3387FB" d="M621.9,183c0,9.1-7.4,16.4-16.4,16.4l0,0c-9.1,0-16.4-7.4-16.4-16.4l0,0c0-9.1,7.4-16.4,16.4-16.4l0,0
							C614.5,166.5,621.9,173.9,621.9,183L621.9,183z"/>
						<path fill="#1E1E1C" d="M455.3,141.2c0,4.6-3.8,8.4-8.4,8.4h-44.3c-4.6,0-8.4-3.8-8.4-8.4l0,0c0-4.6,3.8-8.4,8.4-8.4h44.3
							C451.5,132.8,455.3,136.5,455.3,141.2L455.3,141.2z"/>
						<path fill="#2B61D4" d="M273.9,511.9c0,9.8-8,17.8-17.8,17.8h-26.1c-9.8,0-17.8-8-17.8-17.8v-26.1c0-9.8,8-17.8,17.8-17.8
							h26.1c9.8,0,17.8,8,17.8,17.8V511.9z"/>
						<path fill="#FFFDFF" d="M756.8,405.9c0,9.8-8,17.8-17.8,17.8h-26.2c-9.9,0-17.8-8-17.8-17.8v-26.1c0-9.8,8-17.8,17.8-17.8H739
							c9.8,0,17.8,8,17.8,17.8V405.9z"/>
						<path fill="#3C9ED3" d="M746.6,393.1c0,11.7-9.5,21.2-21.2,21.2c-11.7,0-21.2-9.5-21.2-21.2s9.5-21.2,21.2-21.2
							C737.1,371.8,746.6,381.3,746.6,393.1z"/>
						<g>
							<polygon fill="#D13D29" points="723.9,390.8 739.3,378 726.5,393.3 							"/>
							<polygon fill="#D8F1FE" points="726.6,393.2 711.2,406 724,390.7 							"/>
						</g>
						<rect x="218.8" y="486" fill="#FFFDFF" width="47.9" height="27.4"/>
						<polyline fill="none" stroke="#2B61D4" stroke-miterlimit="10" points="214.7,481.9 242.7,499.7 270.1,481.3 						"/>
					</g>
				</g>
				<g id="Layer_9">
				</g>
				<g id="Layer_8">
				</g>
				<g id="Layer_7">
				</g>
			</g>
		</g>
	</g>
</g>
</svg>
