<?xml version="1.0" encoding="UTF-8" standalone="no"?>
<!-- Created with Inkscape (http://www.inkscape.org/) -->

<svg
   xmlns:dc="http://purl.org/dc/elements/1.1/"
   xmlns:cc="http://creativecommons.org/ns#"
   xmlns:rdf="http://www.w3.org/1999/02/22-rdf-syntax-ns#"
   xmlns:svg="http://www.w3.org/2000/svg"
   xmlns="http://www.w3.org/2000/svg"
   xmlns:sodipodi="http://sodipodi.sourceforge.net/DTD/sodipodi-0.dtd"
   xmlns:inkscape="http://www.inkscape.org/namespaces/inkscape"
   version="1.1"
   id="svg2"
   xml:space="preserve"
   width="768"
   height="384"
   viewBox="0 0 768 384"
   sodipodi:docname="background-element.svg"
   inkscape:version="0.92.3 (2405546, 2018-03-11)"><metadata
     id="metadata8"><rdf:RDF><cc:Work
         rdf:about=""><dc:format>image/svg+xml</dc:format><dc:type
           rdf:resource="http://purl.org/dc/dcmitype/StillImage" /></cc:Work></rdf:RDF></metadata><defs
     id="defs6"><clipPath
       clipPathUnits="userSpaceOnUse"
       id="clipPath22"><path
         d="m 1559.88,2433.23 c 304.61,-304.6 304.61,-798.47 0,-1103.08 -304.61,-304.61 -798.478,-304.61 -1103.087,0 -304.609,304.61 -304.609,798.48 0,1103.08 304.609,304.61 798.477,304.61 1103.087,0 z"
         id="path20"
         inkscape:connector-curvature="0" /></clipPath><linearGradient
       x1="0"
       y1="0"
       x2="1"
       y2="0"
       gradientUnits="userSpaceOnUse"
       gradientTransform="matrix(-1358.55,1358.55,1358.55,1358.55,1531.6,1358.43)"
       spreadMethod="pad"
       id="linearGradient28"><stop
         style="stop-opacity:1;stop-color:#4abcc4"
         offset="0"
         id="stop24" /><stop
         style="stop-opacity:1;stop-color:#62c784"
         offset="1"
         id="stop26" /></linearGradient><clipPath
       clipPathUnits="userSpaceOnUse"
       id="clipPath38"><path
         d="m 4242.21,381.398 c -304.6,304.614 -304.6,798.472 0,1103.082 304.61,304.61 798.48,304.61 1103.09,0 304.61,-304.61 304.61,-798.468 0,-1103.082 -304.61,-304.6089 -798.48,-304.6089 -1103.09,0 z"
         id="path36"
         inkscape:connector-curvature="0" /></clipPath><linearGradient
       x1="0"
       y1="0"
       x2="1"
       y2="0"
       gradientUnits="userSpaceOnUse"
       gradientTransform="matrix(1358.55,-1358.55,-1358.55,-1358.55,4270.5,1456.2)"
       spreadMethod="pad"
       id="linearGradient44"><stop
         style="stop-opacity:1;stop-color:#4abcc4"
         offset="0"
         id="stop40" /><stop
         style="stop-opacity:1;stop-color:#62c784"
         offset="1"
         id="stop42" /></linearGradient><clipPath
       clipPathUnits="userSpaceOnUse"
       id="clipPath320"><path
         d="m 3255.6,782.141 c -0.16,0 -0.32,0 -0.48,0 h -0.25 c -249.91,0 -499.83,0 -749.74,0 h -0.25 c -0.17,0 -0.32,0 -0.49,0 -37.44,0 -74.64,15.73 -100.74,42.109 -26.49,26.219 -42.25,63.621 -42.11,101.23 v 0.29 c -0.14,37.609 15.62,75.01 42.11,101.23 26.1,26.37 63.28,42.11 100.71,42.11 0.17,0 0.35,0 0.52,0 h 0.25 c 0,0 249.94,0 749.84,0 0,-7.89 0,-11.82 0,-11.82 0,-3.95 0,-7.9 0,-11.84 0,-3.95 0,-7.89 0,-11.83 0,-3.94 0,-7.89 0,-11.83 v 0 h -749.94 c -52.89,0 -96.17,-43.27 -96.17,-96.169 0,-52.891 43.28,-96.16 96.17,-96.16 h 749.94 c 52.89,0 96.16,43.269 96.16,96.16 0,52.899 -43.27,96.169 -96.16,96.169 v 0 0 c 0,3.94 0,7.89 0,11.83 0,3.94 0,7.88 0,11.83 0,3.94 0,7.89 0,11.84 0,0 0,3.93 0,11.82 37.85,-0.03 69.47,-15.11 90.94,-32.66 21.49,-18.07 34.35,-38.411 41.48,-55.739 7.38,-17.371 9.09,-31.652 10.35,-40.891 0.47,-9.359 0.71,-14.05 0.71,-14.05 v -0.29 c 0.14,-37.609 -15.61,-75.011 -42.1,-101.23 -26.11,-26.379 -63.31,-42.109 -100.75,-42.109"
         id="path318"
         inkscape:connector-curvature="0" /></clipPath></defs><sodipodi:namedview
     pagecolor="#ffffff"
     bordercolor="#666666"
     borderopacity="1"
     objecttolerance="10"
     gridtolerance="10"
     guidetolerance="10"
     inkscape:pageopacity="0"
     inkscape:pageshadow="2"
     inkscape:window-width="1366"
     inkscape:window-height="705"
     id="namedview4"
     showgrid="false"
     inkscape:zoom="1.1748285"
     inkscape:cx="425.68858"
     inkscape:cy="181.36368"
     inkscape:window-x="0"
     inkscape:window-y="30"
     inkscape:window-maximized="1"
     inkscape:current-layer="g12" /><g
     id="g10"
     inkscape:groupmode="layer"
     inkscape:label="ink_ext_XXXXXX"
     transform="matrix(1.3333333,0,0,-1.3333333,0,384)"><g
       id="g12"
       transform="scale(0.1)"><path
         d="m 1228.34,2043.36 c -8.96,0 -17.92,3.42 -24.75,10.25 -13.67,13.66 -13.67,35.83 0,49.5 l 903.33,903.33 c 13.68,13.67 35.84,13.66 49.5,0 13.67,-13.67 13.67,-35.83 0,-49.49 l -903.33,-903.34 c -6.84,-6.83 -15.8,-10.25 -24.75,-10.25"
         style="fill:#ffffff;fill-opacity:1;fill-rule:nonzero;stroke:none"
         id="path344"
         inkscape:connector-curvature="0" /><path
         d="m -234.992,230.02 c -1.281,0 -2.559,0.492 -3.535,1.46 -1.953,1.961 -1.953,5.122 0,7.071 L 1054.8,1531.89 c 1.96,1.96 5.12,1.96 7.07,0 1.96,-1.95 1.96,-5.11 0,-7.07 L -231.457,231.48 c -0.977,-0.968 -2.258,-1.46 -3.535,-1.46"
         style="fill:#ffffff;fill-opacity:1;fill-rule:nonzero;stroke:none"
         id="path346"
         inkscape:connector-curvature="0" /><path
         d="m 4718.34,1103.36 c -1.28,0 -2.56,0.49 -3.54,1.46 -1.95,1.96 -1.95,5.12 0,7.07 l 1340,1340 c 1.96,1.96 5.12,1.96 7.07,0 1.96,-1.95 1.96,-5.11 0,-7.07 l -1340,-1340 c -0.97,-0.97 -2.25,-1.46 -3.53,-1.46"
         style="fill:#ffffff;fill-opacity:1;fill-rule:nonzero;stroke:none"
         id="path348"
         inkscape:connector-curvature="0" /><path
         d="m 4325.01,1681.69 c -25.59,0 -51.19,9.77 -70.71,29.29 -39.05,39.05 -39.05,102.37 0,141.42 l 1340,1340 c 39.05,39.05 102.37,39.05 141.42,0 39.05,-39.05 39.05,-102.37 0,-141.42 l -1340,-1340 c -19.52,-19.52 -45.12,-29.29 -70.71,-29.29"
         style="fill:#ffffff;fill-opacity:1;fill-rule:nonzero;stroke:none"
         id="path350"
         inkscape:connector-curvature="0" /><path
         d="m 11.6719,-591.641 c -25.5899,0 -51.1875,9.762 -70.711,29.289 -39.0507,39.051 -39.0507,102.372 0,141.422 l 1339.9991,1340 c 39.05,39.051 102.37,39.051 141.43,0 39.04,-39.05 39.04,-102.371 0,-141.422 l -1340.0033,-1340 c -19.5273,-19.527 -45.125,-29.289 -70.7148,-29.289"
         style="fill:#ffffff;fill-opacity:1;fill-rule:nonzero;stroke:none"
         id="path352"
         inkscape:connector-curvature="0" /><path
         d="m 4005.01,-291.641 c -2.56,0 -5.12,0.981 -7.07,2.93 -3.91,3.91 -3.91,10.231 0,14.141 l 990.83,990.832 c 3.9,3.91 10.23,3.91 14.14,0 3.91,-3.91 3.91,-10.231 0,-14.141 l -990.83,-990.832 c -1.95,-1.949 -4.51,-2.93 -7.07,-2.93"
         style="fill:#ffffff;fill-opacity:1;fill-rule:nonzero;stroke:none"
         id="path354"
         inkscape:connector-curvature="0" /><path
         d="m 3695.01,523.359 c -8.96,0 -17.92,3.422 -24.75,10.25 -13.67,13.672 -13.67,35.832 0,49.5 l 696.66,696.661 c 13.68,13.66 35.84,13.66 49.5,0 13.67,-13.67 13.67,-35.83 0,-49.5 L 3719.76,533.609 c -6.84,-6.828 -15.8,-10.25 -24.75,-10.25"
         style="fill:#ffffff;fill-opacity:1;fill-rule:nonzero;stroke:none"
         id="path356"
         inkscape:connector-curvature="0" /><path
         d="m 2105.01,2385.02 c -1.28,0 -2.56,0.49 -3.54,1.46 -1.95,1.96 -1.95,5.12 0,7.07 l 316.67,316.68 c 1.95,1.95 5.11,1.95 7.07,0 1.95,-1.96 1.95,-5.12 0,-7.08 l -316.67,-316.67 c -0.97,-0.97 -2.25,-1.46 -3.53,-1.46"
         style="fill:#ffffff;fill-opacity:1;fill-rule:nonzero;stroke:none"
         id="path358"
         inkscape:connector-curvature="0" /><path
         d="m 111.672,1550.02 c -1.277,0 -2.559,0.49 -3.535,1.46 -1.953,1.96 -1.953,5.12 0,7.07 L 1141.47,2591.89 c 1.96,1.96 5.12,1.96 7.07,0 1.96,-1.95 1.96,-5.11 0,-7.07 L 115.207,1551.48 c -0.977,-0.97 -2.254,-1.46 -3.535,-1.46"
         style="fill:#ffffff;fill-opacity:1;fill-rule:nonzero;stroke:none"
         id="path360"
         inkscape:connector-curvature="0" /></g></g></svg>