<?xml version="1.0" encoding="utf-8"?>
<!-- Generator: Adobe Illustrator 23.0.1, SVG Export Plug-In . SVG Version: 6.00 Build 0)  -->
<svg version="1.1" xmlns="http://www.w3.org/2000/svg" xmlns:xlink="http://www.w3.org/1999/xlink" x="0px" y="0px"
	 viewBox="0 0 1000 1000" enable-background="new 0 0 1000 1000" xml:space="preserve">
<g id="Layer_2">
	<path fill="#BD9BC4" d="M420,864c-39.9-0.4-103.9-16.1-120-59c-11-29.2,10.1-43,2-74c-10.8-41.6-60.2-43.1-114-83
		c-52.6-39.1-114.8-118.9-96-189c14.9-55.8,74.7-81.9,84-86c9.3-4.1,71-31.1,118-3c34.4,20.5,26.3,49.9,60,68
		c35,18.8,89.7,12,111-17c4.9-6.7,14.7-23.6-10-125c-21.3-87.3-34.9-101.2-26-132c14.4-49.8,67.4-73.9,83-81
		c20.9-9.5,77.8-30.4,138-3c51.5,23.4,73.4,67.7,79,80c5.1,11.3,18.1,40.8,14,78c-4.9,44.8-29.5,55.5-51,126c-12.3,40.4-8.5,51-6,56
		c8.4,16.8,26.1,19.3,87,38c51.9,15.9,77.4,25.5,94,44c24.4,27.1,32.4,69.9,22,107c-15,53.3-67.1,91.3-111,88
		c-53.3-4-57.9-66.2-115-74c-51.1-6.9-112.5,38.6-130,90c-16,47,13.7,72.7-8,108C498.6,863.9,431.4,864.1,420,864z"/>
</g>
<g id="Layer_3" display="none">
	<text transform="matrix(1 0 0 1 193.3828 224.3828)" opacity="0.36" font-family="'Rockwell'" font-size="120px">Logo</text>
	<line display="inline" fill="none" stroke="#000000" stroke-width="2" x1="179" y1="143" x2="254" y2="143"/>
	<line display="inline" fill="none" stroke="#000000" stroke-width="2" x1="195" y1="133" x2="195" y2="163"/>
	<line display="inline" fill="none" stroke="#000000" stroke-width="2" x1="195" y1="198" x2="195" y2="251"/>
	<line display="inline" fill="none" stroke="#000000" stroke-width="2" x1="246" y1="166" x2="481" y2="166"/>
	<line display="inline" fill="none" stroke="#000000" stroke-width="2" x1="179" y1="224" x2="327" y2="224"/>
	<line display="inline" fill="none" stroke="#000000" stroke-width="2" x1="205" y1="153" x2="205" y2="214"/>
	<line display="inline" fill="none" stroke="#000000" x1="191" y1="153" x2="208" y2="153"/>
	<circle display="inline" fill="none" stroke="#000000" stroke-width="2" cx="358" cy="195" r="18"/>
	<circle display="inline" fill="none" stroke="#000000" stroke-width="2" cx="291" cy="195" r="18"/>
	<circle display="inline" fill="none" stroke="#000000" stroke-width="2" cx="291" cy="195" r="29"/>
	<circle display="inline" fill="none" stroke="#000000" stroke-width="2" cx="358" cy="195" r="29"/>
	<line display="inline" fill="none" stroke="#000000" x1="191" y1="214" x2="206" y2="214"/>
	<line display="inline" fill="none" stroke="#000000" x1="244.5" y1="214.5" x2="217.5" y2="214.5"/>
	<line display="inline" fill="none" stroke="#000000" x1="255.5" y1="186.5" x2="242.5" y2="186.5"/>
	<line display="inline" fill="none" stroke="#000000" x1="228.5" y1="131.5" x2="228.5" y2="162.5"/>
	<line display="inline" fill="none" stroke="#000000" x1="250.5" y1="153.5" x2="218.5" y2="153.5"/>
	<line display="inline" fill="none" stroke="#000000" stroke-width="2" x1="218.5" y1="214" x2="218.5" y2="153"/>
	<line display="inline" fill="none" stroke="#000000" stroke-width="2" x1="255" y1="159" x2="255" y2="244"/>
	<line display="inline" fill="none" stroke="#000000" stroke-width="2" x1="243" y1="186" x2="243" y2="214"/>
</g>
<g id="Layer_4">
</g>
<g id="Layer_1">
	<g>
		<g>
			<path fill="#709ED6" d="M399.5,272.1c-21.9,7.9-45.2,115.7-45.2,115.7c23.4,22.2,62.5,18.5,62.5,18.5l30.3-76.3
				C447,329.9,421.4,264.2,399.5,272.1z"/>
			<path fill="#88D2FF" d="M399.5,272.1c-21.9,7.9-45.2,115.7-45.2,115.7c7.9,7.5,17.6,12,27,14.8c5.3-16.3,12.1-37,18.3-57.3
				c7.4-24.1,7.3-52.9,5.8-73.6C403.3,271.3,401.4,271.4,399.5,272.1z"/>
			<path fill="#709ED6" d="M704,386.8c0,0-24-107.6-46-115.4c-22-7.8-47.2,58.1-47.2,58.1l18.8,71.1
				C629.6,400.6,680.7,409.1,704,386.8z"/>
			<path fill="#88D2FF" d="M630.5,290.5c1.3,33.8,6.1,81.5,21.8,111.7c16.7,0,38.6-2.8,51.6-15.4c0,0-24-107.6-46-115.4
				C648.7,268,638.8,278,630.5,290.5z"/>
			<path fill="#A6DDFF" d="M400.8,271.6c4.7-1.7,23.8-8.6,93-33.6h74.1c0.3,0.1,88.8,32.1,91.4,34c-0.1,0.2-30.7,20.1-33,120.2
				c-1.6,67.6,7.1,223.7,7.1,223.9c0,0-69.4,46.7-209,4.5l4.7-239.5c-2.8-19.5-15.1-95.1-29.7-109L400.8,271.6z"/>
			<path opacity="0.58" fill="#5F89C6" d="M633.4,616.1c0,0-69.4,46.7-209,4.5l4.7-239.5c0,0-13.3-93.4-29.7-109l7.2-2.6
				c12.5,25.9,40.4,85.8,40.4,107.5c0,28,4.2,183.4,9.3,204.7C461.5,602.9,571.2,632.2,633.4,616.1z"/>
			<path fill="#C3E4FA" d="M528.7,360.7L528.7,360.7c-7,0-12.7-5.4-12.7-12v-86.6h25.4v86.6C541.4,355.3,535.7,360.7,528.7,360.7z"
				/>
			<path fill="#5F83C6" d="M541.4,262.1c0.3,7,3.7,86.2,0,92.3c-2.3,4-8,6.6-12.7,6.3c5.2-0.2,10.5-3.5,11.9-9.7
				C541,348.3,539.5,302.7,541.4,262.1z"/>
			<path fill="#505D79" d="M529.3,262.8c-35.2,3.7-46.8-35.6-40.9-37.8c0,0,61.9,2.3,76.6,0.4c1.7-0.2,3.3,0.2,4.7,1.1l0,0
				C571.8,234.4,557.5,259.9,529.3,262.8z"/>
			<path fill="#DBC083" d="M559.5,248c7.8-8.1,11.3-17.3,10.2-21.5l0,0c-1.4-0.9-3.1-1.3-4.7-1.1c-14.6,1.9-76.6-0.4-76.6-0.4
				c-3.1,1.2-1.3,12.8,6.3,22.9C512.8,248.4,547.8,249.3,559.5,248z"/>
			<path fill="#FFE6A6" d="M529.3,262.8l-28.1,36.7c0,0-35.1-39.7-29.9-53.4c5.2-13.7,14.3-21.1,17-21.1
				C482.5,227.2,494.2,266.5,529.3,262.8z"/>
			<path fill="#FFE6A6" d="M554.7,295.8l-25.3-33c29.4-3.1,42.2-29.5,40.4-36.3c3.6,2.4,10.5,7.7,16.1,17.5
				C594.1,258,554.7,295.8,554.7,295.8z"/>
			<g>
				<ellipse fill="#FFFFE3" cx="528.2" cy="287.9" rx="5.3" ry="5"/>
				<path opacity="0.4" fill="#BCB49B" d="M528.2,282.9c-0.3,0-0.7,0-1,0.1c2.4,0.4,4.3,2.5,4.3,4.9c0,2.4-1.9,4.5-4.3,4.9
					c0.3,0.1,0.6,0.1,1,0.1c2.9,0,5.3-2.2,5.3-5C533.4,285.2,531.1,282.9,528.2,282.9z"/>
			</g>
			<g>
				<ellipse fill="#FFFFE3" cx="528.2" cy="311.4" rx="5.3" ry="5"/>
				<path opacity="0.4" fill="#BCB49B" d="M528.2,306.4c-0.3,0-0.7,0-1,0.1c2.4,0.4,4.3,2.5,4.3,4.9c0,2.4-1.9,4.5-4.3,4.9
					c0.3,0.1,0.6,0.1,1,0.1c2.9,0,5.3-2.2,5.3-5C533.4,308.6,531.1,306.4,528.2,306.4z"/>
			</g>
			<g>
				<ellipse fill="#FFFFE3" cx="528.2" cy="338.1" rx="5.3" ry="5"/>
				<path opacity="0.4" fill="#BCB49B" d="M528.2,333.1c-0.3,0-0.7,0-1,0.1c2.4,0.4,4.3,2.5,4.3,4.9c0,2.4-1.9,4.5-4.3,4.9
					c0.3,0.1,0.6,0.1,1,0.1c2.9,0,5.3-2.2,5.3-5C533.4,335.4,531.1,333.1,528.2,333.1z"/>
			</g>
			<path fill="#5C7A93" d="M609,626.5c-55.6,18.6-126.1,9.8-182.8-7.2c0.9-55.4,2.5-146.2,2.3-206.7c-2.5,56.7-4.6,152.5-5.9,209.3
				c38.4,10.3,57.5,14.9,93.8,17.3c3.7-0.1,74,4.5,117.1-23C625.8,620.5,617.5,623.8,609,626.5z"/>
			<g>
				<path fill="#C46F74" d="M501.2,298c-8.2-9.7-33.3-39.9-29.9-51.9c-5.2,13.3,21.7,44.9,29.9,54.9c8.4-11.1,19.5-25.8,28-38.2
					C520.2,273.6,509.2,287.9,501.2,298z"/>
				<path fill="#C46F74" d="M585.9,244c5.9,12.1-21.3,40.7-31.1,50.4c-6.6-8.5-18.4-23.4-25.4-31.6c8,11.6,20.8,28.4,25.2,34.4
					C557.3,294.2,594.8,258.3,585.9,244z"/>
			</g>
		</g>
	</g>
	<g>
		<polygon fill="#E50046" points="249.1,393.2 237,709 440,721 450.2,392 		"/>
		<g>
			<path fill="none" stroke="#591222" stroke-width="0.4643" stroke-miterlimit="10" d="M313.8,415.7c0,2.8-2.2,5-5,5
				c-2.8,0-5-2.2-5-5c0-2.8,2.2-5,5-5C311.5,410.7,313.8,412.9,313.8,415.7z"/>
			<path fill="#591222" d="M311.4,415.9c0,1.5-1.2,2.7-2.7,2.7s-2.7-1.2-2.7-2.7c0-1.5,1.2-2.7,2.7-2.7
				C310.2,413.2,311.4,414.4,311.4,415.9z"/>
		</g>
		<polygon fill="#B40B37" points="458.5,395.6 462.8,702.6 440,721 450.2,392 		"/>
		<polygon fill="#94132E" points="458.5,395.6 462.8,702.6 488,696 468.5,395.9 		"/>
		<g>
			<path fill="none" stroke="#591222" stroke-width="0.4643" stroke-miterlimit="10" d="M390.6,415.7c0,2.8-2.2,5-5,5
				c-2.8,0-5-2.2-5-5c0-2.8,2.2-5,5-5C388.4,410.7,390.6,413,390.6,415.7z"/>
			<path fill="#591222" d="M388.3,415.9c0,1.5-1.2,2.7-2.7,2.7c-1.5,0-2.7-1.2-2.7-2.7c0-1.5,1.2-2.7,2.7-2.7
				C387.1,413.2,388.3,414.4,388.3,415.9z"/>
		</g>
		<path fill="#8E213E" d="M345.1,500.9c-6.6,0-12.6-2.8-17.7-8.3c-17.6-19-20.8-65.8-20-76c0.1-0.7,0.7-1.2,1.4-1.2
			c0.7,0.1,1.2,0.7,1.2,1.4c-0.8,10,2.3,55.7,19.3,74.1c4.6,5,10,7.5,15.8,7.5c29.8,0,39.2-63.7,39.2-81.7c0-0.7,0.6-1.3,1.3-1.3
			c0.7,0,1.3,0.6,1.3,1.3C386.9,429.8,379.1,501,345.1,500.9z"/>
	</g>
	<g>
		<ellipse fill="#BAD1BB" cx="597.3" cy="540.3" rx="81.6" ry="16.3"/>
		<path fill="#9EBEA0" d="M597.3,556.6c-45.1,0-81.6-7.3-81.6-16.3v163.2c0,9,36.5,16.3,81.6,16.3c45.1,0,81.6-7.3,81.6-16.3V540.3
			C678.9,549.3,642.4,556.6,597.3,556.6z"/>
		<path fill="#84A585" d="M597.3,552.5c-48.3,0-75.7-8-77.5-12.4c1.8-4.1,29.3-12,77.5-12c48.3,0,75.7,8,77.5,12.4
			C673,544.5,645.6,552.5,597.3,552.5z"/>
		<path fill="#3F3128" d="M533.9,546.3c12.9,3.3,34.4,6.2,63.4,6.2c29.1,0,50.5-2.9,63.4-6.1c-12.9-3.3-34.4-6.2-63.4-6.2
			C568.2,540.3,546.8,543.1,533.9,546.3z"/>
		<path fill="#84A585" d="M638.1,709.3c18-2.2,29.1-5.5,32.6-7.8V555.9c-9.1,3.3-20.9,5.4-32.6,6.7V709.3z"/>
		<g>
			<path fill="#BAD1BB" d="M532,558.4c-2.9-0.7-5.6-1.6-8.2-2.5v145.6c1.4,1,4.2,2.1,8.2,3.2V558.4z"/>
		</g>
		<path fill="#9EBEA0" d="M678.9,564.7v16.3c22.5,0,40.8,18.3,40.8,40.8c0,22.5-18.3,40.8-40.8,40.8V679c31.5,0,57.1-25.6,57.1-57.1
			C736,590.4,710.4,564.7,678.9,564.7z"/>
	</g>
	<path display="none" fill="#D1D3D4" d="M614,630"/>
	<text transform="matrix(1 0 0 1 551.4521 356.186)" fill="#C46F74" font-family="'Rockwell'" font-size="15.2041px">Jugadu.in</text>
	<g>
		<g>
			<path fill="#FFFFFF" d="M277,557.5c0-1.6,0-2.3,0-3.9c0.7,0.3,1.4,0.5,2,0.5c0.8,0,1.3-0.3,1.6-0.9c0.3-0.7,0.4-2,0.4-4
				c0-9.7,0-14.6,0-24.3c-1,0-1.4,0-2.4,0c0-1.4,0-2.1,0-3.5c3.1,0,4.6,0,7.6,0c0,1.4,0,2.1,0,3.5c-1,0-1.4,0-2.4,0
				c0,9.8,0,14.8,0,24.6c0,2.1-0.1,3.7-0.3,4.8s-0.7,2-1.5,2.7c-0.8,0.7-1.8,1.1-2.9,1C278.4,558.1,277.7,557.9,277,557.5z"/>
			<path fill="#FFFFFF" d="M301.5,546.8c0,1.4,0,2.1,0,3.5c-1.9-0.1-2.9-0.1-4.8-0.2c0-0.9,0-1.4,0-2.3c-1.5,1.7-2.9,2.5-4.3,2.4
				c-0.9,0-1.6-0.4-2.2-1s-1-1.4-1.1-2.3c-0.2-0.9-0.3-2.4-0.3-4.4c0-3.6,0-5.4,0-9.1c-0.7,0-1.1,0-1.8,0c0-1.4,0-2.1,0-3.4
				c1.8,0,2.6,0,4.4,0.1c0,4.8,0,7.2,0,12.1c0,1.5,0,2.4,0.1,2.9c0.1,0.5,0.2,0.9,0.5,1.3s0.6,0.5,1,0.5c1.2,0,2.5-0.8,3.8-2.5
				c0-4.3,0-6.5,0-10.8c-0.9,0-1.4,0-2.3,0c0-1.4,0-2.1,0-3.5c1.9,0,2.9,0,4.9,0.1c0,6.6,0,9.9,0,16.5
				C300.1,546.7,300.6,546.7,301.5,546.8z"/>
			<path fill="#FFFFFF" d="M318.7,530.4c0,1.4,0,2.2,0,3.6c-0.9,0-1.4,0-2.3,0c0,6.1,0,9.2,0,15.3c0,2.1-0.1,3.6-0.2,4.6
				c-0.1,1-0.5,2-1,3c-0.5,1-1.3,1.8-2.3,2.5c-1,0.6-2.2,0.9-3.5,0.9c-1.9-0.1-3.6-1.1-5.2-3c0.7-1.1,1-1.7,1.7-2.8
				c1.1,1.4,2.4,2.2,3.7,2.2c0.7,0,1.4-0.1,2.1-0.6s1.1-0.9,1.4-1.5s0.5-1.2,0.6-1.8c0.1-0.6,0.1-1.5,0.1-2.9c0-0.7,0-1.1,0-1.9
				c-0.4,0.8-1,1.5-1.9,2.2c-0.9,0.7-1.8,1-2.8,1c-1.9-0.1-3.4-1.1-4.6-3.2s-1.8-4.5-1.8-7.4c0-3.2,0.6-5.7,1.9-7.7
				c1.3-1.9,2.8-2.9,4.5-2.9c1.7,0,3.3,1.1,4.6,3.3c0-1.2,0-1.7,0-2.9C315.8,530.4,316.8,530.4,318.7,530.4z M305.5,540.5
				c0,2,0.4,3.7,1.2,5s1.8,2,2.9,2.1c1.2,0,2.2-0.6,3-1.9c0.8-1.3,1.3-3,1.3-5c0-2.1-0.4-3.8-1.3-5.1c-0.8-1.3-1.8-1.9-2.9-2
				c-1.1,0-2.1,0.6-2.9,1.8C305.9,536.8,305.5,538.4,305.5,540.5z"/>
			<path fill="#FFFFFF" d="M332.9,547.9c0,1.5,0,2.2,0,3.7c-1.8-0.1-2.7-0.1-4.5-0.2c0-1,0-1.5,0-2.5c-1.2,1.9-2.6,2.8-4.2,2.7
				c-1.2,0-2.2-0.7-3.1-2c-0.9-1.3-1.3-2.8-1.3-4.7c0-1.9,0.5-3.5,1.4-4.7c0.9-1.2,2.1-1.8,3.4-1.8c1.2,0,2.4,0.6,3.5,1.8
				c0-0.8,0-1.2,0-2.1c0-1.1-0.1-1.9-0.2-2.5c-0.1-0.6-0.4-1.1-0.9-1.6c-0.5-0.5-1.1-0.7-1.8-0.7c-1.3,0-2.2,0.8-2.8,2.4
				c-1-0.4-1.5-0.6-2.5-1.1c1.1-3.2,3-4.8,5.6-4.7c1,0,1.8,0.2,2.5,0.7s1.2,1,1.6,1.7c0.4,0.7,0.6,1.4,0.7,2.2s0.2,2,0.2,3.7
				c0,3.9,0,5.8,0,9.7C331.6,547.9,332.1,547.9,332.9,547.9z M328.2,543.6c-1.1-1.4-2.2-2.1-3.4-2.2c-0.7,0-1.3,0.3-1.8,0.9
				c-0.5,0.6-0.7,1.5-0.7,2.5c0,1,0.2,1.8,0.6,2.5s1,1,1.7,1c1.2,0,2.4-0.7,3.5-2.4C328.2,545.1,328.2,544.6,328.2,543.6z"/>
			<path fill="#FFFFFF" d="M350.5,548.5c0,1.5,0,2.2,0,3.7c-2-0.1-2.9-0.1-4.9-0.2c0-1.3,0-1.9,0-3.1c-1.3,2.3-2.8,3.4-4.7,3.3
				c-1.7-0.1-3.2-1.1-4.5-3c-1.3-1.9-1.9-4.6-1.9-8c0-3.5,0.7-6.2,2-8.2c1.3-2,2.8-3,4.5-2.9c1.8,0,3.3,1.2,4.6,3.5
				c0-3.4,0-5.1,0-8.4c-1,0-1.5,0-2.5,0c0-1.5,0-2.2,0-3.7c2,0,3,0,5.1,0c0,10.8,0,16.2,0,27C349.1,548.5,349.5,548.5,350.5,548.5z
				 M337.2,541.2c0,2.3,0.4,4.1,1.2,5.4c0.8,1.3,1.8,1.9,2.9,2c1.1,0,2.1-0.6,2.9-1.9s1.3-3.1,1.3-5.5c0-2.4-0.4-4.2-1.3-5.4
				c-0.9-1.2-1.8-1.8-2.9-1.9c-1.2,0-2.1,0.7-2.9,2.1S337.2,539.1,337.2,541.2z"/>
			<path fill="#FFFFFF" d="M365.8,549.1c0,1.5,0,2.3,0,3.8c-1.9-0.1-2.9-0.1-4.8-0.2c0-1,0-1.5,0-2.5c-1.5,1.8-2.9,2.7-4.3,2.7
				c-0.9,0-1.6-0.4-2.2-1c-0.6-0.7-1-1.5-1.1-2.5c-0.2-1-0.3-2.6-0.3-4.9c0-4,0-5.9,0-9.9c-0.7,0-1.1,0-1.8,0c0-1.5,0-2.3,0-3.8
				c1.8,0,2.6,0,4.4,0.1c0,5.3,0,7.9,0,13.2c0,1.6,0,2.7,0.1,3.2c0.1,0.6,0.2,1,0.5,1.4s0.6,0.6,1,0.6c1.2,0,2.5-0.8,3.8-2.7
				c0-4.7,0-7.1,0-11.8c-0.9,0-1.4,0-2.3,0c0-1.5,0-2.3,0-3.8c1.9,0,2.9,0,4.9,0.1c0,7.2,0,10.8,0,18
				C364.5,549.1,364.9,549.1,365.8,549.1z"/>
			<path fill="#FFFFFF" d="M368.5,553c0-2.2,0-3.4,0-5.6c1.3,0,2,0.1,3.3,0.1c0,2.2,0,3.4,0,5.6C370.5,553.1,369.8,553.1,368.5,553z
				"/>
			<path fill="#FFFFFF" d="M377.1,549.5c0-5.8,0-8.7,0-14.5c-0.8,0-1.2,0-2,0c0-1.5,0-2.3,0-3.9c1.8,0,2.8,0,4.6,0.1
				c0,7.4,0,11,0,18.4c0.8,0,1.2,0,2,0.1c0,1.6,0,2.3,0,3.9c-2.6-0.1-4-0.2-6.6-0.3c0-1.5,0-2.3,0-3.9
				C375.9,549.5,376.3,549.5,377.1,549.5z M376.7,523.6c0-0.7,0.1-1.3,0.4-1.8c0.3-0.5,0.7-0.8,1.1-0.8c0.4,0,0.8,0.3,1.1,0.8
				s0.5,1.1,0.5,1.9c0,0.7-0.2,1.4-0.5,1.9c-0.3,0.5-0.7,0.8-1.1,0.8c-0.4,0-0.8-0.3-1.1-0.8S376.7,524.3,376.7,523.6z"/>
			<path fill="#FFFFFF" d="M387.9,531.3c0,1.1,0,1.6,0,2.7c1.6-2,3.1-3,4.5-3c0.8,0,1.5,0.4,2.1,1.1c0.6,0.7,0.9,1.6,1.1,2.6
				s0.3,2.5,0.3,4.4c0,4.4,0,6.7,0,11.1c0.9,0,1.3,0,2.2,0.1c0,1.6,0,2.4,0,4c-1.9-0.1-2.9-0.1-4.8-0.2c0-5.9,0-8.9,0-14.8
				c0-1.7-0.1-2.8-0.4-3.4c-0.3-0.5-0.7-0.8-1.1-0.8c-1.1,0-2.4,0.9-3.8,2.8c0,4.8,0,7.2,0,12.1c0.9,0,1.4,0,2.3,0.1
				c0,1.6,0,2.4,0,3.9c-2.8-0.1-4.3-0.2-7.1-0.3c0-1.6,0-2.3,0-3.9c0.9,0,1.4,0,2.3,0.1c0-5.8,0-8.8,0-14.6c-0.9,0-1.4,0-2.3,0
				c0-1.6,0-2.3,0-3.9C384.9,531.3,385.9,531.3,387.9,531.3z"/>
		</g>
	</g>
	<g>
		<g>
			<path fill="#7C4D23" d="M539,638.8c0-0.9,0-1.3,0.1-2.2c0.6,0.3,1.2,0.6,1.8,0.7c0.7,0.2,1.2,0.2,1.5-0.2s0.4-1,0.4-2.1
				c0.1-5.4,0.2-8.2,0.3-13.6c-0.9-0.2-1.3-0.4-2.2-0.6c0-0.8,0-1.2,0-2c2.7,0.8,4.1,1.1,6.9,1.8c0,0.8,0,1.2,0,2
				c-0.9-0.2-1.3-0.3-2.2-0.5c-0.1,5.5-0.2,8.2-0.3,13.7c0,1.2-0.1,2-0.3,2.6c-0.2,0.6-0.7,1-1.4,1.2c-0.7,0.2-1.6,0.2-2.6-0.1
				C540.2,639.4,539.6,639.2,539,638.8z"/>
			<path fill="#7C4D23" d="M561.4,637.4c0,0.8,0,1.1,0,1.9c-1.8-0.3-2.7-0.5-4.4-0.8c0-0.5,0-0.8,0-1.3c-1.4,0.7-2.7,0.9-4,0.6
				c-0.8-0.2-1.5-0.5-2-0.9c-0.5-0.4-0.9-0.9-1-1.5c-0.2-0.5-0.2-1.4-0.2-2.5c0-2,0.1-3,0.1-5c-0.7-0.2-1-0.2-1.7-0.4
				c0-0.8,0-1.1,0-1.9c1.6,0.4,2.4,0.6,4,0.9c-0.1,2.7-0.1,4-0.1,6.6c0,0.8,0,1.4,0,1.6s0.2,0.5,0.4,0.8s0.5,0.4,0.9,0.5
				c1.1,0.2,2.3,0,3.5-0.7c0-2.4,0.1-3.5,0.1-5.9c-0.8-0.2-1.3-0.2-2.1-0.4c0-0.8,0-1.1,0-1.9c1.8,0.4,2.7,0.5,4.4,0.9
				c-0.1,3.6-0.1,5.4-0.1,9C560.2,637.2,560.6,637.2,561.4,637.4z"/>
			<path fill="#7C4D23" d="M577.4,630.4c0,0.8,0,1.1,0,1.9c-0.9-0.1-1.3-0.1-2.2-0.2c0,3.3,0,4.9-0.1,8.1c0,1.1-0.1,1.9-0.2,2.4
				c-0.1,0.5-0.4,1-0.9,1.5c-0.5,0.5-1.2,0.9-2.2,1.2c-1,0.3-2,0.3-3.2,0.2c-1.8-0.2-3.4-1-4.7-2.1c0.6-0.5,0.9-0.8,1.6-1.3
				c1,0.9,2.2,1.4,3.4,1.6c0.7,0.1,1.3,0,1.9-0.1c0.6-0.2,1-0.4,1.3-0.7c0.3-0.3,0.5-0.6,0.6-0.9c0.1-0.3,0.1-0.8,0.1-1.5
				c0-0.4,0-0.6,0-1c-0.4,0.4-1,0.7-1.8,1c-0.8,0.3-1.7,0.4-2.6,0.2c-1.7-0.2-3.1-1-4.2-2.2s-1.6-2.7-1.6-4.3c0-1.7,0.6-3,1.8-3.9
				c1.2-0.9,2.6-1.2,4.2-1c1.6,0.2,3,1,4.2,2.2c0-0.6,0-0.9,0-1.6C574.7,630.1,575.6,630.2,577.4,630.4z M565.1,634.5
				c0,1.1,0.3,2.1,1,2.9c0.7,0.8,1.6,1.3,2.7,1.4c1.1,0.1,2-0.1,2.8-0.7c0.8-0.6,1.2-1.5,1.2-2.6c0-1.1-0.4-2.1-1.1-2.8
				c-0.8-0.8-1.7-1.2-2.7-1.4c-1-0.1-1.9,0.1-2.7,0.6S565.1,633.4,565.1,634.5z"/>
			<path fill="#7C4D23" d="M590.5,640.1c0,0.8,0,1.1,0,1.9c-1.7,0-2.5-0.1-4.2-0.1c0-0.5,0-0.8,0-1.3c-1.2,1-2.4,1.4-3.9,1.3
				c-1.1-0.1-2.1-0.5-2.9-1.2s-1.2-1.6-1.2-2.6c0-1,0.4-1.8,1.3-2.4s1.9-0.9,3.1-0.8c1.1,0.1,2.2,0.4,3.3,1.1c0-0.4,0-0.7,0-1.1
				c0-0.6-0.1-1-0.2-1.3s-0.4-0.6-0.8-0.9c-0.4-0.3-1-0.4-1.7-0.4c-1.2-0.1-2,0.3-2.6,1.1c-0.9-0.3-1.4-0.4-2.3-0.7
				c1-1.6,2.8-2.3,5.2-2.2c0.9,0,1.7,0.2,2.3,0.4c0.7,0.3,1.1,0.6,1.5,0.9s0.5,0.7,0.7,1.2c0.1,0.4,0.2,1.1,0.2,1.9c0,2,0,3,0,5.1
				C589.2,640.1,589.6,640.1,590.5,640.1z M586.1,637.8c-1-0.8-2.1-1.2-3.1-1.2c-0.7,0-1.2,0.1-1.6,0.4c-0.4,0.3-0.7,0.7-0.7,1.3
				c0,0.5,0.2,1,0.6,1.3c0.4,0.4,0.9,0.6,1.6,0.6c1.1,0.1,2.2-0.3,3.3-1.1C586.1,638.6,586.1,638.3,586.1,637.8z"/>
			<path fill="#7C4D23" d="M606.7,639.8c0,0.8,0,1.1,0,1.9c-1.8,0.1-2.7,0.2-4.6,0.2c0-0.6,0-1,0-1.6c-1.2,1.2-2.6,1.9-4.3,1.9
				c-1.6,0-3-0.5-4.2-1.4c-1.2-1-1.8-2.4-1.8-4.2c0-1.8,0.6-3.2,1.8-4.2c1.2-1,2.6-1.6,4.1-1.6c1.6,0,3,0.5,4.3,1.6
				c0-1.7,0-2.6,0-4.3c-0.9,0-1.4,0-2.3,0.1c0-0.8,0-1.1,0-1.9c1.9,0,2.8-0.1,4.7-0.2c0,5.5,0,8.3,0.1,13.8
				C605.4,639.9,605.9,639.9,606.7,639.8z M594.5,636.6c0,1.2,0.4,2.1,1.1,2.8c0.8,0.6,1.7,1,2.7,0.9c1,0,1.9-0.4,2.7-1.1
				c0.8-0.7,1.2-1.7,1.2-2.9c0-1.2-0.4-2.1-1.2-2.7c-0.8-0.6-1.7-0.9-2.7-0.9c-1.1,0-2,0.4-2.7,1.1
				C594.8,634.7,594.5,635.5,594.5,636.6z"/>
			<path fill="#7C4D23" d="M620.9,638.4c0,0.8,0,1.1,0,1.9c-1.8,0.2-2.7,0.3-4.4,0.5c0-0.5,0-0.8,0-1.3c-1.4,1.1-2.7,1.7-4,1.8
				c-0.8,0.1-1.5,0-2-0.3c-0.5-0.3-0.9-0.7-1.1-1.2s-0.3-1.3-0.3-2.4c0-2,0-3,0-5c-0.7,0-1,0.1-1.7,0.1c0-0.8,0-1.1,0-1.9
				c1.6-0.1,2.4-0.2,4.1-0.3c0,2.7,0,4,0.1,6.7c0,0.8,0,1.3,0.1,1.6c0.1,0.3,0.2,0.5,0.4,0.7c0.2,0.2,0.5,0.2,0.9,0.2
				c1.1-0.1,2.3-0.7,3.5-1.8c0-2.4,0-3.5-0.1-5.9c-0.8,0.1-1.3,0.1-2.1,0.2c0-0.8,0-1.1,0-1.9c1.8-0.2,2.7-0.3,4.5-0.5
				c0,3.6,0.1,5.4,0.1,9C619.7,638.6,620.1,638.6,620.9,638.4z"/>
			<path fill="#7C4D23" d="M623.4,640c0-1.1,0-1.7,0-2.8c1.2-0.2,1.8-0.3,3-0.5c0,1.1,0,1.7,0,2.8
				C625.2,639.7,624.6,639.8,623.4,640z"/>
			<path fill="#7C4D23" d="M631.3,636.8c0-2.8-0.1-4.3-0.1-7.1c-0.7,0.1-1.1,0.2-1.8,0.3c0-0.8,0-1.1,0-1.9c1.7-0.3,2.5-0.5,4.2-0.8
				c0.1,3.6,0.1,5.4,0.2,9c0.7-0.1,1.1-0.2,1.8-0.4c0,0.8,0,1.1,0,1.9c-2.4,0.5-3.6,0.7-6.1,1.2c0-0.8,0-1.1,0-1.9
				C630.2,637,630.5,636.9,631.3,636.8z M630.7,624.1c0-0.3,0.1-0.7,0.4-1c0.3-0.3,0.6-0.5,1-0.6c0.4-0.1,0.7,0,1,0.2
				c0.3,0.2,0.4,0.5,0.4,0.8c0,0.4-0.1,0.7-0.4,1c-0.3,0.3-0.6,0.5-1,0.6c-0.4,0.1-0.7,0-1-0.2C630.9,624.8,630.7,624.5,630.7,624.1
				z"/>
			<path fill="#7C4D23" d="M640.9,625.7c0,0.5,0,0.8,0,1.3c1.5-1.3,2.8-2.2,4-2.5c0.8-0.2,1.4-0.2,1.9,0c0.5,0.2,0.8,0.5,1,1
				s0.3,1.1,0.3,2.1c0.1,2.1,0.1,3.2,0.1,5.3c0.8-0.2,1.2-0.3,2-0.6c0,0.8,0,1.1,0,1.9c-1.7,0.5-2.6,0.7-4.3,1.2
				c-0.1-2.9-0.1-4.3-0.2-7.1c0-0.8-0.2-1.3-0.4-1.5c-0.3-0.2-0.6-0.2-1-0.1c-1,0.3-2.2,1-3.4,2.3c0.1,2.3,0.1,3.5,0.1,5.8
				c0.8-0.2,1.2-0.3,2-0.5c0,0.8,0,1.1,0,1.9c-2.6,0.6-3.9,0.9-6.5,1.5c0-0.8,0-1.1,0-1.9c0.8-0.2,1.3-0.3,2.1-0.5
				c-0.1-2.8-0.1-4.3-0.1-7.1c-0.8,0.2-1.2,0.3-2.1,0.5c0-0.8,0-1.1,0-1.9C638.2,626.3,639.1,626.1,640.9,625.7z"/>
		</g>
	</g>
</g>
</svg>
