<?xml version="1.0" encoding="utf-8"?>
<!-- Generator: Adobe Illustrator 23.0.1, SVG Export Plug-In . SVG Version: 6.00 Build 0)  -->
<svg version="1.1" id="Layer_1" xmlns="http://www.w3.org/2000/svg" xmlns:xlink="http://www.w3.org/1999/xlink" x="0px" y="0px"
	 viewBox="0 0 1000 1000" style="enable-background:new 0 0 1000 1000;" xml:space="preserve">
<style type="text/css">
	.st0{fill:#D0DDFF;}
	.st1{fill:#004D43;}
	.st2{fill:#A17614;}
	.st3{fill:#00695B;}
	.st4{fill:#00806F;}
	.st5{fill:#005E52;}
	.st6{fill:#1A1A1A;}
	.st7{fill:#333333;}
	.st8{fill:#404040;}
	.st9{fill:#858585;}
	.st10{fill:#999999;}
	.st11{fill:#B3B3B3;}
	.st12{fill:#CF9C28;}
	.st13{fill:#EBBC52;}
	.st14{fill:none;}
	.st15{fill:none;stroke:#EBBC52;stroke-width:4.5;stroke-miterlimit:10;}
	.st16{opacity:0.35;enable-background:new    ;}
	.st17{opacity:0.83;enable-background:new    ;}
</style>
<g id="Layer_3">
	<path class="st0" d="M121.5,727.5c-4.6-4.7-36.5-38.1-30-86c4.9-36.3,29-60.8,46.1-72.1c1.3-0.8,2.3-1.5,2.9-1.9
		c29.3-18.3,46.5-8.6,67-23c23.7-16.6,5.5-54.4,30-116c8-20.2,22.1-55.6,57-76c50.4-29.4,108.3-6.8,118-3c41.1,16.1,40.7,50.1,69,53
		c7.4,0.8,31,1.1,78-55c62.5-74.5,49.4-109,90-144c43.4-37.4,128.5-58.2,186-14c46.2,35.5,63.8,107.2,45,161
		c-29.5,84.2-130.2,73.7-174,179c-8.2,19.7-25,60.2-8,94c14,27.8,39.3,27.9,55,62c14.7,32,6.8,63.4,5,70c-13.5,49-58.3,68.6-64,71
		c-6,2.5-43.6,17.5-84,1c-42.7-17.4-25.3-65.2-71-112c-6.4-6.6-49.9-51.1-101-46c-11.2,1.1-12.9,3.6-84,36
		c-26.8,12.2-40.5,18.4-54,24c-48.1,19.9-72.1,29.8-94,30C195.5,759.6,153.4,759.9,121.5,727.5z"/>
</g>
<g>
	<g>
		<g>
			<g id="XMLID_284_">
				<g>
					<path class="st1" d="M622.3,398.2v202.2c-2.6,0-5.2,0.5-7.5,1.4v-13V410.7v-13.9C617.1,397.7,619.7,398.2,622.3,398.2z"/>
					<path class="st2" d="M614.8,601.8v4.4c-2.9,2.9-4.6,4.6-7.5,7.5H603C605,608.2,609.4,603.9,614.8,601.8z"/>
					<path class="st3" d="M614.8,588.8v13c-5.4,2.1-9.8,6.4-11.9,11.9h-13.1C591.3,603.9,604.4,590.8,614.8,588.8z"/>
					<path class="st3" d="M614.8,410.7v178.1c-10.4,2-23.5,15.1-24.9,24.9H410.1c-2.9-13.8-14.2-24.5-24-26.9V411.9
						c13.5-2.2,25.7-16.8,26.9-27h176.5C592.2,396.5,604.3,407.3,614.8,410.7z M585.2,568V450.4l-3.8-3.8l0,0h-74.9v8.8v97.8v10.4
						l4.4,4.4L585.2,568L585.2,568z M500.4,568V450.4l-3.8-3.8l0,0h-74.9v8.8v97.8v10.4l4.4,4.4L500.4,568L500.4,568z"/>
					<path class="st3" d="M614.8,396.8v13.9c-10.5-3.5-22.6-14.2-25.4-25.8h13.5C605,390.4,609.4,394.7,614.8,396.8z"/>
					<path class="st2" d="M614.8,392.5v4.3c-5.4-2.1-9.8-6.4-11.9-11.9h4.3C610.2,387.9,611.9,389.6,614.8,392.5z"/>
					<path class="st4" d="M602.9,385h-13.5H412.9h-15c0.9-2.3,1.4-4.9,1.4-7.5h202.2C601.5,380.1,602,382.6,602.9,385z"/>
					<path class="st5" d="M589.9,613.7H603c-0.9,2.3-1.4,4.9-1.4,7.5H399.3c0-2.6-0.5-5.2-1.4-7.5h12.2H589.9z"/>
					<polygon class="st1" points="585.2,450.4 585.2,568 510.9,568 506.5,563.6 581.4,563.6 581.4,553.2 581.4,455.4 581.4,446.6 
											"/>
					<rect x="506.5" y="553.2" class="st6" width="74.9" height="10.4"/>
					<rect x="506.5" y="455.4" class="st7" width="74.9" height="97.8"/>
					<polygon class="st8" points="581.4,446.6 581.4,455.4 506.5,455.4 506.5,446.5 581.4,446.5 					"/>
					<polygon class="st1" points="500.4,450.4 500.4,568 426.1,568 421.7,563.6 496.6,563.6 496.6,553.2 496.6,455.4 496.6,446.6 
											"/>
					<rect x="421.7" y="553.2" class="st6" width="74.9" height="10.4"/>
					<rect x="421.7" y="455.4" class="st7" width="74.9" height="97.8"/>
					<polygon class="st8" points="496.6,446.6 496.6,455.4 421.7,455.4 421.7,446.5 496.6,446.5 					"/>
					<path class="st3" d="M398,385h15c-1.2,10.2-13.4,24.8-26.9,27v-15.1C391.5,394.7,395.8,390.4,398,385z"/>
					<path class="st3" d="M410.1,613.7H398c-2.1-5.4-6.4-9.8-11.9-11.9v-15.1C395.9,589.2,407.2,599.9,410.1,613.7z"/>
					<path class="st2" d="M393.6,385h4.3c-2.1,5.4-6.4,9.8-11.9,11.9v-4.3C389,389.6,390.7,387.9,393.6,385z"/>
					<path class="st2" d="M398,613.7h-4.3c-3-2.9-4.6-4.6-7.5-7.5v-4.4C391.5,603.9,395.8,608.2,398,613.7z"/>
					<path class="st4" d="M386.1,586.7v15.1c-2.3-0.9-4.9-1.4-7.5-1.4V398.2c2.6,0,5.2-0.5,7.5-1.4v15.1V586.7z"/>
				</g>
			</g>
		</g>
		<g>
			<g>
				<g>
					<g>
						<g id="XMLID_260_">
							<g>
								<path class="st7" d="M426.4,379.5v3.1H424c-0.9,0-1.5-0.7-1.5-1.6c0-0.8,0.7-1.5,1.5-1.5H426.4z"/>
								<path class="st7" d="M435.7,379.5c0.9,0,1.6,0.7,1.6,1.5c0,0.9-0.7,1.6-1.6,1.6h-2.4v-3.1H435.7z"/>
								<rect x="426.4" y="379.5" class="st9" width="6.9" height="3.1"/>
								<rect x="426.4" y="376.2" class="st9" width="6.9" height="3.3"/>
								<rect x="426.4" y="364.5" class="st10" width="6.9" height="11.7"/>
								<polygon class="st11" points="427.6,362.5 432,362.5 432,360.5 433.3,360.5 433.3,364.5 426.4,364.5 426.4,360.5 
									427.6,360.5 								"/>
								<rect x="427.6" y="360.5" class="st12" width="4.4" height="2"/>
								<rect x="427.6" y="359.5" class="st12" width="4.4" height="1"/>
								<rect x="427.6" y="345.3" class="st13" width="4.4" height="14.3"/>
							</g>
							<g>
								<polyline class="st14" points="433.3,382.6 433.3,379.5 433.3,376.2 433.3,364.5 								"/>
								<polyline class="st14" points="426.4,364.5 426.4,376.2 426.4,379.5 426.4,382.6 								"/>
								<path class="st14" d="M433.3,382.6h2.4c0.9,0,1.6-0.7,1.6-1.6c0-0.8-0.7-1.5-1.6-1.5h-2.4h-6.9H424c-0.9,0-1.5,0.7-1.5,1.5
									c0,0.9,0.7,1.6,1.5,1.6h2.4H433.3z"/>
								<line class="st14" x1="426.4" y1="376.2" x2="433.3" y2="376.2"/>
								<polygon class="st14" points="433.3,364.5 426.4,364.5 426.4,360.5 427.6,360.5 432,360.5 433.3,360.5 								"/>
								<polygon class="st14" points="432,359.5 432,345.3 427.6,345.3 427.6,359.5 427.6,360.5 427.6,362.5 432,362.5 432,360.5 
																	"/>
								<line class="st14" x1="427.6" y1="359.5" x2="432" y2="359.5"/>
							</g>
						</g>
					</g>
					<g>
						<g id="XMLID_261_">
							<g>
								<path class="st7" d="M454.4,379.5v3.1H452c-0.9,0-1.5-0.7-1.5-1.6c0-0.8,0.7-1.5,1.5-1.5H454.4z"/>
								<path class="st7" d="M463.8,379.5c0.9,0,1.6,0.7,1.6,1.5c0,0.9-0.7,1.6-1.6,1.6h-2.4v-3.1H463.8z"/>
								<rect x="454.4" y="379.5" class="st9" width="6.9" height="3.1"/>
								<rect x="454.4" y="376.2" class="st9" width="6.9" height="3.3"/>
								<rect x="454.4" y="364.5" class="st10" width="6.9" height="11.7"/>
								<polygon class="st11" points="455.7,362.5 460,362.5 460,360.5 461.4,360.5 461.4,364.5 454.4,364.5 454.4,360.5 
									455.7,360.5 								"/>
								<rect x="455.7" y="360.5" class="st12" width="4.4" height="2"/>
								<rect x="455.7" y="359.5" class="st12" width="4.4" height="1"/>
								<rect x="455.7" y="345.3" class="st13" width="4.4" height="14.3"/>
							</g>
							<g>
								<polyline class="st14" points="461.4,382.6 461.4,379.5 461.4,376.2 461.4,364.5 								"/>
								<polyline class="st14" points="454.4,364.5 454.4,376.2 454.4,379.5 454.4,382.6 								"/>
								<path class="st14" d="M461.4,382.6h2.4c0.9,0,1.6-0.7,1.6-1.6c0-0.8-0.7-1.5-1.6-1.5h-2.4h-6.9H452c-0.9,0-1.5,0.7-1.5,1.5
									c0,0.9,0.7,1.6,1.5,1.6h2.4H461.4z"/>
								<line class="st14" x1="454.4" y1="376.2" x2="461.4" y2="376.2"/>
								<polygon class="st14" points="461.4,364.5 454.4,364.5 454.4,360.5 455.7,360.5 460,360.5 461.4,360.5 								"/>
								<polygon class="st14" points="460,359.5 460,345.3 455.7,345.3 455.7,359.5 455.7,360.5 455.7,362.5 460,362.5 460,360.5 
																	"/>
								<line class="st14" x1="455.7" y1="359.5" x2="460" y2="359.5"/>
							</g>
						</g>
					</g>
					<g>
						<g id="XMLID_263_">
							<g>
								<path class="st7" d="M482.5,379.5v3.1h-2.4c-0.9,0-1.5-0.7-1.5-1.6c0-0.8,0.7-1.5,1.5-1.5H482.5z"/>
								<path class="st7" d="M491.9,379.5c0.9,0,1.6,0.7,1.6,1.5c0,0.9-0.7,1.6-1.6,1.6h-2.4v-3.1H491.9z"/>
								<rect x="482.5" y="379.5" class="st9" width="6.9" height="3.1"/>
								<rect x="482.5" y="376.2" class="st9" width="6.9" height="3.3"/>
								<rect x="482.5" y="364.5" class="st10" width="6.9" height="11.7"/>
								<polygon class="st11" points="483.7,362.5 488.1,362.5 488.1,360.5 489.4,360.5 489.4,364.5 482.5,364.5 482.5,360.5 
									483.7,360.5 								"/>
								<rect x="483.7" y="360.5" class="st12" width="4.4" height="2"/>
								<rect x="483.7" y="359.5" class="st12" width="4.4" height="1"/>
								<rect x="483.7" y="345.3" class="st13" width="4.4" height="14.3"/>
							</g>
							<g>
								<polyline class="st14" points="489.4,382.6 489.4,379.5 489.4,376.2 489.4,364.5 								"/>
								<polyline class="st14" points="482.5,364.5 482.5,376.2 482.5,379.5 482.5,382.6 								"/>
								<path class="st14" d="M489.4,382.6h2.4c0.9,0,1.6-0.7,1.6-1.6c0-0.8-0.7-1.5-1.6-1.5h-2.4h-6.9h-2.4c-0.9,0-1.5,0.7-1.5,1.5
									c0,0.9,0.7,1.6,1.5,1.6h2.4H489.4z"/>
								<line class="st14" x1="482.5" y1="376.2" x2="489.4" y2="376.2"/>
								<polygon class="st14" points="489.4,364.5 482.5,364.5 482.5,360.5 483.7,360.5 488.1,360.5 489.4,360.5 								"/>
								<polygon class="st14" points="488.1,359.5 488.1,345.3 483.7,345.3 483.7,359.5 483.7,360.5 483.7,362.5 488.1,362.5 
									488.1,360.5 								"/>
								<line class="st14" x1="483.7" y1="359.5" x2="488.1" y2="359.5"/>
							</g>
						</g>
					</g>
					<g>
						<g id="XMLID_262_">
							<g>
								<path class="st7" d="M510.6,379.5v3.1h-2.4c-0.9,0-1.5-0.7-1.5-1.6c0-0.8,0.7-1.5,1.5-1.5H510.6z"/>
								<path class="st7" d="M519.9,379.5c0.9,0,1.6,0.7,1.6,1.5c0,0.9-0.7,1.6-1.6,1.6h-2.4v-3.1H519.9z"/>
								<rect x="510.6" y="379.5" class="st9" width="6.9" height="3.1"/>
								<rect x="510.6" y="376.2" class="st9" width="6.9" height="3.3"/>
								<rect x="510.6" y="364.5" class="st10" width="6.9" height="11.7"/>
								<polygon class="st11" points="511.8,362.5 516.2,362.5 516.2,360.5 517.5,360.5 517.5,364.5 510.6,364.5 510.6,360.5 
									511.8,360.5 								"/>
								<rect x="511.8" y="360.5" class="st12" width="4.4" height="2"/>
								<rect x="511.8" y="359.5" class="st12" width="4.4" height="1"/>
								<rect x="511.8" y="349" class="st13" width="4.4" height="10.5"/>
							</g>
							<g>
								<polyline class="st14" points="517.5,382.6 517.5,379.5 517.5,376.2 517.5,364.5 								"/>
								<polyline class="st14" points="510.6,364.5 510.6,376.2 510.6,379.5 510.6,382.6 								"/>
								<path class="st14" d="M517.5,382.6h2.4c0.9,0,1.6-0.7,1.6-1.6c0-0.8-0.7-1.5-1.6-1.5h-2.4h-6.9h-2.4c-0.9,0-1.5,0.7-1.5,1.5
									c0,0.9,0.7,1.6,1.5,1.6h2.4H517.5z"/>
								<line class="st14" x1="510.6" y1="376.2" x2="517.5" y2="376.2"/>
								<polygon class="st14" points="517.5,364.5 510.6,364.5 510.6,360.5 511.8,360.5 516.2,360.5 517.5,360.5 								"/>
								<polygon class="st14" points="516.2,359.5 516.2,345.3 511.8,345.3 511.8,359.5 511.8,360.5 511.8,362.5 516.2,362.5 
									516.2,360.5 								"/>
								<line class="st14" x1="511.8" y1="359.5" x2="516.2" y2="359.5"/>
							</g>
						</g>
					</g>
					<g>
						<g id="XMLID_266_">
							<g>
								<path class="st7" d="M538.6,379.5v3.1h-2.4c-0.9,0-1.5-0.7-1.5-1.6c0-0.8,0.7-1.5,1.5-1.5H538.6z"/>
								<path class="st7" d="M548,379.5c0.9,0,1.6,0.7,1.6,1.5c0,0.9-0.7,1.6-1.6,1.6h-2.4v-3.1H548z"/>
								<rect x="538.6" y="379.5" class="st9" width="6.9" height="3.1"/>
								<rect x="538.6" y="376.2" class="st9" width="6.9" height="3.3"/>
								<rect x="538.6" y="364.5" class="st10" width="6.9" height="11.7"/>
								<polygon class="st11" points="539.9,362.5 544.2,362.5 544.2,360.5 545.6,360.5 545.6,364.5 538.6,364.5 538.6,360.5 
									539.9,360.5 								"/>
								<rect x="539.9" y="360.5" class="st12" width="4.4" height="2"/>
								<rect x="539.9" y="359.5" class="st12" width="4.4" height="1"/>
								<rect x="539.9" y="345.3" class="st13" width="4.4" height="14.3"/>
							</g>
							<g>
								<polyline class="st14" points="545.6,382.6 545.6,379.5 545.6,376.2 545.6,364.5 								"/>
								<polyline class="st14" points="538.6,364.5 538.6,376.2 538.6,379.5 538.6,382.6 								"/>
								<path class="st14" d="M545.6,382.6h2.4c0.9,0,1.6-0.7,1.6-1.6c0-0.8-0.7-1.5-1.6-1.5h-2.4h-6.9h-2.4c-0.9,0-1.5,0.7-1.5,1.5
									c0,0.9,0.7,1.6,1.5,1.6h2.4H545.6z"/>
								<line class="st14" x1="538.6" y1="376.2" x2="545.6" y2="376.2"/>
								<polygon class="st14" points="545.6,364.5 538.6,364.5 538.6,360.5 539.9,360.5 544.2,360.5 545.6,360.5 								"/>
								<polygon class="st14" points="544.2,359.5 544.2,345.3 539.9,345.3 539.9,359.5 539.9,360.5 539.9,362.5 544.2,362.5 
									544.2,360.5 								"/>
								<line class="st14" x1="539.9" y1="359.5" x2="544.2" y2="359.5"/>
							</g>
						</g>
					</g>
					<g>
						<g id="XMLID_265_">
							<g>
								<path class="st7" d="M566.7,379.5v3.1h-2.4c-0.9,0-1.5-0.7-1.5-1.6c0-0.8,0.7-1.5,1.5-1.5H566.7z"/>
								<path class="st7" d="M576.1,379.5c0.9,0,1.6,0.7,1.6,1.5c0,0.9-0.7,1.6-1.6,1.6h-2.4v-3.1H576.1z"/>
								<rect x="566.7" y="379.5" class="st9" width="6.9" height="3.1"/>
								<rect x="566.7" y="376.2" class="st9" width="6.9" height="3.3"/>
								<rect x="566.7" y="364.5" class="st10" width="6.9" height="11.7"/>
								<polygon class="st11" points="567.9,362.5 572.3,362.5 572.3,360.5 573.6,360.5 573.6,364.5 566.7,364.5 566.7,360.5 
									567.9,360.5 								"/>
								<rect x="567.9" y="360.5" class="st12" width="4.4" height="2"/>
								<rect x="567.9" y="359.5" class="st12" width="4.4" height="1"/>
								<rect x="567.9" y="345.3" class="st13" width="4.4" height="14.3"/>
							</g>
							<g>
								<polyline class="st14" points="573.6,382.6 573.6,379.5 573.6,376.2 573.6,364.5 								"/>
								<polyline class="st14" points="566.7,364.5 566.7,376.2 566.7,379.5 566.7,382.6 								"/>
								<path class="st14" d="M573.6,382.6h2.4c0.9,0,1.6-0.7,1.6-1.6c0-0.8-0.7-1.5-1.6-1.5h-2.4h-6.9h-2.4c-0.9,0-1.5,0.7-1.5,1.5
									c0,0.9,0.7,1.6,1.5,1.6h2.4H573.6z"/>
								<line class="st14" x1="566.7" y1="376.2" x2="573.6" y2="376.2"/>
								<polygon class="st14" points="573.6,364.5 566.7,364.5 566.7,360.5 567.9,360.5 572.3,360.5 573.6,360.5 								"/>
								<polygon class="st14" points="572.3,359.5 572.3,345.3 567.9,345.3 567.9,359.5 567.9,360.5 567.9,362.5 572.3,362.5 
									572.3,360.5 								"/>
								<line class="st14" x1="567.9" y1="359.5" x2="572.3" y2="359.5"/>
							</g>
						</g>
					</g>
				</g>
				<g>
					<g>
						<g id="XMLID_271_">
							<g>
								<path class="st7" d="M426.4,619v-3.1H424c-0.9,0-1.5,0.7-1.5,1.6c0,0.8,0.7,1.5,1.5,1.5H426.4z"/>
								<path class="st7" d="M435.7,619c0.9,0,1.6-0.7,1.6-1.5c0-0.9-0.7-1.6-1.6-1.6h-2.4v3.1H435.7z"/>
								<rect x="426.4" y="615.9" class="st9" width="6.9" height="3.1"/>
								<rect x="426.4" y="619" class="st9" width="6.9" height="3.3"/>
								<rect x="426.4" y="622.3" class="st10" width="6.9" height="11.7"/>
								<polygon class="st11" points="427.6,636 432,636 432,638 433.3,638 433.3,634 426.4,634 426.4,638 427.6,638 								"/>
								<rect x="427.6" y="636" class="st12" width="4.4" height="2"/>
								<rect x="427.6" y="638" class="st12" width="4.4" height="1"/>
								<rect x="427.6" y="639" class="st13" width="4.4" height="14.3"/>
							</g>
							<g>
								<polyline class="st14" points="433.3,615.9 433.3,619 433.3,622.3 433.3,634 								"/>
								<polyline class="st14" points="426.4,634 426.4,622.3 426.4,619 426.4,615.9 								"/>
								<path class="st14" d="M433.3,615.9h2.4c0.9,0,1.6,0.7,1.6,1.6c0,0.8-0.7,1.5-1.6,1.5h-2.4h-6.9H424c-0.9,0-1.5-0.7-1.5-1.5
									c0-0.9,0.7-1.6,1.5-1.6h2.4H433.3z"/>
								<line class="st14" x1="426.4" y1="622.3" x2="433.3" y2="622.3"/>
								<polygon class="st14" points="433.3,634 426.4,634 426.4,638 427.6,638 432,638 433.3,638 								"/>
								<polygon class="st14" points="432,639 432,653.2 427.6,653.2 427.6,639 427.6,638 427.6,636 432,636 432,638 								"/>
								<line class="st14" x1="427.6" y1="639" x2="432" y2="639"/>
							</g>
						</g>
					</g>
					<g>
						<g id="XMLID_270_">
							<g>
								<path class="st7" d="M454.4,619v-3.1H452c-0.9,0-1.5,0.7-1.5,1.6c0,0.8,0.7,1.5,1.5,1.5H454.4z"/>
								<path class="st7" d="M463.8,619c0.9,0,1.6-0.7,1.6-1.5c0-0.9-0.7-1.6-1.6-1.6h-2.4v3.1H463.8z"/>
								<rect x="454.4" y="615.9" class="st9" width="6.9" height="3.1"/>
								<rect x="454.4" y="619" class="st9" width="6.9" height="3.3"/>
								<rect x="454.4" y="622.3" class="st10" width="6.9" height="11.7"/>
								<polygon class="st11" points="455.7,636 460,636 460,638 461.4,638 461.4,634 454.4,634 454.4,638 455.7,638 								"/>
								<rect x="455.7" y="636" class="st12" width="4.4" height="2"/>
								<rect x="455.7" y="638" class="st12" width="4.4" height="1"/>
								<rect x="455.7" y="639" class="st13" width="4.4" height="14.3"/>
							</g>
							<g>
								<polyline class="st14" points="461.4,615.9 461.4,619 461.4,622.3 461.4,634 								"/>
								<polyline class="st14" points="454.4,634 454.4,622.3 454.4,619 454.4,615.9 								"/>
								<path class="st14" d="M461.4,615.9h2.4c0.9,0,1.6,0.7,1.6,1.6c0,0.8-0.7,1.5-1.6,1.5h-2.4h-6.9H452c-0.9,0-1.5-0.7-1.5-1.5
									c0-0.9,0.7-1.6,1.5-1.6h2.4H461.4z"/>
								<line class="st14" x1="454.4" y1="622.3" x2="461.4" y2="622.3"/>
								<polygon class="st14" points="461.4,634 454.4,634 454.4,638 455.7,638 460,638 461.4,638 								"/>
								<polygon class="st14" points="460,639 460,653.2 455.7,653.2 455.7,639 455.7,638 455.7,636 460,636 460,638 								"/>
								<line class="st14" x1="455.7" y1="639" x2="460" y2="639"/>
							</g>
						</g>
					</g>
					<g>
						<g id="XMLID_269_">
							<g>
								<path class="st7" d="M482.5,619v-3.1h-2.4c-0.9,0-1.5,0.7-1.5,1.6c0,0.8,0.7,1.5,1.5,1.5H482.5z"/>
								<path class="st7" d="M491.9,619c0.9,0,1.6-0.7,1.6-1.5c0-0.9-0.7-1.6-1.6-1.6h-2.4v3.1H491.9z"/>
								<rect x="482.5" y="615.9" class="st9" width="6.9" height="3.1"/>
								<rect x="482.5" y="619" class="st9" width="6.9" height="3.3"/>
								<rect x="482.5" y="622.3" class="st10" width="6.9" height="11.7"/>
								<polygon class="st11" points="483.7,636 488.1,636 488.1,638 489.4,638 489.4,634 482.5,634 482.5,638 483.7,638 								
									"/>
								<rect x="483.7" y="636" class="st12" width="4.4" height="2"/>
								<rect x="483.7" y="638" class="st12" width="4.4" height="1"/>
								<rect x="483.7" y="639" class="st13" width="4.4" height="14.3"/>
							</g>
							<g>
								<polyline class="st14" points="489.4,615.9 489.4,619 489.4,622.3 489.4,634 								"/>
								<polyline class="st14" points="482.5,634 482.5,622.3 482.5,619 482.5,615.9 								"/>
								<path class="st14" d="M489.4,615.9h2.4c0.9,0,1.6,0.7,1.6,1.6c0,0.8-0.7,1.5-1.6,1.5h-2.4h-6.9h-2.4c-0.9,0-1.5-0.7-1.5-1.5
									c0-0.9,0.7-1.6,1.5-1.6h2.4H489.4z"/>
								<line class="st14" x1="482.5" y1="622.3" x2="489.4" y2="622.3"/>
								<polygon class="st14" points="489.4,634 482.5,634 482.5,638 483.7,638 488.1,638 489.4,638 								"/>
								<polygon class="st14" points="488.1,639 488.1,653.2 483.7,653.2 483.7,639 483.7,638 483.7,636 488.1,636 488.1,638 
																	"/>
								<line class="st14" x1="483.7" y1="639" x2="488.1" y2="639"/>
							</g>
						</g>
					</g>
					<g>
						<g id="XMLID_268_">
							<g>
								<path class="st7" d="M510.6,619v-3.1h-2.4c-0.9,0-1.5,0.7-1.5,1.6c0,0.8,0.7,1.5,1.5,1.5H510.6z"/>
								<path class="st7" d="M519.9,619c0.9,0,1.6-0.7,1.6-1.5c0-0.9-0.7-1.6-1.6-1.6h-2.4v3.1H519.9z"/>
								<rect x="510.6" y="615.9" class="st9" width="6.9" height="3.1"/>
								<rect x="510.6" y="619" class="st9" width="6.9" height="3.3"/>
								<rect x="510.6" y="622.3" class="st10" width="6.9" height="11.7"/>
								<polygon class="st11" points="511.8,636 516.2,636 516.2,638 517.5,638 517.5,634 510.6,634 510.6,638 511.8,638 								
									"/>
								<rect x="511.8" y="636" class="st12" width="4.4" height="2"/>
								<rect x="511.8" y="638" class="st12" width="4.4" height="1"/>
								<rect x="511.8" y="639" class="st13" width="4.4" height="14.3"/>
							</g>
							<g>
								<polyline class="st14" points="517.5,615.9 517.5,619 517.5,622.3 517.5,634 								"/>
								<polyline class="st14" points="510.6,634 510.6,622.3 510.6,619 510.6,615.9 								"/>
								<path class="st14" d="M517.5,615.9h2.4c0.9,0,1.6,0.7,1.6,1.6c0,0.8-0.7,1.5-1.6,1.5h-2.4h-6.9h-2.4c-0.9,0-1.5-0.7-1.5-1.5
									c0-0.9,0.7-1.6,1.5-1.6h2.4H517.5z"/>
								<line class="st14" x1="510.6" y1="622.3" x2="517.5" y2="622.3"/>
								<polygon class="st14" points="517.5,634 510.6,634 510.6,638 511.8,638 516.2,638 517.5,638 								"/>
								<polygon class="st14" points="516.2,639 516.2,653.2 511.8,653.2 511.8,639 511.8,638 511.8,636 516.2,636 516.2,638 
																	"/>
								<line class="st14" x1="511.8" y1="639" x2="516.2" y2="639"/>
							</g>
						</g>
					</g>
					<g>
						<g id="XMLID_267_">
							<g>
								<path class="st7" d="M538.6,619v-3.1h-2.4c-0.9,0-1.5,0.7-1.5,1.6c0,0.8,0.7,1.5,1.5,1.5H538.6z"/>
								<path class="st7" d="M548,619c0.9,0,1.6-0.7,1.6-1.5c0-0.9-0.7-1.6-1.6-1.6h-2.4v3.1H548z"/>
								<rect x="538.6" y="615.9" class="st9" width="6.9" height="3.1"/>
								<rect x="538.6" y="619" class="st9" width="6.9" height="3.3"/>
								<rect x="538.6" y="622.3" class="st10" width="6.9" height="11.7"/>
								<polygon class="st11" points="539.9,636 544.2,636 544.2,638 545.6,638 545.6,634 538.6,634 538.6,638 539.9,638 								
									"/>
								<rect x="539.9" y="636" class="st12" width="4.4" height="2"/>
								<rect x="539.9" y="638" class="st12" width="4.4" height="1"/>
								<rect x="539.9" y="639" class="st13" width="4.4" height="14.3"/>
							</g>
							<g>
								<polyline class="st14" points="545.6,615.9 545.6,619 545.6,622.3 545.6,634 								"/>
								<polyline class="st14" points="538.6,634 538.6,622.3 538.6,619 538.6,615.9 								"/>
								<path class="st14" d="M545.6,615.9h2.4c0.9,0,1.6,0.7,1.6,1.6c0,0.8-0.7,1.5-1.6,1.5h-2.4h-6.9h-2.4c-0.9,0-1.5-0.7-1.5-1.5
									c0-0.9,0.7-1.6,1.5-1.6h2.4H545.6z"/>
								<line class="st14" x1="538.6" y1="622.3" x2="545.6" y2="622.3"/>
								<polygon class="st14" points="545.6,634 538.6,634 538.6,638 539.9,638 544.2,638 545.6,638 								"/>
								<polygon class="st14" points="544.2,639 544.2,653.2 539.9,653.2 539.9,639 539.9,638 539.9,636 544.2,636 544.2,638 
																	"/>
								<line class="st14" x1="539.9" y1="639" x2="544.2" y2="639"/>
							</g>
						</g>
					</g>
					<g>
						<g id="XMLID_264_">
							<g>
								<path class="st7" d="M566.7,619v-3.1h-2.4c-0.9,0-1.5,0.7-1.5,1.6c0,0.8,0.7,1.5,1.5,1.5H566.7z"/>
								<path class="st7" d="M576.1,619c0.9,0,1.6-0.7,1.6-1.5c0-0.9-0.7-1.6-1.6-1.6h-2.4v3.1H576.1z"/>
								<rect x="566.7" y="615.9" class="st9" width="6.9" height="3.1"/>
								<rect x="566.7" y="619" class="st9" width="6.9" height="3.3"/>
								<rect x="566.7" y="622.3" class="st10" width="6.9" height="11.7"/>
								<polygon class="st11" points="567.9,636 572.3,636 572.3,638 573.6,638 573.6,634 566.7,634 566.7,638 567.9,638 								
									"/>
								<rect x="567.9" y="636" class="st12" width="4.4" height="2"/>
								<rect x="567.9" y="638" class="st12" width="4.4" height="1"/>
								<rect x="567.9" y="639" class="st13" width="4.4" height="14.3"/>
							</g>
							<g>
								<polyline class="st14" points="573.6,615.9 573.6,619 573.6,622.3 573.6,634 								"/>
								<polyline class="st14" points="566.7,634 566.7,622.3 566.7,619 566.7,615.9 								"/>
								<path class="st14" d="M573.6,615.9h2.4c0.9,0,1.6,0.7,1.6,1.6c0,0.8-0.7,1.5-1.6,1.5h-2.4h-6.9h-2.4c-0.9,0-1.5-0.7-1.5-1.5
									c0-0.9,0.7-1.6,1.5-1.6h2.4H573.6z"/>
								<line class="st14" x1="566.7" y1="622.3" x2="573.6" y2="622.3"/>
								<polygon class="st14" points="573.6,634 566.7,634 566.7,638 567.9,638 572.3,638 573.6,638 								"/>
								<polygon class="st14" points="572.3,639 572.3,653.2 567.9,653.2 567.9,639 567.9,638 567.9,636 572.3,636 572.3,638 
																	"/>
								<line class="st14" x1="567.9" y1="639" x2="572.3" y2="639"/>
							</g>
						</g>
					</g>
				</g>
			</g>
			<g>
				<g>
					<g>
						<g id="XMLID_283_">
							<g>
								<path class="st7" d="M619.8,425.6h-3.1v-2.4c0-0.9,0.7-1.5,1.6-1.5c0.8,0,1.5,0.7,1.5,1.5V425.6z"/>
								<path class="st7" d="M619.8,435c0,0.9-0.7,1.6-1.5,1.6c-0.9,0-1.6-0.7-1.6-1.6v-2.4h3.1V435z"/>
								<rect x="616.7" y="425.6" class="st9" width="3.1" height="6.9"/>
								<rect x="619.8" y="425.6" class="st9" width="3.3" height="6.9"/>
								<rect x="623.1" y="425.6" class="st10" width="11.7" height="6.9"/>
								<polygon class="st11" points="636.8,426.9 636.8,431.2 638.8,431.2 638.8,432.6 634.8,432.6 634.8,425.6 638.8,425.6 
									638.8,426.9 								"/>
								<rect x="636.8" y="426.9" class="st12" width="2" height="4.4"/>
								<rect x="638.8" y="426.9" class="st12" width="1" height="4.4"/>
								<rect x="639.7" y="426.9" class="st13" width="14.3" height="4.4"/>
							</g>
							<g>
								<polyline class="st14" points="616.7,432.6 619.8,432.6 623.1,432.6 634.8,432.6 								"/>
								<polyline class="st14" points="634.8,425.6 623.1,425.6 619.8,425.6 616.7,425.6 								"/>
								<path class="st14" d="M616.7,432.6v2.4c0,0.9,0.7,1.6,1.6,1.6c0.8,0,1.5-0.7,1.5-1.6v-2.4v-6.9v-2.4c0-0.9-0.7-1.5-1.5-1.5
									c-0.9,0-1.6,0.7-1.6,1.5v2.4V432.6z"/>
								<line class="st14" x1="623.1" y1="425.6" x2="623.1" y2="432.6"/>
								<polygon class="st14" points="634.8,432.6 634.8,425.6 638.8,425.6 638.8,426.9 638.8,431.2 638.8,432.6 								"/>
								<polygon class="st14" points="639.7,431.2 654,431.2 654,426.9 639.7,426.9 638.8,426.9 636.8,426.9 636.8,431.2 
									638.8,431.2 								"/>
								<line class="st14" x1="639.7" y1="426.9" x2="639.7" y2="431.2"/>
							</g>
						</g>
					</g>
					<g>
						<g id="XMLID_282_">
							<g>
								<path class="st7" d="M619.8,453.7h-3.1v-2.4c0-0.9,0.7-1.5,1.6-1.5c0.8,0,1.5,0.7,1.5,1.5V453.7z"/>
								<path class="st7" d="M619.8,463.1c0,0.9-0.7,1.6-1.5,1.6c-0.9,0-1.6-0.7-1.6-1.6v-2.4h3.1V463.1z"/>
								<rect x="616.7" y="453.7" class="st9" width="3.1" height="6.9"/>
								<rect x="619.8" y="453.7" class="st9" width="3.3" height="6.9"/>
								<rect x="623.1" y="453.7" class="st10" width="11.7" height="6.9"/>
								<polygon class="st11" points="636.8,454.9 636.8,459.3 638.8,459.3 638.8,460.6 634.8,460.6 634.8,453.7 638.8,453.7 
									638.8,454.9 								"/>
								<rect x="636.8" y="454.9" class="st12" width="2" height="4.4"/>
								<rect x="638.8" y="454.9" class="st12" width="1" height="4.4"/>
								<rect x="639.7" y="454.9" class="st13" width="14.3" height="4.4"/>
							</g>
							<g>
								<polyline class="st14" points="616.7,460.6 619.8,460.6 623.1,460.6 634.8,460.6 								"/>
								<polyline class="st14" points="634.8,453.7 623.1,453.7 619.8,453.7 616.7,453.7 								"/>
								<path class="st14" d="M616.7,460.6v2.4c0,0.9,0.7,1.6,1.6,1.6c0.8,0,1.5-0.7,1.5-1.6v-2.4v-6.9v-2.4c0-0.9-0.7-1.5-1.5-1.5
									c-0.9,0-1.6,0.7-1.6,1.5v2.4V460.6z"/>
								<line class="st14" x1="623.1" y1="453.7" x2="623.1" y2="460.6"/>
								<polygon class="st14" points="634.8,460.6 634.8,453.7 638.8,453.7 638.8,454.9 638.8,459.3 638.8,460.6 								"/>
								<polygon class="st14" points="639.7,459.3 654,459.3 654,454.9 639.7,454.9 638.8,454.9 636.8,454.9 636.8,459.3 
									638.8,459.3 								"/>
								<line class="st14" x1="639.7" y1="454.9" x2="639.7" y2="459.3"/>
							</g>
						</g>
					</g>
					<g>
						<g id="XMLID_281_">
							<g>
								<path class="st7" d="M619.8,481.8h-3.1v-2.4c0-0.9,0.7-1.5,1.6-1.5c0.8,0,1.5,0.7,1.5,1.5V481.8z"/>
								<path class="st7" d="M619.8,491.1c0,0.9-0.7,1.6-1.5,1.6c-0.9,0-1.6-0.7-1.6-1.6v-2.4h3.1V491.1z"/>
								<rect x="616.7" y="481.8" class="st9" width="3.1" height="6.9"/>
								<rect x="619.8" y="481.8" class="st9" width="3.3" height="6.9"/>
								<rect x="623.1" y="481.8" class="st10" width="11.7" height="6.9"/>
								<polygon class="st11" points="636.8,483 636.8,487.4 638.8,487.4 638.8,488.7 634.8,488.7 634.8,481.8 638.8,481.8 
									638.8,483 								"/>
								<rect x="636.8" y="483" class="st12" width="2" height="4.4"/>
								<rect x="638.8" y="483" class="st12" width="1" height="4.4"/>
								<rect x="639.7" y="483" class="st13" width="14.3" height="4.4"/>
							</g>
							<g>
								<polyline class="st14" points="616.7,488.7 619.8,488.7 623.1,488.7 634.8,488.7 								"/>
								<polyline class="st14" points="634.8,481.8 623.1,481.8 619.8,481.8 616.7,481.8 								"/>
								<path class="st14" d="M616.7,488.7v2.4c0,0.9,0.7,1.6,1.6,1.6c0.8,0,1.5-0.7,1.5-1.6v-2.4v-6.9v-2.4c0-0.9-0.7-1.5-1.5-1.5
									c-0.9,0-1.6,0.7-1.6,1.5v2.4V488.7z"/>
								<line class="st14" x1="623.1" y1="481.8" x2="623.1" y2="488.7"/>
								<polygon class="st14" points="634.8,488.7 634.8,481.8 638.8,481.8 638.8,483 638.8,487.4 638.8,488.7 								"/>
								<polygon class="st14" points="639.7,487.4 654,487.4 654,483 639.7,483 638.8,483 636.8,483 636.8,487.4 638.8,487.4 
																	"/>
								<line class="st14" x1="639.7" y1="483" x2="639.7" y2="487.4"/>
							</g>
						</g>
					</g>
					<g>
						<g id="XMLID_280_">
							<g>
								<path class="st7" d="M619.8,509.8h-3.1v-2.4c0-0.9,0.7-1.5,1.6-1.5c0.8,0,1.5,0.7,1.5,1.5V509.8z"/>
								<path class="st7" d="M619.8,519.2c0,0.9-0.7,1.6-1.5,1.6c-0.9,0-1.6-0.7-1.6-1.6v-2.4h3.1V519.2z"/>
								<rect x="616.7" y="509.8" class="st9" width="3.1" height="6.9"/>
								<rect x="619.8" y="509.8" class="st9" width="3.3" height="6.9"/>
								<rect x="623.1" y="509.8" class="st10" width="11.7" height="6.9"/>
								<polygon class="st11" points="636.8,511 636.8,515.4 638.8,515.4 638.8,516.8 634.8,516.8 634.8,509.8 638.8,509.8 
									638.8,511 								"/>
								<rect x="636.8" y="511" class="st12" width="2" height="4.4"/>
								<rect x="638.8" y="511" class="st12" width="1" height="4.4"/>
								<rect x="639.7" y="511" class="st13" width="14.3" height="4.4"/>
							</g>
							<g>
								<polyline class="st14" points="616.7,516.8 619.8,516.8 623.1,516.8 634.8,516.8 								"/>
								<polyline class="st14" points="634.8,509.8 623.1,509.8 619.8,509.8 616.7,509.8 								"/>
								<path class="st14" d="M616.7,516.8v2.4c0,0.9,0.7,1.6,1.6,1.6c0.8,0,1.5-0.7,1.5-1.6v-2.4v-6.9v-2.4c0-0.9-0.7-1.5-1.5-1.5
									c-0.9,0-1.6,0.7-1.6,1.5v2.4V516.8z"/>
								<line class="st14" x1="623.1" y1="509.8" x2="623.1" y2="516.8"/>
								<polygon class="st14" points="634.8,516.8 634.8,509.8 638.8,509.8 638.8,511 638.8,515.4 638.8,516.8 								"/>
								<polygon class="st14" points="639.7,515.4 654,515.4 654,511 639.7,511 638.8,511 636.8,511 636.8,515.4 638.8,515.4 
																	"/>
								<line class="st14" x1="639.7" y1="511" x2="639.7" y2="515.4"/>
							</g>
						</g>
					</g>
					<g>
						<g id="XMLID_279_">
							<g>
								<path class="st7" d="M619.8,537.9h-3.1v-2.4c0-0.9,0.7-1.5,1.6-1.5c0.8,0,1.5,0.7,1.5,1.5V537.9z"/>
								<path class="st7" d="M619.8,547.3c0,0.9-0.7,1.6-1.5,1.6c-0.9,0-1.6-0.7-1.6-1.6v-2.4h3.1V547.3z"/>
								<rect x="616.7" y="537.9" class="st9" width="3.1" height="6.9"/>
								<rect x="619.8" y="537.9" class="st9" width="3.3" height="6.9"/>
								<rect x="623.1" y="537.9" class="st10" width="11.7" height="6.9"/>
								<polygon class="st11" points="636.8,539.1 636.8,543.5 638.8,543.5 638.8,544.8 634.8,544.8 634.8,537.9 638.8,537.9 
									638.8,539.1 								"/>
								<rect x="636.8" y="539.1" class="st12" width="2" height="4.4"/>
								<rect x="638.8" y="539.1" class="st12" width="1" height="4.4"/>
								<rect x="639.7" y="539.1" class="st13" width="14.3" height="4.4"/>
							</g>
							<g>
								<polyline class="st14" points="616.7,544.8 619.8,544.8 623.1,544.8 634.8,544.8 								"/>
								<polyline class="st14" points="634.8,537.9 623.1,537.9 619.8,537.9 616.7,537.9 								"/>
								<path class="st14" d="M616.7,544.8v2.4c0,0.9,0.7,1.6,1.6,1.6c0.8,0,1.5-0.7,1.5-1.6v-2.4v-6.9v-2.4c0-0.9-0.7-1.5-1.5-1.5
									c-0.9,0-1.6,0.7-1.6,1.5v2.4V544.8z"/>
								<line class="st14" x1="623.1" y1="537.9" x2="623.1" y2="544.8"/>
								<polygon class="st14" points="634.8,544.8 634.8,537.9 638.8,537.9 638.8,539.1 638.8,543.5 638.8,544.8 								"/>
								<polygon class="st14" points="639.7,543.5 654,543.5 654,539.1 639.7,539.1 638.8,539.1 636.8,539.1 636.8,543.5 
									638.8,543.5 								"/>
								<line class="st14" x1="639.7" y1="539.1" x2="639.7" y2="543.5"/>
							</g>
						</g>
					</g>
					<g>
						<g id="XMLID_278_">
							<g>
								<path class="st7" d="M619.8,565.9h-3.1v-2.4c0-0.9,0.7-1.5,1.6-1.5c0.8,0,1.5,0.7,1.5,1.5V565.9z"/>
								<path class="st7" d="M619.8,575.3c0,0.9-0.7,1.6-1.5,1.6c-0.9,0-1.6-0.7-1.6-1.6v-2.4h3.1V575.3z"/>
								<rect x="616.7" y="565.9" class="st9" width="3.1" height="6.9"/>
								<rect x="619.8" y="565.9" class="st9" width="3.3" height="6.9"/>
								<rect x="623.1" y="565.9" class="st10" width="11.7" height="6.9"/>
								<polygon class="st11" points="636.8,567.2 636.8,571.5 638.8,571.5 638.8,572.9 634.8,572.9 634.8,565.9 638.8,565.9 
									638.8,567.2 								"/>
								<rect x="636.8" y="567.2" class="st12" width="2" height="4.4"/>
								<rect x="638.8" y="567.2" class="st12" width="1" height="4.4"/>
								<rect x="639.7" y="567.2" class="st13" width="14.3" height="4.4"/>
							</g>
							<g>
								<polyline class="st14" points="616.7,572.9 619.8,572.9 623.1,572.9 634.8,572.9 								"/>
								<polyline class="st14" points="634.8,565.9 623.1,565.9 619.8,565.9 616.7,565.9 								"/>
								<path class="st14" d="M616.7,572.9v2.4c0,0.9,0.7,1.6,1.6,1.6c0.8,0,1.5-0.7,1.5-1.6v-2.4V566v-2.4c0-0.9-0.7-1.5-1.5-1.5
									c-0.9,0-1.6,0.7-1.6,1.5v2.4V572.9z"/>
								<line class="st14" x1="623.1" y1="565.9" x2="623.1" y2="572.9"/>
								<polygon class="st14" points="634.8,572.9 634.8,565.9 638.8,565.9 638.8,567.2 638.8,571.5 638.8,572.9 								"/>
								<polygon class="st14" points="639.7,571.5 654,571.5 654,567.2 639.7,567.2 638.8,567.2 636.8,567.2 636.8,571.5 
									638.8,571.5 								"/>
								<line class="st14" x1="639.7" y1="567.2" x2="639.7" y2="571.5"/>
							</g>
						</g>
					</g>
				</g>
				<g>
					<g>
						<g id="XMLID_277_">
							<g>
								<path class="st7" d="M380.3,425.6h3.1v-2.4c0-0.9-0.7-1.5-1.6-1.5c-0.8,0-1.5,0.7-1.5,1.5V425.6z"/>
								<path class="st7" d="M380.3,435c0,0.9,0.7,1.6,1.5,1.6c0.9,0,1.6-0.7,1.6-1.6v-2.4h-3.1V435z"/>
								<rect x="380.3" y="425.6" class="st9" width="3.1" height="6.9"/>
								<rect x="376.9" y="425.6" class="st9" width="3.3" height="6.9"/>
								<rect x="365.3" y="425.6" class="st10" width="11.7" height="6.9"/>
								<polygon class="st11" points="363.3,426.9 363.3,431.2 361.2,431.2 361.2,432.6 365.3,432.6 365.3,425.6 361.2,425.6 
									361.2,426.9 								"/>
								<rect x="361.2" y="426.9" class="st12" width="2" height="4.4"/>
								<rect x="360.3" y="426.9" class="st12" width="1" height="4.4"/>
								<rect x="346" y="426.9" class="st13" width="14.3" height="4.4"/>
							</g>
							<g>
								<polyline class="st14" points="383.4,432.6 380.3,432.6 376.9,432.6 365.3,432.6 								"/>
								<polyline class="st14" points="365.3,425.6 376.9,425.6 380.3,425.6 383.4,425.6 								"/>
								<path class="st14" d="M383.4,432.6v2.4c0,0.9-0.7,1.6-1.6,1.6c-0.8,0-1.5-0.7-1.5-1.6v-2.4v-6.9v-2.4c0-0.9,0.7-1.5,1.5-1.5
									c0.9,0,1.6,0.7,1.6,1.5v2.4V432.6z"/>
								<line class="st14" x1="376.9" y1="425.6" x2="376.9" y2="432.6"/>
								<polygon class="st14" points="365.3,432.6 365.3,425.6 361.2,425.6 361.2,426.9 361.2,431.2 361.2,432.6 								"/>
								<polygon class="st14" points="360.3,431.2 346,431.2 346,426.9 360.3,426.9 361.2,426.9 363.3,426.9 363.3,431.2 
									361.2,431.2 								"/>
								<line class="st14" x1="360.3" y1="426.9" x2="360.3" y2="431.2"/>
							</g>
						</g>
					</g>
					<g>
						<g id="XMLID_276_">
							<g>
								<path class="st7" d="M380.3,453.7h3.1v-2.4c0-0.9-0.7-1.5-1.6-1.5c-0.8,0-1.5,0.7-1.5,1.5V453.7z"/>
								<path class="st7" d="M380.3,463.1c0,0.9,0.7,1.6,1.5,1.6c0.9,0,1.6-0.7,1.6-1.6v-2.4h-3.1V463.1z"/>
								<rect x="380.3" y="453.7" class="st9" width="3.1" height="6.9"/>
								<rect x="376.9" y="453.7" class="st9" width="3.3" height="6.9"/>
								<rect x="365.3" y="453.7" class="st10" width="11.7" height="6.9"/>
								<polygon class="st11" points="363.3,454.9 363.3,459.3 361.2,459.3 361.2,460.6 365.3,460.6 365.3,453.7 361.2,453.7 
									361.2,454.9 								"/>
								<rect x="361.2" y="454.9" class="st12" width="2" height="4.4"/>
								<rect x="360.3" y="454.9" class="st12" width="1" height="4.4"/>
								<rect x="346" y="454.9" class="st13" width="14.3" height="4.4"/>
							</g>
							<g>
								<polyline class="st14" points="383.4,460.6 380.3,460.6 376.9,460.6 365.3,460.6 								"/>
								<polyline class="st14" points="365.3,453.7 376.9,453.7 380.3,453.7 383.4,453.7 								"/>
								<path class="st14" d="M383.4,460.6v2.4c0,0.9-0.7,1.6-1.6,1.6c-0.8,0-1.5-0.7-1.5-1.6v-2.4v-6.9v-2.4c0-0.9,0.7-1.5,1.5-1.5
									c0.9,0,1.6,0.7,1.6,1.5v2.4V460.6z"/>
								<line class="st14" x1="376.9" y1="453.7" x2="376.9" y2="460.6"/>
								<polygon class="st14" points="365.3,460.6 365.3,453.7 361.2,453.7 361.2,454.9 361.2,459.3 361.2,460.6 								"/>
								<polygon class="st14" points="360.3,459.3 346,459.3 346,454.9 360.3,454.9 361.2,454.9 363.3,454.9 363.3,459.3 
									361.2,459.3 								"/>
								<line class="st14" x1="360.3" y1="454.9" x2="360.3" y2="459.3"/>
							</g>
						</g>
					</g>
					<g>
						<g id="XMLID_275_">
							<g>
								<path class="st7" d="M380.3,481.8h3.1v-2.4c0-0.9-0.7-1.5-1.6-1.5c-0.8,0-1.5,0.7-1.5,1.5V481.8z"/>
								<path class="st7" d="M380.3,491.1c0,0.9,0.7,1.6,1.5,1.6c0.9,0,1.6-0.7,1.6-1.6v-2.4h-3.1V491.1z"/>
								<rect x="380.3" y="481.8" class="st9" width="3.1" height="6.9"/>
								<rect x="376.9" y="481.8" class="st9" width="3.3" height="6.9"/>
								<rect x="365.3" y="481.8" class="st10" width="11.7" height="6.9"/>
								<polygon class="st11" points="363.3,483 363.3,487.4 361.2,487.4 361.2,488.7 365.3,488.7 365.3,481.8 361.2,481.8 
									361.2,483 								"/>
								<rect x="361.2" y="483" class="st12" width="2" height="4.4"/>
								<rect x="360.3" y="483" class="st12" width="1" height="4.4"/>
								<rect x="346" y="483" class="st13" width="14.3" height="4.4"/>
							</g>
							<g>
								<polyline class="st14" points="383.4,488.7 380.3,488.7 376.9,488.7 365.3,488.7 								"/>
								<polyline class="st14" points="365.3,481.8 376.9,481.8 380.3,481.8 383.4,481.8 								"/>
								<path class="st14" d="M383.4,488.7v2.4c0,0.9-0.7,1.6-1.6,1.6c-0.8,0-1.5-0.7-1.5-1.6v-2.4v-6.9v-2.4c0-0.9,0.7-1.5,1.5-1.5
									c0.9,0,1.6,0.7,1.6,1.5v2.4V488.7z"/>
								<line class="st14" x1="376.9" y1="481.8" x2="376.9" y2="488.7"/>
								<polygon class="st14" points="365.3,488.7 365.3,481.8 361.2,481.8 361.2,483 361.2,487.4 361.2,488.7 								"/>
								<polygon class="st14" points="360.3,487.4 346,487.4 346,483 360.3,483 361.2,483 363.3,483 363.3,487.4 361.2,487.4 
																	"/>
								<line class="st14" x1="360.3" y1="483" x2="360.3" y2="487.4"/>
							</g>
						</g>
					</g>
					<g>
						<g id="XMLID_274_">
							<g>
								<path class="st7" d="M380.3,509.8h3.1v-2.4c0-0.9-0.7-1.5-1.6-1.5c-0.8,0-1.5,0.7-1.5,1.5V509.8z"/>
								<path class="st7" d="M380.3,519.2c0,0.9,0.7,1.6,1.5,1.6c0.9,0,1.6-0.7,1.6-1.6v-2.4h-3.1V519.2z"/>
								<rect x="380.3" y="509.8" class="st9" width="3.1" height="6.9"/>
								<rect x="376.9" y="509.8" class="st9" width="3.3" height="6.9"/>
								<rect x="365.3" y="509.8" class="st10" width="11.7" height="6.9"/>
								<polygon class="st11" points="363.3,511 363.3,515.4 361.2,515.4 361.2,516.8 365.3,516.8 365.3,509.8 361.2,509.8 
									361.2,511 								"/>
								<rect x="361.2" y="511" class="st12" width="2" height="4.4"/>
								<rect x="360.3" y="511" class="st12" width="1" height="4.4"/>
								<rect x="346" y="511" class="st13" width="14.3" height="4.4"/>
							</g>
							<g>
								<polyline class="st14" points="383.4,516.8 380.3,516.8 376.9,516.8 365.3,516.8 								"/>
								<polyline class="st14" points="365.3,509.8 376.9,509.8 380.3,509.8 383.4,509.8 								"/>
								<path class="st14" d="M383.4,516.8v2.4c0,0.9-0.7,1.6-1.6,1.6c-0.8,0-1.5-0.7-1.5-1.6v-2.4v-6.9v-2.4c0-0.9,0.7-1.5,1.5-1.5
									c0.9,0,1.6,0.7,1.6,1.5v2.4V516.8z"/>
								<line class="st14" x1="376.9" y1="509.8" x2="376.9" y2="516.8"/>
								<polygon class="st14" points="365.3,516.8 365.3,509.8 361.2,509.8 361.2,511 361.2,515.4 361.2,516.8 								"/>
								<polygon class="st14" points="360.3,515.4 346,515.4 346,511 360.3,511 361.2,511 363.3,511 363.3,515.4 361.2,515.4 
																	"/>
								<line class="st14" x1="360.3" y1="511" x2="360.3" y2="515.4"/>
							</g>
						</g>
					</g>
					<g>
						<g id="XMLID_273_">
							<g>
								<path class="st7" d="M380.3,537.9h3.1v-2.4c0-0.9-0.7-1.5-1.6-1.5c-0.8,0-1.5,0.7-1.5,1.5V537.9z"/>
								<path class="st7" d="M380.3,547.3c0,0.9,0.7,1.6,1.5,1.6c0.9,0,1.6-0.7,1.6-1.6v-2.4h-3.1V547.3z"/>
								<rect x="380.3" y="537.9" class="st9" width="3.1" height="6.9"/>
								<rect x="376.9" y="537.9" class="st9" width="3.3" height="6.9"/>
								<rect x="365.3" y="537.9" class="st10" width="11.7" height="6.9"/>
								<polygon class="st11" points="363.3,539.1 363.3,543.5 361.2,543.5 361.2,544.8 365.3,544.8 365.3,537.9 361.2,537.9 
									361.2,539.1 								"/>
								<rect x="361.2" y="539.1" class="st12" width="2" height="4.4"/>
								<rect x="360.3" y="539.1" class="st12" width="1" height="4.4"/>
								<rect x="346" y="539.1" class="st13" width="14.3" height="4.4"/>
							</g>
							<g>
								<polyline class="st14" points="383.4,544.8 380.3,544.8 376.9,544.8 365.3,544.8 								"/>
								<polyline class="st14" points="365.3,537.9 376.9,537.9 380.3,537.9 383.4,537.9 								"/>
								<path class="st14" d="M383.4,544.8v2.4c0,0.9-0.7,1.6-1.6,1.6c-0.8,0-1.5-0.7-1.5-1.6v-2.4v-6.9v-2.4c0-0.9,0.7-1.5,1.5-1.5
									c0.9,0,1.6,0.7,1.6,1.5v2.4V544.8z"/>
								<line class="st14" x1="376.9" y1="537.9" x2="376.9" y2="544.8"/>
								<polygon class="st14" points="365.3,544.8 365.3,537.9 361.2,537.9 361.2,539.1 361.2,543.5 361.2,544.8 								"/>
								<polygon class="st14" points="360.3,543.5 346,543.5 346,539.1 360.3,539.1 361.2,539.1 363.3,539.1 363.3,543.5 
									361.2,543.5 								"/>
								<line class="st14" x1="360.3" y1="539.1" x2="360.3" y2="543.5"/>
							</g>
						</g>
					</g>
					<g>
						<g id="XMLID_272_">
							<g>
								<path class="st7" d="M380.3,565.9h3.1v-2.4c0-0.9-0.7-1.5-1.6-1.5c-0.8,0-1.5,0.7-1.5,1.5V565.9z"/>
								<path class="st7" d="M380.3,575.3c0,0.9,0.7,1.6,1.5,1.6c0.9,0,1.6-0.7,1.6-1.6v-2.4h-3.1V575.3z"/>
								<rect x="380.3" y="565.9" class="st9" width="3.1" height="6.9"/>
								<rect x="376.9" y="565.9" class="st9" width="3.3" height="6.9"/>
								<rect x="365.3" y="565.9" class="st10" width="11.7" height="6.9"/>
								<polygon class="st11" points="363.3,567.2 363.3,571.5 361.2,571.5 361.2,572.9 365.3,572.9 365.3,565.9 361.2,565.9 
									361.2,567.2 								"/>
								<rect x="361.2" y="567.2" class="st12" width="2" height="4.4"/>
								<rect x="360.3" y="567.2" class="st12" width="1" height="4.4"/>
								<rect x="346" y="567.2" class="st13" width="14.3" height="4.4"/>
							</g>
							<g>
								<polyline class="st14" points="383.4,572.9 380.3,572.9 376.9,572.9 365.3,572.9 								"/>
								<polyline class="st14" points="365.3,565.9 376.9,565.9 380.3,565.9 383.4,565.9 								"/>
								<path class="st14" d="M383.4,572.9v2.4c0,0.9-0.7,1.6-1.6,1.6c-0.8,0-1.5-0.7-1.5-1.6v-2.4V566v-2.4c0-0.9,0.7-1.5,1.5-1.5
									c0.9,0,1.6,0.7,1.6,1.5v2.4V572.9z"/>
								<line class="st14" x1="376.9" y1="565.9" x2="376.9" y2="572.9"/>
								<polygon class="st14" points="365.3,572.9 365.3,565.9 361.2,565.9 361.2,567.2 361.2,571.5 361.2,572.9 								"/>
								<polygon class="st14" points="360.3,571.5 346,571.5 346,567.2 360.3,567.2 361.2,567.2 363.3,567.2 363.3,571.5 
									361.2,571.5 								"/>
								<line class="st14" x1="360.3" y1="567.2" x2="360.3" y2="571.5"/>
							</g>
						</g>
					</g>
				</g>
			</g>
		</g>
	</g>
	<polyline class="st15" points="653,429 676,429 755.5,349.5 802.5,349.5 	"/>
	<polyline class="st15" points="652.5,457.5 735.5,457.5 761,483 829.5,483 	"/>
	<polyline class="st15" points="652.5,485.5 728.5,485.5 728.5,511.5 747.5,530.5 	"/>
	<polyline class="st15" points="654,513.3 715.5,513.3 715.5,501.5 715.5,523.5 	"/>
	<polyline class="st15" points="652.5,541.5 728.5,541.5 756,569 823.5,569 	"/>
	<polyline class="st15" points="650.5,569.5 683.5,569.5 695.5,558.5 717.5,558.5 	"/>
	<polyline class="st15" points="683,570 716.5,603.5 778.5,603.5 794,619 	"/>
	<circle class="st15" cx="809.5" cy="349.5" r="9"/>
	<circle class="st15" cx="752.5" cy="535.5" r="9"/>
	<circle class="st15" cx="724.5" cy="558.5" r="9"/>
	<circle class="st15" cx="831.5" cy="568.5" r="9"/>
	<circle class="st15" cx="799.5" cy="624.5" r="9"/>
	<circle class="st15" cx="808.5" cy="391.5" r="9"/>
	<circle class="st15" cx="182.5" cy="301.5" r="9"/>
	<circle class="st15" cx="171.5" cy="372.5" r="9"/>
	<circle class="st15" cx="169.5" cy="431.5" r="9"/>
	<circle class="st15" cx="169.5" cy="572.5" r="9"/>
	<circle class="st15" cx="169.5" cy="506.5" r="9"/>
	<circle class="st15" cx="184.5" cy="600.5" r="9"/>
	<circle class="st15" cx="196.5" cy="639.5" r="9"/>
	<circle class="st15" cx="738.5" cy="242.5" r="9"/>
	<circle class="st15" cx="677.5" cy="179.5" r="9"/>
	<circle class="st15" cx="598.5" cy="179.5" r="9"/>
	<circle class="st15" cx="570.5" cy="179.5" r="9"/>
	<circle class="st15" cx="491.5" cy="179.5" r="9"/>
	<circle class="st15" cx="426.5" cy="179.5" r="9"/>
	<circle class="st15" cx="375.5" cy="179.5" r="9"/>
	<circle class="st15" cx="320.5" cy="179.5" r="9"/>
	<circle class="st15" cx="409.5" cy="240.5" r="9"/>
	<circle class="st15" cx="570.5" cy="265.5" r="9"/>
	<circle class="st15" cx="691.5" cy="786.5" r="9"/>
	<circle class="st15" cx="660.5" cy="806.5" r="9"/>
	<circle class="st15" cx="554.5" cy="736.5" r="9"/>
	<circle class="st15" cx="433.5" cy="775.5" r="9"/>
	<circle class="st15" cx="453.5" cy="812.5" r="9"/>
	<circle class="st15" cx="398.5" cy="812.5" r="9"/>
	<circle class="st15" cx="316.5" cy="812.5" r="9"/>
	<circle class="st15" cx="836.5" cy="482.5" r="9"/>
	<polyline class="st15" points="691.6,779.5 691.6,770.5 691.6,721.4 623.5,653.2 570.5,653.5 570.5,649.5 	"/>
	<polyline class="st15" points="542.1,653.2 542.1,656.5 629.8,744.2 660.5,744.2 660.5,799.5 	"/>
	<polyline class="st15" points="514,653.2 514,699.5 489.3,724.3 489.3,774.5 554.5,774.5 554.5,743.5 	"/>
	<line class="st15" x1="489.5" y1="775.5" x2="459" y2="806"/>
	<polyline class="st15" points="674.5,429 692.5,429 718.5,429 756.3,391.3 799.5,391.3 800.5,391.3 	"/>
	<polyline class="st15" points="485.5,651.5 485.5,677.5 434,729 434,767.5 	"/>
	<polyline class="st15" points="457.9,653.2 457.9,669.5 465.5,669.5 457.5,669.5 441.5,685.5 398.5,728.5 398.5,803 	"/>
	<polyline class="st15" points="427.8,652.7 314.5,766 314.5,805 	"/>
	<polyline class="st15" points="677.9,186.5 677.9,211.9 618.3,271.5 618.3,295.3 570.1,343.5 570.1,345.3 570.5,346.5 	"/>
	<polyline class="st15" points="598.2,186.5 598.2,289.2 541.5,346.5 	"/>
	<polyline class="st15" points="584.2,329.4 611.5,329.4 618.5,329.4 705,243 730.5,243 	"/>
	<polyline class="st15" points="514,349 514,345.3 514,272.5 569.8,216.8 569.8,186.5 569.8,258.5 	"/>
	<polyline class="st15" points="486,345.3 486,340.5 486,275.5 426.2,215.8 426.2,186.5 	"/>
	<polyline class="st15" points="457.5,246.5 491.5,212.5 491.5,186.5 	"/>
	<polyline class="st15" points="429.5,346.5 321,238 321,186.5 	"/>
	<polyline class="st15" points="457.5,346.5 392,281 392,246.5 374.8,229.3 375.5,186.5 	"/>
	<polyline class="st15" points="435.5,322.5 435.5,266.5 415,246 	"/>
	<polyline class="st15" points="346,429.1 343.5,429.1 216.2,301.8 192.5,301.5 	"/>
	<polyline class="st15" points="347.5,457.5 276.5,457.5 276.5,403.5 201.5,403.5 177,379 	"/>
	<polyline class="st15" points="346,485.2 332.5,485.2 273.5,485.2 219.6,431.4 177.5,431.4 	"/>
	<polyline class="st15" points="250.9,462.6 206.8,506.8 177.5,506.8 	"/>
	<polyline class="st15" points="346,513.2 273.5,513.2 213.9,572.9 177.5,572.9 	"/>
	<polyline class="st15" points="346,541.4 312.5,541.4 312.5,565.5 268.5,565.5 234,600 192,600.5 	"/>
	<polyline class="st15" points="346,569.4 276.2,639.2 203.5,639.2 	"/>
	<g class="st16">
		<path d="M476.1,431.7h6.5c1.1,0,2.2,0.6,2.2,2.2s-1.1,2.2-2.2,2.2h-17.3c-1.1,0-2.2-0.6-2.2-2.2s1.1-2.2,2.2-2.2h6.5v-25.4h-6.5
			c-1.1,0-2.2-0.6-2.2-2.2c0-1.6,1.1-2.2,2.2-2.2h17.3c1.1,0,2.2,0.6,2.2,2.2c0,1.6-1.1,2.2-2.2,2.2h-6.5V431.7z"/>
		<path d="M515.4,414.2c0.8,1.7,1.1,3,1.1,4.9c0,2.1-0.6,3.4-1.5,5.2l-4,8.1c-1.1,2.1-2.8,3.7-5.4,3.7c-2.6,0-4.3-1.5-5.4-3.7
			l-4-8.1c-0.9-1.8-1.5-3.1-1.5-5.2c0-1.9,0.3-3.2,1.1-4.9l4.4-8.8c1.1-2.1,2.9-3.6,5.3-3.6c2.5,0,4.3,1.5,5.3,3.6L515.4,414.2z
			 M507.1,407.6c-0.4-0.7-0.6-1.3-1.5-1.3c-0.9,0-1.1,0.6-1.5,1.3l-4,8c-0.7,1.3-1,2.1-1,3.6c0,1.1,0.3,1.9,0.7,2.9l4.2,8.4
			c0.3,0.6,0.6,1.3,1.5,1.3s1.2-0.7,1.5-1.3l4.2-8.4c0.5-1,0.7-1.8,0.7-2.9c0-1.5-0.4-2.3-1-3.6L507.1,407.6z"/>
		<path d="M530.8,406.2v1.6c0,1.4-0.6,2.2-2.2,2.2c-1.6,0-2.2-0.8-2.2-2.2v-6h21.7v6c0,1.4-0.6,2.2-2.2,2.2s-2.2-0.8-2.2-2.2v-1.6
			h-4.3v27.6c0,1.4-0.6,2.2-2.2,2.2s-2.2-0.8-2.2-2.2v-27.6H530.8z"/>
	</g>
	<g class="st17">
		<path class="st13" d="M475.1,430.7h6.5c1.1,0,2.2,0.6,2.2,2.2s-1.1,2.2-2.2,2.2h-17.3c-1.1,0-2.2-0.6-2.2-2.2s1.1-2.2,2.2-2.2h6.5
			v-25.4h-6.5c-1.1,0-2.2-0.6-2.2-2.2c0-1.6,1.1-2.2,2.2-2.2h17.3c1.1,0,2.2,0.6,2.2,2.2c0,1.6-1.1,2.2-2.2,2.2h-6.5V430.7z"/>
		<path class="st13" d="M514.4,413.2c0.8,1.7,1.1,3,1.1,4.9c0,2.1-0.6,3.4-1.5,5.2l-4,8.1c-1.1,2.1-2.8,3.7-5.4,3.7
			c-2.6,0-4.3-1.5-5.4-3.7l-4-8.1c-0.9-1.8-1.5-3.1-1.5-5.2c0-1.9,0.3-3.2,1.1-4.9l4.4-8.8c1.1-2.1,2.9-3.6,5.3-3.6
			c2.5,0,4.3,1.5,5.3,3.6L514.4,413.2z M506.1,406.6c-0.4-0.7-0.6-1.3-1.5-1.3c-0.9,0-1.1,0.6-1.5,1.3l-4,8c-0.7,1.3-1,2.1-1,3.6
			c0,1.1,0.3,1.9,0.7,2.9l4.2,8.4c0.3,0.6,0.6,1.3,1.5,1.3s1.2-0.7,1.5-1.3l4.2-8.4c0.5-1,0.7-1.8,0.7-2.9c0-1.5-0.4-2.3-1-3.6
			L506.1,406.6z"/>
		<path class="st13" d="M529.8,405.2v1.6c0,1.4-0.6,2.2-2.2,2.2c-1.6,0-2.2-0.8-2.2-2.2v-6h21.7v6c0,1.4-0.6,2.2-2.2,2.2
			s-2.2-0.8-2.2-2.2v-1.6h-4.3v27.6c0,1.4-0.6,2.2-2.2,2.2s-2.2-0.8-2.2-2.2v-27.6H529.8z"/>
	</g>
</g>
</svg>
