<?xml version="1.0" encoding="utf-8"?>
<!-- Generator: Adobe Illustrator 23.0.1, SVG Export Plug-In . SVG Version: 6.00 Build 0)  -->
<svg version="1.1" xmlns="http://www.w3.org/2000/svg" xmlns:xlink="http://www.w3.org/1999/xlink" x="0px" y="0px"
	 viewBox="0 0 1000 1000" enable-background="new 0 0 1000 1000" xml:space="preserve">
<g id="Layer_2">
	<path fill="#939393" d="M200.6,895.1c3.1,0.9,53.5,14.5,86.9-17.5c41.5-39.8,10.5-105.7,46.7-138.2c39.7-35.7,120.3,4.9,129.5,9.7
		c83.9,43.5,79.2,116.6,154.2,143.2c37.7,13.3,89.3,12.7,123.8-18.9c28.8-26.4,35.2-65,38-83.4C795,691,725.3,660,738.9,576
		c10.8-66.5,67.3-126.9,90-151c19.5-20.6,30.8-27.7,42.6-49c21.2-38.2,28.7-93,12.7-144.1c-21.4-68.4-81.6-119-141.8-123.6
		c-87-6.7-165.5,83.5-178.8,163.1c-6.6,39.4,2.9,75.4-23,112.8c-4.5,6.5-24.2,35.1-57.5,40c-44.6,6.5-81.9-41-101.4-65.4
		c-29.4-36.8-24.5-50.8-44.4-76.9c-38.5-50.3-130.3-93.8-201.5-46.9c-62.9,41.4-85.2,137-59.9,190.4c9.5,19.9,18.4,18.9,91.8,95.3
		c44,45.9,44.4,58.1,44.5,64.4c0.8,47.7-83.9,50.2-106.2,114.9C83.9,764.7,129.2,874.6,200.6,895.1z"/>
</g>
<g id="Layer_1">
	<g>
		<polygon opacity="0.75" fill="#0D4654" points="147.8,753.9 164.5,770.6 853.4,770.6 834.1,751.4 		"/>
		<g>
			<g>
				<g>
					<g>
						<g>
							<path fill="#415168" d="M762.3,402c-18.5,0-265.5,0-265.5,0s-247,0-265.5,0c-18.5,0-16.5,16.1-16.5,16.1v324.1h563.9V418.1
								C778.8,418.1,780.9,402,762.3,402z"/>
							<g>
								<defs>
									<path id="SVGID_1_" d="M762.3,402c-18.5,0-265.5,0-265.5,0s-247,0-265.5,0c-18.5,0-16.5,16.1-16.5,16.1v324.1h563.9V418.1
										C778.8,418.1,780.9,402,762.3,402z"/>
								</defs>
								<clipPath id="SVGID_2_">
									<use xlink:href="#SVGID_1_"  overflow="visible"/>
								</clipPath>
							</g>
							<path fill="#FFFFFF" d="M756.5,728.9H237.6c-2.2,0-4-1.8-4-4V424.1c0-2.2,1.8-4,4-4h518.9c2.2,0,4,1.8,4,4v300.8
								C760.5,727.1,758.7,728.9,756.5,728.9z"/>
						</g>
						<g>
							<rect x="147.7" y="739.8" fill="#E2E5DA" width="697.6" height="13.5"/>
							<rect x="811.6" y="739.8" fill="#F4F4F4" width="33.7" height="13.5"/>
							<rect x="147.7" y="739.8" fill="#F4F4F4" width="33.7" height="13.5"/>
							<path fill="#C0C2C4" d="M496.2,753.3H147.7c0,0,8.4,7.7,23.7,7.7c15.3,0,324.9,0,324.9,0s309.6,0,324.9,0
								c15.3,0,23.7-7.7,23.7-7.7H496.2z"/>
						</g>
					</g>
					<rect x="233.6" y="420.1" fill="#D6D6D6" width="526.7" height="28"/>
					<path fill="#FFFFFF" d="M609,430.2H260.7v11.2H609c3.1,0,5.6-2.5,5.6-5.6C614.6,432.7,612.1,430.2,609,430.2z"/>
					<rect x="236" y="430.2" fill="#EDEDED" width="10.7" height="11.2"/>
					<rect x="247.8" y="430.2" fill="#EDEDED" width="10.7" height="11.2"/>
					<path fill="#FFFFFF" d="M746,441.4H624.2c-1.9,0-3.4-1.5-3.4-3.4v-4.4c0-1.9,1.5-3.4,3.4-3.4H746c1.9,0,3.4,1.5,3.4,3.4v4.4
						C749.4,439.9,747.9,441.4,746,441.4z"/>
					<g>
						<path fill="#ED4545" d="M241.9,424.2c0,1.3-1,2.3-2.3,2.3c-1.3,0-2.3-1-2.3-2.3c0-1.3,1-2.3,2.3-2.3
							C240.8,421.9,241.9,422.9,241.9,424.2z"/>
						<path fill="#D3AF16" d="M248.8,424.2c0,1.3-1,2.3-2.3,2.3c-1.3,0-2.3-1-2.3-2.3c0-1.3,1-2.3,2.3-2.3
							C247.7,421.9,248.8,422.9,248.8,424.2z"/>
						<path fill="#47EA78" d="M255.5,424.2c0,1.3-1,2.3-2.3,2.3c-1.3,0-2.3-1-2.3-2.3c0-1.3,1-2.3,2.3-2.3
							C254.4,421.9,255.5,422.9,255.5,424.2z"/>
					</g>
					<path fill="#E2E2E2" d="M500.4,410.3c0,2.2-1.8,3.9-3.9,3.9c-2.2,0-3.9-1.8-3.9-3.9c0-2.2,1.8-3.9,3.9-3.9
						C498.6,406.4,500.4,408.2,500.4,410.3z"/>
					<path fill="#415168" d="M499.1,410.3c0,1.5-1.2,2.6-2.6,2.6c-1.5,0-2.6-1.2-2.6-2.6c0-1.5,1.2-2.6,2.6-2.6
						C497.9,407.7,499.1,408.9,499.1,410.3z"/>
				</g>
			</g>
			<g>
				<rect x="233.6" y="448.2" fill="#E0E0E0" width="526.7" height="25"/>
				<rect x="264.6" y="477.6" fill="#EDEDED" width="471.9" height="85.3"/>
				<g>
					<rect x="264.6" y="572.1" fill="#EDEDED" width="95.6" height="156.8"/>
					<rect x="640.9" y="572.1" fill="#EDEDED" width="95.6" height="156.8"/>
				</g>
				<rect x="368.5" y="572.1" fill="#EDEDED" width="260.7" height="156.8"/>
				<rect x="273.6" y="487.7" opacity="0.5" fill="#CECECE" width="454" height="66.2"/>
				<path fill="#F7734C" d="M616.1,704.6h-39.9c-0.6,0-1-0.5-1-1v-52.4c0-0.6,0.5-1,1-1h39.9c0.6,0,1,0.5,1,1v52.4
					C617.1,704.1,616.6,704.6,616.1,704.6z"/>
				<path fill="#F7734C" d="M527.5,583.9H376.1c-0.5,0-1-0.5-1-1V580c0-0.5,0.5-1,1-1h151.4c0.6,0,1,0.5,1,1v2.8
					C528.5,583.4,528,583.9,527.5,583.9z"/>
				<g>
					<path fill="#DBDBDB" d="M616.6,597.3H376.1c-0.5,0-1-0.5-1-1v-2.8c0-0.5,0.5-1,1-1h240.5c0.5,0,1,0.5,1,1v2.8
						C617.6,596.8,617.1,597.3,616.6,597.3z"/>
					<path fill="#DBDBDB" d="M616.6,606.9H376.1c-0.5,0-1-0.5-1-1v-2.8c0-0.5,0.5-1,1-1h240.5c0.5,0,1,0.5,1,1v2.8
						C617.6,606.5,617.1,606.9,616.6,606.9z"/>
					<path fill="#DBDBDB" d="M616.6,616.5H376.1c-0.5,0-1-0.4-1-1v-2.8c0-0.6,0.5-1,1-1h240.5c0.5,0,1,0.4,1,1v2.8
						C617.6,616.1,617.1,616.5,616.6,616.5z"/>
					<path fill="#DBDBDB" d="M616.6,626.2H376.1c-0.5,0-1-0.5-1-1v-2.8c0-0.5,0.5-1,1-1h240.5c0.5,0,1,0.5,1,1v2.8
						C617.6,625.7,617.1,626.2,616.6,626.2z"/>
					<path fill="#DBDBDB" d="M616.6,635.8H376.1c-0.5,0-1-0.5-1-1V632c0-0.5,0.5-1,1-1h240.5c0.5,0,1,0.5,1,1v2.8
						C617.6,635.3,617.1,635.8,616.6,635.8z"/>
					<path fill="#DBDBDB" d="M616.6,645.4H376.1c-0.5,0-1-0.5-1-1v-2.8c0-0.5,0.5-1,1-1h240.5c0.5,0,1,0.5,1,1v2.8
						C617.6,645,617.1,645.4,616.6,645.4z"/>
				</g>
				<path fill="#DBDBDB" d="M429.3,686.7h-52.5c-1,0-1.8-0.8-1.8-1.8v-32.6c0-1,0.8-1.8,1.8-1.8h52.5c1,0,1.8,0.8,1.8,1.8v32.6
					C431.1,685.9,430.3,686.7,429.3,686.7z"/>
				<path fill="#DBDBDB" d="M557.8,686.7H439.9c-0.5,0-1-0.5-1-1v-2.8c0-0.5,0.5-1,1-1h117.9c0.5,0,1,0.5,1,1v2.8
					C558.8,686.3,558.4,686.7,557.8,686.7z"/>
				<path fill="#DBDBDB" d="M557.9,695.6H376.1c-0.5,0-1-0.5-1-1v-2.8c0-0.5,0.5-1,1-1h181.9c0.6,0,1,0.5,1,1v2.8
					C558.9,695.2,558.5,695.6,557.9,695.6z"/>
				<path fill="#DBDBDB" d="M557.9,704.6H376.1c-0.5,0-1-0.5-1-1v-2.8c0-0.5,0.5-1,1-1h181.9c0.6,0,1,0.5,1,1v2.8
					C558.9,704.1,558.5,704.6,557.9,704.6z"/>
				<path fill="#DBDBDB" d="M725.7,653.7h-74c-1,0-1.9-0.8-1.9-1.9v-66.1c0-1,0.8-1.9,1.9-1.9h74c1,0,1.9,0.8,1.9,1.9v66.1
					C727.6,652.8,726.8,653.7,725.7,653.7z"/>
				<path fill="#DBDBDB" d="M725.7,724.2h-74c-1,0-1.9-0.8-1.9-1.9v-53.2c0-1,0.8-1.9,1.9-1.9h74c1,0,1.9,0.8,1.9,1.9v53.2
					C727.6,723.4,726.8,724.2,725.7,724.2z"/>
				<path fill="#DBDBDB" d="M349.4,653.7h-74c-1,0-1.9-0.8-1.9-1.9v-66.1c0-1,0.8-1.9,1.9-1.9h74c1,0,1.9,0.8,1.9,1.9v66.1
					C351.3,652.8,350.5,653.7,349.4,653.7z"/>
				<path fill="#DBDBDB" d="M349.4,724.2h-74c-1,0-1.9-0.8-1.9-1.9v-53.2c0-1,0.8-1.9,1.9-1.9h74c1,0,1.9,0.8,1.9,1.9v53.2
					C351.3,723.4,350.5,724.2,349.4,724.2z"/>
			</g>
		</g>
	</g>
	<g>
		<g>
			<g>
				<g>
					<g>
						
							<path fill="none" stroke="#80A5F9" stroke-width="1.0183" stroke-linecap="round" stroke-linejoin="round" stroke-miterlimit="10" stroke-dasharray="2.0366,7.128" d="
							M401.4,508.9c-30.8,21.3-46.8,34.5-49.6,2.1c-7-80-75.8-122.1-126-122.1"/>
						<g>
							<path fill="#5B84F8" d="M200.1,374.9c-0.2-0.1,12.7,0.2,12.7,0.2l6.9,17.4l-11.7-9.2l-13.6,4.9l-27.1-6.2L200.1,374.9z"/>
							<polygon fill="#4174E5" points="167.4,382 219.8,392.5 208.1,383.3 							"/>
							<polygon fill="#80A5F9" points="167.4,382 218.5,364.9 212.9,375.1 167.4,382 208.1,383.3 198.8,401 							"/>
						</g>
					</g>
					<g>
						<g>
							<path fill="#06D2FF" d="M658.9,297h-41.8c-5.6,0-10.1-4.5-10.1-10.1l0,0c0-5.6,4.5-10.1,10.1-10.1h41.8
								c5.6,0,10.1,4.5,10.1,10.1l0,0C669,292.5,664.5,297,658.9,297z"/>
						</g>
						<g>
							<path fill="#FFFFFF" d="M629.5,286.9c0,1.4-1.2,2.6-2.6,2.6s-2.6-1.1-2.6-2.6c0-1.4,1.1-2.6,2.6-2.6
								C628.3,284.3,629.5,285.5,629.5,286.9z"/>
							<path fill="#FFFFFF" d="M640.6,286.9c0,1.4-1.2,2.6-2.6,2.6c-1.4,0-2.6-1.2-2.6-2.6c0-1.4,1.2-2.6,2.6-2.6
								C639.4,284.3,640.6,285.5,640.6,286.9z"/>
							<path fill="#FFFFFF" d="M651.7,286.9c0,1.4-1.2,2.6-2.6,2.6c-1.4,0-2.6-1.2-2.6-2.6c0-1.4,1.2-2.6,2.6-2.6
								C650.5,284.3,651.7,285.4,651.7,286.9z"/>
						</g>
					</g>
					<g>
						
							<ellipse transform="matrix(0.1591 -0.9873 0.9873 0.1591 -293.9783 628.8831)" fill="#06D2FF" cx="222.2" cy="487" rx="47.5" ry="47.5"/>
						<g>
							<g>
								<polygon fill="#FFFFFF" points="202.8,498.5 213.6,487.6 202.8,479.6 								"/>
								<polygon fill="#FFFFFF" points="227.9,489.6 222.1,493.9 216.2,489.5 206,500 238.2,500 								"/>
								<polygon fill="#FFFFFF" points="230.6,487.6 241.4,498.5 241.4,479.6 								"/>
								<polygon fill="#FFFFFF" points="222.2,490.3 241.5,475.9 241.5,471.2 202.8,471.2 202.8,475.9 								"/>
							</g>
						</g>
					</g>
					<g>
						<g>
							<g>
								<g>
									<g>
										<g>
											<g>
												<path fill="#FFD943" d="M763.1,419.4H675c-3.5,0-6.3-2.8-6.3-6.3v-82.8c0-2.6,2.1-4.8,4.8-4.8h89.7
													c2.6,0,4.8,2.1,4.8,4.8v84.3C767.9,417.2,765.8,419.4,763.1,419.4z"/>
											</g>
										</g>
									</g>
								</g>
							</g>
						</g>
						<g>
							<g>
								
									<polyline fill="none" stroke="#FFFFFF" stroke-width="1.4507" stroke-linecap="round" stroke-linejoin="round" stroke-miterlimit="10" points="
									733,344.5 741.8,345.8 716.7,362.1 712,355.7 693.3,366.6 								"/>
								
									<line fill="none" stroke="#FFFFFF" stroke-width="1.4507" stroke-linecap="round" stroke-linejoin="round" stroke-miterlimit="10" x1="738.7" y1="354.3" x2="741.8" y2="345.8"/>
							</g>
							<rect x="695.3" y="379.1" fill="#FFFFFF" width="8.8" height="17.5"/>
							<rect x="707.6" y="374" fill="#FFFFFF" width="8.8" height="22.6"/>
							<rect x="720.2" y="368.6" fill="#FFFFFF" width="8.8" height="28.1"/>
							<rect x="733" y="363.9" fill="#FFFFFF" width="8.8" height="32.7"/>
						</g>
					</g>
					<g>
						<g>
							
								<ellipse transform="matrix(0.7071 -0.7071 0.7071 0.7071 -130.5825 716.327)" fill="#5B84F8" cx="799.4" cy="515.8" rx="43.5" ry="43.5"/>
						</g>
						<path fill="#FFFFFF" d="M816.4,512.4l-2.8-0.5c-0.3-1.2-0.8-2.4-1.5-3.5l1.6-2.3c0.6-0.9,0.5-2-0.2-2.8l-1.7-1.7
							c-0.8-0.7-1.9-0.8-2.8-0.2l-2.3,1.6c-1.1-0.6-2.3-1.1-3.5-1.5l-0.5-2.9c-0.2-1-1.1-1.8-2.1-1.8h-2.4c-1.1,0-2,0.8-2.1,1.8
							l-0.5,2.8c-1.2,0.3-2.4,0.8-3.5,1.5l-2.3-1.6c-0.9-0.6-2-0.5-2.8,0.2l-1.7,1.7c-0.7,0.7-0.8,1.9-0.2,2.8l1.6,2.3
							c-0.6,1.1-1.1,2.3-1.5,3.5l-2.8,0.5c-1,0.2-1.8,1.1-1.8,2.1v2.4c0,1.1,0.8,2,1.8,2.1l2.8,0.5c0.3,1.2,0.8,2.4,1.5,3.5
							l-1.6,2.3c-0.6,0.9-0.5,2,0.2,2.8l1.7,1.7c0.7,0.7,1.9,0.8,2.8,0.2l2.3-1.6c1.1,0.6,2.3,1.1,3.5,1.5l0.5,2.8
							c0.2,1,1.1,1.8,2.1,1.8h2.4c1.1,0,2-0.8,2.1-1.8l0.5-2.8c1.2-0.3,2.4-0.8,3.5-1.5l2.3,1.6c0.9,0.6,2,0.5,2.8-0.2l1.7-1.7
							c0.7-0.7,0.8-1.9,0.2-2.8l-1.6-2.4c0.6-1.1,1.1-2.3,1.5-3.5l2.8-0.5c1-0.2,1.8-1.1,1.8-2.1v-2.4
							C818.2,513.5,817.4,512.6,816.4,512.4z M799.4,522.2c-3.6,0-6.4-2.9-6.4-6.4c0-3.6,2.9-6.4,6.4-6.4c3.6,0,6.4,2.9,6.4,6.4
							c0,0,0,0,0,0C805.8,519.4,802.9,522.2,799.4,522.2z"/>
					</g>
					<g>
						<g>
							<g>
								<g>
									<g>
										<g>
											<g>
												<path fill="#5B84F8" d="M389.3,359.5H283.1c-3.5,0-6.3-2.8-6.3-6.3v-80.5c0-2.6,2.1-4.8,4.8-4.8h107.7
													c2.6,0,4.8,2.1,4.8,4.8v82C394,357.3,391.9,359.5,389.3,359.5z"/>
											</g>
										</g>
									</g>
								</g>
							</g>
						</g>
						<g>
							<path fill="#FFFFFF" d="M364.6,291.3l-5.2-1c-0.2,0-0.3-0.2-0.3-0.3l-1-5.2c-0.1-0.6-0.6-0.7-1-0.3l-7.5,7.5
								c-0.2,0.2-0.3,0.6-0.3,0.9l0.7,3.7l-17.8,17.5c-0.8,0.8-0.8,2,0,2.8c0.8,0.8,2,0.8,2.8,0l17.8-17.5l3.7,0.7
								c0.3,0.1,0.7-0.1,0.9-0.3l7.5-7.5C365.4,291.9,365.2,291.4,364.6,291.3z"/>
							<path fill="#FFFFFF" d="M339.6,304.1l3.3-3.3c0.1-0.1,0.1-0.3,0-0.4c-2.8-1.6-5.9-2.5-9-2.5c-4.6,0-9.1,1.7-12.6,5.2
								c-7,7-7,18.3,0,25.2c3.5,3.5,8.1,5.2,12.6,5.2c4.6,0,9.1-1.7,12.6-5.2c5.9-5.9,6.8-14.8,2.8-21.7c-0.1-0.1-0.3-0.2-0.4,0
								l-3.3,3.3c-0.1,0.1-0.2,0.3-0.1,0.5c0.8,1.6,1.2,3.4,1.2,5.3c0,3.4-1.3,6.6-3.7,9.1c-2.4,2.4-5.6,3.7-9.1,3.7
								c-3.4,0-6.6-1.3-9.1-3.7c-5-5-5-13.1,0-18.1c2.4-2.4,5.6-3.8,9.1-3.8c1.9,0,3.7,0.4,5.3,1.2
								C339.2,304.2,339.5,304.2,339.6,304.1z"/>
							<path fill="#FFFFFF" d="M358.2,303l-3.3,3.3c-0.1,0.1-0.2,0.3-0.1,0.5c1.2,2.8,1.8,5.9,1.8,9c0,6.1-2.4,11.9-6.7,16.2
								c-4.3,4.3-10.1,6.7-16.2,6.7c-6.1,0-11.9-2.4-16.2-6.7c-8.9-8.9-8.9-23.4,0-32.4c4.3-4.3,10.1-6.7,16.2-6.7
								c3.1,0,6.2,0.6,9,1.8c0.2,0.1,0.4,0,0.5-0.1l3.3-3.3c0.1-0.1,0.1-0.3-0.1-0.4c-4-2.1-8.4-3.1-12.8-3.1
								c-7.1,0-14.3,2.7-19.8,8.2c-10.9,10.9-10.9,28.6,0,39.5c5.5,5.5,12.6,8.2,19.8,8.2c7.1,0,14.3-2.7,19.8-8.2
								c8.8-8.8,10.5-22,5.1-32.5C358.5,302.9,358.4,302.9,358.2,303z"/>
						</g>
					</g>
				</g>
				<g>
					<path fill="#4084FB" d="M247.6,662.8h-11.9c-1,0-1.8-0.8-1.8-1.8v-11.4c0-1,0.8-1.8,1.8-1.8h11.9c1,0,1.8,0.8,1.8,1.8V661
						C249.4,662,248.6,662.8,247.6,662.8z"/>
					<path fill="#FFD943" d="M822.8,650.1h-86.7c-2.1,0-3.8-1.7-3.8-3.8l0,0c0-2.1,1.7-3.8,3.8-3.8h86.7c2.1,0,3.8,1.7,3.8,3.8l0,0
						C826.6,648.4,824.9,650.1,822.8,650.1z"/>
					<path opacity="0.38" fill="#DEE2E7" d="M627.5,364.9h-43.6c-1.5,0-2.8-1.2-2.8-2.8V356c0-1.5,1.2-2.8,2.8-2.8h43.6
						c1.5,0,2.8,1.2,2.8,2.8v6.2C630.3,363.7,629,364.9,627.5,364.9z"/>
					<path opacity="0.38" fill="#DEE2E7" d="M407.2,421.8h-54.2c-3.2,0-5.8-2.6-5.8-5.8l0,0c0-3.2,2.6-5.8,5.8-5.8h54.2
						c3.2,0,5.8,2.6,5.8,5.8l0,0C413,419.1,410.4,421.8,407.2,421.8z"/>
					<path fill="#FFD943" d="M230.6,602.3h-65.3c-0.9,0-1.7,0.8-1.7,1.7v4.2c0,0.9,0.8,1.7,1.7,1.7h65.3c0.9,0,1.7-0.8,1.7-1.7V604
						C232.3,603.1,231.6,602.3,230.6,602.3z"/>
					<path fill="#5B84F8" d="M783.5,608.8h-35.2c-0.9,0-1.7,0.8-1.7,1.7v4.2c0,0.9,0.8,1.7,1.7,1.7h35.2c0.9,0,1.7-0.8,1.7-1.7v-4.2
						C785.2,609.6,784.4,608.8,783.5,608.8z"/>
					<path fill="#5B84F8" d="M561.6,235c0,3.4-2.8,6.2-6.2,6.2c-3.4,0-6.2-2.8-6.2-6.2c0-3.4,2.8-6.2,6.2-6.2
						C558.8,228.8,561.6,231.6,561.6,235z"/>
				</g>
			</g>
		</g>
		<g>
			<g>
				<g>
					<polygon fill="#06D2FF" points="464.1,522.6 465.6,542.3 520.7,542.3 523.6,523.4 					"/>
					<g>
						<defs>
							<path id="XMLID_11_" d="M436.8,351.1l-26.2,38.6c-9.4,13.9-14.5,30.3-14.6,47.1l-0.2,63.7l55.6-58.9L436.8,351.1z"/>
						</defs>
						<use xlink:href="#XMLID_11_"  overflow="visible" fill="#0042B6"/>
						<clipPath id="XMLID_2_">
							<use xlink:href="#XMLID_11_"  overflow="visible"/>
						</clipPath>
						<path opacity="0.63" clip-path="url(#XMLID_2_)" fill="#E2E2E2" d="M436.4,338c0,0-27.1,85.9-12.9,148.3l28.9-34.6L444,345.1
							L436.4,338z"/>
					</g>
					<g>
						<defs>
							<path id="XMLID_10_" d="M550.4,351.5l26,38.8c9.3,14,14.3,30.4,14.3,47.2l-0.2,63.7l-55.2-59.3L550.4,351.5z"/>
						</defs>
						<use xlink:href="#XMLID_10_"  overflow="visible" fill="#0042B6"/>
						<clipPath id="XMLID_3_">
							<use xlink:href="#XMLID_10_"  overflow="visible"/>
						</clipPath>
						<path opacity="0.63" clip-path="url(#XMLID_3_)" fill="#E2E2E2" d="M544.6,322.1c0,0,30.5,95.4,20.1,164.9l-37.4-49.2
							l15.9-91.7L544.6,322.1z"/>
					</g>
					<g>
						<defs>
							<path id="XMLID_8_" d="M490.9,161.3c0,0-32.7,58.8-50.4,164.9s-2.2,167.8-2.2,167.8H550C550,494.1,577.5,304,490.9,161.3z"/>
						</defs>
						<use xlink:href="#XMLID_8_"  overflow="visible" fill="#06D2FF"/>
						<clipPath id="XMLID_4_">
							<use xlink:href="#XMLID_8_"  overflow="visible"/>
						</clipPath>
						<polygon clip-path="url(#XMLID_4_)" fill="#00BDE6" points="490.4,150.8 489.3,508.7 602.2,511.7 561,163.4 						"/>
						<g clip-path="url(#XMLID_4_)">
							<defs>
								<polygon id="XMLID_12_" points="537.7,205.5 453.1,203.8 489.2,152 								"/>
							</defs>
							<use xlink:href="#XMLID_12_"  overflow="visible" fill="#0042B6"/>
							<clipPath id="XMLID_5_">
								<use xlink:href="#XMLID_12_"  overflow="visible"/>
							</clipPath>
							<polygon clip-path="url(#XMLID_5_)" fill="#00378C" points="491.5,139 490.2,217.3 528.1,209.6 							"/>
						</g>
					</g>
					<g>
						<path fill="#FFFFFF" d="M528.4,329c-0.1,19.7-16.1,35.6-35.8,35.5c-19.7-0.1-35.6-16.1-35.5-35.8
							c0.1-19.7,16.1-35.6,35.8-35.5C512.6,293.2,528.5,309.3,528.4,329z"/>
						<path fill="#0042B6" d="M515.4,328.9c0,12.8-10.5,23.2-23.3,23.2c-12.8,0-23.2-10.5-23.2-23.3c0-12.8,10.5-23.2,23.3-23.2
							C505.1,305.6,515.5,316.1,515.4,328.9z"/>
						
							<linearGradient id="SVGID_3_" gradientUnits="userSpaceOnUse" x1="708.3732" y1="391.0352" x2="754.9012" y2="391.0352" gradientTransform="matrix(-0.6123 -0.7906 0.7906 -0.6123 630.9798 1146.6989)">
							<stop  offset="0.142" style="stop-color:#001274"/>
							<stop  offset="0.3221" style="stop-color:#001777;stop-opacity:0.6855"/>
							<stop  offset="0.5457" style="stop-color:#002781;stop-opacity:0.295"/>
							<stop  offset="0.7146" style="stop-color:#00378C;stop-opacity:0"/>
						</linearGradient>
						<path opacity="0.46" fill="url(#SVGID_3_)" d="M468.9,328.8c0-12.8,10.5-23.2,23.3-23.2c12.8,0,23.2,10.5,23.2,23.3
							c0,12.8-10.5,23.2-23.3,23.2C479.2,352.1,468.8,341.6,468.9,328.8z"/>
					</g>
					<g>
						<defs>
							<polygon id="XMLID_9_" points="460.8,494 527.3,493.9 532.4,527.9 455.6,527.6 							"/>
						</defs>
						<use xlink:href="#XMLID_9_"  overflow="visible" fill="#0042B6"/>
						<clipPath id="XMLID_6_">
							<use xlink:href="#XMLID_9_"  overflow="visible"/>
						</clipPath>
						<polygon clip-path="url(#XMLID_6_)" fill="#00378C" points="489.3,490.7 490.7,537.1 547.9,533.2 539.1,494.3 						"/>
					</g>
				</g>
				<g>
					<g>
						<g>
							<g>
								<polygon fill="#FFD943" points="465.4,542.3 419.9,728.9 566.3,728.7 520.5,542.3 								"/>
								<polygon fill="#FFE083" points="477.5,542.3 455.5,729 530.9,728.7 508,542.3 								"/>
							</g>
							<g>
								<path fill="#FF9600" d="M478.2,542.3c0,0-26.7,50.7,15.2,93.4c0,0,39.3-30.6,15.1-93.4H478.2z"/>
								<path fill="#FFD943" d="M482.5,542.3c0,0-17.1,36.9,11.5,62.4c0,0,24.7-19.8,10.3-62.4H482.5z"/>
								<path fill="#FF9600" d="M486.2,542.3c0,0-10.4,22.6,7,38.1c0,0,15.1-12.1,6.3-38.1H486.2z"/>
							</g>
						</g>
					</g>
					<g>
						<path fill="#FFD943" d="M400.5,684.5c0,6.8-5.5,12.3-12.3,12.3c-6.8,0-12.3-5.5-12.3-12.3c0-6.8,5.5-12.3,12.3-12.3
							C395,672.2,400.5,677.7,400.5,684.5z"/>
						<path fill="#FFD943" d="M593.1,669.8c0,4.9-4,8.9-8.9,8.9c-4.9,0-8.9-4-8.9-8.9c0-4.9,4-8.9,8.9-8.9
							C589.1,660.9,593.1,664.9,593.1,669.8z"/>
						<path fill="#FFD943" d="M409.7,704.4c0,2.7-2.2,4.8-4.8,4.8c-2.7,0-4.8-2.2-4.8-4.8c0-2.7,2.2-4.8,4.8-4.8
							C407.6,699.6,409.7,701.8,409.7,704.4z"/>
						<path fill="#FFD943" d="M584.2,701.9c0,2.7-2.2,4.8-4.8,4.8c-2.7,0-4.8-2.2-4.8-4.8c0-2.7,2.2-4.8,4.8-4.8
							C582.1,697.1,584.2,699.2,584.2,701.9z"/>
						<path fill="#FFD943" d="M621,699.8c0,2.6-2.1,4.8-4.8,4.8c-2.6,0-4.8-2.1-4.8-4.8c0-2.6,2.1-4.8,4.8-4.8
							C618.9,695,621,697.2,621,699.8z"/>
						<path fill="#FFD943" d="M371.7,713.3c0,2.7-2.2,4.8-4.8,4.8c-2.7,0-4.8-2.2-4.8-4.8s2.2-4.8,4.8-4.8
							C369.6,708.5,371.7,710.6,371.7,713.3z"/>
					</g>
				</g>
			</g>
		</g>
	</g>
	<path fill="#E26666" d="M603.5,196h-72c-4.2,0-7.5-3.4-7.5-7.5v-60c0-4.2,3.4-7.5,7.5-7.5h72c4.2,0,7.5,3.4,7.5,7.5v60
		C611,192.6,607.6,196,603.5,196z"/>
	<text transform="matrix(1 0 0 1 534.1592 180.3486)" fill="#FFFFFF" font-family="'Roboto-Bold'" font-size="60px">#1</text>
	<g>
		<defs>
			<rect id="SVGID_4_" x="454" y="290" width="78" height="78"/>
		</defs>
		<clipPath id="SVGID_5_">
			<use xlink:href="#SVGID_4_"  overflow="visible"/>
		</clipPath>
		<g clip-path="url(#SVGID_5_)">
			<circle vector-effect="non-scaling-stroke" fill="#FFBF00" cx="493" cy="329" r="39"/>
			<path fill="#FF9D00" d="M481.3,366.2c-15.7-4.9-27.1-19.5-27.3-36.7l27.3-37.7c3.7-1.2,7.6-1.8,11.7-1.8c4.1,0,8,0.6,11.7,1.8
				l26.8,43.4c-1.2,7.2-4.3,13.7-8.8,19L481.3,366.2z"/>
			<circle vector-effect="non-scaling-stroke" fill="#FFFFFF" cx="493" cy="329" r="34.1"/>
			<g>
				<g>
					<ellipse vector-effect="non-scaling-stroke" fill="#030301" cx="492.3" cy="352.8" rx="7" ry="5.1"/>
					<path fill="#030301" d="M501.5,356.3c0-0.1,0-1.4,0-2.9l0-2.8l0.6,0l0.6,0v2.9v2.9h-0.6C501.7,356.4,501.5,356.3,501.5,356.3z"
						/>
					<path fill="#030301" d="M504.4,353.5v-2.9h0.5h0.5v0.4v0.4l0.5-0.3c0.8-0.6,2.1-0.7,3.1-0.2c1,0.4,1.1,0.9,1.1,3.6l0,2h-0.6
						h-0.6l0-2.1c0-1.8-0.1-2.1-0.2-2.4c-0.5-0.7-2.1-0.7-2.7,0.1l-0.2,0.3l0,2l0,2l-0.6,0l-0.6,0V353.5z"/>
					<path fill="#030301" d="M501.4,349l0-0.6h0.6h0.6l0,0.6l0,0.6H502h-0.6L501.4,349z"/>
					<path fill="#030301" d="M483.2,346.9c-0.1,0-0.1-0.2-0.1-0.3c0-0.9,1.9-1.7,4.8-2.1c1.8-0.2,5.3-0.3,6.8-0.2
						c3,0.3,4.5,0.5,5.7,1.1c0.7,0.3,1.1,0.6,1.3,1l0.2,0.3l-0.2,0.1c-0.1,0.1-0.3,0.1-0.9,0.1c-0.7,0-0.7,0-0.9-0.2
						c-0.3-0.3-1-0.5-2.6-0.7c-3.3-0.4-8.7-0.3-11.1,0.2c-0.6,0.1-0.9,0.3-1.2,0.5c-0.2,0.2-0.3,0.2-0.9,0.2
						C483.7,347,483.3,346.9,483.2,346.9z"/>
					<path fill="#030301" d="M483.3,344.6c-0.5-0.2,0-1,0.9-1.4c1.6-0.8,4.6-1.3,8.2-1.3c1.7,0,3.6,0.1,4.6,0.3
						c1.1,0.2,1.4,0.2,2,0.4c1.8,0.5,2.6,1,2.8,1.7c0,0.2,0,0.2-0.2,0.3c-0.2,0.1-0.4,0.1-0.9,0.1c-0.6,0-0.7,0-0.9-0.2
						c-0.3-0.3-0.5-0.3-1.5-0.5c-2.1-0.4-5.3-0.5-8.4-0.4c-1.4,0.1-2.3,0.2-3.3,0.4c-0.9,0.2-1.3,0.3-1.5,0.5
						c-0.2,0.2-0.2,0.2-0.9,0.2C483.8,344.7,483.4,344.6,483.3,344.6z"/>
					<path fill="#030301" d="M483.2,342.1c-0.2-0.2,0-0.7,0.4-1c1.1-0.9,3.5-1.4,7.3-1.6c2.3-0.1,5.3,0.1,7.2,0.4
						c2.2,0.5,3.4,1,3.7,1.7c0.1,0.3,0.1,0.3,0,0.4c-0.1,0.1-0.2,0.1-0.9,0.1c-0.7,0-0.8,0-1-0.2c-0.4-0.3-0.8-0.5-2.1-0.6
						c-2.8-0.4-7.8-0.4-10.4,0c-1.4,0.2-2,0.4-2.3,0.7c-0.1,0.1-0.2,0.1-0.9,0.1C483.6,342.2,483.3,342.2,483.2,342.1z"/>
					<path fill="#030301" d="M483.2,339.6c-0.2-0.1-0.2-0.3,0-0.6c0.4-0.8,2.5-1.5,5.3-1.9c0.7-0.1,0.6,0.1,0.6-1.5
						c0-0.7,0-2.4-0.1-3.8c-0.2-8-0.6-10.1-2.3-11.8c-0.2-0.2-0.3-0.3-0.5-0.2c-0.4,0.1-0.5-0.1-0.7-0.6l-0.1-0.4l-0.3,0.4
						c-0.4,0.5-0.7,0.8-1,0.9c-0.5,0.1-0.7-0.2-0.8-1.1c0-0.3-0.1-0.5-0.1-0.5c0,0-0.1,0.2-0.2,0.4c-0.2,0.4-0.2,0.4-0.4,0.3
						c-0.1,0,0-0.1,0.1-0.4c0.1-0.2,0.2-0.5,0.3-0.7c0.1-0.3,0.1-0.4,0.4-0.5c0.2-0.1,0.3-0.1,0.3-0.1c0,0,0.1,0.5,0.2,1.1
						c0.1,0.6,0.2,1.1,0.2,1.1c0.2,0.1,0.5-0.2,0.9-0.8c0.3-0.5,0.3-0.5,0.2-0.8c-0.1-0.5-0.1-0.5,0.2-0.7c0.2-0.1,0.3-0.1,0.3-0.1
						c0,0,0.1,0.4,0.2,0.9c0.2,1.1,0.2,1.1,0.4,1.2c0.2,0.1,0.2,0.1,0.4-0.1c0.1-0.1,0.5-0.5,0.8-1c0.9-1.2,1.4-1.5,2.3-1.3
						c0.4,0.1,0.4,0.1,0.7-0.1c0.2-0.1,0.3-0.2,0.3-0.1c0,0,0.1,0.5,0.2,1.1c0.1,0.6,0.2,1.1,0.2,1.1c0,0,0.1,0,0.3-0.1
						c0.2-0.1,0.4-0.3,1-1.2c0.3-0.4,0.7-0.8,1.1-1c0.3-0.2,0.4-0.2,0.9-0.2c0.3,0,0.6,0,0.7-0.1c0.2-0.1,0.2-0.1,0.3,0.6
						c0.2,1.4,0.2,1.4,0.4,1.4c0.2,0,0.5-0.3,1-1c0.5-0.7,1-1.2,1.4-1.4c0.4-0.2,1-0.2,1.3,0l0.3,0.1v-0.2c0-0.6-0.5-1.3-1.1-1.6
						c-0.5-0.3-1-0.3-1.6-0.1c-0.1,0-0.1,0-0.1-0.1c0-0.4,0.5-0.7,1.1-0.6c0.8,0.1,1.4,0.6,1.8,1.4c0.2,0.5,0.2,0.5,0.2,1.2
						c0,0.4,0,0.8,0,0.9c0,0.2-0.3,0.7-0.7,1.1c-0.1,0.1-0.2,0.3-0.2,0.3c0.1,0.1,0.6-0.2,0.9-0.5c0.4-0.3,0.8-1,0.9-1.6
						c0.1-0.4,0.2-0.5,0.4-0.6l0.3-0.2l0,0.2c0,0.1,0.1,0.6,0.2,1.1c0.1,0.5,0.2,0.9,0.2,1c0.1,0.2,0.6-0.2,1-0.9
						c0.2-0.4,0.2-0.4,0.2-0.7c-0.1-0.5-0.1-0.6,0.2-0.7l0.3-0.1l0,0.3c0.1,1,0.3,1.8,0.4,1.8c0.1,0.1,0.4,0,0.7-0.4
						c0.2-0.3,0.4-0.4,0.5-0.2c0,0.1-0.6,0.8-0.9,1c-0.3,0.1-0.8,0.1-0.9,0c0-0.1-0.1-0.3-0.2-0.5l-0.1-0.4l-0.4,0.5
						c-0.4,0.6-0.7,0.8-1.1,0.8c-0.4,0-0.5-0.2-0.6-0.9c-0.1-0.3-0.1-0.6-0.1-0.6c0,0-0.1,0.2-0.3,0.5c-0.2,0.3-0.4,0.6-0.6,0.8
						c-0.3,0.3-1,0.6-1.2,0.6c-0.1,0-0.2,0.1-0.6,0.7c-1.5,2.4-2.1,4.4-2.4,7.9c-0.1,1.5,0,5.3,0.1,8c0.1,1.2,0.1,1.9,0,1.9
						c0,0.1,0.1,0.1,0.7,0.2c2.5,0.4,4,1,4.3,1.8c0.1,0.3,0.1,0.3,0,0.4c-0.1,0.1-0.2,0.1-0.9,0.1c-0.8,0-0.8,0-1-0.2
						c-0.6-0.6-3.3-0.9-7.3-0.9c-4,0-6.8,0.3-7.4,0.9c-0.2,0.2-0.2,0.2-1,0.2C483.7,339.7,483.3,339.7,483.2,339.6z M496.3,337
						c0-0.1-0.1-1-0.1-2.1c-0.2-2.8-0.2-7.6,0-9.1c0.3-2.6,1-4.6,2.1-6.4c0.2-0.4,0.5-0.7,0.5-0.8c0-0.1-0.1-0.1-0.4-0.1
						c-0.2,0-0.5,0-0.6-0.1c-0.2-0.1-0.5-0.4-0.5-0.6c0-0.1,0-0.2-0.1-0.2c0-0.1-0.1,0-0.4,0.4c-0.6,0.8-1.6,1.2-1.7,0.5
						c0-0.1,0-0.2-0.1-0.2c0,0-0.2,0.1-0.3,0.3c-0.8,0.7-1.9,0.5-2.1-0.4c0-0.1-0.1-0.3-0.1-0.3s-0.1,0.2-0.2,0.3
						c-0.2,0.3-0.7,0.8-0.9,0.9c-0.1,0.1-0.1,0.1,0,1c0.2,1.1,0.1,1.4-0.2,1.8c-0.5,0.6-1.8,0.8-2.6,0.4c-0.2-0.1-0.2-0.1-0.2,0
						c0,0.1,0.1,0.4,0.2,0.7c0.4,1.9,0.6,5.3,0.7,10.9l0,2.9l0.7-0.1c0.9-0.1,4.1,0,5,0C496.4,337.1,496.3,337.1,496.3,337z
						 M490.4,322.5c0.6-0.3,0.6-0.6,0.3-2.5c-0.1-0.6-0.2-1.1-0.2-1.1c0,0-0.1,0.1-0.3,0.2c-0.4,0.3-0.5,0.4-0.9,0.5
						c-0.6,0.1-1.3-0.3-1.4-0.8c0-0.1-0.1-0.2-0.1-0.2c0,0-0.1,0.1-0.2,0.3c-0.1,0.2-0.3,0.4-0.5,0.6l-0.3,0.3l0.2,0.3
						c0.4,0.5,0.8,1.1,1.1,1.7l0.3,0.6l0.2-0.2c0.3-0.3,0.3-0.3,0.3-0.1c0,0.2,0.3,0.5,0.5,0.6C489.8,322.7,490.1,322.7,490.4,322.5
						z M490,319c0.2-0.1,0.4-0.2,0.4-0.3c0.1-0.2,0.1-0.2,0-0.7c-0.1-0.5-0.1-0.6-0.3-0.7c-0.3-0.2-0.8-0.2-1.1,0
						c-0.7,0.4-0.7,1.4,0,1.8C489.3,319.2,489.6,319.2,490,319z M494.8,318.4c0.3-0.3,0.3-0.4,0.2-1c-0.1-0.7-0.2-0.7-0.7-0.7
						c-0.4,0-0.7,0.3-0.9,0.7c-0.1,0.4,0.1,1,0.5,1.1C494.1,318.6,494.6,318.6,494.8,318.4z M499.2,318.1c0.1,0,0.3-0.3,0.5-0.5
						c0.3-0.4,0.3-0.5,0.3-0.8c-0.1-0.8-1.1-0.9-1.7-0.3c-0.6,0.7-0.4,1.6,0.5,1.6C498.9,318.2,499.1,318.1,499.2,318.1z"/>
					<path fill="#030301" d="M478.2,323.8c-0.8-0.2-1.4-0.8-1.4-1.5c0-0.5,0.4-1,1-1.2c0.5-0.2,1.3,0,1.6,0.4c0.3,0.4,0.1,1-0.4,1.2
						c-0.2,0.1-0.5,0.2-0.5,0.1c0,0,0.1-0.1,0.2-0.3c0.3-0.2,0.3-0.4,0.2-0.7c-0.1-0.2-0.4-0.4-0.8-0.4c-0.6,0-1,0.4-1,1
						c0,0.4,0.2,0.7,0.6,1c0.3,0.2,0.4,0.2,1.1,0.2c0.8,0,1.1-0.1,1.6-0.6c0.8-0.8,0.8-1.8,0.1-3.7l-0.3-0.8l-0.7,0
						c-0.5,0-0.8-0.1-1.1-0.2c-0.8-0.3-1.2-1.1-1.1-2c0.1-1.4,1.8-2.9,3.7-3.3c0.5-0.1,0.6,0,0.2,0.3c-1.1,0.8-1.2,2.2-0.5,4.2
						c0.1,0.3,0.2,0.5,0.3,0.5c0.2,0,0.6-0.3,0.7-0.6c0.3-0.5,0.2-1.2-0.3-1.5c-0.1-0.1-0.3-0.1-0.5-0.2c-0.3,0-0.3-0.1-0.2-0.1
						c0.3-0.2,0.7-0.2,1.1,0c0.4,0.2,0.6,0.5,0.6,1c0,0.6-0.4,1.2-1.1,1.5c-0.2,0.1-0.3,0.2-0.3,0.2c0,0,0.1,0.2,0.2,0.5
						c0.6,1.4,0.7,2.7,0.2,3.6c-0.3,0.6-1,1.1-1.6,1.4C479.3,323.8,478.6,323.9,478.2,323.8z M480,318.1c-0.1-0.4-0.4-1.4-0.4-1.9
						c-0.1-0.9,0.2-1.9,0.8-2.6c0.2-0.2,0.3-0.3,0.2-0.3c0,0-0.2,0-0.4,0.1c-0.9,0.3-1.8,1.2-2,1.9c-0.1,0.3-0.2,0.5-0.2,0.9
						c0,1,0.4,1.6,1.3,1.8c0.2,0,0.4,0.1,0.6,0.1C480.1,318.2,480.1,318.2,480,318.1z"/>
				</g>
				<g>
					<path fill="#FFFF01" d="M484.1,338.3c0,0-0.1-0.8-0.1-1.2c0-0.2-0.1-0.4-0.1-0.6c0-0.2-0.1-0.3-0.1-0.5
						c-0.2-0.5-0.3-0.8-0.6-1.2c-0.1-0.1-0.2-0.3-0.3-0.4c-0.4-0.6-1-0.9-1.5-1.4c-0.2-0.1-0.4-0.3-0.5-0.4s-0.3-0.3-0.5-0.4
						c-0.2-0.1-0.4-0.2-0.5-0.3c-0.1-0.1-0.2-0.2-0.4-0.2c-0.4-0.2-2.9-2.2-4.1-3.8c-0.1-0.1-0.2-0.2-0.3-0.3
						c-0.1-0.1-0.2-0.2-0.3-0.4c-0.1-0.1-0.2-0.3-0.3-0.4c-0.1-0.2-0.2-0.4-0.4-0.6c-0.2-0.2-0.3-0.4-0.5-0.7
						c-0.1-0.1-0.1-0.2-0.2-0.4c-0.3-0.5-0.5-1-0.7-1.5c0-0.1-0.1-0.2-0.1-0.3c-0.1-0.1-0.1-0.3-0.1-0.4c-0.1-0.4-0.2-0.7-0.3-1
						c-0.1-0.3-0.1-0.5-0.2-0.8c0-0.3-0.1-0.5-0.1-0.8c-0.1-0.9-0.1-1.6-0.1-2.5c0-0.9,0-1.6,0.1-2.4c0-0.2,0.1-0.4,0.1-0.6
						c0-0.2,0.1-0.4,0.1-0.7c0-0.2,0.1-0.3,0.1-0.5c0-0.2,0.1-0.3,0.1-0.5c0-0.1,0.1-0.3,0.1-0.4c0.1-0.2,0.2-0.4,0.2-0.6
						c0.1-0.2,0.2-0.4,0.3-0.6c0.2-0.4,0.4-0.7,0.6-1.1c0.1-0.2,0.2-0.4,0.4-0.6c0.1-0.2,0.2-0.4,0.4-0.6c0.1-0.2,0.2-0.3,0.3-0.4
						c0.1-0.2,0.3-0.3,0.4-0.5c0.1-0.2,0.3-0.3,0.4-0.5c1-1.2,2-2.1,3.3-3c0.2-0.2,0.4-0.3,0.6-0.4c0.3-0.2,0.5-0.3,0.8-0.5
						c0.3-0.2,0.5-0.3,0.8-0.5c0.3-0.2,0.8-0.5,0.9-0.6c0.1-0.1,0.7-0.4,1.2-0.6c0.4-0.2,0.7-0.3,1-0.4c0.2-0.1,0.4-0.2,0.7-0.3
						c0.3-0.1,0.5-0.2,0.7-0.3c0.4-0.1,0.7-0.2,1-0.3c0.4-0.1,0.7-0.2,1.1-0.3c0.3-0.1,0.9-0.2,1-0.2c0.2-0.1,2.6-0.4,4-0.4
						c0.7,0,1.3,0.1,2,0.1c0.7,0.1,1.3,0.1,1.9,0.2c0.8,0.1,1.5,0.3,2.2,0.5c0.4,0.1,0.7,0.2,1.1,0.4c1.1,0.4,2.1,0.7,3.1,1.3
						c0.4,0.2,0.7,0.4,1.1,0.7c0.3,0.2,0.5,0.3,0.7,0.5c0.6,0.4,1.1,0.7,1.6,1.1c1.2,0.9,2.3,1.8,3.3,3c0.1,0.2,0.3,0.3,0.4,0.5
						c0.2,0.3,0.5,0.6,0.7,0.9c0.2,0.3,0.4,0.5,0.6,0.8c0.1,0.2,0.3,0.4,0.4,0.6c0.2,0.3,0.3,0.5,0.4,0.8c0.1,0.2,0.1,0.3,0.2,0.5
						c0.2,0.4,0.3,0.8,0.4,1.2c0.3,0.8,0.4,1.5,0.6,2.3c0.1,0.9,0.1,1.7,0.1,2.6c0,0.9,0,1.7-0.1,2.6c0,0.2-0.1,0.4-0.1,0.7
						c0,0.2-0.1,0.3-0.1,0.5c0,0.2-0.1,0.4-0.2,0.5c0,0.2-0.1,0.3-0.1,0.5c0,0.1-0.1,0.2-0.1,0.3c-0.1,0.3-0.2,0.5-0.3,0.8
						c-0.1,0.2-0.2,0.4-0.3,0.6c-0.2,0.5-0.5,0.9-0.8,1.4c-0.1,0.1-0.2,0.2-0.3,0.4c-0.1,0.1-0.1,0.2-0.3,0.4c0,0.1-0.2,0.2-0.2,0.3
						c-0.1,0.1-0.2,0.2-0.2,0.4c-0.1,0.1-0.2,0.3-0.3,0.4c-1.2,1.6-2.5,2.7-4.1,3.8c-0.2,0.1-0.4,0.3-0.6,0.4
						c-0.2,0.1-0.3,0.2-0.5,0.4c-0.2,0.1-0.4,0.3-0.6,0.4c-0.2,0.1-0.4,0.2-0.6,0.4c-0.4,0.3-0.8,0.6-1.2,1.1
						c-0.1,0.1-0.2,0.2-0.2,0.4c-0.3,0.5-0.5,0.9-0.6,1.4c-0.1,0.2-0.1,0.4-0.1,0.6c0,0.1-0.1,0.3-0.1,0.4c-0.2,0.5-0.1,1.5-0.2,1.6
						c-0.2-0.2-1-0.7-1.6-0.9c-0.5-0.2-1-0.3-1.2-0.3c-0.1,0-1.4-0.2-1.6-0.3c-0.1,0-0.5-0.1-0.4-0.2c0.1-0.2,0-1-0.1-2.5
						c-0.1-2.1-0.1-2.8-0.1-4.7c0-3,0.1-4.3,0.5-6c0.4-1.4,0.9-2.9,1.5-3.9c0.1-0.1,0.2-0.3,0.2-0.3c0-0.1,0.2-0.4,0.4-0.6
						c0.2-0.3,0.3-0.4,0.4-0.3c0.4,0,0.7-0.2,1.1-0.4c0.4-0.3,0.6-0.6,0.8-1c0.1-0.1,0.1-0.3,0.2-0.4l0,0.2c0,0.2,0.1,0.5,0.1,0.6
						c0.1,0.4,0.1,0.5,0.3,0.7c0,0,0,0,0,0c0.4,0.2,0.9,0,1.4-0.7c0.3-0.4,0.4-0.7,0.4-0.4c0.1,0.2,0.1,0.9,0.4,0.9
						c0.6,0.1,0.9-0.1,1.6-0.9c0.1-0.2,0.1-0.2,0-0.2c-0.1,0-0.2,0-0.5,0.4c-0.3,0.4-0.5,0.4-0.7,0.3c0,0-0.1-0.5-0.2-1
						c-0.2-1.3-0.1-1.2-0.4-1.1c-0.4,0.2-0.4,0.3-0.3,0.6c0.1,0.3,0.1,0.4,0,0.6c-0.2,0.4-0.6,1-0.9,1.2c-0.1,0-0.2,0.1-0.3-0.4
						c0,0,0-0.2-0.1-0.4c0-0.2-0.1-0.5-0.1-0.6c0-0.2,0-0.3-0.1-0.4c0-0.1-0.1-0.4-0.1-0.4c0-0.1,0-0.1-0.2,0
						c-0.1,0.1-0.2,0.1-0.3,0.2c-0.1,0.1-0.1,0.1-0.2,0.3c-0.3,0.8-0.5,1.2-1,1.8c-0.2,0.2-0.7,0.6-1,0.6c0,0,0,0,0.2-0.4
						c0.5-0.6,0.6-0.9,0.6-0.9c0.1-0.2,0.1-1.3,0.1-1.7c-0.2-0.7-0.6-1.4-1.4-1.8c-0.4-0.2-0.5-0.2-0.9-0.2c-0.5,0-0.6,0.2-0.7,0.3
						c-0.2,0.2-0.1,0.4-0.1,0.5c0,0,0.1,0,0.2,0c0.2-0.1,0.7-0.2,1.3,0c0.6,0.3,1.1,0.8,1.2,1.4c0,0.3,0.1,0.7,0,0.5
						c-0.4-0.3-0.8-0.2-1.1-0.2c-0.7,0.1-1.2,0.7-1.8,1.5c-0.4,0.6-0.8,1-1,1c-0.2,0-0.2-0.1-0.3-1.1c-0.1-0.6-0.1-1.1-0.2-1.1
						c0,0-0.1,0-0.2,0.1c-0.2,0.1-0.5,0.1-0.7,0.1c-0.4,0-0.5,0-0.8,0.1c-0.6,0.3-1.1,0.8-1.5,1.5c-0.3,0.4-0.4,0.6-0.7,0.8
						c-0.1,0.1-0.2,0.1-0.2,0.1c-0.1-0.4-0.1-0.7-0.2-0.9c-0.1-0.4-0.2-1-0.2-1c-0.1-0.2,0-0.2,0-0.2c-0.1,0-0.1,0-0.3,0.1
						c-0.2,0.2-0.2,0.2-0.6,0.1c-0.2,0-0.3-0.1-0.5-0.1c-0.7,0-1.2,0.4-2.2,1.6c-0.4,0.5-0.5,0.7-0.7,0.8c-0.1,0-0.2,0-0.2-0.1
						c-0.2-0.1-0.2-0.1-0.4-1.2c-0.1-0.4-0.1-0.8-0.2-0.9c0,0-0.1,0-0.3,0.1c-0.2,0.1-0.3,0.2-0.3,0.3c0,0.1,0,0.3,0.1,0.4
						c0,0.2,0,0.3-0.1,0.5c-0.1,0.1-0.1,0.2-0.2,0.3c-0.1,0.2-0.2,0.3-0.3,0.5c-0.3,0.4-0.5,0.4-0.6,0.4c-0.1,0-0.1-0.1-0.1-0.2
						c0-0.1-0.1-0.5-0.2-1.1c-0.1-0.8-0.2-1-0.2-1c-0.1,0-0.1,0-0.2,0.1c-0.1,0-0.1,0.1-0.2,0.1c-0.2,0.1-0.2,0.2-0.3,0.5
						c0,0.2-0.2,0.5-0.3,0.7c-0.1,0.2-0.1,0.2-0.1,0.3c0,0.1,0.1,0.1,0.1,0.1c0.1,0,0.2-0.4,0.4-0.7c0-0.1,0.1,0.3,0.2,0.7
						c0.1,0.5,0.2,0.7,0.4,0.8c0.1,0,0.2,0,0.3,0c0.3,0,0.7-0.3,1-0.8c0.2-0.2,0.3-0.5,0.3-0.5c0,0,0.1,0.2,0.1,0.4
						c0,0.1,0,0.2,0.1,0.2c0.1,0.3,0.2,0.4,0.5,0.4c0.1,0,0.2,0,0.2,0c0.2,0,0.2,0.1,0.4,0.3c0.9,1,1.5,2.3,1.8,5.2
						c0,0.2,0.1,0.5,0.1,0.7c0.1,1.4,0.3,4.3,0.3,8.5c0,1.3,0,2,0,2.3c0,0.2-0.1,0.2-0.2,0.2c0,0-1.1,0.1-2,0.3
						c-0.5,0.1-0.9,0.2-1,0.2C485.4,337.8,485.1,337.8,484.1,338.3z M479.6,323.7c0.4-0.1,0.6-0.2,1.3-0.8c0.4-0.4,0.7-0.9,0.7-1.6
						c0.1-0.7-0.1-1.6-0.4-2.5c-0.3-0.7-0.4-0.7-0.2-0.8c0.5-0.2,0.9-0.5,1.1-1c0.3-0.6,0.1-1.2-0.3-1.5c-0.3-0.2-0.6-0.3-1.1-0.2
						c-0.2,0.1-0.3,0.1-0.1,0.2c0.4,0.1,0.6,0.1,0.8,0.3c0.4,0.4,0.4,1.4-0.2,1.8c-0.1,0.1-0.3,0.2-0.3,0.2c-0.1,0-0.3-0.6-0.5-1.2
						c-0.2-0.8-0.3-1.2-0.2-1.7c0.1-0.8,0.2-1.2,0.9-1.7c0.2-0.2,0.3-0.3,0.3-0.3c-0.1-0.1-1,0.2-1.4,0.3c-0.9,0.3-1.4,0.8-1.8,1.1
						c-0.8,0.8-1,1.6-1,2c0,0.9,0.6,1.5,1,1.7c0.3,0.2,0.8,0.2,1.1,0.2c0.1,0,0.4,0.1,0.6,0.1c0.4-0.1,0.3-0.1,0.5,0.6
						c0.1,0.2,0.3,0.8,0.4,1.3c0.1,0.4,0.2,1,0.1,1.5c-0.2,1.2-0.9,1.9-2.7,1.7c-0.2,0-0.4-0.1-0.4-0.2c-0.1,0-0.1,0-0.2-0.1
						c-0.2-0.1-0.1-0.1-0.2-0.2c-0.1-0.2-0.2-0.3-0.2-0.6c0-0.4,0-0.4,0.2-0.7c0.3-0.3,0.9-0.4,1.2-0.2c0.1,0,0.4,0.2,0.4,0.6
						c0,0.2-0.2,0.5-0.4,0.6c-0.2,0.2,0.1,0.1,0.1,0.1c0.4-0.1,0.7-0.3,0.8-0.7c0.2-0.7-0.7-1.3-1.5-1c-1,0.3-1.4,1-1.1,1.8
						c0.2,0.5,0.7,0.8,0.8,0.8c0.4,0.2,0.5,0.2,0.9,0.2C479,323.9,479.5,323.8,479.6,323.7z"/>
					<path fill="#FFFF01" d="M479.1,318.1c-0.6-0.3-0.9-0.6-1.1-1.3c-0.1-0.3-0.1-1.1,0.1-1.4c0-0.1,0-0.1,0.1-0.2
						c0.4-0.9,1.1-1.4,1.7-1.7c0.4-0.2,0.7-0.3,0.7-0.2c0,0-0.1,0.2-0.2,0.3c-0.2,0.2-0.5,0.6-0.7,1.3c0,0.1-0.1,0.5-0.2,0.9
						c0,0.6,0.1,0.7,0.2,1.3c0.1,0.3,0.2,0.8,0.2,0.9c0.1,0.3,0.1,0.2-0.2,0.2C479.6,318.2,479.3,318.1,479.1,318.1z"/>
					<path fill="#FFFF01" d="M495.4,337.1c-1.2-0.1-3.2-0.1-5.4,0c-0.1,0-0.3,0-0.4,0l0-0.1l0-1.7c0-1.7,0-2-0.1-4.8
						c0-1.8-0.1-2.2-0.2-4.1c-0.1-1.3-0.5-3.4-0.6-3.7c-0.1-0.2-0.1-0.2,0.1-0.1c0.5,0.3,1.2,0.4,2,0.1c0.5-0.2,0.8-0.6,0.9-0.9
						c0.1-0.4,0-0.7,0-1.2c0-0.1-0.1-0.3-0.1-0.6c0-0.2-0.1-0.4-0.1-0.5c0-0.1,0.1-0.2,0.2-0.2c0.3-0.3,0.5-0.4,0.8-0.8
						c0.1-0.2,0.2-0.3,0.3-0.4c0,0,0.1,0.1,0.1,0.3c0.3,0.9,1.4,1.1,2.1,0.4c0.1-0.1,0.2-0.2,0.3-0.3c0,0,0,0.1,0.1,0.2
						c0.1,0.4,0.4,0.4,0.7,0.2c0.4-0.2,0.6-0.3,1-0.9c0.1-0.1,0.2-0.2,0.3-0.3c0.1,0,0.1,0.1,0.1,0.3c0,0.1,0.2,0.3,0.2,0.3
						c0.2,0.2,0.4,0.3,0.7,0.3c0.2,0,0.5,0,0.5,0c0,0,0.2-0.1-0.2,0.4c-0.2,0.2-0.3,0.5-0.4,0.6c0,0.1-0.2,0.4-0.3,0.5
						c-0.1,0.2-0.2,0.4-0.4,0.7c-0.1,0.3-0.3,0.8-0.4,0.9c-0.3,0.7-0.8,2.7-0.9,3.7c-0.1,0.3-0.1,0.7-0.1,1c0,0.3-0.1,1.8-0.1,3.5
						c0,2.6,0,3.5,0.2,5.7c0.1,1.3,0.1,1.5,0,1.5c-0.1,0-0.3,0-0.3,0C496,337.1,495.7,337.1,495.4,337.1z"/>
					<path fill="#FFFF01" d="M489.7,322.6c-0.4-0.1-0.7-0.4-0.7-0.7c0-0.2-0.1-0.1-0.3,0.1l-0.2,0.2l-0.1-0.3
						c-0.1-0.2-0.2-0.3-0.2-0.4c0-0.1-0.2-0.3-0.2-0.4c-0.1-0.1-0.3-0.5-0.5-0.8c-0.3-0.3-0.4-0.5-0.4-0.5c0.1-0.1,0.2-0.2,0.4-0.4
						c0.2-0.2,0.4-0.5,0.4-0.6c0.1-0.1,0.1-0.2,0.2-0.2c0,0,0.1,0.1,0.1,0.2c0,0.3,0.2,0.5,0.4,0.6c0.2,0.1,0.4,0.2,0.7,0.3
						c0.4,0,0.8-0.1,1.2-0.4l0.4-0.3l0.1,0.5c0,0.3,0.2,1.1,0.2,1.5l0.1,0.8l-0.2,0.5C490.7,322.4,490.3,322.7,489.7,322.6z"/>
					<path fill="#FFFF01" d="M488.9,319c-0.2-0.2-0.4-0.4-0.4-0.8c0-0.3,0.1-0.6,0.3-0.7c0.3-0.3,0.4-0.3,0.8-0.3
						c0.6,0,0.8,0.2,0.8,0.9c0,0.2,0.1,0.4,0,0.5c0,0.1-0.1,0.2-0.2,0.3c-0.3,0.2-0.3,0.2-0.7,0.3C489.1,319.2,489,319.1,488.9,319z
						"/>
					<path fill="#FFFF01" d="M493.9,318.6c-0.5-0.1-0.7-0.9-0.4-1.4c0.2-0.4,0.9-0.5,1.2-0.4c0.1,0.1,0.2,0.1,0.2,0.5
						c0.1,0.5,0.1,0.7,0,0.9C494.8,318.5,494.3,318.7,493.9,318.6z"/>
					<path fill="#FFFF01" d="M498.6,318.2c-0.4-0.1-0.6-0.3-0.7-0.7c-0.1-0.4,0-0.5,0.3-0.9c0.2-0.2,0.7-0.4,0.9-0.4
						c0.2,0,0.6,0.1,0.7,0.3c0,0.1,0.1,0.2,0.1,0.3c0,0.2,0.1,0.5-0.3,0.8C499.3,318.1,499.2,318.2,498.6,318.2z"/>
				</g>
			</g>
		</g>
	</g>
</g>
</svg>
