<?xml version="1.0" encoding="utf-8"?>
<!-- Generator: Adobe Illustrator 23.0.1, SVG Export Plug-In . SVG Version: 6.00 Build 0)  -->
<svg version="1.1" xmlns="http://www.w3.org/2000/svg" xmlns:xlink="http://www.w3.org/1999/xlink" x="0px" y="0px"
	 viewBox="0 0 1920 1080" style="enable-background:new 0 0 1920 1080;" xml:space="preserve">
<style type="text/css">
	.st0{fill:#1E2128;}
	.st1{clip-path:url(#SVGID_2_);fill:#FF9D00;}
	.st2{clip-path:url(#SVGID_2_);fill:none;stroke:#7F7F7F;stroke-width:4;stroke-miterlimit:10;}
	.st3{clip-path:url(#SVGID_2_);fill:none;stroke:#FF9D00;stroke-width:62;stroke-miterlimit:10;}
	.st4{clip-path:url(#SVGID_2_);fill:none;stroke:#FF9D00;stroke-width:6;stroke-miterlimit:10;}
	.st5{clip-path:url(#SVGID_2_);}
	.st6{fill:#7F7F7F;}
	.st7{display:none;clip-path:url(#SVGID_2_);}
	.st8{display:inline;}
	.st9{display:inline;clip-path:url(#SVGID_4_);}
	.st10{fill:#FFBF00;}
	.st11{fill:#FF9D00;}
	.st12{fill:#FFFFFF;}
	.st13{fill:#030301;}
	.st14{fill:#FFFF01;}
	.st15{display:inline;fill:none;stroke:#FFBF00;stroke-width:6;stroke-miterlimit:10;}
	.st16{display:inline;fill:#FFBF00;}
	.st17{font-family:'RadioGrotesk-Regular';}
	.st18{font-size:32px;}
	.st19{display:none;}
	.st20{display:inline;fill:#FFFFFF;}
	.st21{font-size:90px;}
	.st22{font-size:60px;}
</style>
<g id="Layer_2">
	<g>
		<rect class="st0" width="1920" height="1080"/>
	</g>
</g>
<g id="Layer_1">
</g>
<g id="Layer_4">
</g>
<g id="Layer_5">
	<g>
		<defs>
			<rect id="SVGID_1_" width="1920" height="1080"/>
		</defs>
		<clipPath id="SVGID_2_">
			<use xlink:href="#SVGID_1_"  style="overflow:visible;"/>
		</clipPath>
		<circle class="st1" cx="512.5" cy="290.5" r="108.5"/>
		<path class="st2" d="M-110,188c45.21-12.05,86.26-22.99,131-8c68.8,23.06,64.75,80.12,122,112c85.62,47.68,154.64-46.56,295-34
			c81.05,7.25,213.11,52.56,247,163c31.99,104.26-33.57,233.79-123,270c-106.23,43.01-185.14-70.34-290-23
			c-73.9,33.36-126.15,130.93-118,211c8.7,85.51,81.58,105.01,85,201c0.28,7.97,2.15,89.34-47,134c-74.89,68.06-233.44,19.28-320-33
			c-300.91-181.74-320.84-761.38-153-905C-208.99,214.38-110,188-110,188z"/>
		<circle class="st3" cx="1767.5" cy="975.5" r="216.5"/>
		<path class="st2" d="M-99,270c14.32-3.66,62.01-15.87,107,6c41.86,20.35,40.27,50.21,76,77c50.28,37.7,117.66,26.73,202,13
			c119.63-19.47,129.38-51.53,188-41c59.97,10.77,138.64,60.27,149,143c8.97,71.61-35.64,149.04-93,165
			c-62.77,17.47-90.47-52.68-181-54c-95.28-1.38-168.31,74.81-203,111c-41.29,43.08-89.22,93.08-91,161
			c-2.76,105.15,107.87,147.51,88,218c-14.04,49.82-84.7,83.27-142,80c-95.65-5.45-153.96-113.21-202-202
			c-49.5-91.48-136.81-252.85-85-439C-280.29,487.49-226.42,302.61-99,270z"/>
		<path class="st2" d="M465,373c-4.87-1.96-39.96-15.36-76,4c-2.72,1.46-40.63,22.65-46,66c-4.36,35.19,14.83,68.06,38,84
			c26.41,18.17,43.99,4.71,81,29c15.88,10.42,19.54,17.43,34,21c18.14,4.48,41.27,0.58,57-13c33.93-29.29,15.57-88.17,13-96
			c-10.77-32.83-33.93-52.22-48-64C498.06,387.31,478.37,378.09,465,373z"/>
		<path class="st2" d="M-85,333c48.87-10.57,94.71,31.69,120,55c18.68,17.22,61.99,57.15,76,123c5.25,24.67,8.72,63.95-15,135
			C41.55,809.09-54.4,834.68-42,909c12.89,77.23,124.6,98.04,115,151c-5.61,30.96-50.06,58.52-89,57
			c-105.97-4.13-192.19-224.45-210-391c-22.61-211.41,65.05-335.53,98-368C-108.36,338.64-90.17,334.12-85,333z"/>
		<polygon class="st1" points="1878.21,197.35 1722.6,306.8 1895.19,386.84 		"/>
		<polygon class="st4" points="244.8,767.69 224.41,578.54 70.79,690.77 		"/>
		<path class="st2" d="M1135-28c28.49,112.88,164.21,164.03,188,173c154.31,58.16,223.64-32.53,321,25
			c113.14,66.85,56.74,211.29,188,321c67.78,56.65,172.05,92.71,259,71c191.28-47.76,314.81-379.14,237-600
			c-132.2-375.25-862.03-478.16-1099-241C1219.34-269.33,1104.01-150.77,1135-28z"/>
		<path class="st2" d="M1267-95c33.29,61.4,86.72,133.59,168,151c26.02,5.57,34.74,1.21,76,4c27.8,1.88,148.65,10.04,219,63
			c86.29,64.97,34.23,150.38,117,256c56.47,72.05,163.35,137.78,248,117c138.72-34.05,229.62-303.35,157-484
			c-106.98-266.11-575.2-355.81-858-203C1338.26-160.88,1296.55-125.03,1267-95z"/>
		<path class="st2" d="M1454-44c8.33,36.13,54.81,56.28,68,62c31.97,13.86,54.94,11.49,82,14c66.32,6.14,114.94,37.6,148,59
			c87.4,56.56,73.9,107.54,155,147c21.9,10.66,64.35,31.31,113,20c62.09-14.44,116.3-76.78,119-135
			c5.21-112.27-181.8-193.94-285-239c-95.86-41.86-230.6-100.7-328-40C1490.79-134.06,1444.23-86.38,1454-44z"/>
		<circle class="st4" cx="1175" cy="56" r="45"/>
		<polygon class="st4" points="1464.32,560.13 1451.88,529.22 1482.79,516.79 1472.38,490.93 1441.47,503.37 1429.04,472.46 
			1403.18,482.87 1415.62,513.78 1384.71,526.21 1395.12,552.07 1426.03,539.63 1438.46,570.54 		"/>
		<polygon class="st4" points="638,-43.74 588,42.87 688,42.87 		"/>
		<g class="st5">
			<circle class="st6" cx="854.24" cy="958.24" r="9.24"/>
			<circle class="st6" cx="907.5" cy="958.24" r="9.24"/>
			<circle class="st6" cx="960.76" cy="958.24" r="9.24"/>
			<circle class="st6" cx="1014.03" cy="958.24" r="9.24"/>
			<circle class="st6" cx="1067.29" cy="958.24" r="9.24"/>
			<circle class="st6" cx="1120.55" cy="958.24" r="9.24"/>
			<circle class="st6" cx="1173.81" cy="958.24" r="9.24"/>
			<circle class="st6" cx="854.24" cy="1006.66" r="9.24"/>
			<circle class="st6" cx="907.5" cy="1007.1" r="9.24"/>
			<circle class="st6" cx="960.76" cy="1007.1" r="9.24"/>
			<circle class="st6" cx="1014.03" cy="1007.1" r="9.24"/>
			<circle class="st6" cx="1067.29" cy="1007.1" r="9.24"/>
			<circle class="st6" cx="1120.55" cy="1007.1" r="9.24"/>
			<circle class="st6" cx="1173.81" cy="1007.1" r="9.24"/>
			<circle class="st6" cx="854.24" cy="1055.08" r="9.24"/>
			<circle class="st6" cx="907.5" cy="1055.96" r="9.24"/>
			<circle class="st6" cx="960.76" cy="1055.96" r="9.24"/>
			<circle class="st6" cx="1014.03" cy="1055.96" r="9.24"/>
			<circle class="st6" cx="1067.29" cy="1055.96" r="9.24"/>
			<circle class="st6" cx="1120.55" cy="1055.96" r="9.24"/>
			<circle class="st6" cx="1173.81" cy="1055.96" r="9.24"/>
			<circle class="st6" cx="854.24" cy="1103.5" r="9.24"/>
			<circle class="st6" cx="907.5" cy="1104.82" r="9.24"/>
			<circle class="st6" cx="960.76" cy="1104.82" r="9.24"/>
			<circle class="st6" cx="1014.03" cy="1104.82" r="9.24"/>
			<circle class="st6" cx="1067.29" cy="1104.82" r="9.24"/>
			<circle class="st6" cx="1120.55" cy="1104.82" r="9.24"/>
			<circle class="st6" cx="1173.81" cy="1104.82" r="9.24"/>
			<circle class="st6" cx="854.24" cy="1151.92" r="9.24"/>
			<circle class="st6" cx="907.5" cy="1151.04" r="9.24"/>
			<circle class="st6" cx="960.76" cy="1151.04" r="9.24"/>
			<circle class="st6" cx="1014.03" cy="1151.04" r="9.24"/>
			<circle class="st6" cx="1067.29" cy="1151.04" r="9.24"/>
			<circle class="st6" cx="1120.55" cy="1151.04" r="9.24"/>
			<circle class="st6" cx="1173.81" cy="1151.04" r="9.24"/>
			<circle class="st6" cx="854.24" cy="1200.34" r="9.24"/>
			<circle class="st6" cx="907.5" cy="1199.9" r="9.24"/>
			<circle class="st6" cx="960.76" cy="1199.9" r="9.24"/>
			<circle class="st6" cx="1014.03" cy="1199.9" r="9.24"/>
			<circle class="st6" cx="1067.29" cy="1199.9" r="9.24"/>
			<circle class="st6" cx="1120.55" cy="1199.9" r="9.24"/>
			<circle class="st6" cx="1173.81" cy="1199.9" r="9.24"/>
			<circle class="st6" cx="854.24" cy="1248.76" r="9.24"/>
			<circle class="st6" cx="907.5" cy="1248.76" r="9.24"/>
			<circle class="st6" cx="960.76" cy="1248.76" r="9.24"/>
			<circle class="st6" cx="1014.03" cy="1248.76" r="9.24"/>
			<circle class="st6" cx="1067.29" cy="1248.76" r="9.24"/>
			<circle class="st6" cx="1120.55" cy="1248.76" r="9.24"/>
			<circle class="st6" cx="1173.81" cy="1248.76" r="9.24"/>
		</g>
		<polygon class="st4" points="904.03,973.47 851.07,920.5 904.03,867.53 859.72,823.22 806.75,876.18 753.78,823.22 709.47,867.53 
			762.43,920.5 709.47,973.47 753.78,1017.78 806.75,964.82 859.72,1017.78 		"/>
		<g class="st7">
			<defs>
				<rect id="SVGID_3_" x="843" y="345" width="234" height="234"/>
			</defs>
			<clipPath id="SVGID_4_" class="st8">
				<use xlink:href="#SVGID_3_"  style="overflow:visible;"/>
			</clipPath>
			<g class="st9">
				<circle vector-effect="non-scaling-stroke" class="st10" cx="960" cy="462" r="117"/>
				<path class="st11" d="M924.86,573.6c-47.02-14.79-81.25-58.5-81.85-110.23l81.97-113.01C936.03,346.87,947.8,345,960,345
					c12.27,0,24.11,1.89,35.22,5.43l80.27,130.25c-3.45,21.53-12.79,41.11-26.36,56.98L924.86,573.6z"/>
				<circle vector-effect="non-scaling-stroke" class="st12" cx="960" cy="462" r="102.38"/>
				<g>
					<g>
						<ellipse vector-effect="non-scaling-stroke" class="st13" cx="957.89" cy="533.47" rx="21.06" ry="15.41"/>
						<path class="st13" d="M985.36,543.77c-0.08-0.19-0.11-4.08-0.08-8.67l0.08-8.34l1.85-0.08l1.82-0.08v8.78v8.75h-1.77
							C986.06,544.13,985.44,544.02,985.36,543.77z"/>
						<path class="st13" d="M994.18,535.37v-8.75h1.63h1.63v1.09v1.09l1.36-0.93c2.47-1.72,6.38-2,9.29-0.66
							c2.91,1.34,3.26,2.57,3.15,10.75l-0.08,6.02h-1.77h-1.77l-0.14-6.29c-0.11-5.53-0.19-6.43-0.62-7.09
							c-1.44-2.16-6.28-1.97-8.01,0.33l-0.73,0.96l-0.14,6.05l-0.14,6.05l-1.82,0.08l-1.85,0.08V535.37z"/>
						<path class="st13" d="M985.27,521.94l0.08-1.67h1.77h1.77l0.08,1.67l0.08,1.67h-1.93h-1.93L985.27,521.94z"/>
						<path class="st13" d="M930.74,515.66c-0.23-0.13-0.37-0.46-0.37-0.79c0-2.61,5.82-5.12,14.54-6.3
							c5.34-0.71,15.77-1.05,20.25-0.65c8.91,0.79,13.36,1.63,17.08,3.18c2.08,0.88,3.18,1.74,3.78,2.99l0.52,1.03l-0.48,0.38
							c-0.39,0.33-0.85,0.4-2.64,0.4c-2.08,0-2.16-0.02-2.83-0.61c-1.04-0.92-3.03-1.42-7.81-2.01c-9.85-1.17-25.97-0.86-33.28,0.65
							c-1.89,0.4-2.74,0.75-3.57,1.44c-0.56,0.48-0.77,0.52-2.72,0.52C932.05,515.89,930.93,515.79,930.74,515.66z"/>
						<path class="st13" d="M930.95,508.76c-1.5-0.56-0.04-2.99,2.58-4.33c4.82-2.43,13.75-3.81,24.68-3.81
							c5.01,0,10.84,0.36,13.9,0.84c3.34,0.54,4.18,0.71,5.94,1.17c5.28,1.38,7.77,2.93,8.31,5.15c0.12,0.48,0.04,0.61-0.52,0.9
							c-0.52,0.27-1.12,0.33-2.7,0.27c-1.91-0.06-2.04-0.08-2.76-0.73c-0.85-0.75-1.41-0.94-4.51-1.51
							c-6.4-1.17-15.79-1.57-25.14-1.07c-4.32,0.23-6.77,0.48-10.01,1.07c-2.76,0.5-3.84,0.88-4.59,1.61
							c-0.54,0.52-0.73,0.56-2.6,0.61C932.43,508.95,931.26,508.89,930.95,508.76z"/>
						<path class="st13" d="M930.62,501.42c-0.62-0.63-0.08-2.07,1.14-3.05c3.34-2.64,10.64-4.27,21.83-4.87
							c6.98-0.38,16.02,0.17,21.54,1.3c6.59,1.36,10.12,3.05,10.99,5.23c0.33,0.82,0.33,0.9,0,1.25c-0.31,0.33-0.66,0.4-2.7,0.4
							c-2.2,0-2.37-0.04-2.95-0.52c-1.14-0.96-2.45-1.36-6.27-1.9c-8.33-1.19-23.39-1.26-31.26-0.1c-4.13,0.61-6.05,1.19-6.83,2.09
							c-0.35,0.4-0.6,0.44-2.83,0.44C931.68,501.67,930.79,501.59,930.62,501.42z"/>
						<path class="st13" d="M930.74,493.91c-0.46-0.25-0.48-1.05-0.06-1.84c1.25-2.45,7.48-4.62,15.89-5.56
							c2.06-0.23,1.87,0.19,1.87-4.35c0-2.22-0.1-7.3-0.21-11.34c-0.66-23.93-1.91-30.33-6.81-35.52c-0.66-0.67-0.83-0.75-1.43-0.65
							c-1.1,0.21-1.64-0.29-1.97-1.84l-0.29-1.3l-0.85,1.25c-1.08,1.59-2.14,2.53-3.05,2.7c-1.39,0.27-1.95-0.46-2.41-3.18
							c-0.12-0.84-0.27-1.53-0.31-1.53c-0.02,0-0.31,0.52-0.62,1.15c-0.56,1.19-0.64,1.26-1.1,0.98c-0.19-0.13-0.1-0.44,0.37-1.32
							c0.33-0.63,0.73-1.61,0.85-2.18c0.21-0.92,0.35-1.13,1.08-1.53c0.46-0.25,0.87-0.42,0.91-0.38c0.06,0.04,0.33,1.53,0.6,3.28
							c0.29,1.76,0.62,3.26,0.75,3.35c0.6,0.38,1.56-0.46,2.76-2.43c0.85-1.38,0.89-1.51,0.73-2.41c-0.31-1.53-0.27-1.63,0.64-2.09
							c0.48-0.25,0.89-0.42,0.93-0.36c0.04,0.04,0.27,1.25,0.5,2.68c0.52,3.22,0.52,3.2,1.14,3.54c0.48,0.25,0.58,0.23,1.06-0.23
							c0.31-0.27,1.35-1.57,2.33-2.89c2.68-3.6,4.32-4.54,6.9-4c1.16,0.25,1.23,0.23,1.99-0.29c0.46-0.29,0.83-0.48,0.85-0.4
							c0.04,0.1,0.29,1.61,0.56,3.39c0.29,1.76,0.56,3.26,0.62,3.31c0.06,0.06,0.42-0.08,0.79-0.31c0.64-0.42,1.14-0.98,2.93-3.51
							c0.93-1.32,2.06-2.36,3.39-3.14c0.89-0.52,1.23-0.61,2.68-0.61c1,0,1.87-0.13,2.16-0.29c0.64-0.36,0.73-0.21,1.04,1.92
							c0.62,4.25,0.64,4.33,1.16,4.33c0.73,0,1.58-0.84,2.97-2.91c1.39-2.01,3.07-3.7,4.34-4.31c1.18-0.59,2.91-0.65,3.86-0.15
							l0.77,0.42v-0.71c0-1.72-1.41-3.87-3.18-4.89c-1.62-0.94-3.07-1.03-4.76-0.31c-0.29,0.13-0.37,0.04-0.37-0.36
							c0-1.23,1.35-1.97,3.26-1.78c2.31,0.25,4.28,1.76,5.48,4.23c0.66,1.38,0.71,1.57,0.71,3.66c0,1.21-0.06,2.49-0.12,2.84
							c-0.12,0.69-1.04,2.13-2.1,3.35c-0.35,0.4-0.58,0.77-0.52,0.84c0.21,0.21,1.87-0.69,2.8-1.49c1.1-0.96,2.29-2.93,2.83-4.75
							c0.39-1.28,0.54-1.49,1.31-1.95l0.85-0.52l0.12,0.56c0.06,0.33,0.29,1.78,0.52,3.24s0.46,2.76,0.54,2.89
							c0.44,0.69,1.83-0.46,3.07-2.55c0.64-1.09,0.71-1.3,0.54-2.09c-0.31-1.59-0.27-1.72,0.73-2.22l0.93-0.44l0.15,0.98
							c0.42,2.99,0.87,5.31,1.08,5.52c0.42,0.42,1.29-0.04,2.06-1.09c0.73-0.96,1.29-1.23,1.45-0.73c0.1,0.36-1.93,2.53-2.72,2.91
							c-0.87,0.42-2.26,0.44-2.6,0.04c-0.15-0.17-0.35-0.88-0.5-1.57l-0.27-1.28l-1.08,1.57c-1.23,1.78-2.06,2.41-3.2,2.41
							c-1.16,0-1.52-0.48-1.91-2.61c-0.19-1.02-0.37-1.88-0.42-1.92c-0.04-0.06-0.44,0.59-0.85,1.4c-0.48,0.88-1.18,1.84-1.81,2.41
							c-1.04,0.94-3.07,1.88-3.74,1.72c-0.27-0.08-0.71,0.44-1.81,2.15c-4.59,7.15-6.42,13.26-7.1,23.68
							c-0.29,4.37-0.12,16.04,0.33,23.99c0.19,3.49,0.25,5.61,0.12,5.75c-0.15,0.19,0.44,0.36,2.18,0.63
							c7.35,1.15,11.95,3.1,13,5.52c0.39,0.86,0.39,0.94,0.04,1.32c-0.31,0.36-0.64,0.4-2.7,0.4c-2.31,0-2.37-0.02-2.97-0.61
							c-1.72-1.69-10.01-2.74-22.04-2.74c-11.9,0-20.46,1.05-22.21,2.72c-0.62,0.61-0.69,0.63-2.87,0.63
							C932.09,494.14,930.93,494.04,930.74,493.91z M970.05,486.02c0-0.21-0.17-3.01-0.35-6.23c-0.5-8.45-0.5-22.93,0-27.17
							c0.93-7.87,2.93-13.85,6.4-19.24c0.75-1.15,1.41-2.2,1.5-2.34c0.12-0.19-0.17-0.25-1.06-0.23c-0.73,0-1.45-0.13-1.85-0.31
							c-0.75-0.4-1.52-1.3-1.52-1.8c0-0.19-0.08-0.46-0.19-0.61c-0.12-0.21-0.44,0.1-1.14,1.09c-1.81,2.53-4.67,3.45-5.03,1.59
							c-0.08-0.33-0.15-0.63-0.17-0.63c-0.04,0-0.48,0.42-1,0.92c-2.26,2.18-5.67,1.55-6.4-1.15c-0.12-0.44-0.25-0.82-0.29-0.82
							s-0.37,0.46-0.75,1.02c-0.62,0.98-1.99,2.41-2.78,2.84c-0.35,0.21-0.35,0.36,0.08,3.14c0.52,3.35,0.44,4.08-0.62,5.38
							c-1.56,1.9-5.44,2.51-7.67,1.19c-0.64-0.38-0.69-0.38-0.54-0.04c0.06,0.21,0.31,1.17,0.52,2.15c1.27,5.79,1.93,15.77,2.2,32.8
							l0.15,8.64l2.1-0.17c2.7-0.21,12.26-0.15,15.08,0.1C970.11,486.44,970.05,486.44,970.05,486.02z M952.33,442.49
							c1.74-0.82,1.89-1.92,1.02-7.38c-0.29-1.8-0.54-3.35-0.54-3.41c0-0.06-0.44,0.25-0.98,0.69c-1.27,1.05-1.6,1.21-2.78,1.4
							c-1.93,0.29-3.95-0.9-4.26-2.51c-0.06-0.4-0.19-0.73-0.27-0.73c-0.06,0-0.35,0.4-0.64,0.88c-0.29,0.46-0.89,1.25-1.37,1.74
							l-0.83,0.88l0.69,0.82c1.2,1.4,2.35,3.18,3.22,5.02l0.85,1.78l0.64-0.63c0.77-0.75,0.96-0.79,0.96-0.25
							c0,0.54,0.79,1.49,1.54,1.82C950.46,442.98,951.31,442.95,952.33,442.49z M950.94,431.97c0.5-0.27,1.08-0.71,1.29-1
							c0.35-0.48,0.35-0.67,0.12-2.18c-0.23-1.49-0.31-1.69-0.89-2.03c-0.85-0.54-2.49-0.52-3.39,0.02
							c-1.95,1.21-1.97,4.2-0.02,5.27C948.98,432.56,949.81,432.54,950.94,431.97z M965.42,430.11c0.87-0.84,0.93-1.11,0.66-2.93
							c-0.27-1.97-0.5-2.18-2.2-2.03c-1.29,0.1-2.18,0.79-2.58,1.99c-0.42,1.28,0.23,2.95,1.35,3.43
							C963.4,430.89,964.83,430.66,965.42,430.11z M978.59,429.3c0.21-0.13,0.87-0.86,1.45-1.63c0.98-1.3,1.04-1.46,0.96-2.34
							c-0.27-2.36-3.22-2.8-5.09-0.75c-1.91,2.09-1.06,4.94,1.48,4.94C977.82,429.5,978.36,429.4,978.59,429.3z"/>
						<path class="st13" d="M915.56,446.45c-2.39-0.61-4.09-2.45-4.09-4.43c0-1.49,1.27-3.07,2.97-3.7
							c1.56-0.59,3.99-0.02,4.88,1.13c0.91,1.17,0.37,3.05-1.06,3.72c-0.71,0.36-1.6,0.48-1.6,0.23c0-0.06,0.33-0.42,0.73-0.79
							c0.77-0.73,0.87-1.23,0.48-2.11c-0.33-0.73-1.18-1.15-2.35-1.15c-1.83,0-3.01,1.15-3.01,2.91c0,1.21,0.62,2.18,1.83,2.91
							c0.89,0.52,1.14,0.56,3.16,0.56c2.47-0.02,3.32-0.31,4.65-1.69c2.28-2.36,2.35-5.48,0.25-11.17l-0.87-2.41l-2.18-0.13
							c-1.6-0.08-2.43-0.23-3.24-0.59c-2.29-1-3.57-3.35-3.3-5.92c0.44-4.25,5.36-8.62,11.01-9.79c1.6-0.33,1.83-0.04,0.64,0.79
							c-3.2,2.26-3.68,6.71-1.39,12.63c0.29,0.77,0.64,1.42,0.79,1.42c0.48,0,1.66-0.98,2.1-1.78c0.85-1.51,0.48-3.6-0.81-4.56
							c-0.27-0.21-0.96-0.44-1.54-0.52c-0.93-0.15-0.98-0.19-0.56-0.42c0.93-0.52,2.18-0.52,3.18,0c1.27,0.65,1.87,1.61,1.87,2.97
							c-0.02,1.92-1.1,3.49-3.18,4.54c-0.48,0.25-0.89,0.48-0.93,0.5c-0.02,0.02,0.25,0.69,0.6,1.49c1.83,4.12,2.12,8.22,0.75,10.86
							c-0.89,1.76-2.87,3.41-4.88,4.1C919.05,446.53,916.68,446.72,915.56,446.45z M921.13,429.36c-0.44-1.13-1.14-4.31-1.27-5.59
							c-0.23-2.72,0.75-5.82,2.47-7.78c0.46-0.52,0.77-0.98,0.73-1.05c-0.06-0.04-0.64,0.1-1.31,0.36c-2.66,1-5.26,3.45-6.15,5.84
							c-0.33,0.82-0.46,1.63-0.46,2.84c-0.02,2.95,1.23,4.75,3.76,5.44c0.54,0.15,1.29,0.27,1.68,0.27
							C921.17,429.71,921.25,429.65,921.13,429.36z"/>
					</g>
					<g>
						<path class="st14" d="M933.24,489.91c-0.08-0.06-0.15-2.34-0.37-3.6c-0.12-0.67-0.24-1.24-0.42-1.9
							c-0.13-0.5-0.25-0.93-0.42-1.42c-0.47-1.37-1.03-2.47-1.79-3.7c-0.26-0.43-0.49-0.79-0.79-1.19c-1.29-1.76-2.85-2.81-4.59-4.1
							c-0.54-0.4-1.27-0.77-1.56-1.09c-0.29-0.31-0.98-0.79-1.56-1.09c-0.56-0.29-1.23-0.69-1.45-0.92
							c-0.23-0.21-0.75-0.52-1.14-0.69c-1.14-0.46-8.61-6.7-12.22-11.36c-0.28-0.36-0.52-0.68-0.79-1.05
							c-0.29-0.39-0.53-0.73-0.81-1.13c-0.32-0.45-0.6-0.82-0.91-1.28c-0.41-0.6-0.72-1.13-1.12-1.74
							c-0.48-0.73-0.91-1.33-1.37-2.07c-0.23-0.38-0.42-0.7-0.64-1.09c-0.88-1.54-1.55-2.9-2.18-4.56c-0.11-0.3-0.2-0.56-0.31-0.86
							c-0.15-0.42-0.28-0.78-0.42-1.21c-0.35-1.09-0.57-2.03-0.83-3.14c-0.19-0.81-0.36-1.49-0.51-2.3c-0.14-0.8-0.23-1.49-0.32-2.3
							c-0.31-2.57-0.42-4.77-0.42-7.36c0-2.56-0.05-4.74,0.42-7.26c0.12-0.67,0.27-1.23,0.42-1.9c0.15-0.69,0.25-1.28,0.42-1.97
							c0.13-0.54,0.27-0.99,0.42-1.53c0.15-0.55,0.25-1.02,0.42-1.57c0.13-0.43,0.25-0.79,0.42-1.21c0.23-0.59,0.49-1.07,0.75-1.65
							c0.3-0.67,0.53-1.26,0.85-1.92c0.54-1.14,1.05-2.08,1.7-3.16c0.38-0.64,0.74-1.16,1.14-1.78c0.41-0.63,0.74-1.16,1.16-1.78
							c0.31-0.46,0.58-0.85,0.91-1.3c0.43-0.57,0.84-1.02,1.29-1.57c0.44-0.54,0.8-1.01,1.25-1.55c3.01-3.59,6.01-6.22,9.76-8.99
							c0.63-0.47,1.18-0.85,1.83-1.3c0.85-0.58,1.6-1.04,2.47-1.59c0.84-0.53,1.56-0.98,2.41-1.51c0.98-0.61,2.35-1.38,2.8-1.74
							c0.44-0.36,2.18-1.15,3.49-1.76c1.29-0.63,2-0.83,3.1-1.26c0.73-0.28,1.35-0.5,2.08-0.77c0.76-0.29,1.39-0.57,2.16-0.84
							c1.08-0.38,2.02-0.61,3.12-0.94c1.17-0.36,2.14-0.72,3.32-1.03c1.05-0.27,2.58-0.52,3.01-0.65c0.54-0.2,7.72-1.2,11.95-1.15
							c2.16,0.03,3.98,0.21,6.13,0.42c2.05,0.2,3.79,0.38,5.82,0.73c2.37,0.42,4.37,0.86,6.67,1.57c1.18,0.36,2.16,0.73,3.32,1.15
							c3.32,1.21,6.16,2.22,9.29,3.89c1.21,0.65,2.2,1.25,3.37,1.97c0.79,0.48,1.46,0.9,2.24,1.4c1.76,1.13,3.23,2.12,4.9,3.39
							c3.74,2.83,6.82,5.39,9.81,9.02c0.43,0.53,0.78,0.99,1.2,1.53c0.75,0.95,1.4,1.73,2.12,2.7c0.63,0.85,1.15,1.59,1.74,2.47
							c0.45,0.66,0.84,1.2,1.25,1.88c0.48,0.79,0.86,1.46,1.25,2.3c0.23,0.51,0.4,0.95,0.6,1.46c0.48,1.22,0.87,2.26,1.27,3.51
							c0.76,2.39,1.29,4.46,1.66,6.94c0.4,2.71,0.42,5.04,0.42,7.78c0,2.72,0.05,5.05-0.42,7.74c-0.12,0.72-0.27,1.32-0.42,2.03
							c-0.12,0.57-0.19,1.05-0.33,1.61c-0.14,0.58-0.32,1.05-0.48,1.63c-0.14,0.53-0.2,1-0.37,1.53c-0.11,0.34-0.24,0.63-0.37,0.96
							c-0.32,0.81-0.62,1.48-0.96,2.28c-0.29,0.68-0.5,1.27-0.81,1.95c-0.7,1.53-1.36,2.79-2.31,4.18c-0.27,0.4-0.52,0.73-0.81,1.13
							c-0.32,0.44-0.44,0.68-0.93,1.25c-0.13,0.21-0.49,0.65-0.75,1c-0.26,0.37-0.46,0.7-0.73,1.07c-0.3,0.42-0.56,0.76-0.87,1.17
							c-3.61,4.7-7.42,8.05-12.26,11.44c-0.61,0.43-1.15,0.77-1.77,1.19c-0.54,0.37-1,0.69-1.54,1.07
							c-0.64,0.45-1.18,0.83-1.83,1.28c-0.59,0.41-1.11,0.72-1.68,1.15c-1.34,1-2.51,1.85-3.51,3.2c-0.27,0.37-0.49,0.7-0.73,1.09
							c-0.85,1.39-1.42,2.66-1.87,4.23c-0.18,0.64-0.23,1.2-0.42,1.84c-0.13,0.43-0.29,0.78-0.42,1.21
							c-0.48,1.61-0.43,4.46-0.68,4.71c-0.54-0.68-2.91-2.07-4.8-2.56c-1.49-0.54-3.02-0.9-3.5-0.98c-0.42-0.07-4.31-0.74-4.73-0.82
							c-0.44-0.06-1.43-0.4-1.24-0.49c0.17-0.6,0.03-2.91-0.2-7.63c-0.31-6.38-0.41-8.39-0.41-14.14
							c-0.02-8.93,0.29-12.76,1.45-18.09c1.06-4.27,2.68-8.56,4.61-11.76c0.21-0.33,0.62-0.84,0.71-1c0.06-0.17,0.68-1.23,1.2-1.92
							c0.72-0.96,0.85-1.11,1.11-1.03c1.19-0.04,2.1-0.71,3.21-1.32c1.1-0.85,1.77-1.92,2.47-3.1c0.18-0.39,0.42-0.78,0.72-1.17
							l0.11,0.46c0.1,0.46,0.33,1.46,0.39,1.9c0.26,1.16,0.45,1.62,0.86,1.97c0.01,0.01,0.03,0.01,0.04,0.02
							c1.2,0.59,2.72-0.1,4.11-2.22c0.83-1.25,1.16-2.06,1.16-1.2c0.25,0.66,0.33,2.72,1.09,2.69c1.78,0.34,2.77-0.39,4.74-2.69
							c0.28-0.47,0.17-0.49,0.04-0.66c-0.24-0.07-0.5,0.07-1.43,1.11c-0.89,1.11-1.57,1.31-1.97,0.9c-0.06-0.1-0.41-1.38-0.64-2.87
							c-0.62-4.04-0.4-3.63-1.31-3.25c-1.18,0.5-1.17,0.8-0.95,1.92c0.19,0.92,0.22,1.31-0.11,1.78c-0.62,1.32-1.81,2.96-2.85,3.45
							c-0.31,0-0.71,0.17-0.81-1.07c-0.06-0.12-0.1-0.65-0.22-1.26c-0.1-0.63-0.24-1.4-0.28-1.86c-0.06-0.46-0.12-0.86-0.21-1.21
							c-0.02-0.29-0.15-1.1-0.21-1.25c-0.13-0.32,0.01-0.25-0.46,0c-0.22,0.15-0.46,0.28-0.81,0.52c-0.38,0.27-0.39,0.34-0.7,0.96
							c-0.77,2.47-1.42,3.72-2.87,5.29c-0.73,0.71-2.2,1.66-2.99,1.72c-0.04-0.04-0.15-0.13,0.65-1.07c1.5-1.86,1.74-2.66,1.81-2.76
							c0.33-0.58,0.29-3.88,0.16-5.23c-0.49-2.03-1.85-4.18-4.07-5.33c-1.3-0.47-1.47-0.6-2.85-0.56c-1.37,0.08-1.87,0.56-2.06,0.79
							c-0.48,0.59-0.37,1.12-0.33,1.37c0.02,0.02,0.17,0.04,0.62-0.14c0.73-0.38,2.23-0.62,3.83,0.09c1.75,0.82,3.22,2.47,3.71,4.3
							c0.11,0.84,0.3,2.08-0.08,1.54c-1.34-0.76-2.44-0.71-3.21-0.53c-2.05,0.38-3.74,2.1-5.48,4.53c-1.16,1.78-2.26,3.1-3.07,3.05
							c-0.52,0.02-0.55-0.25-0.99-3.18c-0.27-1.76-0.42-3.17-0.74-3.19c-0.06-0.08-0.19-0.03-0.58,0.2
							c-0.63,0.23-1.54,0.2-2.02,0.22c-1.12,0.06-1.4-0.07-2.37,0.39c-1.88,1.03-3.2,2.37-4.63,4.64c-0.9,1.14-1.31,1.79-2.2,2.34
							c-0.35,0.16-0.56,0.23-0.64,0.21c-0.24-1.25-0.41-2.2-0.52-2.84c-0.19-1.1-0.5-2.97-0.5-3.14c-0.15-0.64-0.09-0.54-0.14-0.73
							c-0.18-0.02-0.35,0.08-0.79,0.36c-0.75,0.5-0.6,0.56-1.68,0.42c-0.6-0.14-0.78-0.18-1.38-0.23c-2.24-0.06-3.74,1.15-6.48,4.93
							c-1.14,1.48-1.57,2.07-2.16,2.44c-0.17,0.11-0.5,0-0.72-0.15c-0.51-0.27-0.59-0.38-1.07-3.51c-0.22-1.33-0.43-2.54-0.49-2.65
							c-0.08-0.08-0.43,0.13-0.91,0.34c-0.71,0.34-0.83,0.54-0.84,0.93c0,0.36,0.11,0.84,0.2,1.3c0.12,0.75,0.03,0.88-0.21,1.38
							c-0.15,0.34-0.29,0.5-0.46,0.77c-0.34,0.56-0.49,0.79-1.05,1.54c-0.81,1.06-1.44,1.18-1.69,1.08
							c-0.15,0.01-0.25-0.36-0.3-0.54c-0.03-0.19-0.36-1.61-0.61-3.24c-0.4-2.42-0.51-2.97-0.56-2.91c-0.18,0.02-0.3,0.08-0.49,0.18
							c-0.22,0.1-0.33,0.17-0.6,0.31c-0.71,0.43-0.67,0.69-0.91,1.52c-0.15,0.63-0.59,1.61-0.86,2.15
							c-0.24,0.47-0.31,0.62-0.43,0.94c-0.02,0.31,0.18,0.36,0.43,0.42c0.31,0,0.75-1.19,1.34-2.2c0.12-0.38,0.3,0.95,0.49,2.12
							c0.31,1.51,0.64,2.11,1.12,2.42c0.21,0.08,0.5,0.14,0.92,0.14c1.05-0.1,2.05-0.99,3.1-2.49c0.47-0.69,0.96-1.51,1.04-1.51
							c0.1,0,0.2,0.69,0.29,1.23c0.04,0.3,0.1,0.5,0.16,0.68c0.37,0.92,0.52,1.23,1.62,1.26c0.19-0.06,0.51-0.09,0.69-0.06
							c0.52,0.08,0.69,0.44,1.3,1.04c2.73,2.99,4.44,6.88,5.41,15.59c0.06,0.63,0.16,1.57,0.22,2.09c0.33,4.13,0.79,12.89,1,25.54
							c0.06,3.92,0.12,5.87-0.07,6.75c-0.07,0.6-0.33,0.66-0.66,0.74c-0.12,0.04-3.21,0.37-5.9,0.83c-1.62,0.28-2.84,0.67-3.07,0.73
							C937.22,488.28,936.25,488.48,933.24,489.91z M919.94,446.19c1.18-0.33,1.83-0.55,3.9-2.25c1.29-1.3,1.95-2.82,2.25-4.71
							c0.21-2.08-0.18-4.77-1.21-7.36c-0.79-1.99-1.26-2.24-0.65-2.42c1.4-0.72,2.67-1.56,3.43-2.98c0.77-1.8,0.41-3.47-0.86-4.46
							c-0.89-0.69-1.92-1.01-3.42-0.58c-0.55,0.25-0.85,0.41-0.17,0.52c1.33,0.17,1.85,0.41,2.35,1c1.33,1.3,1.16,4.08-0.7,5.39
							c-0.42,0.36-0.82,0.57-1.02,0.53c-0.29,0-1.04-1.92-1.48-3.56c-0.6-2.3-0.84-3.6-0.72-5.23c0.17-2.43,0.53-3.47,2.59-5.12
							c0.73-0.45,0.95-0.85,0.85-0.99c-0.41-0.26-2.87,0.47-4.05,0.99c-2.84,1.05-4.33,2.51-5.34,3.39
							c-2.37,2.36-2.92,4.85-2.89,6.13c0,2.76,1.78,4.4,2.89,5.02c0.85,0.5,2.32,0.72,3.2,0.73c0.17,0,1.33,0.17,1.74,0.17
							c1.22-0.16,0.81-0.33,1.6,1.89c0.21,0.54,0.79,2.38,1.25,4.01c0.33,1.11,0.58,3.07,0.35,4.37c-0.63,3.66-2.84,5.62-8.23,5
							c-0.73-0.15-1.11-0.37-1.29-0.53c-0.22-0.11-0.2-0.08-0.53-0.36c-0.51-0.36-0.44-0.29-0.71-0.67
							c-0.35-0.5-0.57-0.94-0.59-1.86c0-1.11,0.14-1.33,0.72-2.03c0.93-0.92,2.58-1.18,3.72-0.62c0.31,0.11,1.16,0.55,1.16,1.7
							c0,0.71-0.65,1.47-1.16,1.76c-0.7,0.68,0.35,0.38,0.33,0.43c1.23-0.2,2.14-0.99,2.43-2.1c0.5-2.05-2.24-3.85-4.63-3.12
							c-3.1,0.94-4.17,3.03-3.24,5.29c0.58,1.36,2.21,2.29,2.45,2.38c1.2,0.56,1.54,0.58,2.78,0.63
							C917.86,446.57,919.44,446.32,919.94,446.19z"/>
						<path class="st14" d="M918.42,429.3c-1.89-0.75-2.71-1.72-3.17-3.77c-0.23-1.05-0.17-3.27,0.29-4.25
							c0.05-0.16,0.13-0.33,0.22-0.54c1.11-2.57,3.31-4.18,5.23-5.12c1.1-0.52,2.1-0.8,2.1-0.66c0,0.04-0.35,0.58-0.73,1
							c-0.62,0.65-1.4,1.81-2.08,3.91c-0.15,0.36-0.42,1.49-0.46,2.64c0.02,1.76,0.15,2.21,0.51,3.89c0.17,1.02,0.64,2.39,0.7,2.66
							c0.29,0.76,0.19,0.63-0.75,0.61C919.73,429.68,918.78,429.43,918.42,429.3z"/>
						<path class="st14" d="M967.14,486.21c-3.52-0.32-9.65-0.34-16.26-0.13c-0.44,0.06-0.95,0.08-1.33,0.13l-0.06-0.44l-0.02-5.17
							c-0.1-5.18-0.11-6.13-0.36-14.29c-0.15-5.27-0.3-6.61-0.69-12.45c-0.27-3.99-1.39-10.31-1.66-11.03
							c-0.23-0.56-0.18-0.55,0.23-0.31c1.52,0.92,3.59,1.16,5.93,0.31c1.56-0.64,2.37-1.69,2.74-2.62c0.31-1.15,0.14-2.09-0.05-3.6
							c-0.04-0.29-0.18-1.05-0.26-1.67c-0.08-0.63-0.17-1.2-0.15-1.46c-0.03-0.41,0.16-0.48,0.58-0.73c1.02-0.84,1.5-1.31,2.37-2.51
							c0.42-0.63,0.7-1.02,0.84-1.17c0.07,0.11,0.17,0.38,0.28,0.81c0.92,2.8,4.08,3.26,6.37,1.22c0.4-0.39,0.74-0.71,1.03-0.97
							c0.06,0.12,0.13,0.35,0.19,0.67c0.38,1.08,1.08,1.08,2.21,0.71c1.08-0.49,1.79-1.02,2.97-2.55c0.22-0.35,0.51-0.68,0.87-0.98
							c0.16,0.12,0.25,0.38,0.27,0.79c0.12,0.4,0.51,0.84,0.7,0.98c0.71,0.65,1.21,0.98,2.17,0.98c0.48-0.06,1.52,0.08,1.52,0.15
							c0,0.06,0.48-0.37-0.67,1.3c-0.46,0.69-0.99,1.49-1.05,1.67c-0.08,0.21-0.59,1.07-0.9,1.53s-0.68,1.33-1.16,2.18
							c-0.44,0.92-0.98,2.38-1.1,2.68c-0.98,1.99-2.5,8.24-2.77,11.23c-0.19,0.82-0.32,2.06-0.31,2.93
							c-0.08,0.86-0.24,5.52-0.24,10.35c0,7.84,0.11,10.61,0.5,17.05c0.27,4.03,0.36,4.6,0.05,4.52c-0.27,0.1-0.9,0.08-0.92,0.06
							C968.93,486.36,968.12,486.36,967.14,486.21z"/>
						<path class="st14" d="M950.21,442.84c-1.25-0.27-2.14-1.21-2.18-2.07c0-0.52-0.25-0.43-0.91,0.22l-0.68,0.67l-0.45-0.92
							c-0.23-0.48-0.49-1.04-0.63-1.33c-0.15-0.27-0.48-0.87-0.73-1.33c-0.29-0.44-0.98-1.6-1.6-2.41
							c-0.89-1.04-1.33-1.59-1.34-1.64c0.26-0.31,0.62-0.69,1.06-1.12c0.52-0.68,1.16-1.47,1.29-1.76c0.18-0.29,0.34-0.5,0.48-0.62
							c0.1,0.04,0.19,0.26,0.26,0.66c0.11,0.77,0.7,1.44,1.18,1.82c0.52,0.34,1.17,0.73,2.12,0.79c1.23,0.11,2.48-0.3,3.63-1.31
							l1.09-0.9l0.2,1.42c0.12,0.84,0.61,3.16,0.66,4.52l0.39,2.51l-0.46,1.4C952.97,442.29,952,443.01,950.21,442.84z"/>
						<path class="st14" d="M947.67,431.87c-0.6-0.5-1.08-1.16-1.08-2.42c0-0.92,0.33-1.68,0.81-2.1c0.77-0.82,1.26-0.96,2.46-0.98
							c1.71,0.09,2.44,0.46,2.52,2.67c0.15,0.71,0.17,1.22,0.07,1.54c-0.06,0.25-0.31,0.57-0.75,0.94
							c-0.86,0.56-0.98,0.69-2.24,0.91C948.34,432.46,948.03,432.16,947.67,431.87z"/>
						<path class="st14" d="M962.78,430.66c-1.49-0.32-2.04-2.84-1.19-4.25c0.73-1.17,2.56-1.55,3.68-1.15
							c0.44,0.21,0.54,0.2,0.75,1.6c0.25,1.55,0.39,2.13,0,2.69C965.27,430.55,964,430.99,962.78,430.66z"/>
						<path class="st14" d="M976.85,429.48c-1.12-0.28-1.74-0.77-1.95-2.09c-0.19-1.21,0.05-1.61,0.9-2.82
							c0.48-0.67,2.04-1.34,2.76-1.34c0.58,0,1.75,0.33,2.04,1.05c0.12,0.21,0.29,0.48,0.35,0.88c0.12,0.61,0.2,1.36-0.82,2.37
							C978.76,429.42,978.48,429.6,976.85,429.48z"/>
					</g>
				</g>
			</g>
		</g>
		<g class="st7">
			<path class="st15" d="M1121.5,816.6h-323c-17.4,0-31.5-14.1-31.5-31.5v0c0-17.4,14.1-31.5,31.5-31.5h323
				c17.4,0,31.5,14.1,31.5,31.5v0C1153,802.5,1138.9,816.6,1121.5,816.6z"/>
			<text transform="matrix(1 0 0 1 819.3779 793.8867)" class="st16 st17 st18">Let’s get you started</text>
		</g>
	</g>
</g>
<g id="Layer_3" class="st19">
	<text transform="matrix(1 0 0 1 475.9871 298.301)" class="st20 st17 st21">Sasta, Sundar or Tech-ao</text>
	<text transform="matrix(1 0 0 1 316.2385 671.301)" class="st8"><tspan x="0" y="0" class="st12 st17 st22">We deliver solutions and services for </tspan><tspan x="965.03" y="0" class="st10 st17 st22">Lorem Ipsum</tspan></text>
</g>
</svg>
