<?xml version="1.0" encoding="utf-8"?>
<!-- Generator: Adobe Illustrator 23.0.1, SVG Export Plug-In . SVG Version: 6.00 Build 0)  -->
<svg version="1.1" xmlns="http://www.w3.org/2000/svg" xmlns:xlink="http://www.w3.org/1999/xlink" x="0px" y="0px"
	 viewBox="0 0 1000 1000" enable-background="new 0 0 1000 1000" xml:space="preserve">
<g id="Layer_2">
	<path fill="#63C1A8" d="M26,123c22.8-43.4,67.4-59.6,80.5-64.4C163,38.1,214.3,55.7,244,66c15.2,5.2,52.7,18.6,86,49
		c84.9,77.6,48.9,181.2,95,202c69,31.2,167-192.5,327.6-189.1c73.4,1.5,143.6,51,179.1,114.7c37.2,66.8,43.8,170.4-21.2,234.4
		c-73.7,72.7-193.7,49.9-219.9,107.2c-20.3,44.4,44.4,73.8,29.1,131.5c-12.4,46.6-64.8,95.6-131,109.5
		c-67.6,14.2-76-49.3-163.5-59.8c-97.1-11.7-149.6,53-233.1,35.8c-40.6-8.4-89.9-35.9-103.6-78.5C59,631.9,236.4,557.6,217.4,458
		C202.3,379,84.7,388.7,32,263C23.1,241.8-3.3,178.8,26,123z"/>
	<path fill="#63C1A8" d="M1550,545"/>
</g>
<g id="Layer_1">
	<g>
		<polygon opacity="0.75" fill="#0D4654" points="31.2,722.9 53.4,745 968,745 942.4,719.4 		"/>
		<g>
			<g>
				<g>
					<g>
						<g>
							<path fill="#415168" d="M847.1,255.6c-24.6,0-352.5,0-352.5,0s-327.8,0-352.5,0c-24.6,0-21.9,21.3-21.9,21.3v430.3H869V276.9
								C869,276.9,871.7,255.6,847.1,255.6z"/>
							<g>
								<defs>
									<path id="SVGID_1_" d="M847.1,255.6c-24.6,0-352.5,0-352.5,0s-327.8,0-352.5,0c-24.6,0-21.9,21.3-21.9,21.3v430.3H869
										V276.9C869,276.9,871.7,255.6,847.1,255.6z"/>
								</defs>
								<clipPath id="SVGID_2_">
									<use xlink:href="#SVGID_1_"  overflow="visible"/>
								</clipPath>
							</g>
							<path fill="#FFFFFF" d="M840.6,689.6H149.2c-2.2,0-4-1.8-4-4V283.7c0-2.2,1.8-4,4-4h691.5c2.2,0,4,1.8,4,4v401.9
								C844.6,687.8,842.8,689.6,840.6,689.6z"/>
						</g>
						<g>
							<rect x="31.1" y="704.1" fill="#E2E5DA" width="926.1" height="17.9"/>
							<rect x="912.5" y="704.1" fill="#F4F4F4" width="44.7" height="17.9"/>
							<rect x="31.1" y="704.1" fill="#F4F4F4" width="44.7" height="17.9"/>
							<path fill="#C0C2C4" d="M493.8,722H31.1c0,0,11.1,10.2,31.4,10.2c20.3,0,431.3,0,431.3,0s411,0,431.3,0
								c20.3,0,31.4-10.2,31.4-10.2H493.8z"/>
						</g>
					</g>
					<rect x="145.2" y="279.7" fill="#D6D6D6" width="699.2" height="37.2"/>
					<path fill="#FFFFFF" d="M643.5,293H181.2V308h462.3c4.1,0,7.5-3.4,7.5-7.5S647.6,293,643.5,293z"/>
					<rect x="148.4" y="293" fill="#EDEDED" width="14.2" height="14.9"/>
					<rect x="164" y="293" fill="#EDEDED" width="14.2" height="14.9"/>
					<path fill="#FFFFFF" d="M826.5,308h-164c-1.9,0-3.4-1.5-3.4-3.4v-8.1c0-1.9,1.5-3.4,3.4-3.4h164c1.9,0,3.4,1.5,3.4,3.4v8.1
						C829.9,306.4,828.4,308,826.5,308z"/>
					<g>
						<path fill="#ED4545" d="M156.1,285.1c0,1.7-1.4,3.1-3.1,3.1c-1.7,0-3.1-1.4-3.1-3.1c0-1.7,1.4-3.1,3.1-3.1
							C154.7,282,156.1,283.4,156.1,285.1z"/>
						<path fill="#D3AF16" d="M165.3,285.1c0,1.7-1.4,3.1-3.1,3.1c-1.7,0-3.1-1.4-3.1-3.1c0-1.7,1.4-3.1,3.1-3.1
							C163.9,282,165.3,283.4,165.3,285.1z"/>
						<path fill="#47EA78" d="M174.2,285.1c0,1.7-1.4,3.1-3.1,3.1c-1.7,0-3.1-1.4-3.1-3.1c0-1.7,1.4-3.1,3.1-3.1
							C172.8,282,174.2,283.4,174.2,285.1z"/>
					</g>
					<path fill="#E2E2E2" d="M499.4,266.7c0,2.9-2.3,5.2-5.2,5.2s-5.2-2.3-5.2-5.2c0-2.9,2.3-5.2,5.2-5.2S499.4,263.8,499.4,266.7z"
						/>
					<path fill="#415168" d="M497.6,266.7c0,1.9-1.6,3.5-3.5,3.5c-1.9,0-3.5-1.6-3.5-3.5c0-1.9,1.6-3.5,3.5-3.5
						C496.1,263.2,497.6,264.8,497.6,266.7z"/>
				</g>
			</g>
			<g>
				<rect x="145.2" y="316.9" fill="#E0E0E0" width="699.3" height="33.2"/>
				<rect x="186.4" y="355.9" fill="#EDEDED" width="626.5" height="113.2"/>
				<g>
					<rect x="186.4" y="481.4" fill="#EDEDED" width="126.9" height="208.2"/>
					<rect x="685.9" y="481.4" fill="#EDEDED" width="126.9" height="208.2"/>
				</g>
				<rect x="324.3" y="481.4" fill="#EDEDED" width="346.1" height="208.2"/>
				<rect x="198.2" y="369.4" opacity="0.5" fill="#CECECE" width="602.8" height="87.9"/>
				<path fill="#F7734C" d="M653.3,657.3h-53.7c-0.6,0-1-0.5-1-1v-70.2c0-0.6,0.5-1,1-1h53.7c0.6,0,1,0.5,1,1v70.2
					C654.3,656.9,653.8,657.3,653.3,657.3z"/>
				<path fill="#F7734C" d="M535.6,497H333.9c-0.5,0-1-0.4-1-1v-4.4c0-0.6,0.5-1,1-1h201.7c0.5,0,1,0.4,1,1v4.4
					C536.6,496.6,536.2,497,535.6,497z"/>
				<g>
					<path fill="#DBDBDB" d="M653.9,514.9H333.9c-0.5,0-1-0.4-1-1v-4.4c0-0.5,0.5-1,1-1h319.9c0.6,0,1,0.5,1,1v4.4
						C654.9,514.4,654.4,514.9,653.9,514.9z"/>
					<path fill="#DBDBDB" d="M653.9,527.6H333.9c-0.5,0-1-0.5-1-1v-4.4c0-0.5,0.5-1,1-1h319.9c0.6,0,1,0.5,1,1v4.4
						C654.9,527.2,654.4,527.6,653.9,527.6z"/>
					<path fill="#DBDBDB" d="M653.9,540.4H333.9c-0.5,0-1-0.5-1-1V535c0-0.6,0.5-1,1-1h319.9c0.6,0,1,0.4,1,1v4.4
						C654.9,540,654.4,540.4,653.9,540.4z"/>
					<path fill="#DBDBDB" d="M653.9,553.2H333.9c-0.5,0-1-0.5-1-1v-4.4c0-0.5,0.5-1,1-1h319.9c0.6,0,1,0.5,1,1v4.4
						C654.9,552.8,654.4,553.2,653.9,553.2z"/>
					<path fill="#DBDBDB" d="M653.9,566H333.9c-0.5,0-1-0.5-1-1v-4.4c0-0.5,0.5-1,1-1h319.9c0.6,0,1,0.5,1,1v4.4
						C654.9,565.6,654.4,566,653.9,566z"/>
					<path fill="#DBDBDB" d="M653.9,578.8H333.9c-0.5,0-1-0.5-1-1v-4.4c0-0.5,0.5-1,1-1h319.9c0.6,0,1,0.5,1,1v4.4
						C654.9,578.3,654.4,578.8,653.9,578.8z"/>
				</g>
				<path fill="#DBDBDB" d="M405.6,633.6h-70.9c-1,0-1.8-0.8-1.8-1.8v-44.5c0-1,0.8-1.8,1.8-1.8h70.9c1,0,1.8,0.8,1.8,1.8v44.5
					C407.4,632.8,406.6,633.6,405.6,633.6z"/>
				<path fill="#DBDBDB" d="M575.9,633.6H418.8c-0.5,0-1-0.5-1-1v-4.4c0-0.6,0.5-1,1-1h157.1c0.5,0,1,0.4,1,1v4.4
					C576.9,633.1,576.5,633.6,575.9,633.6z"/>
				<path fill="#DBDBDB" d="M576,645.5H333.9c-0.5,0-1-0.5-1-1v-4.4c0-0.6,0.5-1,1-1H576c0.6,0,1,0.4,1,1v4.4
					C577,645,576.6,645.5,576,645.5z"/>
				<path fill="#DBDBDB" d="M576,657.3H333.9c-0.5,0-1-0.5-1-1v-4.4c0-0.5,0.5-1,1-1H576c0.6,0,1,0.5,1,1v4.4
					C577,656.9,576.6,657.3,576,657.3z"/>
				<path fill="#DBDBDB" d="M799.1,589.7h-99.5c-1,0-1.9-0.8-1.9-1.9v-88.9c0-1,0.8-1.9,1.9-1.9h99.5c1,0,1.9,0.8,1.9,1.9v88.9
					C801,588.9,800.2,589.7,799.1,589.7z"/>
				<path fill="#DBDBDB" d="M799.1,683.4h-99.5c-1,0-1.9-0.8-1.9-1.9v-71.8c0-1,0.8-1.9,1.9-1.9h99.5c1,0,1.9,0.8,1.9,1.9v71.8
					C801,682.5,800.2,683.4,799.1,683.4z"/>
				<path fill="#DBDBDB" d="M299.6,589.7h-99.5c-1,0-1.9-0.8-1.9-1.9v-88.9c0-1,0.8-1.9,1.9-1.9h99.5c1,0,1.9,0.8,1.9,1.9v88.9
					C301.4,588.9,300.6,589.7,299.6,589.7z"/>
				<path fill="#DBDBDB" d="M299.6,683.4h-99.5c-1,0-1.9-0.8-1.9-1.9v-71.8c0-1,0.8-1.9,1.9-1.9h99.5c1,0,1.9,0.8,1.9,1.9v71.8
					C301.4,682.5,300.6,683.4,299.6,683.4z"/>
			</g>
		</g>
	</g>
	<path fill="none" stroke="#000000" stroke-width="2" stroke-miterlimit="10" d="M849,236.1H270.5c-11.3,0-20.5-9.2-20.5-20.5v0
		c0-11.3,9.2-20.5,20.5-20.5H849c11.3,0,20.5,9.2,20.5,20.5v0C869.5,227,860.3,236.1,849,236.1z"/>
	<path fill="#415168" stroke="#415168" stroke-width="2" stroke-miterlimit="10" d="M141.3,236.1L141.3,236.1
		c-11.3,0-20.5-9.2-20.5-20.5v0c0-11.3,9.2-20.5,20.5-20.5h0c11.3,0,20.5,9.2,20.5,20.5v0C161.8,227,152.6,236.1,141.3,236.1z"/>
	<path fill="#415168" d="M847.5,200.6H776c-8.3,0-15,6.7-15,15v0c0,8.3,6.7,15,15,15h71.5c8.3,0,15-6.7,15-15v0
		C862.5,207.4,855.8,200.6,847.5,200.6z"/>
	<text transform="matrix(1 0 0 1 774.4678 220.332)" fill="#FFFFFF" font-family="'MyriadPro-Regular'" font-size="16px">Search</text>
	<path fill="#FFFFFF" d="M846.5,217.9h-0.8l-0.3-0.3c1-1.1,1.6-2.6,1.6-4.2c0-3.6-2.9-6.5-6.5-6.5s-6.5,2.9-6.5,6.5
		c0,3.6,2.9,6.5,6.5,6.5c1.6,0,3.1-0.6,4.2-1.6l0.3,0.3v0.8l5,5l1.5-1.5L846.5,217.9z M840.5,217.9c-2.5,0-4.5-2-4.5-4.5
		c0-2.5,2-4.5,4.5-4.5s4.5,2,4.5,4.5C845,215.9,843,217.9,840.5,217.9z"/>
	<path fill="#FFFFFF" d="M131.3,215.6l10,10l1.8-1.8l-7-7h15.2v-2.5H136l7-7l-1.8-1.8L131.3,215.6z"/>
	<path fill="#415168" stroke="#415168" stroke-width="2" stroke-miterlimit="10" d="M198.2,195.1L198.2,195.1
		c11.3,0,20.5,9.2,20.5,20.5v0c0,11.3-9.2,20.5-20.5,20.5h0c-11.3,0-20.5-9.2-20.5-20.5v0C177.8,204.3,186.9,195.1,198.2,195.1z"/>
	<path fill="#FFFFFF" d="M208.3,215.6l-10-10l-1.8,1.8l7,7h-15.2v2.5h15.2l-7,7l1.8,1.8L208.3,215.6z"/>
	<polygon opacity="0.75" fill="#0D4654" points="202.2,785.9 215.2,808 379,808 365.4,782.4 	"/>
	<g>
		<g>
			<path fill="#242424" d="M371.6,472.8l-2,298.3c0,1.7-0.2,3.4-0.5,5c-0.2,0.8-0.4,1.6-0.6,2.4c-0.1,0.4-0.3,0.8-0.4,1.2
				c-0.8,2.3-2,4.4-3.5,6.3c-0.7,1-1.5,1.9-2.4,2.7c-0.8,0.8-1.8,1.6-2.7,2.3c-0.6,0.5-1.3,0.9-2,1.3l0,0c-0.7,0.4-1.4,0.8-2.1,1.1
				h0c-1.1,0.5-2.2,1-3.4,1.3h0c-0.8,0.2-1.6,0.4-2.4,0.6c-1.6,0.3-3.3,0.5-5,0.5l-122.3-0.8c-1.8,0-3.6-0.2-5.3-0.6
				c-0.3-0.1-0.6-0.1-0.8-0.2c-0.3-0.1-0.6-0.2-0.9-0.3c-1.3-0.4-2.5-0.9-3.7-1.5c-0.6-0.3-1.2-0.6-1.7-0.9
				c-0.3-0.2-0.5-0.3-0.8-0.5c-0.5-0.3-1.1-0.7-1.6-1.1c-1.6-1.2-3-2.6-4.3-4.1c-0.5-0.6-1-1.2-1.4-1.9c-0.7-1-1.2-2-1.8-3.1
				c-0.7-1.5-1.2-3-1.6-4.6l0,0c-0.5-2-0.8-4.1-0.7-6.2l2-298.3c0.1-13.7,11.3-24.7,25-24.6l122.3,0.8
				C360.7,447.9,371.7,459.1,371.6,472.8z"/>
			<path fill="#EBF0FF" d="M366.1,472.7l-2,298.3c0,1.3-0.1,2.6-0.4,3.9c-0.1,0.6-0.3,1.2-0.5,1.8l-0.4,1.1
				c-0.6,1.6-1.5,3.3-2.7,4.8c-0.6,0.7-1.2,1.5-1.9,2.1c-0.6,0.6-1.3,1.2-2.1,1.8c-0.4,0.3-0.8,0.6-1.3,0.9l-0.2,0.1
				c-0.4,0.3-0.9,0.5-1.3,0.7l-0.3,0.1c-0.8,0.4-1.5,0.7-2.3,0.9l-0.3,0.1c-0.6,0.2-1.2,0.3-1.8,0.5c-1.3,0.2-2.6,0.4-3.9,0.4
				l-122.3-0.8c-1.4,0-2.8-0.2-4.1-0.5c-0.5-0.1-0.9-0.2-1.3-0.3c-1-0.3-2-0.7-2.9-1.2c-0.5-0.2-0.9-0.5-1.3-0.7
				c-0.2-0.1-0.4-0.2-0.6-0.3l-0.1-0.1c-0.3-0.2-0.7-0.5-1.2-0.8c-1.2-0.9-2.3-2-3.3-3.2c-0.4-0.5-0.8-1-1.1-1.5
				c-0.5-0.8-1-1.6-1.4-2.4c-0.5-1.1-0.9-2.1-1.2-3.3l-0.1-0.3c-0.4-1.6-0.6-3.2-0.6-4.8l2-298.3c0.1-10.7,8.8-19.3,19.5-19.2
				l122.3,0.8c8.1,0.1,15.1,5.2,17.9,12.3C365.7,467.8,366.1,470.2,366.1,472.7z"/>
			<path opacity="0.2" fill="#242424" d="M369.6,688.4c0.1-1.1,0.3-2.4,0.6-3.9L370,708c-1.2-3.7-2.1-6.5-2.2-7.5
				C367.4,698.1,368.4,692.9,369.6,688.4z"/>
			<path fill="#242424" d="M371.1,548.3L371.1,548.3l0.2-35.2l0,0c2.7,0,5,2.3,4.9,5l-0.2,25.3C376.1,546.1,373.8,548.3,371.1,548.3
				z"/>
			<path fill="#242424" d="M199.1,529.5l2.6,0l0.1-17.6l-2.6,0c-1.3,0-2.4,1-2.4,2.3l-0.1,12.9C196.8,528.5,197.8,529.5,199.1,529.5
				z"/>
			<path fill="#242424" d="M199,550.8l2.6,0l0.1-17.6l-2.6,0c-1.3,0-2.4,1-2.4,2.3l-0.1,12.9C196.6,549.7,197.7,550.8,199,550.8z"/>
			<path fill="#242424" d="M303.9,460.4l-36.4-0.2c-6.1,0-11-5-11-11.2l0,0l58.5,0.4l0,0C315,455.6,310,460.5,303.9,460.4z"/>
		</g>
		<g>
			
				<rect x="229" y="488.8" transform="matrix(0.9998 1.898706e-02 -1.898706e-02 0.9998 10.0956 -5.3249)" fill-rule="evenodd" clip-rule="evenodd" fill="#FFFFFF" width="112.9" height="80.4"/>
			<polygon fill-rule="evenodd" clip-rule="evenodd" fill="#8056E8" points="293.7,534.9 278.9,525.5 278.6,543.8 			"/>
		</g>
		<g>
			<g>
				<g>
					<g>
						
							<rect x="246.6" y="573.2" transform="matrix(8.553114e-03 -1 1 8.553114e-03 -345.392 908.5632)" fill="#FFFFFF" width="77.9" height="110.5"/>
						
							<rect x="277.2" y="542.8" transform="matrix(8.552732e-03 -1 1 8.552732e-03 -314.7251 878.6736)" fill="#F7734C" width="17" height="110.5"/>
						
							<rect x="274.8" y="621.6" transform="matrix(1 8.554031e-03 -8.554031e-03 1 5.3435 -2.5564)" fill="#6E8FEF" width="53.5" height="3.5"/>
						
							<rect x="274.7" y="628.8" transform="matrix(1 8.554031e-03 -8.554031e-03 1 5.4044 -2.5556)" fill="#6E8FEF" width="53.5" height="3.5"/>
						
							<rect x="274.6" y="635.8" transform="matrix(1 8.551581e-03 -8.551581e-03 1 5.463 -2.5052)" fill="#6E8FEF" width="42.1" height="3.4"/>
						
							<rect x="274.6" y="642.9" transform="matrix(1 8.552627e-03 -8.552627e-03 1 5.5241 -2.447)" fill="#6E8FEF" width="28.6" height="3.5"/>
					</g>
				</g>
				
					<rect x="239" y="621.1" transform="matrix(1 8.550264e-03 -8.550264e-03 1 5.4289 -2.146)" fill="#F7734C" width="29.5" height="25.5"/>
			</g>
			<g>
				<path fill="#FFFFFF" d="M241.9,598c0,0.9-0.8,1.7-1.7,1.7c-0.9,0-1.7-0.8-1.7-1.7c0-0.9,0.8-1.7,1.7-1.7
					C241.2,596.3,241.9,597.1,241.9,598z"/>
				<path fill="#FFFFFF" d="M248.3,598.1c0,0.9-0.8,1.7-1.7,1.7c-0.9,0-1.7-0.8-1.7-1.7c0-0.9,0.8-1.7,1.7-1.7
					C247.5,596.4,248.3,597.2,248.3,598.1z"/>
				<path fill="#FFFFFF" d="M254.6,598.1c0,0.9-0.8,1.7-1.7,1.7c-0.9,0-1.7-0.8-1.7-1.7c0-0.9,0.8-1.7,1.7-1.7
					C253.9,596.5,254.6,597.2,254.6,598.1z"/>
			</g>
		</g>
		<g>
			<g>
				<g>
					
						<linearGradient id="SVGID_3_" gradientUnits="userSpaceOnUse" x1="248.1" y1="748.173" x2="108.1776" y2="907.7722" gradientTransform="matrix(1 7.927749e-03 -7.927749e-03 1 30.7271 -12.3486)">
						<stop  offset="0" style="stop-color:#FFFFFF"/>
						<stop  offset="1" style="stop-color:#E5B7B3"/>
					</linearGradient>
					<path fill="url(#SVGID_3_)" d="M338.7,687.7l-0.6,77.6c0,0,0,0,0,0L228,764.4l0.6-77.6c0,0,0,0,0,0L338.7,687.7
						C338.7,687.7,338.7,687.7,338.7,687.7z"/>
					
						<rect x="275.1" y="640.7" transform="matrix(7.893492e-03 -1 1 7.893492e-03 -414.3793 973.8029)" fill="#1A5DEF" width="17" height="110.2"/>
					
						<ellipse transform="matrix(4.894603e-02 -0.9988 0.9988 4.894603e-02 -493.0205 946.2595)" fill="#FF597F" cx="250.4" cy="732" rx="14.5" ry="14.5"/>
					
						<rect x="272.6" y="719.2" transform="matrix(1 7.893392e-03 -7.893392e-03 1 5.7002 -2.34)" fill="#8056E8" width="53.3" height="3.5"/>
					
						<rect x="272.6" y="726.3" transform="matrix(1 7.893423e-03 -7.893423e-03 1 5.7563 -2.3394)" fill="#8056E8" width="53.3" height="3.5"/>
					
						<rect x="272.5" y="733.4" transform="matrix(1 7.893392e-03 -7.893392e-03 1 5.8123 -2.3387)" fill="#8056E8" width="53.3" height="3.5"/>
					
						<rect x="272.5" y="740.5" transform="matrix(1 7.893392e-03 -7.893392e-03 1 5.8684 -2.3381)" fill="#8056E8" width="53.3" height="3.5"/>
				</g>
				<path fill="#FFFFFF" d="M251.7,729.1c0.6-0.5,1-1.2,1-1.9c0-1.4-1.1-2.6-2.6-2.6c-1.4,0-2.6,1.1-2.6,2.6c0,0.8,0.4,1.6,1,2
					c-1.4,0.6-2.4,2-2.5,3.7l0,3.5l8.2,0.1l0-3.5C254.3,731.1,253.2,729.7,251.7,729.1z"/>
			</g>
			<g>
				<path fill="#FFFFFF" d="M239.7,695.7c0,0.8-0.7,1.5-1.5,1.4c-0.8,0-1.5-0.7-1.4-1.5c0-0.8,0.7-1.5,1.5-1.4
					C239,694.2,239.7,694.9,239.7,695.7z"/>
				<path fill="#FFFFFF" d="M245.2,695.7c0,0.8-0.7,1.5-1.5,1.4c-0.8,0-1.5-0.7-1.4-1.5c0-0.8,0.7-1.5,1.5-1.4
					C244.6,694.3,245.2,694.9,245.2,695.7z"/>
				<path fill="#FFFFFF" d="M250.8,695.8c0,0.8-0.7,1.5-1.5,1.4c-0.8,0-1.5-0.7-1.4-1.5c0-0.8,0.7-1.5,1.5-1.4
					C250.1,694.3,250.8,695,250.8,695.8z"/>
			</g>
			
				<rect x="277.4" y="440.5" transform="matrix(1.714755e-02 -0.9999 0.9999 1.714755e-02 -216.1591 774.4647)" fill="#1A5DEF" width="17" height="113.4"/>
			<g>
				<path fill="#FFFFFF" d="M240.3,497.1c0,0.8-0.7,1.5-1.5,1.4c-0.8,0-1.5-0.7-1.4-1.5c0-0.8,0.7-1.5,1.5-1.4
					C239.7,495.6,240.4,496.3,240.3,497.1z"/>
				<path fill="#FFFFFF" d="M245.9,497.2c0,0.8-0.7,1.5-1.5,1.4c-0.8,0-1.5-0.7-1.4-1.5c0-0.8,0.7-1.5,1.5-1.4
					C245.3,495.7,245.9,496.3,245.9,497.2z"/>
				<path fill="#FFFFFF" d="M251.4,497.2c0,0.8-0.7,1.5-1.5,1.4c-0.8,0-1.5-0.7-1.4-1.5c0-0.8,0.7-1.5,1.5-1.4
					C250.8,495.7,251.5,496.4,251.4,497.2z"/>
			</g>
		</g>
	</g>
	<text transform="matrix(1 0 0 1 338.6382 424.4043)" fill="#878787" font-family="'Roboto-Bold'" font-size="36px">Jugadu.in</text>
	<g>
		<defs>
			<rect id="SVGID_4_" x="717" y="383" width="59" height="59"/>
		</defs>
		<clipPath id="SVGID_5_">
			<use xlink:href="#SVGID_4_"  overflow="visible"/>
		</clipPath>
		<g clip-path="url(#SVGID_5_)">
			<circle vector-effect="non-scaling-stroke" fill="#FFBF00" cx="746.5" cy="412.5" r="29.5"/>
			<path fill="#FF9D00" d="M737.6,440.6c-11.9-3.7-20.5-14.7-20.6-27.8l20.7-28.5c2.8-0.9,5.8-1.4,8.8-1.4c3.1,0,6.1,0.5,8.9,1.4
				l20.2,32.8c-0.9,5.4-3.2,10.4-6.6,14.4L737.6,440.6z"/>
			<circle vector-effect="non-scaling-stroke" fill="#FFFFFF" cx="746.5" cy="412.5" r="25.8"/>
			<g>
				<g>
					<ellipse vector-effect="non-scaling-stroke" fill="#030301" cx="746" cy="430.5" rx="5.3" ry="3.9"/>
					<path fill="#030301" d="M752.9,433.1c0,0,0-1,0-2.2l0-2.1l0.5,0l0.5,0v2.2v2.2h-0.4C753.1,433.2,752.9,433.2,752.9,433.1z"/>
					<path fill="#030301" d="M755.1,431v-2.2h0.4h0.4v0.3v0.3l0.3-0.2c0.6-0.4,1.6-0.5,2.3-0.2c0.7,0.3,0.8,0.6,0.8,2.7l0,1.5H759
						h-0.4l0-1.6c0-1.4,0-1.6-0.2-1.8c-0.4-0.5-1.6-0.5-2,0.1l-0.2,0.2l0,1.5l0,1.5l-0.5,0l-0.5,0V431z"/>
					<path fill="#030301" d="M752.9,427.6l0-0.4h0.4h0.4l0,0.4l0,0.4h-0.5h-0.5L752.9,427.6z"/>
					<path fill="#030301" d="M739.1,426c-0.1,0-0.1-0.1-0.1-0.2c0-0.7,1.5-1.3,3.7-1.6c1.3-0.2,4-0.3,5.1-0.2
						c2.2,0.2,3.4,0.4,4.3,0.8c0.5,0.2,0.8,0.4,1,0.8l0.1,0.3l-0.1,0.1c-0.1,0.1-0.2,0.1-0.7,0.1c-0.5,0-0.5,0-0.7-0.2
						c-0.3-0.2-0.8-0.4-2-0.5c-2.5-0.3-6.5-0.2-8.4,0.2c-0.5,0.1-0.7,0.2-0.9,0.4c-0.1,0.1-0.2,0.1-0.7,0.1
						C739.5,426.1,739.2,426.1,739.1,426z"/>
					<path fill="#030301" d="M739.2,424.3c-0.4-0.1,0-0.8,0.6-1.1c1.2-0.6,3.5-1,6.2-1c1.3,0,2.7,0.1,3.5,0.2
						c0.8,0.1,1.1,0.2,1.5,0.3c1.3,0.3,2,0.7,2.1,1.3c0,0.1,0,0.2-0.1,0.2c-0.1,0.1-0.3,0.1-0.7,0.1c-0.5,0-0.5,0-0.7-0.2
						c-0.2-0.2-0.4-0.2-1.1-0.4c-1.6-0.3-4-0.4-6.3-0.3c-1.1,0.1-1.7,0.1-2.5,0.3c-0.7,0.1-1,0.2-1.2,0.4c-0.1,0.1-0.2,0.1-0.7,0.2
						C739.5,424.3,739.3,424.3,739.2,424.3z"/>
					<path fill="#030301" d="M739.1,422.4c-0.2-0.2,0-0.5,0.3-0.8c0.8-0.7,2.7-1.1,5.5-1.2c1.8-0.1,4,0,5.4,0.3
						c1.7,0.3,2.6,0.8,2.8,1.3c0.1,0.2,0.1,0.2,0,0.3c-0.1,0.1-0.2,0.1-0.7,0.1c-0.6,0-0.6,0-0.7-0.1c-0.3-0.2-0.6-0.3-1.6-0.5
						c-2.1-0.3-5.9-0.3-7.9,0c-1,0.2-1.5,0.3-1.7,0.5c-0.1,0.1-0.2,0.1-0.7,0.1C739.4,422.5,739.1,422.5,739.1,422.4z"/>
					<path fill="#030301" d="M739.1,420.5c-0.1-0.1-0.1-0.3,0-0.5c0.3-0.6,1.9-1.2,4-1.4c0.5-0.1,0.5,0,0.5-1.1c0-0.6,0-1.8-0.1-2.9
						c-0.2-6-0.5-7.6-1.7-9c-0.2-0.2-0.2-0.2-0.4-0.2c-0.3,0.1-0.4-0.1-0.5-0.5l-0.1-0.3l-0.2,0.3c-0.3,0.4-0.5,0.6-0.8,0.7
						c-0.4,0.1-0.5-0.1-0.6-0.8c0-0.2-0.1-0.4-0.1-0.4c0,0-0.1,0.1-0.2,0.3c-0.1,0.3-0.2,0.3-0.3,0.2c0,0,0-0.1,0.1-0.3
						c0.1-0.2,0.2-0.4,0.2-0.5c0.1-0.2,0.1-0.3,0.3-0.4c0.1-0.1,0.2-0.1,0.2-0.1c0,0,0.1,0.4,0.2,0.8c0.1,0.4,0.2,0.8,0.2,0.8
						c0.2,0.1,0.4-0.1,0.7-0.6c0.2-0.3,0.2-0.4,0.2-0.6c-0.1-0.4-0.1-0.4,0.2-0.5c0.1-0.1,0.2-0.1,0.2-0.1c0,0,0.1,0.3,0.1,0.7
						c0.1,0.8,0.1,0.8,0.3,0.9c0.1,0.1,0.1,0.1,0.3-0.1c0.1-0.1,0.3-0.4,0.6-0.7c0.7-0.9,1.1-1.1,1.7-1c0.3,0.1,0.3,0.1,0.5-0.1
						c0.1-0.1,0.2-0.1,0.2-0.1c0,0,0.1,0.4,0.1,0.9c0.1,0.4,0.1,0.8,0.2,0.8c0,0,0.1,0,0.2-0.1c0.2-0.1,0.3-0.2,0.7-0.9
						c0.2-0.3,0.5-0.6,0.9-0.8c0.2-0.1,0.3-0.2,0.7-0.2c0.3,0,0.5,0,0.5-0.1c0.2-0.1,0.2-0.1,0.3,0.5c0.2,1.1,0.2,1.1,0.3,1.1
						c0.2,0,0.4-0.2,0.7-0.7c0.4-0.5,0.8-0.9,1.1-1.1c0.3-0.1,0.7-0.2,1,0l0.2,0.1v-0.2c0-0.4-0.4-1-0.8-1.2
						c-0.4-0.2-0.8-0.3-1.2-0.1c-0.1,0-0.1,0-0.1-0.1c0-0.3,0.3-0.5,0.8-0.4c0.6,0.1,1.1,0.4,1.4,1.1c0.2,0.3,0.2,0.4,0.2,0.9
						c0,0.3,0,0.6,0,0.7c0,0.2-0.3,0.5-0.5,0.8c-0.1,0.1-0.1,0.2-0.1,0.2c0.1,0.1,0.5-0.2,0.7-0.4c0.3-0.2,0.6-0.7,0.7-1.2
						c0.1-0.3,0.1-0.4,0.3-0.5l0.2-0.1l0,0.1c0,0.1,0.1,0.4,0.1,0.8c0.1,0.4,0.1,0.7,0.1,0.7c0.1,0.2,0.5-0.1,0.8-0.6
						c0.2-0.3,0.2-0.3,0.1-0.5c-0.1-0.4-0.1-0.4,0.2-0.6l0.2-0.1l0,0.2c0.1,0.8,0.2,1.3,0.3,1.4c0.1,0.1,0.3,0,0.5-0.3
						c0.2-0.2,0.3-0.3,0.4-0.2c0,0.1-0.5,0.6-0.7,0.7c-0.2,0.1-0.6,0.1-0.7,0c0,0-0.1-0.2-0.1-0.4l-0.1-0.3l-0.3,0.4
						c-0.3,0.4-0.5,0.6-0.8,0.6c-0.3,0-0.4-0.1-0.5-0.7c0-0.3-0.1-0.5-0.1-0.5c0,0-0.1,0.1-0.2,0.4c-0.1,0.2-0.3,0.5-0.5,0.6
						c-0.3,0.2-0.8,0.5-0.9,0.4c-0.1,0-0.2,0.1-0.5,0.5c-1.2,1.8-1.6,3.3-1.8,6c-0.1,1.1,0,4,0.1,6c0,0.9,0.1,1.4,0,1.5
						c0,0,0.1,0.1,0.5,0.2c1.9,0.3,3,0.8,3.3,1.4c0.1,0.2,0.1,0.2,0,0.3c-0.1,0.1-0.2,0.1-0.7,0.1c-0.6,0-0.6,0-0.7-0.2
						c-0.4-0.4-2.5-0.7-5.6-0.7c-3,0-5.2,0.3-5.6,0.7c-0.2,0.2-0.2,0.2-0.7,0.2C739.5,420.6,739.2,420.6,739.1,420.5z M749,418.6
						c0-0.1,0-0.8-0.1-1.6c-0.1-2.1-0.1-5.8,0-6.9c0.2-2,0.7-3.5,1.6-4.9c0.2-0.3,0.4-0.6,0.4-0.6c0,0,0-0.1-0.3-0.1
						c-0.2,0-0.4,0-0.5-0.1c-0.2-0.1-0.4-0.3-0.4-0.5c0,0,0-0.1,0-0.2c0-0.1-0.1,0-0.3,0.3c-0.5,0.6-1.2,0.9-1.3,0.4
						c0-0.1,0-0.2,0-0.2c0,0-0.1,0.1-0.3,0.2c-0.6,0.5-1.4,0.4-1.6-0.3c0-0.1-0.1-0.2-0.1-0.2s-0.1,0.1-0.2,0.3
						c-0.2,0.2-0.5,0.6-0.7,0.7c-0.1,0.1-0.1,0.1,0,0.8c0.1,0.8,0.1,1-0.2,1.4c-0.4,0.5-1.4,0.6-1.9,0.3c-0.2-0.1-0.2-0.1-0.1,0
						c0,0.1,0.1,0.3,0.1,0.5c0.3,1.5,0.5,4,0.6,8.3l0,2.2l0.5,0c0.7-0.1,3.1,0,3.8,0C749,418.7,749,418.7,749,418.6z M744.6,407.6
						c0.4-0.2,0.5-0.5,0.3-1.9c-0.1-0.5-0.1-0.8-0.1-0.9c0,0-0.1,0.1-0.2,0.2c-0.3,0.3-0.4,0.3-0.7,0.4c-0.5,0.1-1-0.2-1.1-0.6
						c0-0.1,0-0.2-0.1-0.2c0,0-0.1,0.1-0.2,0.2c-0.1,0.1-0.2,0.3-0.3,0.4l-0.2,0.2l0.2,0.2c0.3,0.4,0.6,0.8,0.8,1.3l0.2,0.4l0.2-0.2
						c0.2-0.2,0.2-0.2,0.2-0.1c0,0.1,0.2,0.4,0.4,0.5C744.1,407.7,744.3,407.7,744.6,407.6z M744.2,404.9c0.1-0.1,0.3-0.2,0.3-0.3
						c0.1-0.1,0.1-0.2,0-0.5c-0.1-0.4-0.1-0.4-0.2-0.5c-0.2-0.1-0.6-0.1-0.9,0c-0.5,0.3-0.5,1.1,0,1.3
						C743.7,405.1,743.9,405.1,744.2,404.9z M747.9,404.5c0.2-0.2,0.2-0.3,0.2-0.7c-0.1-0.5-0.1-0.5-0.6-0.5c-0.3,0-0.5,0.2-0.6,0.5
						c-0.1,0.3,0.1,0.7,0.3,0.9C747.4,404.7,747.7,404.6,747.9,404.5z M751.2,404.3c0.1,0,0.2-0.2,0.4-0.4c0.2-0.3,0.3-0.4,0.2-0.6
						c-0.1-0.6-0.8-0.7-1.3-0.2c-0.5,0.5-0.3,1.2,0.4,1.2C751,404.3,751.1,404.3,751.2,404.3z"/>
					<path fill="#030301" d="M735.3,408.6c-0.6-0.2-1-0.6-1-1.1c0-0.4,0.3-0.8,0.7-0.9c0.4-0.1,1,0,1.2,0.3c0.2,0.3,0.1,0.8-0.3,0.9
						c-0.2,0.1-0.4,0.1-0.4,0.1c0,0,0.1-0.1,0.2-0.2c0.2-0.2,0.2-0.3,0.1-0.5c-0.1-0.2-0.3-0.3-0.6-0.3c-0.5,0-0.8,0.3-0.8,0.7
						c0,0.3,0.2,0.5,0.5,0.7c0.2,0.1,0.3,0.1,0.8,0.1c0.6,0,0.8-0.1,1.2-0.4c0.6-0.6,0.6-1.4,0.1-2.8l-0.2-0.6l-0.5,0
						c-0.4,0-0.6-0.1-0.8-0.1c-0.6-0.3-0.9-0.8-0.8-1.5c0.1-1.1,1.4-2.2,2.8-2.5c0.4-0.1,0.5,0,0.2,0.2c-0.8,0.6-0.9,1.7-0.4,3.2
						c0.1,0.2,0.2,0.4,0.2,0.4c0.1,0,0.4-0.2,0.5-0.4c0.2-0.4,0.1-0.9-0.2-1.1c-0.1-0.1-0.2-0.1-0.4-0.1c-0.2,0-0.2,0-0.1-0.1
						c0.2-0.1,0.5-0.1,0.8,0c0.3,0.2,0.5,0.4,0.5,0.7c0,0.5-0.3,0.9-0.8,1.1c-0.1,0.1-0.2,0.1-0.2,0.1c0,0,0.1,0.2,0.2,0.4
						c0.5,1,0.5,2.1,0.2,2.7c-0.2,0.4-0.7,0.9-1.2,1C736.2,408.6,735.6,408.6,735.3,408.6z M736.7,404.3c-0.1-0.3-0.3-1.1-0.3-1.4
						c-0.1-0.7,0.2-1.5,0.6-2c0.1-0.1,0.2-0.2,0.2-0.3c0,0-0.2,0-0.3,0.1c-0.7,0.3-1.3,0.9-1.6,1.5c-0.1,0.2-0.1,0.4-0.1,0.7
						c0,0.7,0.3,1.2,0.9,1.4c0.1,0,0.3,0.1,0.4,0.1C736.7,404.4,736.7,404.3,736.7,404.3z"/>
				</g>
				<g>
					<path fill="#FFFF01" d="M739.8,419.5c0,0,0-0.6-0.1-0.9c0-0.2-0.1-0.3-0.1-0.5c0-0.1-0.1-0.2-0.1-0.4c-0.1-0.3-0.3-0.6-0.5-0.9
						c-0.1-0.1-0.1-0.2-0.2-0.3c-0.3-0.4-0.7-0.7-1.2-1c-0.1-0.1-0.3-0.2-0.4-0.3s-0.2-0.2-0.4-0.3c-0.1-0.1-0.3-0.2-0.4-0.2
						c-0.1-0.1-0.2-0.1-0.3-0.2c-0.3-0.1-2.2-1.7-3.1-2.9c-0.1-0.1-0.1-0.2-0.2-0.3c-0.1-0.1-0.1-0.2-0.2-0.3
						c-0.1-0.1-0.2-0.2-0.2-0.3c-0.1-0.2-0.2-0.3-0.3-0.4c-0.1-0.2-0.2-0.3-0.3-0.5c-0.1-0.1-0.1-0.2-0.2-0.3
						c-0.2-0.4-0.4-0.7-0.5-1.1c0-0.1-0.1-0.1-0.1-0.2c0-0.1-0.1-0.2-0.1-0.3c-0.1-0.3-0.1-0.5-0.2-0.8c0-0.2-0.1-0.4-0.1-0.6
						c0-0.2-0.1-0.4-0.1-0.6c-0.1-0.6-0.1-1.2-0.1-1.9c0-0.6,0-1.2,0.1-1.8c0-0.2,0.1-0.3,0.1-0.5c0-0.2,0.1-0.3,0.1-0.5
						c0-0.1,0.1-0.2,0.1-0.4c0-0.1,0.1-0.3,0.1-0.4c0-0.1,0.1-0.2,0.1-0.3c0.1-0.2,0.1-0.3,0.2-0.4c0.1-0.2,0.1-0.3,0.2-0.5
						c0.1-0.3,0.3-0.5,0.4-0.8c0.1-0.2,0.2-0.3,0.3-0.4c0.1-0.2,0.2-0.3,0.3-0.4c0.1-0.1,0.1-0.2,0.2-0.3c0.1-0.1,0.2-0.3,0.3-0.4
						c0.1-0.1,0.2-0.3,0.3-0.4c0.8-0.9,1.5-1.6,2.5-2.3c0.2-0.1,0.3-0.2,0.5-0.3c0.2-0.1,0.4-0.3,0.6-0.4c0.2-0.1,0.4-0.2,0.6-0.4
						c0.2-0.2,0.6-0.3,0.7-0.4c0.1-0.1,0.5-0.3,0.9-0.4c0.3-0.2,0.5-0.2,0.8-0.3c0.2-0.1,0.3-0.1,0.5-0.2c0.2-0.1,0.4-0.1,0.5-0.2
						c0.3-0.1,0.5-0.2,0.8-0.2c0.3-0.1,0.5-0.2,0.8-0.3c0.3-0.1,0.7-0.1,0.8-0.2c0.1,0,1.9-0.3,3-0.3c0.5,0,1,0.1,1.5,0.1
						c0.5,0.1,1,0.1,1.5,0.2c0.6,0.1,1.1,0.2,1.7,0.4c0.3,0.1,0.5,0.2,0.8,0.3c0.8,0.3,1.6,0.6,2.3,1c0.3,0.2,0.6,0.3,0.8,0.5
						c0.2,0.1,0.4,0.2,0.6,0.4c0.4,0.3,0.8,0.5,1.2,0.9c0.9,0.7,1.7,1.4,2.5,2.3c0.1,0.1,0.2,0.2,0.3,0.4c0.2,0.2,0.4,0.4,0.5,0.7
						c0.2,0.2,0.3,0.4,0.4,0.6c0.1,0.2,0.2,0.3,0.3,0.5c0.1,0.2,0.2,0.4,0.3,0.6c0.1,0.1,0.1,0.2,0.2,0.4c0.1,0.3,0.2,0.6,0.3,0.9
						c0.2,0.6,0.3,1.1,0.4,1.8c0.1,0.7,0.1,1.3,0.1,2c0,0.7,0,1.3-0.1,2c0,0.2-0.1,0.3-0.1,0.5c0,0.1,0,0.3-0.1,0.4
						c0,0.1-0.1,0.3-0.1,0.4c0,0.1-0.1,0.3-0.1,0.4c0,0.1-0.1,0.2-0.1,0.2c-0.1,0.2-0.2,0.4-0.2,0.6c-0.1,0.2-0.1,0.3-0.2,0.5
						c-0.2,0.4-0.3,0.7-0.6,1.1c-0.1,0.1-0.1,0.2-0.2,0.3c-0.1,0.1-0.1,0.2-0.2,0.3c0,0.1-0.1,0.2-0.2,0.3c-0.1,0.1-0.1,0.2-0.2,0.3
						c-0.1,0.1-0.1,0.2-0.2,0.3c-0.9,1.2-1.9,2-3.1,2.9c-0.2,0.1-0.3,0.2-0.4,0.3c-0.1,0.1-0.3,0.2-0.4,0.3
						c-0.2,0.1-0.3,0.2-0.5,0.3c-0.1,0.1-0.3,0.2-0.4,0.3c-0.3,0.3-0.6,0.5-0.9,0.8c-0.1,0.1-0.1,0.2-0.2,0.3
						c-0.2,0.3-0.4,0.7-0.5,1.1c0,0.2-0.1,0.3-0.1,0.5c0,0.1-0.1,0.2-0.1,0.3c-0.1,0.4-0.1,1.1-0.2,1.2c-0.1-0.2-0.7-0.5-1.2-0.6
						c-0.4-0.1-0.8-0.2-0.9-0.2c-0.1,0-1.1-0.2-1.2-0.2c-0.1,0-0.4-0.1-0.3-0.1c0-0.2,0-0.7,0-1.9c-0.1-1.6-0.1-2.1-0.1-3.6
						c0-2.3,0.1-3.2,0.4-4.6c0.3-1.1,0.7-2.2,1.2-3c0.1-0.1,0.2-0.2,0.2-0.3c0,0,0.2-0.3,0.3-0.5c0.2-0.2,0.2-0.3,0.3-0.3
						c0.3,0,0.5-0.2,0.8-0.3c0.3-0.2,0.4-0.5,0.6-0.8c0-0.1,0.1-0.2,0.2-0.3l0,0.1c0,0.1,0.1,0.4,0.1,0.5c0.1,0.3,0.1,0.4,0.2,0.5
						c0,0,0,0,0,0c0.3,0.1,0.7,0,1-0.6c0.2-0.3,0.3-0.5,0.3-0.3c0.1,0.2,0.1,0.7,0.3,0.7c0.4,0.1,0.7-0.1,1.2-0.7
						c0.1-0.1,0-0.1,0-0.2c-0.1,0-0.1,0-0.4,0.3c-0.2,0.3-0.4,0.3-0.5,0.2c0,0-0.1-0.3-0.2-0.7c-0.2-1-0.1-0.9-0.3-0.8
						c-0.3,0.1-0.3,0.2-0.2,0.5c0,0.2,0.1,0.3,0,0.4c-0.2,0.3-0.5,0.7-0.7,0.9c-0.1,0-0.2,0-0.2-0.3c0,0,0-0.2-0.1-0.3
						c0-0.2-0.1-0.4-0.1-0.5c0-0.1,0-0.2-0.1-0.3c0-0.1,0-0.3-0.1-0.3c0-0.1,0-0.1-0.1,0c-0.1,0-0.1,0.1-0.2,0.1
						c-0.1,0.1-0.1,0.1-0.2,0.2c-0.2,0.6-0.4,0.9-0.7,1.3c-0.2,0.2-0.6,0.4-0.8,0.4c0,0,0,0,0.2-0.3c0.4-0.5,0.4-0.7,0.5-0.7
						c0.1-0.1,0.1-1,0-1.3c-0.1-0.5-0.5-1.1-1-1.3c-0.3-0.1-0.4-0.2-0.7-0.1c-0.3,0-0.5,0.1-0.5,0.2c-0.1,0.1-0.1,0.3-0.1,0.3
						c0,0,0,0,0.2,0c0.2-0.1,0.6-0.2,1,0c0.4,0.2,0.8,0.6,0.9,1.1c0,0.2,0.1,0.5,0,0.4c-0.3-0.2-0.6-0.2-0.8-0.1
						c-0.5,0.1-0.9,0.5-1.4,1.1c-0.3,0.4-0.6,0.8-0.8,0.8c-0.1,0-0.1-0.1-0.2-0.8c-0.1-0.4-0.1-0.8-0.2-0.8c0,0,0,0-0.1,0.1
						c-0.2,0.1-0.4,0.1-0.5,0.1c-0.3,0-0.4,0-0.6,0.1c-0.5,0.3-0.8,0.6-1.2,1.2c-0.2,0.3-0.3,0.5-0.6,0.6c-0.1,0-0.1,0.1-0.2,0.1
						c-0.1-0.3-0.1-0.6-0.1-0.7c0-0.3-0.1-0.7-0.1-0.8c0-0.2,0-0.1,0-0.2c0,0-0.1,0-0.2,0.1c-0.2,0.1-0.2,0.1-0.4,0.1
						c-0.2,0-0.2,0-0.3-0.1c-0.6,0-0.9,0.3-1.6,1.2c-0.3,0.4-0.4,0.5-0.5,0.6c0,0-0.1,0-0.2,0c-0.1-0.1-0.1-0.1-0.3-0.9
						c-0.1-0.3-0.1-0.6-0.1-0.7c0,0-0.1,0-0.2,0.1c-0.2,0.1-0.2,0.1-0.2,0.2c0,0.1,0,0.2,0,0.3c0,0.2,0,0.2-0.1,0.3
						c0,0.1-0.1,0.1-0.1,0.2c-0.1,0.1-0.1,0.2-0.3,0.4c-0.2,0.3-0.4,0.3-0.4,0.3c0,0-0.1-0.1-0.1-0.1c0,0-0.1-0.4-0.2-0.8
						c-0.1-0.6-0.1-0.7-0.1-0.7c0,0-0.1,0-0.1,0c-0.1,0-0.1,0-0.2,0.1c-0.2,0.1-0.2,0.2-0.2,0.4c0,0.2-0.1,0.4-0.2,0.5
						c-0.1,0.1-0.1,0.2-0.1,0.2c0,0.1,0,0.1,0.1,0.1c0.1,0,0.2-0.3,0.3-0.6c0-0.1,0.1,0.2,0.1,0.5c0.1,0.4,0.2,0.5,0.3,0.6
						c0.1,0,0.1,0,0.2,0c0.3,0,0.5-0.2,0.8-0.6c0.1-0.2,0.2-0.4,0.3-0.4c0,0,0.1,0.2,0.1,0.3c0,0.1,0,0.1,0,0.2
						c0.1,0.2,0.1,0.3,0.4,0.3c0,0,0.1,0,0.2,0c0.1,0,0.2,0.1,0.3,0.3c0.7,0.8,1.1,1.7,1.4,3.9c0,0.2,0,0.4,0.1,0.5
						c0.1,1,0.2,3.2,0.3,6.4c0,1,0,1.5,0,1.7c0,0.2-0.1,0.2-0.2,0.2c0,0-0.8,0.1-1.5,0.2c-0.4,0.1-0.7,0.2-0.8,0.2
						C740.8,419.1,740.5,419.2,739.8,419.5z M736.4,408.5c0.3-0.1,0.5-0.1,1-0.6c0.3-0.3,0.5-0.7,0.6-1.2c0.1-0.5,0-1.2-0.3-1.9
						c-0.2-0.5-0.3-0.6-0.2-0.6c0.4-0.2,0.7-0.4,0.9-0.8c0.2-0.5,0.1-0.9-0.2-1.1c-0.2-0.2-0.5-0.3-0.9-0.1c-0.1,0.1-0.2,0.1,0,0.1
						c0.3,0,0.5,0.1,0.6,0.3c0.3,0.3,0.3,1-0.2,1.4c-0.1,0.1-0.2,0.1-0.3,0.1c-0.1,0-0.3-0.5-0.4-0.9c-0.2-0.6-0.2-0.9-0.2-1.3
						c0-0.6,0.1-0.9,0.7-1.3c0.2-0.1,0.2-0.2,0.2-0.2c-0.1-0.1-0.7,0.1-1,0.2c-0.7,0.3-1.1,0.6-1.3,0.9c-0.6,0.6-0.7,1.2-0.7,1.5
						c0,0.7,0.4,1.1,0.7,1.3c0.2,0.1,0.6,0.2,0.8,0.2c0,0,0.3,0,0.4,0c0.3,0,0.2-0.1,0.4,0.5c0.1,0.1,0.2,0.6,0.3,1
						c0.1,0.3,0.1,0.8,0.1,1.1c-0.2,0.9-0.7,1.4-2.1,1.3c-0.2,0-0.3-0.1-0.3-0.1c-0.1,0-0.1,0-0.1-0.1c-0.1-0.1-0.1-0.1-0.2-0.2
						c-0.1-0.1-0.1-0.2-0.1-0.5c0-0.3,0-0.3,0.2-0.5c0.2-0.2,0.6-0.3,0.9-0.2c0.1,0,0.3,0.1,0.3,0.4c0,0.2-0.2,0.4-0.3,0.4
						c-0.2,0.2,0.1,0.1,0.1,0.1c0.3,0,0.5-0.2,0.6-0.5c0.1-0.5-0.6-1-1.2-0.8c-0.8,0.2-1.1,0.8-0.8,1.3c0.1,0.3,0.6,0.6,0.6,0.6
						c0.3,0.1,0.4,0.1,0.7,0.2C735.9,408.6,736.3,408.5,736.4,408.5z"/>
					<path fill="#FFFF01" d="M736,404.3c-0.5-0.2-0.7-0.4-0.8-1c-0.1-0.3,0-0.8,0.1-1.1c0,0,0-0.1,0.1-0.1c0.3-0.6,0.8-1.1,1.3-1.3
						c0.3-0.1,0.5-0.2,0.5-0.2c0,0-0.1,0.1-0.2,0.3c-0.2,0.2-0.4,0.5-0.5,1c0,0.1-0.1,0.4-0.1,0.7c0,0.4,0,0.6,0.1,1
						c0,0.3,0.2,0.6,0.2,0.7c0.1,0.2,0,0.2-0.2,0.2C736.3,404.4,736.1,404.3,736,404.3z"/>
					<path fill="#FFFF01" d="M748.3,418.6c-0.9-0.1-2.4-0.1-4.1,0c-0.1,0-0.2,0-0.3,0l0-0.1l0-1.3c0-1.3,0-1.5-0.1-3.6
						c0-1.3-0.1-1.7-0.2-3.1c-0.1-1-0.4-2.6-0.4-2.8c-0.1-0.1,0-0.1,0.1-0.1c0.4,0.2,0.9,0.3,1.5,0.1c0.4-0.2,0.6-0.4,0.7-0.7
						c0.1-0.3,0-0.5,0-0.9c0-0.1,0-0.3-0.1-0.4c0-0.2,0-0.3,0-0.4c0-0.1,0-0.1,0.1-0.2c0.3-0.2,0.4-0.3,0.6-0.6
						c0.1-0.2,0.2-0.3,0.2-0.3c0,0,0,0.1,0.1,0.2c0.2,0.7,1,0.8,1.6,0.3c0.1-0.1,0.2-0.2,0.3-0.2c0,0,0,0.1,0,0.2
						c0.1,0.3,0.3,0.3,0.6,0.2c0.3-0.1,0.5-0.3,0.7-0.6c0.1-0.1,0.1-0.2,0.2-0.2c0,0,0.1,0.1,0.1,0.2c0,0.1,0.1,0.2,0.2,0.2
						c0.2,0.2,0.3,0.2,0.5,0.2c0.1,0,0.4,0,0.4,0c0,0,0.1-0.1-0.2,0.3c-0.1,0.2-0.2,0.4-0.3,0.4c0,0.1-0.1,0.3-0.2,0.4
						c-0.1,0.1-0.2,0.3-0.3,0.5c-0.1,0.2-0.2,0.6-0.3,0.7c-0.2,0.5-0.6,2.1-0.7,2.8c0,0.2-0.1,0.5-0.1,0.7c0,0.2-0.1,1.4-0.1,2.6
						c0,2,0,2.7,0.1,4.3c0.1,1,0.1,1.2,0,1.1c-0.1,0-0.2,0-0.2,0C748.8,418.6,748.5,418.6,748.3,418.6z"/>
					<path fill="#FFFF01" d="M744,407.7c-0.3-0.1-0.5-0.3-0.6-0.5c0-0.1-0.1-0.1-0.2,0.1l-0.2,0.2l-0.1-0.2
						c-0.1-0.1-0.1-0.3-0.2-0.3c0-0.1-0.1-0.2-0.2-0.3c-0.1-0.1-0.2-0.4-0.4-0.6c-0.2-0.3-0.3-0.4-0.3-0.4c0.1-0.1,0.2-0.2,0.3-0.3
						c0.1-0.2,0.3-0.4,0.3-0.4c0-0.1,0.1-0.1,0.1-0.2c0,0,0,0.1,0.1,0.2c0,0.2,0.2,0.4,0.3,0.5c0.1,0.1,0.3,0.2,0.5,0.2
						c0.3,0,0.6-0.1,0.9-0.3l0.3-0.2l0.1,0.4c0,0.2,0.2,0.8,0.2,1.1l0.1,0.6l-0.1,0.4C744.7,407.5,744.5,407.7,744,407.7z"/>
					<path fill="#FFFF01" d="M743.4,404.9c-0.2-0.1-0.3-0.3-0.3-0.6c0-0.2,0.1-0.4,0.2-0.5c0.2-0.2,0.3-0.2,0.6-0.2
						c0.4,0,0.6,0.1,0.6,0.7c0,0.2,0,0.3,0,0.4c0,0.1-0.1,0.1-0.2,0.2c-0.2,0.1-0.2,0.2-0.6,0.2C743.6,405.1,743.5,405,743.4,404.9z
						"/>
					<path fill="#FFFF01" d="M747.2,404.6c-0.4-0.1-0.5-0.7-0.3-1.1c0.2-0.3,0.6-0.4,0.9-0.3c0.1,0.1,0.1,0,0.2,0.4
						c0.1,0.4,0.1,0.5,0,0.7C747.8,404.6,747.5,404.7,747.2,404.6z"/>
					<path fill="#FFFF01" d="M750.7,404.3c-0.3-0.1-0.4-0.2-0.5-0.5c0-0.3,0-0.4,0.2-0.7c0.1-0.2,0.5-0.3,0.7-0.3
						c0.1,0,0.4,0.1,0.5,0.3c0,0.1,0.1,0.1,0.1,0.2c0,0.2,0.1,0.3-0.2,0.6C751.2,404.3,751.2,404.3,750.7,404.3z"/>
				</g>
			</g>
		</g>
	</g>
</g>
</svg>
